<?xml version="1.0" encoding="UTF-8" standalone="no"?>
<!-- Created with Inkscape (http://www.inkscape.org/) -->

<svg
   xmlns:dc="http://purl.org/dc/elements/1.1/"
   xmlns:cc="http://creativecommons.org/ns#"
   xmlns:rdf="http://www.w3.org/1999/02/22-rdf-syntax-ns#"
   xmlns:svg="http://www.w3.org/2000/svg"
   xmlns="http://www.w3.org/2000/svg"
   xmlns:sodipodi="http://sodipodi.sourceforge.net/DTD/sodipodi-0.dtd"
   xmlns:inkscape="http://www.inkscape.org/namespaces/inkscape"
   version="1.1"
   id="svg3895"
   width="190"
   height="225"
   viewBox="0 0 190 225"
   sodipodi:docname="Bronx.svg"
   inkscape:version="0.92.1 r15371">
  <metadata
     id="metadata3901">
    <rdf:RDF>
      <cc:Work
         rdf:about="">
        <dc:format>image/svg+xml</dc:format>
        <dc:type
           rdf:resource="http://purl.org/dc/dcmitype/StillImage" />
        <dc:title></dc:title>
      </cc:Work>
    </rdf:RDF>
  </metadata>
  <defs
     id="defs3899" />
  <sodipodi:namedview
     pagecolor="#ffffff"
     bordercolor="#666666"
     borderopacity="1"
     objecttolerance="10"
     gridtolerance="10"
     guidetolerance="10"
     inkscape:pageopacity="0"
     inkscape:pageshadow="2"
     inkscape:window-width="1280"
     inkscape:window-height="657"
     id="namedview3897"
     showgrid="false"
     inkscape:zoom="1.0488889"
     inkscape:cx="95"
     inkscape:cy="112.5"
     inkscape:window-x="-8"
     inkscape:window-y="-8"
     inkscape:window-maximized="1"
     inkscape:current-layer="svg3895" />
  <path
     style="fill:#000000;stroke-width:0.80352086"
     d="m 11.779762,189.54477 c 0,-5.63444 0.26144,-7.02409 1.60159,-8.51271 2.14017,-2.37731 3.04196,-2.52688 18.14511,-3.0094 7.16804,-0.229 16.67609,-0.62651 21.12897,-0.88333 l 8.09615,-0.46694 v -7.5292 c 0,-9.13086 0.7258,-10.47539 6.70529,-12.42175 2.82942,-0.92101 4.35289,-1.86271 4.35289,-2.69073 0,-0.70062 0.93014,-2.27859 2.067,-3.50657 l 2.06701,-2.23271 -0.58448,-25.80831 -0.58446,-25.808269 h -17.57612 -17.57609 l -0.49368,-2.5544 c -0.27151,-1.40492 -0.49367,-13.54345 -0.49367,-26.9745 V 42.725831 H 22.837912 7.0405519 v -8.60844 c 0,-9.86091 0.46155,-10.54499 5.2956801,-7.84903 7.26679,4.05263 13.13528,5.01282 30.72849,5.02776 13.84033,0.0118 17.4576,0.27318 22.42608,1.62082 5.15158,1.39727 8.60787,1.60861 26.50709,1.6208 22.035788,0.0151 23.030178,0.18899 23.437038,4.10106 0.18911,1.81853 -0.1136,2.07145 -2.74948,2.29722 l -2.96202,0.25369 v 5.93873 c 0,6.78835 0.62991,7.74759 7.50374,11.42702 8.97614,4.80472 9.28063,5.54645 9.00936,21.94739 -0.19313,11.6765 -0.0401,13.66238 1.24703,16.172 1.27416,2.48454 1.54751,5.780449 2.07775,25.052409 0.454,16.50196 0.90836,22.92918 1.77222,25.06869 0.63888,1.58246 0.97666,3.06863 0.75055,3.30261 -0.22607,0.23397 -0.36029,4.80546 -0.29819,10.15886 0.0888,7.65816 -0.13392,9.94537 -1.04448,10.72744 -0.82871,0.71176 -5.07411,0.94642 -14.95321,0.8265 -15.35555,-0.1864 -14.82161,-0.32698 -26.159938,6.88795 -3.20219,2.03765 -5.6304,2.98614 -7.64479,2.98614 -4.23275,0 -5.43452,1.63154 -5.43452,7.37801 v 4.80903 l -2.79714,0.54306 c -1.53845,0.29866 -10.0597,0.37925 -18.93613,0.17907 -10.91744,-0.24621 -16.41374,-0.0793 -16.98832,0.51576 -0.52282,0.54152 -5.693,0.93515 -13.44848,1.02389 l -12.59912,0.14417 z m 43.64022,3.94601 19.54925,-0.41634 0.0936,-5.08144 c 0.0514,-2.79479 0.0618,-5.32508 0.023,-5.62287 -0.11747,-0.90259 4.66818,-2.31952 7.83411,-2.31952 1.63671,0 3.09426,-0.27587 3.2391,-0.61305 0.38204,-0.88962 7.67404,-5.92621 8.57998,-5.92621 0.42174,0 0.76956,-0.27588 0.77295,-0.61306 0.02,-1.97937 4.991568,-2.65659 19.503068,-2.65659 h 15.24498 v -11.28024 c 0,-6.23981 -0.34424,-11.63647 -0.77037,-12.07747 -0.42529,-0.44013 -0.96687,-8.84296 -1.20912,-18.75956 -0.60946,-24.95019 -0.99371,-29.299559 -2.76196,-31.263729 -1.34927,-1.49875 -1.42147,-2.66677 -0.92792,-15.00586 0.47083,-11.77103 0.36953,-13.74334 -0.84221,-16.39603 -1.5674,-3.43135 -4.10442,-5.56737 -6.6125,-5.56737 -0.94295,0 -1.90487,-0.5136 -2.13764,-1.14131 -0.23273,-0.62771 -1.8826,-1.80765 -3.66637,-2.62208 l -3.24317,-1.48077 0.22492,-7.39119 0.22494,-7.39119 2.962,-0.25368 c 3.27336,-0.28037 3.95908,-1.53202 1.1848,-2.1627 -0.97743,-0.22222 -10.84095,-0.54968 -21.918828,-0.72769 -20.18256,-0.32434 -21.6407,-0.4263 -23.52701,-1.64543 -1.98577,-1.28341 -15.74736,-2.0844 -27.42854,-1.59649 -11.8292,0.49412 -11.87623,0.48896 -19.99989,-2.19292 -4.47857,-1.47852 -8.62555,-3.18774 -9.21552,-3.79827 -0.58995,-0.61054 -1.2757601,-1.11007 -1.5240101,-1.11007 -0.24823,0 -0.45134,3.31051 -0.45134,7.35669 v 7.35667 H 23.469802 c 10.49648,0 15.12739,0.28754 15.79737,0.98091 0.69539,0.71962 0.94783,7.55979 0.94783,25.68153 0,13.58535 0.21575,25.28249 0.47944,25.99362 0.7102,1.91524 31.18864,1.94525 32.72283,0.0323 2.58157,-3.21907 3.06106,1.38547 4.3991,42.244509 l 0.4186,12.78313 -2.2895,2.74765 c -1.25919,1.51121 -2.49238,3.32765 -2.74036,4.03651 -0.24799,0.70889 -2.17403,1.9547 -4.28007,2.76846 -6.25552,2.41712 -6.50878,2.85818 -6.76375,11.77882 l -0.2249,7.86873 -8.2936,0.618 c -4.56151,0.33989 -14.5317,0.89166 -22.15602,1.22612 -17.69947,0.77644 -18.12727,0.9948 -18.12727,9.25284 v 5.7461 l 11.25561,-0.47151 c 6.1906,-0.25933 20.05277,-0.65886 30.80486,-0.88786 z"
     id="path3905-1"
     inkscape:connector-curvature="0" />
</svg>
