<?xml version="1.0" encoding="UTF-8" standalone="no"?>
<!-- Created with Inkscape (http://www.inkscape.org/) -->

<svg
   xmlns:dc="http://purl.org/dc/elements/1.1/"
   xmlns:cc="http://creativecommons.org/ns#"
   xmlns:rdf="http://www.w3.org/1999/02/22-rdf-syntax-ns#"
   xmlns:svg="http://www.w3.org/2000/svg"
   xmlns="http://www.w3.org/2000/svg"
   xmlns:sodipodi="http://sodipodi.sourceforge.net/DTD/sodipodi-0.dtd"
   xmlns:inkscape="http://www.inkscape.org/namespaces/inkscape"
   version="1.1"
   id="svg40"
   width="557"
   height="581"
   viewBox="0 0 557 581"
   sodipodi:docname="chicagoMapRegiones2.svg"
   inkscape:version="0.92.1 r15371">
  <metadata
     id="metadata46">
    <rdf:RDF>
      <cc:Work
         rdf:about="">
        <dc:format>image/svg+xml</dc:format>
        <dc:type
           rdf:resource="http://purl.org/dc/dcmitype/StillImage" />
        <dc:title></dc:title>
      </cc:Work>
    </rdf:RDF>
  </metadata>
  <defs
     id="defs44" />
  <sodipodi:namedview
     pagecolor="#ffffff"
     bordercolor="#666666"
     borderopacity="1"
     objecttolerance="10"
     gridtolerance="10"
     guidetolerance="10"
     inkscape:pageopacity="0"
     inkscape:pageshadow="2"
     inkscape:window-width="1280"
     inkscape:window-height="657"
     id="namedview42"
     showgrid="false"
     inkscape:zoom="0.81239243"
     inkscape:cx="242.2435"
     inkscape:cy="300.91097"
     inkscape:window-x="-8"
     inkscape:window-y="-8"
     inkscape:window-maximized="1"
     inkscape:current-layer="svg40" />
  <path
     style="fill:#000000;stroke-width:0.78372502"
     d="m 369.9058,483.01033 c -0.2738,-0.41032 -0.42516,-3.53825 -0.33635,-6.95098 0.11557,-4.44106 0.57868,-6.84034 1.6291,-8.4401 0.8072,-1.22932 1.28177,-2.51367 1.0546,-2.85411 -0.91856,-1.37651 -5.76422,-0.51773 -9.27494,1.64375 -3.36592,2.07234 -4.24316,2.25652 -10.7617,2.25949 -7.95821,0.004 -9.12538,-0.74036 -8.62827,-5.49985 0.20858,-1.99705 0.63631,-2.45741 2.46463,-2.65264 1.81658,-0.19397 2.30917,-0.71462 2.75406,-2.91098 0.38389,-1.89527 0.21383,-2.86713 -0.58354,-3.33486 -0.61891,-0.36305 -5.0256,-0.66529 -9.79261,-0.67164 -9.64058,-0.0128 -9.65593,-0.0214 -9.65593,-5.3529 v -2.95526 l -13.23344,-0.0893 c -7.27839,-0.0491 -13.50829,-0.0491 -13.84422,0 -0.33592,0.0491 -0.61077,-1.60772 -0.61077,-3.68187 v -3.77118 h -8.95802 c -8.22038,0 -8.95803,0.11661 -8.95803,1.41612 0,2.08114 -1.97168,3.24467 -5.03659,2.9722 -2.2617,-0.20106 -2.74167,-0.57636 -2.95738,-2.31233 -0.28013,-2.25457 -2.03082,-3.01659 -6.25743,-2.72367 -1.3437,0.0931 -7.31704,0.10725 -13.27408,0.0314 l -10.83099,-0.13794 0.24424,-4.21302 0.24423,-4.21303 8.95802,-0.34902 c 4.92691,-0.19196 9.4161,-0.49159 9.97598,-0.66585 0.74783,-0.23275 1.02091,-3.07508 1.02907,-10.71126 0.0147,-13.73723 0.0326,-13.7885 4.80719,-13.7885 4.30603,0 5.76282,0.94084 5.78092,3.73348 0.0222,3.434 0.98427,4.01387 5.78901,3.48947 2.40795,-0.2628 6.48526,-0.668 9.0607,-0.90043 2.66339,-0.24037 4.72227,-0.80026 4.7746,-1.29841 0.0506,-0.48169 0.18188,-1.98731 0.2917,-3.34582 0.2653,-3.28162 0.64386,-3.52678 5.57477,-3.61018 l 4.2211,-0.0714 0.22401,-11.25472 0.224,-11.25471 -31.31369,0.25648 -31.31369,0.25648 -0.34617,-11.19292 c -0.19039,-6.15608 -0.55572,-11.8717 -0.81186,-12.70136 -0.25613,-0.82967 -0.49373,-6.00562 -0.528,-11.50212 l -0.0623,-9.99365 h -30.49065 c -16.76985,0 -30.66217,-0.25704 -30.87182,-0.5712 -0.20964,-0.31417 -0.64681,-6.38588 -0.97148,-13.4927 l -0.59031,-12.92151 2.30793,-1.40347 c 1.91961,-1.16734 4.7127,-1.49772 16.59997,-1.96353 7.8606,-0.30803 18.41474,-0.75346 23.45363,-0.98986 l 9.16161,-0.4298 v -7.78008 c 0,-8.82214 -0.023,-8.78421 6.63683,-10.94807 3.58444,-1.16464 4.40277,-1.76095 4.6146,-3.36267 0.18061,-1.36565 0.88621,-2.09313 2.36319,-2.43645 l 2.10569,-0.48948 -0.52837,-12.90007 c -0.29061,-7.09505 -0.55843,-18.5003 -0.59516,-25.345 -0.0367,-6.8447 -0.25162,-12.02066 -0.47753,-11.50212 -0.31098,0.71379 -4.72494,0.9428 -18.17181,0.9428 -15.44451,0 -17.82552,-0.15561 -18.25536,-1.19305 -0.27188,-0.65617 -0.49431,-11.65058 -0.49431,-24.43201 0,-20.31091 -0.15931,-23.29559 -1.26438,-23.68834 -1.67386,-0.5949 -14.79062,0.21666 -17.79115,1.10077 -1.29857,0.38263 -4.63894,0.69568 -7.42305,0.69568 -6.65226,0 -9.75009,-1.95395 -8.99647,-5.67451 0.37753,-1.86384 0.17566,-2.56081 -0.84697,-2.92426 -1.08469,-0.3855 -1.23682,-1.09062 -0.79185,-3.67014 0.30292,-1.75613 0.89849,-3.51539 1.32346,-3.90948 0.42497,-0.39409 0.77268,-1.42928 0.77268,-2.30042 0,-0.87115 0.39737,-1.95193 0.88305,-2.40175 0.48568,-0.44982 1.0811,-2.84077 1.32317,-5.31323 l 0.44013,-4.49537 -5.1517,-0.4987 c -3.9939,-0.38662 -5.65085,-0.94162 -7.37273,-2.46949 l -2.22105,-1.97078 -16.1419,0.54678 c -15.7677,0.5341 -16.17794,0.50987 -17.69673,-1.04542 -1.78994,-1.83297 -3.02953,-6.80012 -3.29678,-13.21061 -0.13921,-3.33904 -0.57938,-4.76105 -1.75103,-5.65678 -1.8869,-1.44256 -2.09093,-5.36116 -0.34373,-6.60165 0.84273,-0.59832 1.37217,-2.73936 1.65521,-6.69361 0.43888,-6.1313 -0.13091,-7.23251 -2.97855,-5.75655 -1.05821,0.54848 -2.28015,0.35587 -4.55179,-0.71747 -2.46976,-1.16695 -4.21118,-1.39235 -8.50915,-1.10143 -3.06437,0.20743 -5.89909,0.82443 -6.54773,1.42518 -0.671333,0.62176 -1.255363,3.05195 -1.413813,5.88301 -0.38677,6.91039 -1.11045,8.86803 -3.7446,10.12962 -1.26898,0.60777 -4.34099,1.10503 -6.82669,1.10503 -4.24562,0 -4.51945,0.11127 -4.51945,1.83649 0,1.01007 -0.3574,2.70711 -0.79421,3.77119 -0.75272,1.83363 -1.10367,1.93412 -6.71852,1.92372 -8.58123,-0.0159 -14.91506,-2.20577 -18.80985,-6.50335 -2.58406,-2.85129 -3.80895,-3.21221 -3.80895,-1.12233 0,0.98051 -0.78044,1.55876 -2.54489,1.88559 -3.58179,0.66347 -3.47266,0.70064 -5.00757,-1.70591 -0.94383,-1.47981 -2.28993,-2.3339 -4.20198,-2.66611 -2.62499,-0.45609 -2.82993,-0.70158 -3.0623,-3.66803 -0.24177,-3.08665 -0.33203,-3.17923 -3.09931,-3.17923 h -2.85028 l -0.53719,-13.953455 c -0.57891,-15.03688 -0.31913,-18.53674 1.52095,-20.49161 1.04858,-1.11398 0.9842,-1.44421 -0.56041,-2.87477 -2.46694,-2.28479 -1.87928,-4.74091 1.27646,-5.33491 1.3828,-0.26029 3.03189,-0.77682 3.66465,-1.14784 1.75678,-1.03011 6.48732,-0.93687 10.05199,0.19813 3.38473,1.07771 4.19816,0.79019 4.66768,-1.64985 0.24046,-1.24966 1.03521,-1.548 4.63212,-1.73883 2.9146,-0.15463 4.97735,0.15528 6.27506,0.9428 1.06325,0.64523 2.88387,1.17315 4.04582,1.17315 1.16194,0 1.90726,0.30775 1.65626,0.68389 -0.25101,0.37615 0.22402,0.51911 1.05562,0.3177 0.83159,-0.20141 6.05421,0.69318 11.60583,1.98798 9.10856,2.12438 12.12977,3.46947 12.12977,5.40037 0,0.30759 0.69557,0.76372 1.54573,1.01362 3.45042,1.01427 8.693563,18.64779 6.614523,22.245695 -0.85771,1.48432 -0.6746,1.53719 5.32327,1.53719 6.3742,0 9.35881,-1.13209 9.99047,-3.789495 0.14551,-0.61218 1.04314,-1.88579 1.99475,-2.83026 1.54234,-1.53079 1.63383,-2.05154 0.84269,-4.7967 -0.77345,-2.68378 -0.68967,-3.26269 0.65194,-4.50525 0.84668,-0.78417 1.81427,-1.41951 2.1502,-1.41186 1.27082,0.0289 13.69421,2.16825 14.86217,2.5593 0.67185,0.22494 3.7868,0.55474 6.92211,0.73289 3.13531,0.17815 6.70834,0.56218 7.94007,0.85339 2.08695,0.4934 2.2395,0.36907 2.2395,-1.82524 0,-1.29509 0.33075,-2.94407 0.735,-3.66439 2.12483,-3.78622 2.63104,-7.95561 2.37976,-19.60096 l -0.26448,-12.25738 2.59863,10e-4 c 1.42924,5.6e-4 2.82511,-0.33838 3.10193,-0.75321 0.67323,-1.00888 6.04619,-0.95857 9.28441,0.0869 l 2.60535,0.84117 -0.13514,9.07355 c -0.12131,8.14458 0.0204,9.15506 1.38441,9.86959 2.45608,1.28662 13.3111,0.75101 16.58532,-0.81837 5.15765,-2.47212 5.10898,-2.34406 2.02733,-5.33471 -4.00165,-3.88349 -3.58972,-5.72943 1.34459,-6.02519 2.4788,-0.14857 4.27351,-0.73249 5.216,-1.69703 1.823,-1.86566 3.33932,-1.87017 4.41241,-0.0131 0.46319,0.80157 1.55172,1.66597 2.41897,1.9209 0.98141,0.28849 2.0827,1.87416 2.91659,4.19939 0.73688,2.05473 1.50263,3.73587 1.70167,3.73587 0.19904,0 0.71825,-0.86808 1.15379,-1.92906 0.70276,-1.71193 1.18175,-1.90295 4.25526,-1.69704 l 3.46337,0.23203 0.24865,3.59259 c 0.20533,2.9666 0.63102,3.80682 2.4431,4.8221 1.20694,0.67624 3.18738,1.85968 4.40098,2.62988 2.01828,1.28088 4.11856,1.40035 24.61904,1.40035 h 22.41252 l 0.42856,-1.69704 c 0.23571,-0.93336 0.51754,-6.61843 0.62629,-12.63347 l 0.19773,-10.93644 h 17.10168 c 16.68668,0 19.15074,-0.27297 19.12512,-2.11867 -0.007,-0.53974 -0.32756,-0.44671 -0.8019,0.23308 -0.63835,0.91486 -0.79181,0.80661 -0.8019,-0.56568 -0.0117,-1.59573 0.32029,-1.69704 5.56188,-1.69704 5.95747,0 8.26987,1.17969 8.26987,4.21893 0,1.83603 4.43272,10.33255 6.03188,11.56174 0.65695,0.50497 1.44077,2.84596 1.74181,5.2022 0.30105,2.35625 1.05172,6.32052 1.66817,8.80951 0.61646,2.48898 1.13633,5.71334 1.15528,7.16525 0.0273,2.09279 0.59268,3.02325 2.72821,4.49005 2.51918,1.73029 2.62361,1.97471 1.61133,3.77119 -1.53052,2.7162 -1.37541,3.61308 1.00638,5.81901 1.4996,1.38887 1.84837,2.17586 1.22155,2.756395 -2.68548,2.4872 1.7272,8.4376 8.7005,11.73245 3.76823,1.78046 7.98386,2.10232 8.61328,0.65762 0.78535,-1.80261 0.5343,3.8738 -0.25653,5.80027 -0.43773,1.06629 -2.07879,2.50534 -3.64683,3.19787 -2.69277,1.18929 -2.94127,1.18347 -4.47831,-0.10483 -2.07403,-1.73839 -1.45045,-2.65807 1.84337,-2.71866 2.4836,-0.0457 2.5123,-0.0798 0.64828,-0.77037 -3.65273,-1.35326 -4.97291,-0.26908 -4.96145,4.07451 0.01,3.60346 0.3595,4.31071 4.47901,9.05056 2.45778,2.8279 4.4687,5.62801 4.4687,6.22246 0,1.61404 -3.58411,1.3216 -5.2979,-0.43229 -2.01911,-2.06636 -2.42409,-1.37802 -0.84898,1.44301 1.38681,2.48378 2.74761,2.91668 4.38919,1.39631 1.24824,-1.15608 2.54043,0.38273 2.55959,3.0481 0.007,0.95397 0.58105,2.75282 1.27598,3.99744 0.69492,1.24462 1.04572,2.89849 0.77953,3.67524 -0.62404,1.82098 1.08508,10.93442 2.53239,13.50338 0.6133,1.0886 1.11735,2.35777 1.12011,2.82036 0.002,0.4626 0.7547,1.72378 1.67098,2.80264 1.34573,1.5845 2.12843,1.87589 4.07183,1.51591 3.62836,-0.67209 3.29418,2.07963 -0.48104,3.96101 -2.75152,1.37123 -2.86192,1.58015 -2.35444,4.45563 0.58385,3.3081 1.98783,5.12812 5.39297,6.99107 1.22726,0.67144 2.4462,2.08838 2.70875,3.14876 0.26254,1.06039 1.22735,2.76941 2.14401,3.79784 1.60708,1.80304 1.7067,1.81915 2.78705,0.45078 0.69312,-0.87792 2.28747,-1.48472 4.18077,-1.59118 3.97815,-0.22369 5.09627,0.22279 5.98606,2.39034 0.50264,1.22445 1.37572,1.78273 2.7879,1.78273 2.29895,0 2.41803,0.227 1.21306,2.3123 -0.634,1.09715 -1.7164,1.45889 -4.36535,1.45889 -1.93729,0 -5.22257,0.21584 -7.30065,0.47963 l -3.7783,0.47964 v 3.31809 c 0,1.82495 -0.58872,4.15024 -1.30826,5.16732 -1.00389,1.419 -1.23896,3.26273 -1.01036,7.92481 0.33873,6.90826 0.82367,7.49101 6.24852,7.50879 l 3.52271,0.0115 -0.26525,8.67157 c -0.14589,4.76936 -0.50057,8.67254 -0.78818,8.67373 -0.28761,0.002 -0.78403,-3.37644 -1.10315,-7.50583 l -0.58021,-7.50799 -3.53024,-0.49031 c -5.69824,-0.79141 -6.29889,-1.93892 -5.77292,-11.02891 0.24768,-4.28043 0.73983,-9.81904 1.09369,-12.30802 l 0.64337,-4.52543 h 8.33944 c 5.92096,0 8.4524,-0.27341 8.72888,-0.94279 0.25621,-0.62029 -0.41767,-0.9428 -1.96995,-0.9428 -1.29765,0 -2.90906,-0.50911 -3.58091,-1.13135 -1.56031,-1.44511 -3.0558,-1.42724 -6.46212,0.0772 -2.68191,1.18448 -2.78671,1.16571 -5.26261,-0.94279 -1.38942,-1.18324 -2.75908,-3.02432 -3.0437,-4.09129 -0.28462,-1.06696 -1.60471,-2.53474 -2.93353,-3.26174 -4.48636,-2.45448 -5.6238,-4.17705 -5.6238,-8.51681 0,-3.30293 0.25014,-4.01049 1.42514,-4.03118 1.23048,-0.0216 5.08783,-2.3802 5.09083,-3.11275 5.8e-4,-0.14092 -1.53906,-0.25622 -3.42143,-0.25622 -3.77344,0 -3.68568,0.0944 -7.55741,-8.13041 -1.37724,-2.92568 -2.06388,-5.77803 -2.088,-8.67372 -0.0286,-3.42782 -2.13685,-13.53867 -2.3522,-11.2805 -0.0302,0.317 -1.51619,-0.31923 -3.30214,-1.41385 -2.26391,-1.38757 -3.49553,-2.81825 -4.06729,-4.72469 -1.81589,-6.05469 -0.30715,-7.54233 3.62104,-3.57039 1.48035,1.49684 3.33523,2.72153 4.12195,2.72153 1.07232,0 0.53515,-0.92508 -2.14575,-3.6953 -1.96688,-2.03241 -4.21746,-3.92202 -5.00128,-4.19913 -1.18957,-0.42055 -1.42514,-1.47973 -1.42514,-6.40768 v -5.90385 l 3.34004,-0.29501 c 3.85374,-0.34038 6.13505,0.81763 5.34886,2.71513 -0.29356,0.70853 -0.87748,1.09148 -1.29759,0.851 -0.42012,-0.24047 -0.99403,-0.0923 -1.27536,0.32931 -1.05272,1.57757 2.18077,0.69335 4.15668,-1.13667 3.04876,-2.82366 2.30682,-4.46259 -2.136,-4.71842 -4.86937,-0.28039 -8.64077,-2.08276 -12.76402,-6.09997 -2.36112,-2.3004 -3.69769,-4.44495 -4.35726,-6.99133 -0.52327,-2.020195 -1.28104,-3.861765 -1.68393,-4.092385 -0.4029,-0.23062 -0.73254,-1.98958 -0.73254,-3.90881 0,-2.57257 -0.47773,-3.96048 -1.81806,-5.28185 -1.27817,-1.2601 -1.98669,-3.17833 -2.38594,-6.45963 -1.85738,-15.26513 -2.05365,-16.11647 -4.48515,-19.4551 -3.026,-4.15491 -5.15507,-8.38974 -5.15507,-10.25371 0,-2.02988 -1.58357,-3.24237 -4.2347,-3.24237 -1.65286,0 -2.28022,0.37352 -2.28022,1.35762 0,2.23255 -1.73111,3.1678 -5.86344,3.1678 h -3.90895 v 3.4936 c 0,2.08907 0.61747,4.43907 1.53587,5.84534 0.84474,1.29346 1.81111,3.20025 2.14749,4.23733 0.33638,1.03708 1.75241,3.41292 3.14672,5.27966 l 2.53512,3.39407 0.24026,21.00046 c 0.17378,15.190455 -0.0228,21.293985 -0.7105,22.061445 -0.71942,0.80285 -3.30407,1.06099 -10.6234,1.06099 h -9.67268 v 3.38325 c 0,1.86078 -0.42177,4.84375 -0.93726,6.62883 -1.75925,6.09193 -0.92867,7.47588 11.47846,19.12609 7.37438,6.92448 12.66734,11.24912 15.10615,12.34256 2.06484,0.92577 4.36776,2.57779 5.11762,3.67116 0.74986,1.09337 1.83025,2.25936 2.40088,2.5911 0.57063,0.33173 1.03751,1.07253 1.03751,1.6462 0,0.57368 0.76638,1.26833 1.70307,1.54368 2.57551,0.75708 4.13216,5.06975 3.90482,10.81821 -0.17686,4.47199 -0.0113,5.08548 1.5706,5.82012 0.97257,0.45166 2.54327,1.46988 3.49045,2.26271 0.94717,0.79283 2.4374,1.3319 3.31162,1.19792 2.11886,-0.32471 3.93548,1.16903 3.93548,3.236 0,0.92199 0.73293,2.29065 1.62873,3.04149 0.8958,0.75084 1.62873,1.76906 1.62873,2.26271 0,0.49366 0.73293,1.51188 1.62873,2.26271 1.29714,1.08722 1.62874,2.32303 1.62874,6.07011 0,3.63344 0.29924,4.8113 1.31393,5.17192 0.8735,0.31045 1.16097,1.00876 0.8576,2.0832 -0.25099,0.88893 0.0739,3.50166 0.72197,5.80609 0.64808,2.30442 1.17832,6.64154 1.17832,9.63807 0,5.35137 0.0389,5.45246 2.18956,5.68687 2.0448,0.22288 2.25551,0.60286 3.18723,5.74765 1.48389,8.19382 0.87767,7.69016 9.25624,7.69016 h 7.35485 l 0.0256,-2.45127 c 0.0182,-1.73806 0.62672,-2.85688 2.09162,-3.84531 1.1363,-0.76672 2.30519,-1.17253 2.5975,-0.90178 0.29233,0.27073 0.0174,0.78652 -0.61096,1.14619 -0.93882,0.53738 -0.97091,1.18422 -0.18,3.62912 0.52934,1.63635 0.96245,4.02426 0.96245,5.30645 0,1.82415 0.97434,3.2265 4.47901,6.44658 2.46345,2.26341 4.47901,4.61482 4.47901,5.22535 0,0.61053 1.52501,2.48095 3.38892,4.15649 2.99706,2.69418 3.43178,3.52514 3.75962,7.18647 0.24957,2.78731 -0.0311,4.88598 -0.85901,6.42303 -1.33248,2.47381 -1.09979,3.12783 1.11284,3.12783 0.7867,0 2.52975,1.01822 3.87346,2.26271 1.3437,1.24449 3.06679,2.26272 3.82909,2.26272 1.08384,0 1.28651,0.46064 0.92969,2.11302 -0.37876,1.75393 0.0176,2.46324 2.3324,4.17387 2.53359,1.87235 2.77088,2.38197 2.59399,5.57121 -0.1867,3.36642 -0.0862,3.53993 2.45201,4.23183 3.23774,0.88262 3.42651,2.62022 0.53741,4.94678 -1.8839,1.51709 -1.98156,1.83383 -0.91398,2.96441 0.65741,0.6962 1.44131,2.85025 1.742,4.78678 0.63122,4.06516 1.9888,5.40659 5.3813,5.31726 1.32819,-0.035 2.41488,0.27735 2.41488,0.69407 0,1.09655 -1.90174,2.69106 -3.72223,3.12091 -1.39501,0.32938 -1.37113,0.38078 0.21312,0.45846 0.98134,0.0481 2.01075,0.4269 2.28757,0.84173 0.27682,0.41483 1.13316,0.75424 1.90299,0.75424 1.55219,0 4.20475,2.50794 4.20475,3.97549 0,0.51773 0.73293,1.36524 1.62873,1.88337 0.8958,0.51813 1.62873,1.45476 1.62873,2.0814 0,0.83866 0.53728,1.01444 2.03592,0.66607 1.6004,-0.37201 2.03591,-0.18612 2.03591,0.86904 0,0.73826 -0.60997,1.96654 -1.35549,2.7295 -1.27198,1.30175 -1.23815,1.50289 0.54914,3.2649 1.04755,1.03273 2.5475,1.87769 3.33324,1.87769 0.78573,0 1.97829,0.50911 2.65015,1.13135 0.80988,0.75008 2.84145,1.13136 6.0283,1.13136 4.29992,0 4.92219,0.19978 5.90162,1.89474 1.00044,1.73132 0.89984,2.08329 -1.1665,4.08084 -2.12157,2.05094 -2.16812,2.23233 -0.75285,2.93383 2.00282,0.99274 6.96567,1.35617 8.27613,0.60605 1.43165,-0.81948 3.41033,-0.009 3.41033,1.39731 0,0.63527 0.67961,1.15503 1.51025,1.15503 1.36834,0 1.55238,0.90358 1.95865,9.61623 0.30411,6.52172 0.16412,9.77896 -0.43502,10.12191 -0.571,0.32684 -0.11168,1.44276 1.29881,3.15547 1.20023,1.4574 2.19389,3.60582 2.20813,4.77428 0.0143,1.16847 0.56395,2.78331 1.22155,3.58855 1.6302,1.99619 1.5021,3.41624 -0.48487,5.37512 -1.65851,1.63505 -1.67952,2.2111 -1.60416,43.98293 l 0.0763,42.32618 h -50.46718 c -32.39581,0 -50.64543,-0.26714 -50.965,-0.74602 z m 98.07972,-44.4072 c -0.0898,-28.46957 0.14156,-41.09462 0.7732,-42.1877 1.33102,-2.3034 1.09712,-4.74657 -0.71841,-7.50442 -1.7735,-2.69397 -2.87191,-2.96487 -5.25436,-1.29593 -0.92897,0.65076 -3.36349,1.10737 -5.90416,1.10737 h -4.32336 v -2.46475 c 0,-1.3956 0.89586,-3.68577 2.06527,-5.27966 1.62153,-2.21009 2.5954,-2.81491 4.53255,-2.81491 4.00784,0 5.40295,-1.16407 6.36275,-5.30898 1.87256,-8.08678 0.22572,-11.28424 -5.81191,-11.28424 -4.57754,0 -11.22049,-3.30187 -11.22049,-5.57713 0,-0.97929 0.5497,-2.20306 1.22155,-2.71948 2.14298,-1.6472 1.3331,-2.26133 -3.05387,-2.31572 -5.36471,-0.0665 -6.30782,-0.42412 -10.25223,-3.88735 -2.12284,-1.86389 -3.39048,-3.75295 -3.76755,-5.6145 -0.57179,-2.82284 -3.31168,-6.24688 -5.0181,-6.27109 -0.50503,-0.008 -1.37445,-0.52214 -1.93203,-1.14439 -0.58476,-0.65256 -2.36099,-1.13135 -4.19711,-1.13135 -3.79099,0 -4.58189,-1.2257 -3.41147,-5.28692 0.72956,-2.53152 0.58958,-3.01659 -1.49377,-5.1761 -1.26433,-1.31055 -2.29877,-3.10174 -2.29877,-3.98045 0,-0.87869 -0.43425,-2.93999 -0.96499,-4.58065 -0.74374,-2.29911 -0.74374,-3.31116 0,-4.41414 1.26637,-1.87806 1.24326,-1.96248 -0.66375,-2.42435 -1.35137,-0.3273 -1.62873,-1.02879 -1.62873,-4.11937 0,-2.8275 -0.41248,-4.07064 -1.7121,-5.15994 -2.19308,-1.83817 -4.19849,-5.41619 -3.56649,-6.36329 0.26869,-0.40264 0.0289,-0.73208 -0.53293,-0.73208 -0.56181,0 -2.07558,-0.93337 -3.36395,-2.07415 -2.20186,-1.94963 -2.72738,-2.06199 -8.75328,-1.87146 -6.13509,0.19398 -6.53318,0.10316 -9.25705,-2.11185 -1.56546,-1.273 -3.25777,-3.4693 -3.76069,-4.88065 -0.50292,-1.41135 -1.59083,-2.76493 -2.41758,-3.00796 -0.82675,-0.24302 -1.70877,-0.93805 -1.96004,-1.54451 -0.62453,-1.50733 -1.86632,-1.38748 -2.32134,0.22404 -0.69047,2.4454 -8.42213,3.169 -38.09055,3.5649 l -28.09562,0.37492 -0.40718,8.60492 c -0.57689,12.19129 0.0167,11.77265 -16.69129,11.77265 -15.30117,0 -18.21707,0.60113 -25.6782,5.29379 -3.80951,2.39598 -6.20081,3.34324 -9.08855,3.60023 l -3.91883,0.34875 v 4.70486 c 0,3.61772 -0.39001,5.16407 -1.68784,6.69218 l -1.68783,1.9873 h -32.51552 -32.51553 v 3.77119 3.77119 h 30.03182 c 23.43058,0 30.22225,0.21252 30.89821,0.96685 0.82626,0.92208 1.12674,5.30428 2.22435,32.43921 l 0.48178,11.91031 24.57674,-0.36809 c 13.51722,-0.20246 27.34989,-0.58049 30.73929,-0.84008 4.85962,-0.37219 6.37014,-0.24031 7.14445,0.62379 0.70659,0.78853 0.91956,4.98067 0.75957,14.95095 l -0.22234,13.85519 -4.63959,0.22501 -4.6396,0.22501 -0.24659,3.54618 -0.24661,3.54617 -5.29338,0.49728 c -2.91136,0.2735 -6.39277,1.03508 -7.73647,1.69239 -3.11442,1.5235 -9.28801,1.54768 -11.60374,0.0454 -0.98262,-0.63743 -2.16753,-2.46927 -2.63314,-4.07075 -0.46561,-1.60148 -1.39229,-3.10573 -2.05928,-3.34278 -1.0397,-0.36952 -1.2127,1.13068 -1.2127,10.51605 0,10.61715 -0.0603,11.00284 -1.9989,12.79836 -1.84308,1.70699 -2.60488,1.85131 -9.77239,1.85131 -4.63942,0 -7.77349,0.30409 -7.77349,0.75424 0,0.47048 4.7628,0.75423 12.65968,0.75423 12.35533,0 12.70775,0.0445 14.65858,1.85132 l 1.9989,1.8513 1.99891,-1.8513 c 1.90639,-1.76565 2.46411,-1.85132 12.05261,-1.85132 6.73373,0 10.37642,0.29889 11.03095,0.90509 0.53748,0.4978 0.97724,2.53424 0.97724,4.52542 v 3.62034 h 12.35495 c 13.93792,3e-5 15.33348,0.45687 15.33348,5.01947 v 2.52293 h 7.77349 c 7.16751,0 7.92931,0.14432 9.77238,1.85132 2.65693,2.46074 2.81827,8.29407 0.31107,11.24612 l -1.68784,1.98731 h 4.75626 c 3.85499,0 5.37076,-0.39211 7.99917,-2.06926 2.38985,-1.52494 4.23798,-2.07055 7.02565,-2.07416 6.33545,-0.008 8.79037,3.42934 5.99467,8.39407 -0.66909,1.1882 -1.21879,4.11196 -1.22155,6.49723 l -0.005,4.33687 h 47.27438 47.27438 z m -106.53216,27.28386 c 0.96509,-1.10192 0.9509,-1.17914 -0.10388,-0.56568 -0.67185,0.39076 -4.51973,0.90547 -8.55084,1.14381 l -7.32929,0.43335 7.43317,0.13233 c 6.11426,0.10885 7.63148,-0.0941 8.55084,-1.14381 z m 4.39668,-3.10362 c -0.25074,-0.23222 -0.90785,-4.8e-4 -1.46027,0.51498 -0.79829,0.7449 -0.70475,0.83153 0.45589,0.42222 0.80314,-0.28324 1.25511,-0.70498 1.00438,-0.9372 z m -22.21302,-11.26104 c -2.35148,-0.15236 -6.19935,-0.15236 -8.55084,0 -2.35148,0.15236 -0.42754,0.27702 4.27542,0.27702 4.70297,0 6.6269,-0.12466 4.27542,-0.27702 z m -45.16538,-16.59366 c -2.55788,-0.14919 -6.95545,-0.15041 -9.77238,-0.003 -2.81694,0.1477 -0.72413,0.26976 4.65068,0.27126 5.37482,0.002 7.67958,-0.11936 5.1217,-0.26856 z m 5.27266,-58.80494 c -1.00162,-0.17903 -2.83394,-0.18367 -4.07182,-0.0103 -1.23789,0.17336 -0.41839,0.31984 1.82112,0.32551 2.23951,0.005 3.25232,-0.13619 2.2507,-0.31521 z m 133.12063,-36.12815 c -0.27061,-0.25062 -0.973,-0.27741 -1.56087,-0.0595 -0.64964,0.24077 -0.45668,0.41949 0.49202,0.45568 0.85847,0.0327 1.33946,-0.14551 1.06885,-0.39614 z M 209.9476,317.71904 c 0.40598,-0.60838 5.62642,-0.75213 18.26334,-0.50289 l 17.69488,0.34899 -0.523,-4.72788 c -0.42218,-3.81644 -0.24409,-5.13643 0.92381,-6.84718 1.51655,-2.22148 2.13534,-2.49354 6.66171,-2.92894 1.52889,-0.14707 4.12037,-1.26516 5.75885,-2.48466 4.6442,-3.45662 8.0689,-4.07448 25.25755,-4.55676 l 15.88013,-0.44557 -0.08,-9.80508 c -0.0441,-5.3928 -0.53733,-12.52034 -1.09625,-15.83899 -0.55891,-3.31864 -1.27031,-13.16144 -1.58088,-21.87288 -0.45812,-12.84991 -0.82661,-16.26599 -1.95262,-18.10169 -0.76336,-1.24449 -1.39018,-3.46761 -1.39294,-4.94025 -0.002,-1.47265 -0.3851,-3.02956 -0.84965,-3.45981 -0.54909,-0.50855 -0.57939,-1.42838 -0.0866,-2.62885 0.41692,-1.01562 0.81317,-6.3366 0.88055,-11.8244 0.11032,-8.9856 -0.0228,-10.02227 -1.33856,-10.42478 -0.80357,-0.24583 -2.61583,-0.91974 -4.02722,-1.49757 -1.41138,-0.57784 -2.81179,-1.05061 -3.11203,-1.05061 -0.30022,0 -1.09556,-0.50911 -1.76741,-1.13136 -0.67186,-0.62224 -2.03824,-1.13135 -3.03642,-1.13135 -2.2241,0 -3.79113,-1.33255 -3.21167,-2.7311 0.23672,-0.57134 -0.70807,-2.02379 -2.09955,-3.22765 -1.39148,-1.20386 -2.52996,-2.88431 -2.52996,-3.73435 0,-1.82397 2.05431,-3.08188 4.18879,-2.56491 1.17273,0.28403 1.62889,-0.16359 2.02204,-1.98422 0.44799,-2.07456 0.83086,-2.35099 3.25617,-2.35099 1.51167,0 2.74848,-0.32876 2.74848,-0.73057 0,-0.40181 -0.60981,-0.51383 -1.35513,-0.24894 -0.91119,0.32383 -1.16224,0.19253 -0.76631,-0.40079 0.44134,-0.66138 -3.12485,-0.88241 -14.23718,-0.88241 -14.23557,0 -15.12973,-0.0901 -22.45285,-2.26272 -7.76111,-2.30254 -19.00849,-3.19511 -19.00849,-1.50847 0,0.41483 -1.78624,0.75424 -3.96944,0.75424 -2.18319,0 -5.52745,0.50911 -7.43168,1.13135 -2.30114,0.75195 -6.57536,1.13136 -12.74521,1.13136 -8.91247,0 -9.31114,-0.0686 -9.9886,-1.71891 -0.41772,-1.01756 -1.4595,-1.7715 -2.55326,-1.84781 -1.0162,-0.0709 -2.06384,-0.401 -2.32808,-0.73356 -0.74433,-0.93675 -4.27461,-2.34954 -7.19898,-2.88098 -1.45568,-0.26453 -2.64669,-0.79341 -2.64669,-1.17528 0,-1.25576 -2.3243,-0.72402 -2.73461,0.62561 -1.18268,3.89032 -1.40289,6.22245 -0.58756,6.22245 0.4835,0 0.87907,0.87083 0.87907,1.93518 0,1.06435 0.37092,2.57707 0.82426,3.36161 0.93249,1.61372 6.39028,2.87926 7.20499,1.67069 0.28688,-0.42558 4.00301,-0.99334 8.25807,-1.26169 4.25506,-0.26835 9.56879,-0.60397 11.8083,-0.74582 6.91486,-0.43797 6.9104,-0.4551 6.91674,26.52944 l 0.005,22.81568 h 13.42535 c 7.93403,0 14.93295,-0.37346 17.11119,-0.91303 3.3475,-0.82922 3.83533,-0.77459 5.31416,0.59505 1.48249,1.37303 1.63742,2.58611 1.73013,13.5465 0.056,6.62113 0.44281,12.43988 0.85957,12.93055 0.42395,0.4991 0.64414,6.54201 0.49986,13.71738 -0.25785,12.82306 -0.25828,12.82563 -2.4974,14.98813 -1.23173,1.18958 -2.2395,2.71823 -2.2395,3.397 0,1.65638 -1.46098,2.39076 -4.44815,2.23595 -1.73686,-0.09 -3.27093,0.5452 -5.14888,2.13204 l -2.6749,2.26028 0.55224,6.77541 0.55226,6.77541 h -3.37431 c -1.85587,0 -3.37431,0.2958 -3.37431,0.65733 0,0.75551 -8.19499,1.39924 -25.65252,2.01504 -14.94071,0.52702 -15.74513,0.67177 -16.70314,3.00548 -0.42097,1.02549 -1.32418,1.86453 -2.00711,1.86453 -0.92796,0 -1.24171,0.85396 -1.24171,3.3797 0,4.00292 0.0756,4.03337 10.99394,4.42763 9.88251,0.35686 16.88967,-0.0913 17.579,-1.12431 z m 208.40747,-10.45421 c 0,-0.41483 -0.36646,-0.75424 -0.81436,-0.75424 -0.4479,0 -0.81437,0.33941 -0.81437,0.75424 0,0.41483 0.36647,0.75424 0.81437,0.75424 0.4479,0 0.81436,-0.33941 0.81436,-0.75424 z m -22.92684,-26.29822 c 0.96434,-0.77461 1.75334,-1.79283 1.75334,-2.26271 0,-0.46987 0.36646,-0.85432 0.81436,-0.85432 1.80216,0 0.81183,-5.06188 -1.41719,-7.24368 -1.22735,-1.20136 -3.23484,-3.62677 -4.46108,-5.3898 -1.22623,-1.76303 -2.58365,-3.20551 -3.0165,-3.20551 -0.43283,0 -2.18161,-1.1863 -3.88617,-2.63622 -1.70455,-1.44992 -3.55727,-2.63785 -4.11715,-2.63983 -0.55987,-0.002 -1.01795,-0.28854 -1.01795,-0.63677 0,-1.43078 -4.94537,-2.60463 -12.48769,-2.96411 -8.71216,-0.41524 -10.61634,-1.45858 -7.11995,-3.90118 1.69552,-1.18451 1.78063,-1.64252 1.24344,-6.69162 -0.57185,-5.37483 -0.59667,-5.4201 -2.9727,-5.4201 -4.67271,0 -4.76136,-0.36178 -6.00619,-24.51271 -0.42684,-8.28108 -0.7461,-10.0148 -2.0541,-11.15438 -0.85179,-0.74211 -1.54871,-1.67548 -1.54871,-2.07415 0,-0.39867 -0.50696,-0.72486 -1.12657,-0.72486 -1.18007,0 -2.10091,-2.21159 -2.11977,-5.0911 -0.01,-1.47533 -0.43668,-1.69703 -3.26858,-1.69703 -1.79161,0 -3.25747,-0.33485 -3.25747,-0.74412 0,-0.40926 -1.25011,-1.22788 -2.77803,-1.81914 -3.8003,-1.47063 -5.73904,-5.34155 -5.11591,-10.21449 0.75654,-5.91613 0.0521,-6.178 -14.12404,-5.25083 -6.47801,0.42368 -15.31576,0.94179 -19.63945,1.15137 -6.40517,0.31045 -8.1255,0.65145 -9.28783,1.84098 -0.79903,0.81774 -2.48753,1.45996 -3.83843,1.45996 -2.01053,0 -2.34103,0.25089 -1.98615,1.50772 0.49162,1.74118 -0.0851,2.20639 -3.01329,2.43084 -3.0136,0.231 -2.88824,2.65689 0.13085,2.53217 1.23173,-0.0509 2.65901,0.18132 3.17174,0.51602 0.51273,0.3347 1.24566,0.55644 1.62873,0.49277 1.8512,-0.30774 2.79293,0.24615 3.95396,2.32556 0.69486,1.24449 1.67745,2.26271 2.18355,2.26271 1.55174,0 6.30391,3.73141 7.49403,5.88433 0.61876,1.11934 1.87721,4.58904 2.79656,7.71045 1.96262,6.66364 1.64841,11.74612 -0.77014,12.45707 -1.79739,0.52835 -1.94272,2.69125 -0.59764,8.89439 0.72821,3.35831 1.25169,4.2741 2.4431,4.2741 1.44213,0 1.5163,1.01629 1.5163,20.77581 v 20.77581 l 2.08973,1.93543 2.08973,1.93543 13.58681,-0.16571 c 7.47275,-0.0912 20.78897,0.0869 29.59159,0.39567 15.33899,0.53804 16.15426,0.49437 19.5983,-1.04977 4.35023,-1.95042 4.89519,-1.96975 8.20952,-0.29123 1.43344,0.72595 4.0721,1.31992 5.86371,1.31992 3.21151,0 3.26119,0.0424 3.52172,3.00715 0.38183,4.34505 3.77887,5.61633 7.34761,2.74971 z m -12.09088,-2.73992 c 0,-0.62224 -0.35497,-1.13135 -0.78881,-1.13135 -0.43384,0 -0.57787,0.50911 -0.32005,1.13135 0.25782,0.62225 0.61277,1.13136 0.78881,1.13136 0.17602,0 0.32005,-0.50911 0.32005,-1.13136 z m 0.81437,-27.52966 c 0,-0.41483 -0.36647,-0.75423 -0.81437,-0.75423 -0.4479,0 -0.81437,0.3394 -0.81437,0.75423 0,0.41484 0.36647,0.75424 0.81437,0.75424 0.4479,0 0.81437,-0.3394 0.81437,-0.75424 z m -61.07743,-82.08039 c 0,-1.00719 -3.50369,-3.68397 -5.59121,-4.27161 -2.78237,-0.78325 -25.5544,-22.08422 -27.29599,-25.53269 -1.08826,-2.1548 -1.33995,-3.89461 -0.98204,-6.78814 0.26469,-2.13989 0.70391,-6.43627 0.97603,-9.5475 0.27213,-3.11123 0.86647,-6.08104 1.32077,-6.59958 0.5768,-0.65838 3.74395,-0.94279 10.49864,-0.94279 h 9.67268 V 96.136255 77.338195 l -2.12764,-2.34187 c -1.17021,-1.28802 -2.45012,-3.67115 -2.84426,-5.29583 -0.39415,-1.62467 -1.6355,-4.20801 -2.75855,-5.74074 -1.5515,-2.11745 -2.04194,-3.75785 -2.04194,-6.82984 v -4.04306 h -10.58675 -10.58675 v 10.97073 c 0,10.64228 -0.0599,11.02615 -1.99891,12.82203 l -1.99889,1.85131 h -22.65021 -22.65021 l -2.99612,-1.88559 c -1.64787,-1.03708 -3.26679,-1.8856 -3.59761,-1.8856 -0.8142,0 -4.37111,-3.13576 -4.37111,-3.85355 0,-0.31552 -0.36188,-1.45519 -0.80417,-2.53262 -0.76231,-1.85698 -0.92126,-1.90397 -3.05388,-0.9028 -1.23733,0.58088 -2.96475,0.95121 -3.83871,0.82295 -1.60278,-0.23521 -4.46366,-3.07434 -4.50467,-4.47042 -0.0122,-0.41483 -0.86815,-1.73342 -1.90214,-2.9302 -1.62039,-1.8755 -2.11848,-2.05776 -3.60706,-1.31992 -0.9499,0.47083 -2.66733,0.85606 -3.81653,0.85606 -2.59461,0 -2.60056,0.35102 -0.0535,3.1545 2.51831,2.77186 2.5713,4.43629 0.20359,6.39484 -3.76783,3.11673 -7.71914,4.17101 -15.34848,4.09528 -6.99381,-0.0694 -7.25108,-0.0119 -7.27606,1.62687 -0.0143,0.93437 -0.56242,2.35574 -1.21816,3.15861 -1.03182,1.26335 -2.10615,1.4392 -7.98449,1.30695 l -6.79224,-0.15281 -1.0802,5.30217 c -0.59412,2.91619 -1.5652,5.67497 -2.15797,6.1306 -0.63275,0.48637 -2.34332,0.63286 -4.14285,0.35478 -1.68582,-0.26051 -6.3633,-0.79081 -10.39441,-1.17844 -7.77286,-0.74746 -14.54483,-1.82214 -16.89808,-2.68167 -1.22575,-0.44771 -1.42514,-0.0589 -1.42514,2.77915 0,2.27686 -0.63109,4.15983 -2.03592,6.07458 -1.11975,1.5262 -2.03591,3.020745 -2.03591,3.321215 0,0.30046 -0.62069,1.18151 -1.37931,1.95788 -1.33268,1.36388 -1.26109,1.39407 2.11892,0.8935 4.57487,-0.67754 4.93301,-0.0664 4.94848,8.44468 0.0108,5.9107 -0.21288,7.04868 -1.61626,8.22495 -2.03352,1.70442 -2.03352,2.30241 0,4.69673 1.05736,1.24498 1.62873,3.05978 1.62873,5.17327 0,4.53208 2.16438,11.80391 3.87035,13.00353 1.05118,0.73918 2.91264,0.86275 7.12358,0.47287 3.13531,-0.29029 10.09814,-0.57088 15.47295,-0.62354 9.62752,-0.0943 9.8187,-0.0629 12.89639,2.11747 2.99396,2.12109 3.27753,2.17518 6.81223,1.29959 5.16209,-1.27871 5.9439,-0.48541 5.9439,6.03119 0,4.27468 0.25606,5.29839 1.42514,5.69746 0.78383,0.26757 2.55913,1.27513 3.94511,2.23904 1.38598,0.9639 3.4804,1.75256 4.65426,1.75256 1.21019,0 3.33908,0.97971 4.91684,2.26271 l 2.78253,2.26271 17.40136,0.0388 c 9.57074,0.0213 19.9666,0.39115 23.10191,0.82187 10.52853,1.4464 86.72994,2.79381 86.72994,1.53358 z M 162.72928,129.22926 c -1.07298,-0.41321 -4.55322,-0.63784 -7.73388,-0.49916 -3.67915,0.1604 -6.52459,-0.10637 -7.8215,-0.73328 -1.12117,-0.54197 -2.97299,-0.98749 -4.11514,-0.99005 -3.34487,-0.007 -4.03111,-1.31794 -4.03111,-7.69787 v -5.88305 h -3.90896 c -2.14992,0 -4.34871,-0.40729 -4.88619,-0.90508 -0.53748,-0.4978 -0.97724,-2.69748 -0.97724,-4.88817 0,-3.56769 0.20244,-4.03015 1.94105,-4.43429 1.06757,-0.24816 3.22804,-0.12208 4.80104,0.28018 2.4565,0.62819 2.82933,0.5568 2.64255,-0.50597 -0.57333,-3.262385 3.41101,-4.050625 8.27368,-1.63681 2.99184,1.48513 2.99567,1.48508 5.73162,-0.081 1.96354,-1.12393 3.47665,-1.437945 5.35046,-1.11035 1.43697,0.25122 5.65467,0.59985 9.37266,0.77474 7.0028,0.32939 9.12015,1.14699 9.12015,3.5217 0,2.25005 2.65707,2.95113 11.18471,2.95113 5.16309,0 8.38355,0.32345 9.01156,0.90509 1.39135,1.28862 1.22286,8.23957 -0.24684,10.18293 -0.67324,0.89022 -2.54099,2.02111 -4.15055,2.51309 -1.60956,0.49198 -3.89883,1.36438 -5.08726,1.93867 -1.18843,0.57428 -2.95721,1.04624 -3.93062,1.0488 -0.97342,0.002 -2.93436,0.91217 -4.35765,2.02137 -1.4233,1.1092 -4.10828,2.25929 -5.96664,2.55578 -1.85835,0.29647 -4.47821,0.73791 -5.82192,0.98095 -1.3437,0.24305 -3.32099,0.10384 -4.39398,-0.30937 z m 14.34949,-5.50132 c 1.52448,-1.28481 4.30571,-2.73122 6.18052,-3.21423 1.87481,-0.48302 4.69138,-1.30862 6.25903,-1.83468 1.56765,-0.52605 3.30836,-1.06405 3.86824,-1.19555 0.62379,-0.14652 1.01795,-1.54282 1.01795,-3.60601 0,-4.08842 -0.12571,-4.13554 -10.72191,-4.01927 -8.74296,0.0959 -10.45159,-0.55705 -10.45159,-3.99428 0,-1.98722 -0.21966,-2.11131 -4.17556,-2.35892 -3.17865,-0.19895 -4.26382,0.009 -4.54527,0.87001 -1.05571,3.23066 -1.95656,4.56257 -2.7707,4.09655 -0.53937,-0.30873 -0.59075,-0.70214 -0.1287,-0.98533 0.42304,-0.25926 0.97755,-1.23506 1.23226,-2.16843 0.35298,-1.29351 0.11208,-1.69703 -1.01315,-1.69703 -1.07532,0 -1.36058,0.40969 -1.05033,1.50847 0.60963,2.15912 -0.47183,1.86629 -1.39277,-0.37712 -0.93385,-2.27485 -3.19551,-2.44194 -5.10442,-0.37711 -1.77646,1.92157 -5.19982,1.92157 -8.33261,0 -3.35354,-2.05698 -4.25953,-1.90354 -3.85444,0.65279 0.2891,1.82428 0.0227,2.21788 -1.7085,2.52439 -1.12805,0.19972 -3.36119,-0.054 -4.96254,-0.56392 l -2.91156,-0.92703 v 2.51331 2.51331 l 4.68261,0.2262 4.6826,0.2262 0.23652,6.22246 0.23653,6.22245 h 2.3423 c 1.28826,0 2.49417,0.42426 2.67981,0.9428 0.38619,1.07876 12.25351,1.86775 21.30613,1.41652 4.93574,-0.24603 5.96863,-0.56778 8.39955,-2.61655 z m -97.677573,2.33139 c 0.45983,-0.51854 0.96278,-1.79132 1.11768,-2.82839 0.24675,-1.65215 0.78572,-1.94035 4.35345,-2.32789 5.21354,-0.56632 8.22785,-1.73776 9.31569,-3.62032 0.47514,-0.82225 0.86388,-3.76824 0.86388,-6.54666 0,-3.79331 0.4202,-5.68135 1.6869,-7.57959 1.16377,-1.74399 1.6869,-3.797305 1.6869,-6.621175 0,-4.7462 -3.16168,-14.01845 -4.98723,-14.62601 -0.68026,-0.2264 -2.15301,-1.32568 -3.27276,-2.44285 -1.901,-1.89661 -3.49261,-2.48073 -12.41908,-4.55781 -1.90358,-0.44294 -4.58647,-1.12176 -5.96197,-1.50848 -1.37551,-0.38672 -3.75753,-0.70536 -5.29338,-0.7081 -1.53585,-0.003 -3.89185,-0.67931 -5.23556,-1.5035 -3.44763,-2.11469 -5.13162,-1.93967 -5.44287,0.56568 -0.23314,1.87658 -0.60676,2.09739 -3.92233,2.3181 -2.01556,0.13417 -5.06979,-0.18416 -6.78719,-0.70739 -2.42417,-0.73857 -3.46898,-0.75096 -4.67155,-0.0554 -0.85196,0.49277 -2.17698,0.89594 -2.94449,0.89594 -1.08536,0 -1.1783,0.20113 -0.41823,0.90509 1.5065,1.39527 1.16392,4.71834 -0.85508,8.29441 -1.71117,3.03084 -1.81623,4.03086 -1.58891,15.12467 l 0.24341,11.879235 h 2.54274 c 3.42204,0 5.52127,1.90844 5.52127,5.01944 0,2.08644 0.30592,2.52294 1.7682,2.52294 0.97251,0 2.43837,0.56171 3.25747,1.24825 1.38577,1.16151 1.59275,1.16151 2.97852,0 2.74998,-2.30494 5.8024,-1.57744 9.71714,2.31595 1.97106,1.96032 4.74516,3.95627 6.16465,4.43544 3.58704,1.21087 11.54431,1.27942 12.58273,0.10841 z m 33.346193,-22.89425 c -0.27061,-0.25062 -0.973,-0.27742 -1.56087,-0.0595 -0.64964,0.24077 -0.45668,0.41949 0.49202,0.45568 0.85847,0.0327 1.33946,-0.14551 1.06885,-0.39614 z M 339.91791,89.903065 c -0.25997,-0.60168 -0.45294,-0.42296 -0.49201,0.45569 -0.0353,0.79509 0.15711,1.24057 0.42772,0.98994 0.27061,-0.25063 0.29953,-0.90116 0.0642,-1.44563 z m -218.25,-2.26271 c -0.25997,-0.60168 -0.45294,-0.42296 -0.49201,0.45568 -0.0353,0.79509 0.15711,1.24056 0.42772,0.98994 0.2706,-0.25063 0.29953,-0.90116 0.0643,-1.44562 z m 50.74873,-10.4179 c 0,-0.41483 -0.38809,-0.75424 -0.86243,-0.75424 -0.47433,0 -0.63594,0.33941 -0.35912,0.75424 0.27682,0.41483 0.66492,0.75423 0.86243,0.75423 0.19752,0 0.35912,-0.3394 0.35912,-0.75423 z m -0.75446,-6.53281 c 2.31669,-4.70997 2.0538,-14.85748 -0.42848,-16.53855 -2.06573,-1.39898 -5.341,-1.35158 -7.59388,0.10989 -1.70544,1.10634 -1.80993,1.71594 -1.80993,10.55932 v 9.3852 h 4.05147 c 4.0323,0 4.05966,-0.0166 5.78082,-3.51586 z m 50.02358,-6.28923 c -0.27681,-0.41483 -1.30622,-0.73038 -2.28757,-0.70122 -1.72023,0.0511 -1.72582,0.0763 -0.15552,0.70122 2.24152,0.8921 3.0384,0.8921 2.44309,0 z"
     id="path50"
     inkscape:connector-curvature="0" />
</svg>
