<?xml version="1.0" encoding="UTF-8" standalone="no"?>
<!-- Created with Inkscape (http://www.inkscape.org/) -->

<svg
   xmlns:dc="http://purl.org/dc/elements/1.1/"
   xmlns:cc="http://creativecommons.org/ns#"
   xmlns:rdf="http://www.w3.org/1999/02/22-rdf-syntax-ns#"
   xmlns:svg="http://www.w3.org/2000/svg"
   xmlns="http://www.w3.org/2000/svg"
   xmlns:sodipodi="http://sodipodi.sourceforge.net/DTD/sodipodi-0.dtd"
   xmlns:inkscape="http://www.inkscape.org/namespaces/inkscape"
   version="1.1"
   id="svg32"
   width="140"
   height="287"
   viewBox="0 0 140 287"
   sodipodi:docname="Manhattan.svg"
   inkscape:version="0.92.1 r15371">
  <metadata
     id="metadata38">
    <rdf:RDF>
      <cc:Work
         rdf:about="">
        <dc:format>image/svg+xml</dc:format>
        <dc:type
           rdf:resource="http://purl.org/dc/dcmitype/StillImage" />
        <dc:title></dc:title>
      </cc:Work>
    </rdf:RDF>
  </metadata>
  <defs
     id="defs36" />
  <sodipodi:namedview
     pagecolor="#ffffff"
     bordercolor="#666666"
     borderopacity="1"
     objecttolerance="10"
     gridtolerance="10"
     guidetolerance="10"
     inkscape:pageopacity="0"
     inkscape:pageshadow="2"
     inkscape:window-width="1280"
     inkscape:window-height="657"
     id="namedview34"
     showgrid="false"
     inkscape:zoom="1.6445993"
     inkscape:cx="186.40054"
     inkscape:cy="137.6703"
     inkscape:window-x="-8"
     inkscape:window-y="-8"
     inkscape:window-maximized="1"
     inkscape:current-layer="svg32" />
  <path
     style="fill:#000000;stroke-width:0.94179714"
     d="m 122.24775,266.07017 c -0.34819,-0.90279 -3.06543,-1.13935 -10.81718,-0.94174 -8.74923,0.22306 -10.64664,0.008 -12.253786,-1.37776 -1.46975,-1.26887 -1.78561,-2.38841 -1.39083,-4.92971 -0.009,-2.88388 -14.78566,4.92744 1.26499,-0.93944 1.452606,-0.53096 -9.58685,4.89948 -9.92382,1.97584 -0.47842,-4.15099 2.58937,-12.67935 0.46983,-12.70694 -7.54906,-6.75017 2.7829,-3.60395 -2.86878,-6.36015 0.3577,-5.69538 0.0351,-1.93426 -1.49575,-6.63577 -1.07606,-3.30457 -2.1721,-9.82105 -2.1721,-12.89177 0,-3.9708 -3.01706,-8.58146 4.37027,-15.42996 -0.69882,0.42971 -6.68311,7.6665 -0.37319,-0.48381 0.41523,-0.66847 -7.09512,10.46641 -5.45404,3.43208 -1.03441,-1.12429 -6.30068,-4.23756 -3.51242,-10.34188 -6.15963,0.19465 -7.18578,-10.32652 -9.98852,-10.3765 -0.55055,-0.008 -2.13729,-4.58038 -2.13729,-4.58038 -2.47041,-2.40315 -3.64934,-1.11316 -4.02371,-3.06157 -1.16129,-6.04386 -0.18134,-14.07734 -1.7652,-16.48234 -0.88776,-1.34814 0.92975,0 0,0 -0.92974,0 -3.49684,-1.5017 -5.70476,-3.3371 -2.20789,-1.83539 -5.32845,-3.89488 -6.93457,-4.57664 -3.75919,-1.59574 -29.686599,-27.61193 -32.011769,-32.12141 -1.26984,-2.46282 -1.59483,-4.39398 -1.14922,-6.82916 0.34174,-1.8674 0.91256,-6.56587 1.26852,-10.44104 l 0.64723,-7.045722 12.274199,-0.46972 12.2742,-0.46972 0.29458,-16.90977 c 0.16207,-9.30037 0.0166,-20.81079 -0.32255,-25.578695 -0.54608,-7.66963 -0.93375,-9.065235 -3.36318,-12.106934 -1.62044,-2.028864 -2.74594,-4.565893 -2.74594,-6.189807 0,-1.513487 -1.08349,-4.165155 -2.40772,-5.892593 -2.09468,-2.732516 -2.37082,-3.915029 -2.12436,-9.09678 l 0.28331,-5.955984 3.9392,-0.285298 c 2.16652,-0.156914 4.44914,-0.896718 5.07248,-1.644005 0.62331,-0.747291 0.76262,-1.360288 0.30957,-1.36222 -0.45305,-0.002 0.56739,-0.847418 2.26764,-1.878862 3.81261,-2.3128977 7.87523,-2.4028047 10.45369,-0.231348 1.07367,0.904203 3.05138,4.603215 4.39493,8.220028 1.34352,3.616813 3.58208,8.215922 4.97454,10.22025 1.61198,2.320223 2.774,5.562662 3.19847,8.9246 0.36669,2.904209 1.09967,8.845217 1.62877,13.202242 0.55385,4.560014 1.48274,8.236378 2.18894,8.662982 0.67479,0.407614 1.79334,1.11694 2.48574,1.576278 0.76128,0.505058 1.2589,2.640116 1.2589,5.401676 0,2.51158 0.46956,5.42407 1.04344,6.4722 0.57385,1.04812 1.1108,3.70045 1.19309,5.89406 0.1167,3.11113 0.76863,4.55753 2.96369,6.57602 5.84064,5.37088 11.67403,8.10214 15.51269,7.26326 3.38123,-0.73891 4.40599,1.17193 2.7552,5.13737 -1.60786,3.862122 -4.07149,5.790642 -7.77061,6.082682 -2.7499,0.21711 -3.21856,-0.0537 -3.37634,-1.95035 -0.15715,-1.88938 0.25143,-2.20647 2.87479,-2.23098 2.61224,-0.0245 2.80714,-0.1737 1.33726,-1.024202 -2.67032,-1.54511 -6.31236,-0.23976 -6.26363,2.244942 0.11695,5.96449 1.759,10.24538 5.46352,14.2441 2.13021,2.29941 4.15041,5.36826 4.48931,6.81968 0.33895,1.45142 1.41555,5.5897 2.3924,9.1961 0.97693,3.60643 1.778,9.52484 1.78015,13.15207 0.002,5.16551 0.51466,7.59654 2.36043,11.21641 1.296076,2.54181 2.356456,5.03167 2.356456,5.53302 0,1.55437 3.17879,3.406 5.90107,3.43736 1.53063,0.0176 2.59647,0.54851 2.59647,1.29341 0,1.47805 -2.98131,4.37305 -4.50342,4.37305 -0.57761,0 -1.35333,0.48805 -1.72386,1.08457 -0.37054,0.59654 -0.28937,0.85008 0.18031,0.56343 0.46974,-0.28661 0.86507,1.33226 0.87856,3.59748 0.0209,3.50313 0.59266,4.71749 3.82617,8.12629 2.09087,2.20424 4.40972,5.22144 5.15306,6.7049 1.78327,3.55893 3.36509,4.03603 6.76198,2.03948 3.57393,-2.10055 7.8516,-1.34314 10.36425,1.83514 1.02299,1.29404 2.67894,2.35277 3.67984,2.35277 1.93311,0 2.23686,0.71131 1.07801,2.52468 -1.23422,1.93131 -5.77735,3.11191 -11.97482,3.11191 h -5.98452 l -0.64443,4.93205 c -0.35446,2.71259 -0.71411,9.0134 -0.79924,14.00176 -0.0976,5.72238 -0.50325,8.87863 -1.09896,8.55191 -0.51933,-0.28478 -0.46863,-0.003 0.11264,0.62453 1.28163,1.3854 3.21733,1.78554 9.093,1.87972 3.76649,0.0604 4.48479,0.36047 4.48479,1.87388 0,2.43953 -0.99384,4.85437 -1.79504,4.36167 -0.35913,-0.22086 -0.68131,1.15549 -0.71591,3.05856 -0.10077,5.54327 -1.46609,11.7788 -2.88892,13.19448 -0.97374,0.96889 -1.1506,2.6187 -0.68134,6.35567 0.5987,4.76784 0.23937,6.51299 -0.79092,3.84147 z m -1.17369,-4.19604 c -1.35659,-3.21122 -1.61111,-5.87146 -0.56176,-5.87146 0.63227,0 1.04273,-1.78608 1.02552,-4.46231 -0.0229,-3.60132 -0.22178,-4.13197 -1.02935,-2.75023 -0.55036,0.94161 -0.74337,2.84397 -0.42889,4.22743 0.55258,2.4311 0.5224,2.45241 -0.90109,0.63653 -1.02845,-1.31194 -1.2976,-2.91279 -0.89205,-5.30533 0.34657,-2.04448 0.17316,-3.67716 -0.42996,-4.04803 -0.55593,-0.34186 -1.01078,-2.07624 -1.01078,-3.85413 0,-2.77107 0.31827,-3.23257 2.22928,-3.23257 2.03448,0 2.28717,0.51307 2.8917,5.87146 0.36438,3.22927 0.64233,6.80166 0.61767,7.9386 -0.0247,1.13695 0.37363,2.32444 0.88497,2.6389 0.85321,0.52467 1.15354,-2.04004 1.34191,-11.45903 0.0331,-1.64737 0.59098,-3.52858 1.24011,-4.18047 2.23146,-2.24095 1.29882,-3.29567 -2.64009,-2.98564 -2.16032,0.17002 -5.03212,-0.32283 -6.60916,-1.13428 l -2.78889,-1.43495 v -9.16117 c 0,-6.78643 0.38246,-9.70447 1.47554,-11.25722 0.81156,-1.15283 1.38479,-3.25495 1.27386,-4.67135 -0.42846,-5.47108 -0.37427,-5.5175 6.65424,-5.70536 3.61417,-0.0967 7.7567,-0.67594 9.20566,-1.28745 l 2.63447,-1.11179 -2.46781,-0.33852 c -1.4964,-0.20529 -2.88216,-1.24335 -3.5204,-2.63708 -1.43103,-3.12499 -5.67169,-3.10045 -8.64638,0.0501 -1.21962,1.29173 -2.53023,2.3486 -2.91248,2.3486 -0.3822,0 -2.39565,-2.67938 -4.47432,-5.95421 -2.07864,-3.27481 -5.06412,-7.02983 -6.63436,-8.34446 -2.37642,-1.98958 -2.95812,-3.3143 -3.47001,-7.90243 l -0.61503,-5.51218 3.15204,-1.3977 c 3.05503,-1.35469 3.07939,-1.40805 0.79162,-1.73404 -3.34777,-0.47697 -4.50818,-1.6695 -7.649616,-7.86144 -2.08936,-4.11826 -2.9912,-7.61256 -3.65134,-14.1477 -0.89922,-8.90152 -1.69975,-14.18038 -2.52703,-16.66383 -0.38508,-1.15598 -0.72469,-1.07161 -1.89037,0.46974 -1.38567,1.83222 -1.50118,1.78752 -4.65341,-1.80054 -2.06984,-2.35601 -3.23245,-4.64862 -3.23245,-6.37421 0,-2.49227 0.15969,-2.61265 2.12438,-1.60163 1.16841,0.60125 2.87052,1.74086 3.78244,2.53247 3.618,3.14045 2.39574,0.13034 -2.14027,-5.27102 l -4.79905,-5.71457 0.2802,-6.2878 c 0.31136,-6.986912 1.55124,-8.604602 5.78471,-7.547402 1.64761,0.41144 2.70551,1.46816 3.12174,3.118152 l 0.62957,2.4958 1.74523,-2.14446 c 2.71451,-3.335472 2.15857,-4.442862 -2.55307,-5.085422 -4.85595,-0.66224 -10.87895,-4.40694 -15.48681,-9.62867 -2.6446,-2.99691 -3.01383,-4.00659 -2.59672,-7.10068 0.26743,-1.98384 0.0755,-3.8595 -0.42632,-4.16813 -1.80427,-1.10951 -2.65676,-5.02582 -1.66115,-7.63132 0.80498,-2.10662 0.67648,-2.76105 -0.73149,-3.72568 -3.65347,-2.503037 -4.0688,-3.325379 -4.08217,-8.082176 -0.005,-2.692238 -0.67135,-6.774206 -1.47513,-9.071041 -0.80378,-2.296834 -1.34336,-5.802814 -1.19909,-7.791063 0.2011,-2.77081 -0.33638,-4.361592 -2.30151,-6.812068 -1.41014,-1.758387 -2.56386,-3.659238 -2.56386,-4.224115 0,-0.56488 -0.84976,-2.684346 -1.88833,-4.709927 -1.0386,-2.025584 -1.88835,-4.471517 -1.88835,-5.435411 0,-0.963892 -1.04543,-2.729731 -2.32318,-3.924083 -1.8827,-1.759832 -2.98607,-2.064518 -5.81956,-1.607014 -4.43725,0.716459 -5.76904,1.957502 -4.16468,3.880953 1.04657,1.254693 0.78169,1.463878 -1.97556,1.560212 -1.75127,0.06119 -3.54682,0.04659 -3.99005,-0.03243 -0.44324,-0.07903 -1.61166,0.110768 -2.59647,0.421773 -2.54729,0.804426 -2.54092,9.787639 0.008,13.394063 0.99003,1.39997 2.06915,4.118246 2.39796,6.040616 0.32886,1.92237 1.57091,4.670207 2.76006,6.106305 1.18919,1.436102 2.48208,3.456582 2.87311,4.489956 0.39098,1.033377 0.66198,13.147476 0.60216,26.920223 -0.085,19.57312 0.15563,25.14705 1.10203,25.525349 0.666,0.2662 -4.84362,0.51737 -12.24355,0.55815 l -13.454419,0.0742 v 4.82302 c 0,2.65265 -0.47985,6.41659 -1.0663,8.36427 -2.12892,7.07004 -1.02356,8.94322 14.550339,24.65689 7.90293,7.97384 16.06844,15.35961 18.14562,16.41281 2.07715,1.05325 3.45238,3.74442 5.13538,5.3478 -1.67831,4.01505 5.56598,2.39771 6.54956,2.39771 3.79088,0 1.47285,6.97999 -0.73217,12.45169 -1.38978,3.44877 5.9869,7.74314 13.64761,11.56037 4.84347,2.41343 7.49906,4.33857 8.07922,5.85697 0.47539,1.244 -1.97242,19.81326 -1.97242,19.81326 0,0 2.08111,5.55302 2.63811,12.19081 0.3509,4.18145 1.4008,10.9133 2.23731,13.75506 0.009,4.22072 -0.006,-3.96839 0,0 0.008,6.76333 2.68696,8.24188 4.67827,8.52328 1.75031,0.24734 0.4137,3.23753 1.0733,4.70454 1.99904,4.44601 -3.50236,10.81832 8.50653,11.89571 l -10.04966,-3.89331 22.078006,3.66081 c 9.56347,1.58574 10.5048,-0.13509 9.86737,-1.644 z M 81.540034,171.61588 c -0.35289,-0.56814 0.20812,-1.87845 1.24671,-2.91182 2.4497,-2.43744 3.25294,-1.14427 1.0743,1.72953 -1.06971,1.41102 -1.91234,1.84022 -2.32101,1.18229 z m 39.082346,70.2953 c 0,-1.55006 -0.4249,-2.81828 -0.94417,-2.81828 -1.05021,0 -1.30315,4.02686 -0.31473,5.01028 1.06669,1.06136 1.2589,0.72671 1.2589,-2.192 z M 91.032374,126.8308 c 0.16927,-0.51668 -1.07014,-1.77465 -2.75427,-2.79548 -4.62655,-2.80436 -4.66361,-2.79127 -2.48771,0.87811 1.90166,3.20692 4.50723,4.15995 5.24198,1.91737 z m -0.62339,-23.9555 c 0,-1.17703 -1.00201,-1.17703 -2.83252,0 -1.14523,0.73638 -1.00973,0.9134 0.70812,0.92504 1.1684,0.008 2.1244,-0.40835 2.1244,-0.92504 z"
     id="path66-9"
     inkscape:connector-curvature="0"
     sodipodi:nodetypes="ccccsccccsccccccscscccccccccccsccccccccccccccscccccccccccccccscsscccccccsssccccccscccccccsccccccssccccscccsccccccccscccccccccccsccccsscccsscccccsccscscccsccccccscccsccccsccccccccaccsccccccsscsccccsccs" />
</svg>
