<?xml version="1.0" encoding="UTF-8" standalone="no"?>
<!-- Created with Inkscape (http://www.inkscape.org/) -->

<svg
   xmlns:dc="http://purl.org/dc/elements/1.1/"
   xmlns:cc="http://creativecommons.org/ns#"
   xmlns:rdf="http://www.w3.org/1999/02/22-rdf-syntax-ns#"
   xmlns:svg="http://www.w3.org/2000/svg"
   xmlns="http://www.w3.org/2000/svg"
   xmlns:sodipodi="http://sodipodi.sourceforge.net/DTD/sodipodi-0.dtd"
   xmlns:inkscape="http://www.inkscape.org/namespaces/inkscape"
   version="1.1"
   id="svg20"
   width="385"
   height="192"
   viewBox="0 0 385 192"
   sodipodi:docname="Queens.svg"
   inkscape:version="0.92.1 r15371">
  <metadata
     id="metadata26">
    <rdf:RDF>
      <cc:Work
         rdf:about="">
        <dc:format>image/svg+xml</dc:format>
        <dc:type
           rdf:resource="http://purl.org/dc/dcmitype/StillImage" />
        <dc:title></dc:title>
      </cc:Work>
    </rdf:RDF>
  </metadata>
  <defs
     id="defs24" />
  <sodipodi:namedview
     pagecolor="#ffffff"
     bordercolor="#666666"
     borderopacity="1"
     objecttolerance="10"
     gridtolerance="10"
     guidetolerance="10"
     inkscape:pageopacity="0"
     inkscape:pageshadow="2"
     inkscape:window-width="1280"
     inkscape:window-height="657"
     id="namedview22"
     showgrid="false"
     inkscape:zoom="1.2708333"
     inkscape:cx="159.13611"
     inkscape:cy="89.666745"
     inkscape:window-x="-8"
     inkscape:window-y="-8"
     inkscape:window-maximized="1"
     inkscape:current-layer="svg20"
     showguides="false"
     inkscape:snap-smooth-nodes="false"
     inkscape:snap-bbox="true"
     inkscape:snap-global="true"
     inkscape:bbox-paths="true"
     inkscape:bbox-nodes="true"
     inkscape:object-paths="true"
     inkscape:snap-intersection-paths="true"
     inkscape:object-nodes="false"
     inkscape:snap-bbox-edge-midpoints="true"
     inkscape:snap-bbox-midpoints="true"
     inkscape:snap-midpoints="true"
     inkscape:snap-object-midpoints="true"
     inkscape:snap-others="true" />
  <path
     style="fill:#000000;stroke-width:0.83157074"
     d="m 228.91284,146.91339 c -5.25065,-1.648 -8.18206,-1.88131 -24.28374,-1.93274 -16.49637,-0.0527 -18.64983,-0.23288 -21.71675,-1.81691 -1.87248,-0.96712 -3.82011,-1.75712 -4.32807,-1.75554 -0.50795,0.001 -2.19263,-0.8874 -3.74371,-1.97548 -1.55108,-1.08809 -2.99501,-1.87841 -3.20872,-1.75628 -0.21371,0.12214 -0.571,-2.88149 -0.79399,-6.67469 l -0.40543,-6.89676 -4.43013,-0.52993 c -3.21972,-0.38515 -5.11573,-1.18511 -6.93947,-2.92793 -2.41967,-2.31226 -2.74824,-2.37851 -9.19361,-1.85338 -20.22307,1.64762 -23.03629,1.63551 -24.93151,-0.10732 -1.91209,-1.75833 -2.89626,-5.99937 -3.71213,-15.99664 -0.34996,-4.288275 -0.84685,-5.923006 -2.15884,-7.102408 -2.82583,-2.540255 -2.90922,-4.230251 -0.38848,-7.872632 2.10263,-3.038208 2.30363,-3.903633 2.15361,-9.272649 l -0.16546,-5.921699 -2.66028,0.941356 c -1.92176,0.680035 -3.62128,0.651024 -6.12203,-0.104435 -5.53955,-1.673582 -9.27994,-1.321316 -11.73696,1.10535 -1.94473,1.920727 -2.187216,2.807656 -2.443766,8.93854 -0.25325,6.051907 -0.496078,6.96524 -2.191128,8.241021 -1.04847,0.789137 -4.06618,1.678126 -6.70603,1.975525 l -4.79972,0.540716 -0.46591,3.343636 c -0.25625,1.839003 -0.70828,3.621909 -1.0045,3.962009 -1.22902,1.4111 -10.47025,1.37359 -12.991,-0.0527 -1.38451,-0.78338 -3.77666,-1.421534 -5.31588,-1.41809 -2.43456,0.0055 -3.00206,-0.424931 -4.3628,-3.308422 -1.92359,-4.076219 -4.29174,-4.969091 -4.28379,-1.61512 0.004,1.811996 -0.37668,2.28791 -1.83507,2.292411 -2.08231,0.0069 -5.9486,-3.093829 -5.95258,-4.773217 -0.001,-0.609456 -1.11567,-1.676669 -2.47606,-2.371608 -2.41213,-1.232196 -3.20858,-2.302772 -4.07647,-5.479573 -0.32253,-1.180568 -1.2715,-1.551182 -3.95069,-1.542907 l -3.52619,0.01098 -0.0611,-25.770241 c -0.0593,-25.023989 -0.0168,-25.770364 1.4679,-25.774947 1.99796,-0.0069 3.13399,-2.574152 3.12336,-7.060315 -0.008,-3.433895 0.10887,-3.613301 2.36121,-3.620259 2.30459,-0.0069 2.35536,0.08179 1.84561,3.231667 -0.51492,3.181879 -0.48654,3.228071 1.6097,2.620386 2.45377,-0.711338 6.21991,1.555437 5.6124,3.378013 -0.5239,1.571781 3.47536,0.708196 4.66814,-1.008024 0.49974,-0.719037 2.07105,-1.377349 3.4918,-1.462914 2.19881,-0.132431 2.65636,-0.552476 3.07495,-2.822998 l 0.49177,-2.66743 0.0979,2.460371 c 0.0863,2.167706 0.33021,2.393031 2.0508,1.89424 1.4576,-0.422543 1.85053,-0.259029 1.54928,0.644767 -0.30602,0.918081 0.58645,1.238563 3.69068,1.325295 4.84491,0.135313 13.76833,2.098815 20.54224,4.519951 8.129938,2.905818 10.959344,9.092228 12.525864,27.387322 l 0.46889,5.476004 4.38893,0.342001 c 2.41392,0.188093 4.91339,-0.0041 5.55438,-0.427387 0.77381,-0.51084 0.51213,-0.589544 -0.77873,-0.234204 -1.79289,0.493548 -1.82326,0.453256 -0.39031,-0.517701 0.85462,-0.579086 2.68903,-2.28183 4.07646,-3.783883 2.33981,-2.533119 2.52162,-3.146637 2.50901,-8.467004 l -0.0136,-5.736008 7.62068,0.506545 c 4.19137,0.278598 8.65787,1.001972 9.92555,1.607489 1.26769,0.605517 5.45701,1.314193 9.3096,1.574814 l 7.00471,0.473869 0.1547,-2.403199 c 0.20733,-3.220634 2.94513,-9.248771 4.5156,-9.94253 1.92835,-0.851866 6.62942,-0.672954 9.98545,0.380001 3.68539,1.156306 4.74972,0.241339 3.62323,-3.114771 -1.34005,-3.992327 0.20837,-4.858603 9.40829,-5.263539 11.30741,-0.497693 14.40881,-3.003241 10.0712,-8.136257 -1.78273,-2.109642 -2.21364,-3.288097 -1.89279,-5.176505 0.36171,-2.12891 0.78098,-2.446922 3.24283,-2.45963 1.55507,-0.0082 3.87606,-0.812328 5.15774,-1.787348 3.35043,-2.548791 4.9263,-2.233688 8.16448,1.632535 2.60135,3.105878 3.36159,3.484795 8.1325,4.053327 4.66799,0.556278 5.21937,0.819342 4.87787,2.327255 -0.21176,0.935043 -0.068,1.475017 0.3194,1.199918 0.38743,-0.275085 0.70758,0.834053 0.71145,2.464763 0.009,3.774111 1.56583,6.282981 5.06863,8.167861 1.52468,0.82044 2.54962,1.90537 2.27764,2.410967 -1.05837,1.967454 42.22176,-0.561204 43.973,-2.569142 0.24597,-0.28203 0.50479,-5.778441 0.57514,-12.214232 0.0704,-6.435805 0.14472,-12.0014228 0.16524,-12.368057 0.0205,-0.3666204 5.28997,-0.6828211 11.70988,-0.7026515 l 11.67256,-0.036092 0.0101,4.2705005 c 0.007,3.100622 0.51859,5.053077 1.86622,7.127189 1.02085,1.571177 2.08085,4.434371 2.35555,6.362631 0.29227,2.051579 1.49849,4.798206 2.90775,6.621126 l 2.40829,3.115196 -0.007,24.226098 c -0.004,13.324372 -0.0101,24.449158 -0.0137,24.721759 -0.004,0.272616 -2.54552,0.456125 -5.64861,0.407805 -6.93217,-0.108003 -18.33476,-2.455325 -19.10776,-1.018362 -0.31831,0.591698 -1.18351,9.646769 -1.16754,12.615731 0.016,2.968946 1.62355,6.948 1.18893,8.84233 -0.7909,3.44719 3.96753,4.93578 5.45877,4.93117 0.35929,-10e-4 0.65418,0.38962 0.65532,0.8683 10e-4,0.47869 1.63261,2.57304 3.6255,4.65413 1.99289,2.08109 5.00522,5.90321 6.69406,8.4936 1.68884,2.59038 3.65725,4.94728 4.37425,5.23754 0.71699,0.29028 3.28929,2.5574 5.71623,5.03805 2.42694,2.48067 5.51708,5.45504 6.86698,6.60971 1.94276,1.66179 2.40631,2.64981 2.22381,4.73977 l -0.23057,2.64035 -39.3949,0.26257 c -38.01148,0.25337 -39.6046,0.19676 -45.36639,-1.61166 z m 83.07808,-1.75501 c -0.75037,-1.12963 -2.96077,-3.4203 -4.912,-5.09037 -5.02953,-4.30485 -24.08552,-26.31145 -25.53273,-29.4862 -0.91024,-1.99682 -5.76295,-3.21047 -5.37783,-7.28551 0.28136,-2.97718 0.82733,-9.631204 2.5887,-12.859474 l 3.63721,-6.666357 9.92109,-0.279354 9.92109,-0.279367 -0.0528,-22.274151 c -0.0472,-19.913988 -0.20067,-22.523628 -1.44854,-24.628605 -0.76766,-1.294953 -1.87385,-3.952515 -2.45819,-5.905711 -0.58434,-1.953196 -1.30033,-3.750466 -1.5911,-3.993947 -1.59461,-1.335231 -3.94351,-9.018972 -3.9531,-12.931402 l -0.0107,-4.3847337 -10.82772,-0.074106 -10.82771,-0.074106 -0.2278,14.0615227 c -0.12842,7.927085 -0.56656,14.371988 -1.00429,14.773178 -0.42707,0.391405 -10.99755,0.543282 -23.48995,0.337499 l -22.71344,-0.37414 -2.3898,-2.602614 c -1.31439,-1.431433 -2.39093,-3.080985 -2.39231,-3.66567 -10e-4,-0.584671 -0.65799,-1.256623 -1.45913,-1.493215 -0.91925,-0.271476 -1.72137,-1.69337 -2.17431,-3.854311 l -0.7177,-3.424123 -4.6264,-0.0055 c -4.24562,-0.0041 -4.71005,-0.201583 -5.64269,-2.393154 -0.55897,-1.313479 -1.70805,-2.636496 -2.55352,-2.940058 -0.84548,-0.303561 -1.53858,-1.12481 -1.54024,-1.824991 -0.004,-1.654081 -1.1134,-1.622188 -2.33437,0.06711 -0.53107,0.734764 -2.23585,1.34599 -3.7884,1.358273 -3.96865,0.03143 -5.16276,1.049537 -4.03496,3.440385 0.4897,1.038134 1.22015,1.886514 1.62322,1.885265 0.40307,-0.0012 1.31474,1.005897 2.02593,2.238093 1.21474,2.104647 1.20559,2.351367 -0.15116,4.072692 -2.46059,3.121811 -6.4823,4.458318 -13.7188,4.559103 -4.01381,0.05585 -7.09901,0.505693 -7.52663,1.097336 -0.39857,0.551434 -0.83452,2.597427 -0.9688,4.546643 -0.22023,3.197029 -0.43466,3.518458 -2.19019,3.282924 -1.07033,-0.143616 -4.40268,-0.472168 -7.40522,-0.730126 l -5.45916,-0.469038 -1.14719,3.422463 c -0.63096,1.882355 -1.31996,4.622656 -1.53112,6.08955 l -0.38391,2.6671 -7.7824,-0.26832 c -4.28032,-0.147581 -9.5346,-0.818188 -11.67618,-1.49025 -2.14157,-0.672062 -6.17019,-1.327821 -8.95248,-1.457246 -4.96716,-0.231061 -5.0561,-0.19512 -4.91489,1.98583 0.0791,1.221629 0.37819,3.265083 0.66464,4.541002 0.40493,1.803665 0.0125,2.991233 -1.76233,5.337247 -1.25574,1.659583 -2.14,3.480184 -1.96503,4.04578 0.17497,0.565609 -0.0499,1.28971 -0.49974,1.609109 -0.91812,0.651902 -1.13583,5.251146 -0.22439,4.740554 0.32057,-0.179585 1.6042,-0.911975 2.85251,-1.627526 1.75996,-1.008848 2.34273,-1.052886 2.59507,-0.196135 0.17898,0.607686 0.64516,0.877858 1.03594,0.600385 0.41349,-0.293599 0.66257,2.953823 0.5958,7.768181 l -0.11471,8.272681 -0.55888,-5.774406 -0.55889,-5.774405 0.11116,6.444272 c 0.0714,4.144272 -0.19297,6.444491 -0.74096,6.444889 -0.46866,3.84e-4 -1.42769,0.730867 -2.13116,1.623368 -1.20291,1.526165 -1.11252,1.790203 1.51842,4.435621 2.66242,2.677078 2.78515,3.049064 2.54235,7.705356 -0.14032,2.69088 0.0747,5.01629 0.47778,5.16762 0.40308,0.15132 0.81069,2.04891 0.90579,4.21687 0.24092,5.49205 0.26682,5.64365 0.84967,4.97446 0.28549,-0.32777 1.14928,0.0519 1.91952,0.84349 1.23024,1.26449 2.70419,1.34207 12.1264,0.63822 5.89927,-0.44068 11.60158,-0.71976 12.67181,-0.62018 1.50103,0.13966 1.67857,-0.011 0.77661,-0.66254 -0.93603,-0.67532 -0.81085,-0.84741 0.62751,-0.86275 1.04798,-0.011 1.58923,0.36666 1.29876,0.90663 -0.31915,0.59327 0.17943,0.7294 1.38811,0.379 1.35854,-0.39383 2.55213,0.0896 4.26706,1.72848 1.61055,1.53906 3.35177,2.29246 5.38142,2.32845 2.38767,0.0423 2.683,0.21014 1.44596,0.8217 -1.36074,0.67272 -1.38171,0.77577 -0.16816,0.8267 0.76251,0.032 1.58651,-0.54228 1.83113,-1.27616 0.24462,-0.73388 0.93256,-1.33583 1.52876,-1.33767 0.85049,-0.003 1.08831,1.81523 1.104,8.43862 0.0198,8.35968 0.0385,8.44192 1.92095,8.4361 1.04552,-0.003 3.15153,0.83152 4.68002,1.85501 1.52849,1.02349 3.27526,1.64169 3.88172,1.37378 0.60646,-0.26791 1.47549,0.023 1.93117,0.64664 1.92021,2.62764 7.10602,3.26505 25.01347,3.07452 13.05309,-0.13888 18.20321,0.10087 19.03658,0.8864 0.62834,0.59223 1.60178,0.87386 2.16321,0.62585 0.56142,-0.24802 1.87985,0.0889 2.92984,0.74867 1.53431,0.96412 9.59247,1.18205 41.04856,1.11017 l 39.13949,-0.0895 z M 145.39359,99.064807 c -0.47167,-0.357618 -1.027,-1.245356 -1.23409,-1.972751 -0.26212,-0.920771 -1.30309,-1.262497 -3.42659,-1.124893 -1.67755,0.108689 -2.70036,0.0082 -2.27291,-0.222168 0.76916,-0.415476 0.68125,-12.026922 -0.11066,-14.61477 -0.35207,-1.150555 -0.48613,-1.150144 -1.12118,0.0027 -0.62647,1.13804 -0.72329,1.130066 -0.73646,-0.06052 -0.0118,-1.064469 -0.92821,-1.359549 -4.10047,-1.320287 l -4.0853,0.0505 -0.13128,-3.109817 -0.1313,-3.109817 0.64922,3.108225 0.64922,3.108212 -0.0955,-3.579006 c -0.0525,-1.96847 0.1678,-4.068547 0.48966,-4.66686 0.77683,-1.444085 4.4419,-1.433765 4.19228,0.01235 -0.11573,0.670223 0.83909,1.221026 2.40534,1.387573 2.16981,0.230731 2.54589,0.0096 2.28514,-1.340007 -0.17166,-0.888919 -0.69126,-1.529363 -1.15467,-1.423226 -0.46341,0.106082 -1.01632,-0.557458 -1.22869,-1.474661 -0.53053,-2.291381 2.23925,-3.020656 5.17137,-1.361608 1.2575,0.711531 2.73283,1.292319 3.27849,1.290631 0.54566,-0.0014 1.55367,0.634734 2.24002,1.414278 0.99787,1.13336 1.47691,1.199109 2.39089,0.328126 0.62865,-0.599081 1.14192,-1.540122 1.14062,-2.091212 -0.001,-0.576547 1.31921,-1.006062 3.11031,-1.011592 1.71197,-0.0055 3.11344,0.313895 3.11438,0.709293 9.4e-4,0.395412 0.36018,0.4644 0.7983,0.153304 1.14012,-0.809529 12.57909,-0.667588 13.2377,0.164256 0.30295,0.382649 0.78459,1.894665 1.07033,3.360021 0.39814,2.04189 0.32168,2.353521 -0.3273,1.333969 -0.70727,-1.111142 -0.80568,-1.039314 -0.59729,0.435965 0.13722,0.971451 0.90009,1.907291 1.69526,2.079615 0.79518,0.172325 1.26085,-0.02443 1.03484,-0.437309 -0.22602,-0.412855 3.40886,-0.63752 8.07751,-0.499271 l 8.48845,0.251371 0.0144,6.090909 c 0.01,4.041265 -0.31254,6.242758 -0.95722,6.542133 -0.59414,0.275909 -0.45631,0.476888 0.35476,0.517276 1.08639,0.05407 1.3753,-0.939119 1.59657,-5.488753 l 0.27015,-5.554804 -0.0395,5.776258 -0.0395,5.776245 -3.34645,-0.06958 c -2.0323,-0.04227 -2.94845,0.216912 -2.33297,0.660082 0.72031,0.518621 0.54451,0.735107 -0.60767,0.748337 -0.89164,0.0096 -1.87863,0.314224 -2.19331,0.675534 -0.31468,0.361295 -1.16023,0.663827 -1.879,0.672281 -0.71877,0.0082 -1.23019,0.473979 -1.1365,1.034497 0.10041,0.600645 -0.53803,0.872246 -1.55478,0.661428 -0.94882,-0.19674 -1.26211,-0.111983 -0.69618,0.188257 0.64533,0.342413 -0.3,1.282438 -2.53551,2.521317 -1.96045,1.086453 -3.41086,2.147876 -3.22314,2.358749 0.18774,0.210846 -2.34516,0.3448 -5.62866,0.297674 l -5.97,-0.08563 5.44865,0.596858 c 4.32641,0.473924 2.88428,0.634295 -7.00174,0.778638 -6.84772,0.100044 -12.83631,-0.110748 -13.30797,-0.468434 z m 26.18893,-3.469013 c 0.55869,-0.77297 2.66013,-2.363333 4.66986,-3.534118 2.00974,-1.170784 4.20844,-2.765181 4.886,-3.543119 0.67756,-0.777938 2.72763,-1.708892 4.55572,-2.068788 3.31931,-0.65348 3.3241,-0.66004 3.55102,-4.855652 l 0.22723,-4.201293 -8.93602,0.02758 c -9.7218,0.03005 -11.38341,-0.68687 -11.39343,-4.915775 -0.005,-2.002586 -0.29073,-2.157207 -3.96882,-2.145844 -3.30926,0.0096 -4.0302,0.305894 -4.36648,1.790752 -0.52131,2.301879 -3.77792,2.382216 -4.84526,0.11953 -1.1373,-2.410994 -3.04739,-2.958845 -4.9578,-1.42199 -2.10811,1.695896 -5.83688,1.721435 -9.20679,0.06299 -1.44182,-0.70954 -2.18379,-1.307084 -1.64884,-1.327862 1.41762,-0.05503 1.19008,-1.815728 -0.2341,-1.811336 -0.94934,0.0027 -1.09504,0.648334 -0.69204,3.065325 l 0.51048,3.061621 -4.54515,0.283237 c -3.44747,0.214826 -4.60216,0.630686 -4.78117,1.721929 -0.18572,1.132235 0.61863,1.529787 3.77615,1.866409 2.20668,0.23526 4.32094,0.981236 4.69838,1.657744 0.37742,0.676509 0.69846,4.129163 0.71341,7.672543 0.0257,6.082937 0.1249,6.442558 1.77807,6.44297 0.963,5.77e-4 2.80331,0.791703 4.0896,1.758777 2.06492,1.5525 3.67118,1.754906 13.72145,1.729024 9.42307,-0.0247 11.55762,-0.271271 12.39853,-1.434726 z m -12.12531,-26.79107 c -0.20528,-0.23316 -0.92814,-0.178802 -1.60635,0.120766 -1.02067,0.450882 -1.07245,0.885269 -0.3006,2.521536 l 0.93248,1.976814 0.67386,-2.097607 c 0.37062,-1.153684 0.5059,-2.288376 0.30061,-2.521536 z M 137.5313,88.661253 c -0.0112,-3.421215 0.12269,-4.930129 0.29834,-3.353133 0.17564,1.576996 0.1851,4.376157 0.021,6.220389 -0.16409,1.844205 -0.30779,0.553944 -0.31935,-2.867256 z m -17.24487,3.163489 c -0.003,-1.221863 0.17255,-1.722259 0.38987,-1.111993 0.21732,0.610266 0.21969,1.609974 0.005,2.221572 -0.21442,0.611596 -0.39223,0.112257 -0.39513,-1.109579 z m 14.61525,-19.935795 c -4.4e-4,-0.187379 0.69905,-0.551982 1.55443,-0.810243 0.85539,-0.258274 1.5561,-0.107179 1.55715,0.335853 0.001,0.442991 -0.69844,0.807608 -1.55443,0.810243 -0.85599,0.0027 -1.55671,-0.148487 -1.55715,-0.335853 z m 17.69016,-5.634331 c 0.53441,-0.24816 1.40985,-0.250864 1.94543,-0.0055 0.53558,0.244866 0.0983,0.447917 -0.97165,0.451225 -1.06998,0.0027 -1.50818,-0.197041 -0.97378,-0.445215 z m -30.33183,36.005504 c -0.21732,-0.61026 -0.39276,-0.10992 -0.38987,1.11199 0.003,1.22187 0.18071,1.72118 0.39514,1.10958 0.21442,-0.61159 0.21205,-1.6113 -0.005,-2.22157 z M 81.131876,99.42775 c 0.65258,-0.233764 0.83736,-1.037983 0.50812,-2.211539 -0.28455,-1.014296 -0.29565,-2.864689 -0.0247,-4.111967 0.46359,-2.133687 0.72448,-2.243077 4.41174,-1.849984 2.5742,0.274427 3.56194,0.131608 2.87844,-0.416271 -0.7016,-0.562371 -0.32179,-0.656555 1.16589,-0.289097 1.61466,0.398815 2.04971,0.257066 1.62199,-0.528461 -0.39055,-0.71728 -0.19239,-0.903026 0.59722,-0.559818 1.35011,0.586853 3.2386,-1.654671 3.57943,-4.248584 0.1268,-0.965016 0.50866,-4.75458 0.84859,-8.421251 0.33993,-3.666671 1.247348,-8.434685 2.016484,-10.595584 1.21669,-3.418278 1.28887,-4.781038 0.5554,-10.485606 -0.46367,-3.606192 -1.409126,-7.267154 -2.101024,-8.135474 -0.69189,-0.86832 -1.26007,-2.459905 -1.26263,-3.536848 -0.003,-1.163716 -0.65376,-2.23001 -1.6047,-2.628387 -0.88004,-0.368665 -2.02109,-1.619566 -2.53566,-2.779783 -0.79351,-1.789132 -2.53205,-2.557862 -11.44797,-5.061969 -6.61948,-1.859149 -12.67376,-2.993978 -16.34897,-3.064502 -3.21012,-0.06162 -5.04907,-0.272382 -4.08654,-0.468394 0.96253,-0.196011 1.74924,-0.700551 1.74824,-1.121187 -9.9e-4,-0.420636 -1.13669,-0.389305 -2.52377,0.06958 -1.38707,0.458924 -2.67018,0.834848 -2.85133,0.835411 -0.18116,5.63e-4 -0.0925,0.270104 0.1971,0.598985 0.91146,1.03521 -3.42413,3.67098 -5.19506,3.158274 -0.92333,-0.267331 -2.85373,-1.229478 -4.28979,-2.138132 -2.00885,-1.271074 -2.85937,-1.415403 -3.68791,-0.625841 -0.59229,0.564429 -1.59595,0.800636 -2.23034,0.524878 -0.63439,-0.275744 -1.3928,-0.0564 -1.68534,0.487414 -0.3445,0.640388 -0.1736,0.734366 0.48503,0.2667 0.6729,-0.47778 0.82992,-0.374401 0.46412,0.305593 -0.30405,0.565198 -1.58267,1.030819 -2.8414,1.034716 -2.43881,0.0069 -3.21074,2.079424 -1.11425,2.990698 1.52721,0.663828 1.52806,5.350188 10e-4,8.026593 -0.97211,1.704267 -1.13557,5.025232 -0.92805,18.855105 0.26624,17.742453 0.24347,17.64687 3.80175,15.953842 1.72084,-0.818778 6.1854,4.230428 6.19197,7.002828 0.003,1.439694 0.35365,2.032009 1.02593,1.735021 0.56141,-0.247995 1.66767,0.360953 2.45834,1.353251 1.5114,1.896778 4.66021,2.416236 5.47422,0.903054 0.26335,-0.489555 0.97124,-0.891637 1.57308,-0.893489 1.46262,-0.0041 6.61247,5.189557 6.3956,6.450531 -0.10844,0.630535 0.97175,0.913937 2.94078,0.771557 2.38684,-0.172599 2.84065,-0.0027 1.94717,0.729494 -0.94277,0.772449 -0.79397,0.922157 0.78004,0.7848 1.06977,-0.09332 2.64555,-0.103612 3.50174,-0.02278 1.32078,0.124746 1.38014,0.291046 0.39169,1.097515 -0.89189,0.727669 -0.64835,0.819533 1.03885,0.391871 1.35651,-0.34384 2.02328,-0.222937 1.7342,0.314444 -0.43341,0.805683 3.7376,0.515303 6.42479,-0.447286 z m -27.88783,-6.062899 c -0.002,-0.733119 -0.5713,-1.331184 -1.2657,-1.329043 -1.03403,0.0027 -1.08663,0.244605 -0.29065,1.333846 0.53455,0.731471 1.10411,1.32955 1.2657,1.329042 0.16159,-4.94e-4 0.29238,-0.600728 0.29065,-1.333845 z m -8.58706,-6.416072 c -0.007,-0.366538 -0.35437,-1.265214 -0.771,-1.997042 -0.61254,-1.075996 -0.75887,-0.947998 -0.76467,0.668837 -0.004,1.099697 0.343,1.998373 0.77099,1.997042 0.428,-0.0013 0.7721,-0.302299 0.76468,-0.668837 z M 109.02046,68.996344 c -1.60543,-0.186762 -4.23176,-0.178651 -5.83628,0.01798 -1.60452,0.19667 -0.29099,0.349466 2.91896,0.339558 3.20996,-0.0096 4.52275,-0.170843 2.91732,-0.357591 z m -6.8126,-1.500763 c -5.1e-4,-0.215526 -0.35169,-0.637918 -0.7804,-0.938666 -0.42871,-0.300735 -0.77847,-0.123373 -0.77724,0.394273 10e-4,0.517591 0.3524,0.939997 0.7804,0.938666 0.42799,-0.0013 0.77775,-0.178733 0.77724,-0.394273 z m 60.43692,-27.979048 c -1.17746,-0.199963 -3.10343,-0.194007 -4.27993,0.01372 -1.17651,0.20725 -0.21312,0.370861 2.14084,0.363587 2.35397,-0.0069 3.31656,-0.176839 2.13909,-0.376803 z M 268.66692,37.6563 c -5.1e-4,-0.215526 -0.35169,-0.637932 -0.7804,-0.938666 -0.42871,-0.300749 -0.77847,-0.123374 -0.77724,0.394273 10e-4,0.517591 0.3524,0.939984 0.7804,0.938666 0.42799,-0.0013 0.77775,-0.178747 0.77724,-0.394273 z m -4.10616,-1.909596 c -0.25928,-0.294491 -0.93053,-0.323982 -1.49166,-0.0656 -0.6201,0.285584 -0.43522,0.495593 0.47142,0.535432 0.8204,0.03609 1.27952,-0.175399 1.02024,-0.469889 z m -54.19149,-14.812015 2.61532,-1.306248 -3.30731,-0.02457 c -2.43458,-0.01811 -3.30648,0.32718 -3.30415,1.308375 0.004,1.664538 0.70058,1.668449 3.99614,0.02251 z m -94.90842,56.686808 c -10e-4,-0.488745 0.34807,-0.889702 0.77607,-0.891033 0.42799,-0.0013 0.77911,0.397484 0.78027,0.886229 0.001,0.488745 -0.34807,0.889702 -0.77606,0.891033 -0.428,0.0013 -0.77912,-0.397471 -0.78028,-0.886229 z"
     id="path30"
     inkscape:connector-curvature="0"
     sodipodi:nodetypes="csccccccccccsscsccccscccscccccccccccccccccccccccccccccccccsscscccccccscccssccccsscccccccssccccccsccscccsccsccccccscccscscccccscscccccccccccccccccccccccccccscscccccccccccccccccsccscccccccccscscsscsccccccccccccccccccccccccccccccccsccccccccccccccccccccccccccccscccccscscccccssccccccccccccccccccccccccccccscccscccsccccccccccccccccccsscsccccccsccscccccccccscsccccccccccccsccccccccccccccccccscccscccccscccscccccccccccccccc" />
</svg>
