<?xml version="1.0" encoding="UTF-8" standalone="no"?>
<!-- Created with Inkscape (http://www.inkscape.org/) -->

<svg
   xmlns:dc="http://purl.org/dc/elements/1.1/"
   xmlns:cc="http://creativecommons.org/ns#"
   xmlns:rdf="http://www.w3.org/1999/02/22-rdf-syntax-ns#"
   xmlns:svg="http://www.w3.org/2000/svg"
   xmlns="http://www.w3.org/2000/svg"
   xmlns:sodipodi="http://sodipodi.sourceforge.net/DTD/sodipodi-0.dtd"
   xmlns:inkscape="http://www.inkscape.org/namespaces/inkscape"
   version="1.1"
   id="svg117"
   width="180"
   height="185"
   viewBox="0 0 180 185"
   sodipodi:docname="Brooklyn.svg"
   inkscape:version="0.92.1 r15371">
  <metadata
     id="metadata123">
    <rdf:RDF>
      <cc:Work
         rdf:about="">
        <dc:format>image/svg+xml</dc:format>
        <dc:type
           rdf:resource="http://purl.org/dc/dcmitype/StillImage" />
        <dc:title></dc:title>
      </cc:Work>
    </rdf:RDF>
  </metadata>
  <defs
     id="defs121" />
  <sodipodi:namedview
     pagecolor="#ffffff"
     bordercolor="#666666"
     borderopacity="1"
     objecttolerance="10"
     gridtolerance="10"
     guidetolerance="10"
     inkscape:pageopacity="0"
     inkscape:pageshadow="2"
     inkscape:window-width="1280"
     inkscape:window-height="657"
     id="namedview119"
     showgrid="false"
     inkscape:zoom="1.2756757"
     inkscape:cx="90"
     inkscape:cy="92.5"
     inkscape:window-x="-8"
     inkscape:window-y="-8"
     inkscape:window-maximized="1"
     inkscape:current-layer="svg117" />
  <path
     style="fill:#000000;stroke-width:0.81901067"
     d="m 138.25256,166.00981 c -0.2658,-0.33932 -0.48324,-2.20369 -0.48324,-4.14304 0,-6.37438 -0.65414,-6.54493 -22.59271,-5.89068 -10.49712,0.31304 -26.046003,0.65121 -34.553083,0.75149 -15.45989,0.18224 -15.46811,0.18125 -16.85255,-2.0024 -1.2788,-2.01695 -1.38516,-3.91354 -1.38516,-24.70021 0,-14.0121 -0.27373,-22.73153 -0.72483,-23.08746 -0.39867,-0.31457 -0.73522,-1.90079 -0.74791,-3.52493 -0.0128,-1.62414 -0.45898,-3.686351 -0.99181,-4.582691 -0.75172,-1.26458 -0.88703,-4.901 -0.60387,-16.23032 0.30576,-12.23445 0.17631,-15.0662 -0.79883,-17.47371 -1.20318,-2.97055 -6.91908,-8.85323 -9.6427,-9.92406 -0.85254,-0.33521 -2.4019,-1.61731 -3.44301,-2.84918 -1.73623,-2.05436 -1.89291,-2.85151 -1.89291,-9.631359 V 35.3296 l 2.71815,-0.28722 c 2.70311,-0.28562 2.96515,-0.80154 2.26109,-4.45157 -0.23045,-1.19467 2.11596,-1.45261 16.83781,-1.85082 13.14077,-0.35546 17.38725,-0.76165 18.3208,-1.75246 1.04755,-1.11177 1.54784,-1.06102 3.626,0.36783 3.27493,2.25168 4.24302,4.40383 3.34201,7.42946 -0.39381,1.32241 -0.71602,4.01514 -0.71602,5.98383 0,3.09211 0.41945,4.01527 3.08058,6.780249 1.69433,1.76044 4.38121,3.97542 5.97086,4.9222 1.749693,1.0421 3.287383,2.81629 3.896543,4.49585 0.55343,1.52592 2.10687,4.92718 3.45207,7.55832 1.91994,3.75528 2.44679,5.74508 2.45031,9.25415 0.003,2.45862 0.98101,8.7925 2.17453,14.07524 1.19352,5.28275 2.17003,11.4743 2.17003,13.759041 0,3.29602 0.44917,4.80716 2.17453,7.31602 2.35781,3.4285 2.78713,7.32333 1.45893,13.23593 -0.52978,2.35847 -0.48273,3.37433 0.18122,3.91274 0.49324,0.39994 5.07483,0.73357 10.1813,0.74137 5.10647,0.006 9.12185,0.35021 8.92302,0.7609 -0.19882,0.41071 0.43429,2.5354 1.40692,4.72153 0.9726,2.18613 1.76837,4.6725 1.76837,5.52526 0,0.85274 0.49966,2.4612 1.11034,3.57434 0.61068,1.11313 1.60241,3.8085 2.20385,5.98974 0.60141,2.18124 2.38501,6.69774 3.96354,10.0367 4.12748,8.7306 4.0031,9.19852 -2.44545,9.19852 -2.92353,0 -5.53296,-0.27763 -5.79872,-0.61694 z m 7.90305,-5.8923 c -1.31287,-2.54515 -3.77158,-8.68064 -5.46382,-13.63442 -1.6922,-4.9538 -3.44976,-10.01576 -3.90567,-11.24879 -2.17817,-5.89108 -1.71271,-5.61563 -9.69889,-5.7398 -4.09141,-0.0636 -7.68359,-0.18822 -7.98257,-0.27686 -3.88744,-1.15249 -4.8902,-2.90535 -3.78508,-6.61635 1.68503,-5.65839 0.60421,-11.9658 -2.26961,-13.24485 -2.09362,-0.93178 -2.10349,-0.97212 -1.99601,-8.15557 0.0834,-5.576551 -0.32631,-8.903701 -1.80073,-14.622481 -1.06896,-4.1461 -1.91281,-9.53659 -1.91798,-12.25199 -0.007,-4.14067 -0.43248,-5.62708 -2.90769,-10.17957 -1.59413,-2.93198 -2.89885,-6.03158 -2.89935,-6.88799 -5.2e-4,-0.85642 -0.73485,-1.84043 -1.631853,-2.1867 -2.6267,-1.01399 -9.17348,-6.83059 -10.41844,-9.25643 -1.14113,-2.223519 -1.11082,-7.582349 0.0686,-12.133109 0.43253,-1.6689 0.0776,-2.26479 -2.15558,-3.61766 -2.50407,-1.51705 -2.80292,-1.522 -4.7175,-0.0781 -1.79143,1.35105 -3.93907,1.48359 -17.37599,1.07226 -14.62518,-0.44769 -15.31247,-0.39113 -14.91026,1.22675 0.37306,1.50071 -2.08691,5.70088 -2.93675,5.0142 -0.15747,-0.12713 -0.77559,-0.23134 -1.37358,-0.23134 -0.86355,0 -1.08726,1.34121 -1.08726,6.51847 0,4.677939 0.25583,6.476039 0.90604,6.368249 2.01965,-0.33483 2.71817,0.15855 2.71817,1.9199 0,1.3656 0.48323,1.85084 1.84315,1.85084 2.46852,0 8.70233,7.49817 9.8162,11.80713 0.57224,2.21366 0.73713,7.72656 0.49899,16.68218 -0.32184,12.10405 -0.21036,13.82732 1.17262,18.123531 1.39907,4.34627 1.53905,6.68898 1.65573,27.70934 0.10851,19.54777 0.30437,23.30645 1.31751,25.28053 l 1.19008,2.31889 16.44108,-0.54289 c 9.04261,-0.2986 24.806003,-0.63928 35.029783,-0.75706 17.39482,-0.20042 18.68661,-0.10085 20.11433,1.54872 1.04046,1.20224 1.52569,2.87989 1.52569,5.27497 v 3.51203 l 4.16782,0.27755 c 2.29231,0.15263 4.39015,0.16647 4.66184,0.0307 0.27171,-0.13573 -0.58018,-2.32918 -1.89305,-4.87431 z"
     id="path127"
     inkscape:connector-curvature="0" />
</svg>
