<?xml version="1.0" encoding="UTF-8" standalone="no"?>
<!-- Created with Inkscape (http://www.inkscape.org/) -->

<svg
   xmlns:dc="http://purl.org/dc/elements/1.1/"
   xmlns:cc="http://creativecommons.org/ns#"
   xmlns:rdf="http://www.w3.org/1999/02/22-rdf-syntax-ns#"
   xmlns:svg="http://www.w3.org/2000/svg"
   xmlns="http://www.w3.org/2000/svg"
   xmlns:sodipodi="http://sodipodi.sourceforge.net/DTD/sodipodi-0.dtd"
   xmlns:inkscape="http://www.inkscape.org/namespaces/inkscape"
   version="1.1"
   id="svg3931"
   width="380"
   height="289"
   viewBox="0 0 380 289"
   sodipodi:docname="southChicago.svg"
   inkscape:version="0.92.1 r15371">
  <metadata
     id="metadata3937">
    <rdf:RDF>
      <cc:Work
         rdf:about="">
        <dc:format>image/svg+xml</dc:format>
        <dc:type
           rdf:resource="http://purl.org/dc/dcmitype/StillImage" />
        <dc:title></dc:title>
      </cc:Work>
    </rdf:RDF>
  </metadata>
  <defs
     id="defs3935" />
  <sodipodi:namedview
     pagecolor="#ffffff"
     bordercolor="#666666"
     borderopacity="1"
     objecttolerance="10"
     gridtolerance="10"
     guidetolerance="10"
     inkscape:pageopacity="0"
     inkscape:pageshadow="2"
     inkscape:window-width="1280"
     inkscape:window-height="657"
     id="namedview3933"
     showgrid="false"
     inkscape:zoom="0.816609"
     inkscape:cx="190"
     inkscape:cy="18.846687"
     inkscape:window-x="-8"
     inkscape:window-y="-8"
     inkscape:window-maximized="1"
     inkscape:current-layer="svg3931" />
  <path
     style="fill:#000000;stroke-width:0.59784448"
     d="m 219.96896,192.85157 0.27776,-6.77543 h -2.15081 c -1.25499,0 -3.40773,0.64728 -5.16857,1.55408 -2.64826,1.36379 -3.62052,1.55523 -7.94066,1.56355 -5.96297,0.0115 -7.07821,-0.60876 -7.07821,-3.93664 0,-2.22722 0.0735,-2.30811 2.09874,-2.30811 2.00585,0 2.08932,-0.0865 1.88589,-1.95445 l -0.21285,-1.95445 -7.50284,-0.14893 c -4.12656,-0.0819 -7.9069,-0.4038 -8.40077,-0.7153 -0.49388,-0.3115 -0.89793,-1.25667 -0.89793,-2.10037 0,-3.4615 -0.30052,-3.55023 -12.02525,-3.55023 h -10.60543 v -2.327 c 0,-3.37824 -1.48622,-3.81013 -10.65841,-3.09728 -3.64286,0.28312 -4.28117,0.50433 -5.28288,1.83078 -0.99382,1.31602 -1.53766,1.50876 -4.25725,1.50876 -3.00714,0 -3.11791,-0.0555 -3.11791,-1.56356 v -1.56356 h -12.00111 -12.00111 v -2.86653 -2.86652 l 4.62901,-0.0197 c 4.56012,-0.0194 9.29416,-0.3537 10.97244,-0.77486 0.5876,-0.14745 0.85852,-1.49074 0.86133,-4.27067 0.002,-2.23055 0.20231,-5.99045 0.44453,-8.35534 l 0.44042,-4.29979 h 2.87807 c 3.3282,0 5.14799,1.16248 5.14799,3.28853 0,1.66091 2.15795,2.25567 6.03778,1.66412 1.39393,-0.21254 4.23174,-0.53433 6.30622,-0.71509 l 3.77177,-0.32866 0.20778,-2.45245 0.20776,-2.45245 4.59267,-0.15348 4.59268,-0.15347 v -7.79421 -7.79422 l -26.05956,-0.0236 -26.05955,-0.0236 -0.34497,-7.5572 c -0.18973,-4.15646 -0.65262,-7.90901 -1.02866,-8.33898 -0.37604,-0.42998 -0.83801,-0.0653 -1.02659,-4.0784 l -0.17144,-3.64831 -0.17145,-3.6483 -23.65934,-0.11438 C 74.48563,99.47297 46.83597,99.41433 45.61015,99.40558 l -2.22878,-0.0159 v -4.43009 -4.43008 l 8.40077,-0.0568 c 20.68384,-0.13978 55.08107,-0.75961 55.54943,-1.11651 0.28256,-0.21532 0.6528,-5.73979 0.82278,-7.38771 0.3895,-3.77647 1.53581,-4.82037 5.29331,-4.82037 2.02475,0 3.67878,-0.4245 5.58451,-1.43326 4.42904,-2.34443 5.74472,-4.8023 7.10759,-4.47356 0.71192,0.17173 0.22029,-2.0517 1.35194,-2.49641 1.623,-0.63785 3.80127,-2.74675 12.98267,-1.98896 15.38224,1.26958 23.06615,2.18264 23.32025,-7.67984 l 0.16786,-2.51483 22.8021,0.005 c 12.54116,0.003 22.80211,-0.17312 22.80211,-0.39089 0,-0.70856 20.87354,-0.46744 22.12173,0.25554 0.62774,0.3636 0.80229,-0.21992 0.9175,0.94361 l 2.13693,0.5679 2.55753,9.28724 10.51761,0.43104 2.06841,0.41368 c -3.52888,1.25841 -0.90867,-2.49577 2.68177,0.60412 0.60605,0.74604 2.03909,0.83796 2.84745,1.38403 1.07089,0.72342 1.46974,1.59938 1.46974,3.22786 0,1.63779 0.36339,2.42844 1.35988,2.9589 1.08599,0.5781 1.34862,1.2926 1.30397,3.54756 -0.1178,5.95117 1.24824,8.47173 4.92395,9.08529 1.71517,0.28631 1.91167,0.5083 1.5767,1.78126 -0.32825,1.2473 0.23077,1.94651 3.92908,4.91435 2.37149,1.90308 4.86438,3.46014 5.53977,3.46014 1.05189,0 1.17017,0.32052 0.82485,2.23526 -0.2827,1.56747 -0.1251,2.39703 0.52745,2.77678 1.79263,1.04318 7.17371,2.28458 9.9029,2.28458 1.51496,0 3.1248,0.28144 3.57741,0.62542 1.14946,0.87359 1.02542,2.51017 -0.27291,3.60049 -1.55902,1.30922 -0.78014,1.87484 3.51488,2.55248 2.07167,0.32685 4.64644,1.15688 5.7217,1.84451 1.649,1.05452 2.03941,1.80325 2.49402,4.78294 0.29645,1.94299 0.57085,4.93992 0.60978,6.65983 0.0507,2.23898 0.49614,3.64683 1.56843,4.95701 2.09215,2.5563 2.66515,6.5163 1.29764,8.96799 -0.93995,1.68512 -1.08084,5.6765 -1.08084,30.6197 v 28.682 h -42.25641 -42.25642 z m 82.94476,-23.0236 c 0.0447,-15.85895 0.0393,-29.10094 -0.0118,-29.42664 -0.0514,-0.3257 0.30952,-0.70969 0.80199,-0.8533 0.50038,-0.14593 0.83285,-0.91938 0.75364,-1.75317 -0.078,-0.82061 -0.16684,-2.25426 -0.19749,-3.18588 -0.0306,-0.93162 -0.28716,-1.66608 -0.57004,-1.63214 -0.28288,0.0339 -0.74578,0.005 -1.02867,-0.0651 -0.28287,-0.0698 -0.87436,-0.15619 -1.3144,-0.19202 -0.44004,-0.0358 -0.92644,-0.41695 -1.08088,-0.84693 -0.24961,-0.69491 -0.1947,-0.69491 0.49406,0 0.65268,0.65853 0.73934,0.61745 0.54963,-0.26059 -0.30186,-1.3971 -2.54785,-1.1288 -6.60124,0.78859 -2.35974,1.11623 -3.43045,1.35659 -4.35961,0.97866 -1.54934,-0.63017 -1.55789,-1.19142 -0.0315,-2.06919 1.02096,-0.58714 1.07213,-0.58111 0.34288,0.0404 -1.61616,1.37741 -0.85653,1.57373 1.53451,0.39661 2.35954,-1.16163 3.06096,-1.95926 1.72293,-1.95926 -0.37718,0 -0.68577,-0.3518 -0.68577,-0.78178 0,-0.91034 1.45054,-1.03446 2.52716,-0.21624 1.07858,0.81971 5.10424,-0.82749 4.57654,-1.87262 -0.21597,-0.42772 -0.71969,-0.77767 -1.11936,-0.77767 -0.39969,0 -0.52844,-0.15069 -0.28609,-0.33486 0.24232,-0.18418 0.91095,-0.0382 1.48584,0.32441 0.90071,0.56811 1.04525,0.42046 1.04525,-1.06772 0,-1.52515 -0.10187,-1.62104 -0.87224,-0.82044 -0.7272,0.75584 -0.82896,0.25567 -0.61205,-3.00872 0.27631,-4.15869 -0.0192,-4.6966 -3.31736,-6.03807 -0.92803,-0.37746 -2.73667,-0.75786 -4.01922,-0.84532 -1.28254,-0.0875 -2.85567,-0.51927 -3.49586,-0.95958 -0.64017,-0.4403 -1.5254,-0.80055 -1.96716,-0.80055 -0.44178,0 -0.80324,-0.12045 -0.80324,-0.26766 0,-0.39397 1.57311,-2.46458 2.64865,-3.48633 0.82489,-0.78362 0.72438,-0.92748 -0.85908,-1.22952 -0.98631,-0.18814 -2.83943,-0.24924 -4.11804,-0.1358 -1.73222,0.15369 -2.53103,-0.0448 -3.134,-0.77851 -0.58155,-0.70773 -1.374,-0.92179 -2.81671,-0.76087 -1.10411,0.12316 -2.00748,0.0327 -2.00748,-0.20104 0,-0.77679 -2.2918,-2.47301 -2.93386,-2.17143 -0.34752,0.16323 -0.29247,-0.18517 0.12236,-0.77422 1.12077,-1.59155 0.96182,-2.87516 -0.3101,-2.50423 -0.58534,0.17071 -0.92131,0.13459 -0.74657,-0.0803 0.50869,-0.62555 -1.454,-2.34188 -2.25032,-1.96785 -0.41424,0.19457 -0.57356,0.0428 -0.37266,-0.35508 0.45597,-0.90308 -4.15811,-4.34774 -4.78732,-3.57399 -0.77206,0.94939 -3.02791,0.63275 -3.85449,-0.54104 -0.89896,-1.27658 0.38478,-3.75427 1.69224,-3.26613 0.41461,0.1548 0.14552,-0.0929 -0.59803,-0.55047 -0.74352,-0.45756 -1.74648,-0.71685 -2.22877,-0.5762 -0.64035,0.18675 -0.8769,-0.45109 -0.8769,-2.36459 0,-1.61418 -0.26332,-2.49665 -0.68578,-2.29823 -0.40544,0.19044 -0.72994,-0.48942 -0.7938,-1.66309 -0.14639,-2.68992 -0.12301,-2.88092 0.49128,-4.02516 0.40544,-0.75514 0.31488,-0.8939 -0.37266,-0.57095 -0.62451,0.29333 -0.74526,0.22615 -0.3865,-0.21501 0.3111,-0.38257 -0.0888,-1.07396 -0.99047,-1.71237 -1.10521,-0.78254 -1.41171,-1.45273 -1.13875,-2.49001 0.20543,-0.7806 0.006,-1.72242 -0.44657,-2.09293 -0.64984,-0.53381 -0.60654,-0.58777 0.20859,-0.25995 0.56576,0.22754 0.30163,-0.12213 -0.58698,-0.77705 -1.3234,-0.97537 -1.45887,-1.05994 -1.9979,-0.46754 -0.47014,0.5167 -1.0857,0.25045 -0.77561,-0.58735 0.25526,-0.6897 -0.98486,-0.64909 -1.40113,-0.75898 -3.426,-0.90446 -2.52461,0.35881 -2.52461,-0.0453 0,-0.40414 0.33594,0.69253 -1.37894,-0.55158 l -2.23705,-0.0189 -6.62583,-1.23953 -0.72891,-7.27951 -0.63628,-0.81212 c -0.17378,-3.36286 -4.15472,-1.79655 -14.51688,-1.77838 -8.0065,0.014 -9.26756,0.1224 -8.25087,0.70894 1.38622,0.79973 1.61026,2.40161 0.33589,2.40161 -0.47533,0 -1.66351,-0.56326 -2.64041,-1.25168 -1.21592,-0.85687 -2.07894,-1.10598 -2.73609,-0.78976 -0.56332,0.27106 -0.63607,0.46521 -0.17609,0.4699 0.43112,0.004 0.94063,0.31849 1.13225,0.698 0.28097,0.55645 -0.4422,0.59908 -3.7356,0.22025 -2.75198,-0.31655 -4.37014,-0.28931 -4.96126,0.0835 -0.64906,0.4094 -1.24916,0.22818 -2.30741,-0.69681 -0.78662,-0.68756 -1.37808,-1.33163 -1.31436,-1.43127 0.0638,-0.0996 -0.26139,0.15082 -0.72248,0.55657 -0.71844,0.63221 -0.89785,0.6199 -1.2543,-0.0861 -0.35899,-0.71097 -2.29312,-0.82936 -14.12278,-0.86446 -11.04095,-0.0328 -13.89805,-3.89534 -14.69003,-3.29344 -0.74213,0.56401 -0.9832,2.24792 -0.9832,6.86736 0,4.96346 -8.21452,6.30027 -9.13496,7.07325 -1.26881,1.06552 -0.34434,1.31938 1.0984,0.30163 0.74498,-0.52553 0.8208,-0.51426 0.39218,0.0583 -0.31266,0.41763 -0.14237,0.92052 0.41374,1.22184 0.67891,0.36786 0.55882,0.39939 -0.42649,0.11194 -0.75434,-0.22007 -6.65421,-1.58887 -12.94939,-0.62213 l -13.57786,-2.222 -1.71479,1.48505 c -1.04922,0.90863 -1.83015,3.2423 -2.01198,2.85966 -0.19535,-0.41116 1.18996,1.51858 0.20556,1.79487 -0.31864,0.0894 -0.67262,0.15714 -1.0142,0.19923 -0.54121,0.0667 -1.05129,0.0691 -1.34033,-0.008 -0.47147,-0.12606 -0.85722,0.05 -0.85722,0.39118 0,0.34121 -0.45447,0.48785 -1.0099,0.32586 -0.57975,-0.16907 -1.44415,0.17666 -2.0294,0.81168 -0.76077,0.82546 -1.94634,3.16461 -4.67156,3.33636 -5.80322,0.36575 -6.38243,5.01973 -6.62091,11.47565 l -0.0696,1.88349 -19.50419,0.0781 c -15.3437,0.0429 -44.46485,0.21012 -44.67724,0.37153 -0.21238,0.16141 -0.38819,1.74132 -0.39069,3.51091 l -0.003,3.21744 41.42619,0.11194 c 13.9844,0.0616 25.89973,0.25003 26.47847,0.41882 0.83454,0.24338 0.94652,0.7595 0.54107,2.494 -1.07858,4.61423 -0.79842,5.97834 0.66893,8.80757 1.15259,2.22231 1.40468,3.88578 1.40468,9.26888 v 6.56051 l 24.51655,-0.28889 c 13.48411,-0.1589 25.13376,-0.36403 25.8881,-0.45587 1.32253,-0.16099 1.37827,0.16387 1.55884,9.0841 l 0.18728,9.25106 h -4.4734 -4.47337 l 4.2e-4,2.73623 4.3e-4,2.73623 -3.40113,-0.17915 c -2.1662,-0.11411 -4.19663,0.12244 -5.59201,0.65148 -2.35757,0.89383 -8.56943,1.10884 -10.14426,0.35111 -0.5299,-0.25495 -0.9351,-1.22104 -0.90047,-2.14685 0.0754,-2.01735 -1.17749,-3.10668 -3.57333,-3.10668 h -1.76343 l -0.0812,7.42691 c -0.0447,4.0848 -0.0405,7.61231 0.009,7.83891 0.0498,0.2266 -0.23314,0.87157 -0.62868,1.43326 -0.4303,0.61105 -0.45698,1.02126 -0.0663,1.02126 0.35901,0 0.80841,-0.29317 0.99866,-0.65148 0.20664,-0.38919 0.3677,-0.28428 0.40004,0.26059 0.0562,0.94858 -1.63313,1.26761 -2.30934,0.43609 -0.21289,-0.2618 -3.68181,-0.40299 -7.70871,-0.31377 l -7.32164,0.16223 4.4e-4,1.74703 4.5e-4,1.74702 11.17367,0.097 c 6.1455,0.0533 11.60192,0.22188 12.12534,0.37453 0.52344,0.15265 0.95171,0.87124 0.95171,1.59687 0,1.09374 0.32244,1.31796 1.88587,1.31135 1.4696,-0.006 1.65881,-0.11952 0.85723,-0.51321 -0.86686,-0.42576 -0.82836,-0.50648 0.24482,-0.51321 0.82265,-0.005 1.13975,-0.27282 0.89574,-0.75608 -0.20774,-0.41146 -0.009,-0.86201 0.44097,-1.00123 0.45029,-0.13922 0.21691,-0.27164 -0.51857,-0.29427 -1.0401,-0.032 -1.1544,-0.18013 -0.51435,-0.66657 0.64007,-0.48644 1.00582,-0.48644 1.64587,0 0.90073,0.68455 5.49991,0.85825 6.31536,0.23852 0.93269,-0.70884 8.90838,-0.51812 10.4777,0.25054 1.27985,0.62689 1.44623,1.06958 1.13289,3.01417 l -0.36732,2.27936 10.18244,0.15765 c 5.60034,0.0867 10.54074,-0.0297 10.97861,-0.25855 1.01147,-0.52874 1.58947,0.1804 1.68195,2.06349 0.04,0.8139 0.21762,2.12479 0.39477,2.91309 l 0.3221,1.43326 h 7.84894 c 7.81296,0 7.852,0.006 8.5239,1.34925 0.50669,1.01284 0.34108,2.14987 -0.66423,4.56038 -0.73658,1.76612 -1.35655,2.8007 -1.37774,2.29906 -0.0213,-0.50165 -0.4832,-0.91208 -1.02671,-0.91208 -1.6818,0 -1.87049,0.95454 -0.40837,2.06574 1.09786,0.83436 2.2861,1.06138 5.55551,1.06138 3.76366,0 4.32075,-0.14616 5.86149,-1.53776 1.11367,-1.00586 2.08608,-1.42591 2.81134,-1.21439 0.61305,0.17878 0.93096,0.1047 0.71107,-0.1657 -0.38879,-0.4781 3.66599,-0.42837 6.85904,0.0841 1.61843,0.25976 2.15111,1.96539 0.81048,2.59509 -0.4029,0.18924 -0.57069,0.66464 -0.37285,1.05645 0.19784,0.3918 0.0647,0.85098 -0.29614,1.02041 -0.36072,0.16942 -0.65585,2.05084 -0.65585,4.18092 v 3.87288 l 31.03144,0.13556 c 17.0673,0.0745 35.429,0.21169 40.80378,0.30476 l 9.77234,0.16919 z m -51.00024,27.3691 c 0.47147,-0.14458 1.24297,-0.14458 1.71444,0 0.47147,0.14458 0.0857,0.26288 -0.85722,0.26288 -0.94294,0 -1.32869,-0.1183 -0.85722,-0.26288 z m 8.22933,0 c 0.47147,-0.14458 1.24297,-0.14458 1.71444,0 0.47148,0.14458 0.0857,0.26288 -0.85721,0.26288 -0.94296,0 -1.32869,-0.1183 -0.85723,-0.26288 z m 10.27361,0.003 c 0.46429,-0.14276 1.3901,-0.15145 2.05733,-0.0193 0.66725,0.13214 0.28737,0.24895 -0.84417,0.25957 -1.13152,0.0106 -1.67744,-0.0975 -1.21316,-0.24026 z m 18.52905,-0.52431 c 0.47148,-0.14459 1.24297,-0.14459 1.71446,0 0.47147,0.14458 0.0857,0.26288 -0.85722,0.26288 -0.94296,0 -1.32871,-0.1183 -0.85724,-0.26288 z m -29.44558,-3.13798 c 0.49505,-0.15055 1.08654,-0.13204 1.31441,0.0411 0.22787,0.17319 -0.17716,0.29637 -0.90009,0.27374 -0.79888,-0.025 -0.96138,-0.14851 -0.41432,-0.31488 z m 41.3294,-7.76579 c 0.0329,-0.60716 0.19539,-0.73065 0.41431,-0.31489 0.19811,0.37623 0.17375,0.82576 -0.0541,0.99895 -0.22787,0.17318 -0.38996,-0.13465 -0.36019,-0.68406 z m -94.3768,-1.8154 c -0.2486,-0.30572 -0.30494,-0.66764 -0.12522,-0.80426 0.17976,-0.13662 0.50958,0.11352 0.73292,0.55586 0.46371,0.91839 0.0685,1.07993 -0.60773,0.2484 z m -17.11137,-8.29834 c -0.24027,-0.29544 0.035,-0.38281 0.64529,-0.20483 1.18805,0.34648 1.40543,0.72005 0.41899,0.72005 -0.35491,0 -0.83386,-0.23185 -1.06428,-0.51522 z m -21.73545,-5.57386 c 0.49504,-0.15055 1.08653,-0.13204 1.31441,0.0411 0.22788,0.17319 -0.17717,0.29637 -0.90009,0.27374 -0.79889,-0.025 -0.96139,-0.14851 -0.41432,-0.31488 z m -2.22754,-2.61831 c -0.37217,-0.7428 -0.2934,-0.80266 0.38389,-0.29176 0.46868,0.35354 0.67938,0.77408 0.46823,0.93455 -0.21113,0.16047 -0.5946,-0.12879 -0.85212,-0.64279 z m -24.38921,-1.19515 c 0,-0.28666 0.48112,-0.52119 1.06914,-0.52119 0.58803,0 0.87841,0.23453 0.64531,0.52119 -0.23311,0.28665 -0.71423,0.52118 -1.06914,0.52118 -0.35492,0 -0.64531,-0.23453 -0.64531,-0.52118 z m -6.06373,-8.33899 c 0,-0.71663 0.15567,-1.00979 0.34591,-0.65148 0.19024,0.35832 0.19024,0.94465 0,1.30297 -0.19024,0.35831 -0.34591,0.0651 -0.34591,-0.65149 z m 165.95823,-10.94491 c 0,-0.71663 0.15565,-1.0098 0.3459,-0.65148 0.19025,0.35831 0.19025,0.94465 0,1.30296 -0.19025,0.35832 -0.3459,0.0652 -0.3459,-0.65148 z m 0.63165,-2.38877 c 0.0329,-0.60716 0.19539,-0.73065 0.4143,-0.31489 0.1981,0.37623 0.17376,0.82576 -0.0541,0.99895 -0.22788,0.17318 -0.38995,-0.13465 -0.36018,-0.68406 z m -0.55258,-3.35638 c -0.0551,-0.55536 0.13626,-1.12076 0.42512,-1.25643 0.28886,-0.13568 0.48124,0.20673 0.42751,0.7609 -0.13431,1.38549 -0.73009,1.73175 -0.85263,0.49553 z m -5.61944,-6.54616 c 0.0329,-0.60716 0.19541,-0.73065 0.41432,-0.31489 0.19812,0.37623 0.17376,0.82575 -0.0541,0.99894 -0.22787,0.17319 -0.38996,-0.13464 -0.36018,-0.68405 z m 3.60249,-0.43811 c 0.47132,-0.75901 0.96823,-1.03735 1.24481,-0.69726 0.25317,0.31134 0.0475,0.87983 -0.45712,1.26332 -1.37887,1.04792 -1.66308,0.84367 -0.78769,-0.56606 z m -11.54306,-0.82143 c -0.23312,-0.28665 -0.097,-0.52118 0.30241,-0.52118 0.39944,0 0.72625,0.23453 0.72625,0.52118 0,0.28665 -0.13608,0.52119 -0.30242,0.52119 -0.16631,0 -0.49314,-0.23454 -0.72624,-0.52119 z m 8.18621,-7.34962 c -0.34113,-0.4195 -0.22223,-0.49328 0.35671,-0.22134 0.50339,0.23644 1.14641,0.10598 1.52974,-0.31036 0.55259,-0.60018 0.6175,-0.59509 0.39479,0.031 -0.35582,1.00026 -1.64491,1.28323 -2.28124,0.50075 z m -0.29977,-1.51055 c 0,-0.28665 0.32682,-0.52118 0.72626,-0.52118 0.39943,0 0.53551,0.23453 0.30241,0.52118 -0.23312,0.28665 -0.55993,0.52119 -0.72627,0.52119 -0.16631,0 -0.3024,-0.23454 -0.3024,-0.52119 z m -18.64458,-15.99162 c 0.49504,-0.15055 1.08653,-0.13204 1.3144,0.0411 0.22788,0.17319 -0.17716,0.29637 -0.90007,0.27374 -0.7989,-0.025 -0.9614,-0.14851 -0.41433,-0.31488 z m -1.41442,-1.03151 c 0.47147,-0.14459 1.24297,-0.14459 1.71444,0 0.47147,0.14458 0.0857,0.26288 -0.85722,0.26288 -0.94294,0 -1.32869,-0.1183 -0.85722,-0.26288 z m -5.65766,-5.38788 c 0.2331,-0.28666 0.55993,-0.52119 0.72624,-0.52119 0.16633,0 0.30242,0.23453 0.30242,0.52119 0,0.28665 -0.32682,0.52118 -0.72625,0.52118 -0.39944,0 -0.53553,-0.23453 -0.30241,-0.52118 z m -2.01326,-1.41079 c -0.37216,-0.74279 -0.29339,-0.80266 0.38391,-0.29176 0.46867,0.35354 0.67938,0.77409 0.46823,0.93456 -0.21113,0.16046 -0.5946,-0.12879 -0.85214,-0.6428 z m -0.38696,-2.23752 c -0.61809,-0.30357 -0.70269,-0.50841 -0.21193,-0.51321 0.44921,-0.004 1.00748,0.22656 1.24058,0.51321 0.52621,0.64707 0.2888,0.64707 -1.02865,0 z m 0.02,-1.5432 c -0.55485,-0.26668 -0.83028,-0.62056 -0.61207,-0.7864 0.21822,-0.16583 0.78712,0.0559 1.26422,0.49285 0.98931,0.90594 0.79961,0.99132 -0.65215,0.29355 z m -5.16322,-1.06273 c 0.2331,-0.28665 0.55991,-0.52119 0.72624,-0.52119 0.16634,0 0.30242,0.23454 0.30242,0.52119 0,0.28665 -0.32681,0.52118 -0.72625,0.52118 -0.39944,0 -0.53552,-0.23453 -0.30241,-0.52118 z M 47.73275,96.5007 c -0.22335,-0.44234 -0.25286,-0.92071 -0.0655,-1.06305 0.18728,-0.14233 0.50512,0.21959 0.7063,0.80426 0.42733,1.24195 -0.0475,1.43373 -0.64073,0.25879 z m 209.15267,-4.44295 c 0,-0.11266 0.47894,-0.3445 1.0643,-0.51522 0.61029,-0.17798 0.88555,-0.0906 0.64529,0.20484 -0.40272,0.49523 -1.70959,0.7325 -1.70959,0.31038 z M 49.42485,94.86418 c 0.49505,-0.15056 1.08653,-0.13204 1.31441,0.0412 0.22787,0.17319 -0.17716,0.29637 -0.9001,0.27374 -0.79887,-0.025 -0.96137,-0.14851 -0.41431,-0.31489 z m 22.82291,-0.0126 c 0.85305,-0.12466 2.08745,-0.11993 2.74312,0.0105 0.65565,0.13045 -0.0424,0.23245 -1.55099,0.22666 -1.50872,-0.006 -2.04517,-0.11251 -1.19213,-0.23718 z m 186.56642,-4.5086 c 0.49505,-0.15055 1.08653,-0.13204 1.31441,0.0412 0.22787,0.17319 -0.17717,0.29637 -0.90007,0.27374 -0.79891,-0.025 -0.9614,-0.14851 -0.41434,-0.31489 z M 48.68316,93.83597 c 0.46429,-0.14276 1.39009,-0.15145 2.05733,-0.0193 0.66724,0.13214 0.28737,0.24895 -0.84417,0.25957 -1.13152,0.0106 -1.67746,-0.0975 -1.21316,-0.24026 z M 255.38529,82.00401 c 0.49504,-0.15055 1.08653,-0.13204 1.31441,0.0412 0.22788,0.17319 -0.17716,0.29637 -0.90009,0.27374 -0.79889,-0.025 -0.96139,-0.14851 -0.41432,-0.31489 z m -142.5561,-2.16303 c -0.19427,-0.23888 0.0962,-0.43433 0.64529,-0.43433 0.54918,0 0.9985,0.19545 0.9985,0.43433 0,0.23887 -0.29038,0.43432 -0.6453,0.43432 -0.35492,0 -0.80424,-0.19545 -0.99849,-0.43432 z m 5.62988,-0.4429 c 0.49504,-0.15055 1.08653,-2.13204 1.31441,-1.9589 0.22788,0.17319 -0.17717,2.29637 -0.90009,2.27374 -0.79889,-0.025 -0.96139,-0.14851 -0.41432,-0.31488 z m 3.55748,-3.74507 c 0,-0.27766 0.4629,-0.50483 1.02866,-0.50483 0.56577,0 1.02868,0.0922 1.02868,0.20483 0,0.11266 -0.46291,0.33983 -1.02868,0.50483 -0.56576,0.165 -1.02866,0.0728 -1.02866,-0.20483 z m 62.51934,-17.26754 c -0.86454,-0.28234 -0.99128,-0.44793 -0.3429,-0.44793 0.56577,0 1.64587,0.20157 2.40021,0.44793 0.86453,0.28233 0.99128,0.44792 0.34289,0.44792 -0.56576,0 -1.64586,-0.20156 -2.4002,-0.44792 z m 77.92087,34.25932 c -0.6773,-0.51091 -0.75607,-0.45104 -0.3839,0.29175 0.25752,0.51401 0.64098,0.80327 0.85212,0.6428 0.21115,-0.16047 4.4e-4,-0.58102 -0.46822,-0.93455 z"
     id="path3941-3"
     inkscape:connector-curvature="0"
     sodipodi:nodetypes="ccsccssscccsscsscssccccccccccsscccccccccccscsccscccccccscccscccsccccccccscccccsccsccccccscsccccccccccccccccccccssscsccsccsccsscccccscccccccccccsccccccccccccsscccccccsccccscccccccscscccsccccscscccccccccccccscscccccccccccscccsscccccccccscccccccccccccccccscccscscccccccscccccssssccsccccccccsccccccccccccccccccscccccccsccsscsssccssccscccccccccccccccccccssscccccccsscsscccccccsccsssccccccccccccccsssccccccsccsccccccccccccccccccccccccccsssccccccssscsccscccccc" />
</svg>
