<svg id="Capa_1" data-name="Capa 1" xmlns="http://www.w3.org/2000/svg" width="264" height="152" viewBox="0 0 264 152"><defs><style>.cls-1{fill:none;stroke-width:4px;}.cls-1,.cls-2{stroke:#f8f8f8;stroke-miterlimit:10;}.cls-2{fill:#fff;stroke-width:0.75px;}</style></defs><title>Icon1</title><path class="cls-1" d="M201.8,259.1,217.2,163h22.1l15.4,96.1" transform="translate(-118.1 -153)"/><path class="cls-1" d="M261.6,259.1V163h22.8c15.6,0,22.4,7.3,22.4,22.1v7.5c0,9.9-3.2,16.2-9.9,19.4v.3c7.5,3.2,10,10.3,10,20.3v14.8c0,4.7.1,8.1,1.6,11.7" transform="translate(-118.1 -153)"/><path class="cls-1" d="M316.7,259.1V163h21l11,68.2h.3L359.1,163h21v96.1" transform="translate(-118.1 -153)"/><line class="cls-1" x1="34.4" y1="118.4" x2="262" y2="118.4"/><path class="cls-1" d="M154.4,259.4A113.9,113.9,0,0,1,143,245.6,180.4,180.4,0,0,1,130,225a110.7,110.7,0,0,1-7.7-17.4,36.8,36.8,0,0,1-1.9-16.6,41.7,41.7,0,0,1,5.2-15.6,41.1,41.1,0,0,1,8-9.9,39.8,39.8,0,0,1,8.2-5.8,38.6,38.6,0,0,1,13.5-4.3l2.9-.5h5.6l.7.2a43,43,0,0,1,13.5,3.6,40.8,40.8,0,0,1,15.1,11.8,39.8,39.8,0,0,1,7.3,14.3,36.1,36.1,0,0,1,.8,17.9,82.4,82.4,0,0,1-6.9,18.2,166.1,166.1,0,0,1-11.7,19.8A139,139,0,0,1,168.7,258m-7.8-35a27.3,27.3,0,1,0-27.3-27.2A27.3,27.3,0,0,0,160.9,223.1Z" transform="translate(-118.1 -153)"/><path class="cls-2" d="M160.9,295.5h-5.1l-2,5.6h-.9l5.5-15,5.5,15H163Zm-.3-.8-2.2-6.2-2.2,6.2Z" transform="translate(-118.1 -153)"/><path class="cls-2" d="M166.9,292.9v8.2h-.8v-8.2h-.9v-.8h.9v-2.4a2.6,2.6,0,0,1,.8-1.8,2.5,2.5,0,0,1,1.7-.7l1.1.2-.3.7-.7-.2a1.8,1.8,0,0,0-1.2.5,1.8,1.8,0,0,0-.5,1.2v2.4h1.8v.8Z" transform="translate(-118.1 -153)"/><path class="cls-2" d="M171.6,292.9v8.2h-.8v-8.2h-.9v-.8h.9v-2.4a2.6,2.6,0,0,1,.8-1.8,2.5,2.5,0,0,1,1.7-.7l1.1.2-.3.7-.7-.2a1.8,1.8,0,0,0-1.2.5,1.8,1.8,0,0,0-.5,1.2v2.4h1.8v.8Z" transform="translate(-118.1 -153)"/><path class="cls-2" d="M179.5,291.3a5,5,0,1,1-3.6,1.5A4.9,4.9,0,0,1,179.5,291.3Zm-2.9,2.1a4.2,4.2,0,1,0,2.9-1.2A4,4,0,0,0,176.5,293.4Z" transform="translate(-118.1 -153)"/><path class="cls-2" d="M186.7,292.1h.8v1.6l.6-.7a3.4,3.4,0,0,1,2.2-1.1v.9a2.5,2.5,0,0,0-1.6.9,4,4,0,0,0-1.2,2.8v4.7h-.8Z" transform="translate(-118.1 -153)"/><path class="cls-2" d="M201.9,301.1h-.8v-1.8l-.5.6a5,5,0,1,1,0-7.1l.5.6v-7h.8Zm-.8-4v-1.6a4.1,4.1,0,1,0,0,1.6Z" transform="translate(-118.1 -153)"/><path class="cls-2" d="M214.4,301.1h-.8v-1.8l-.5.6a5,5,0,1,1,0-7.1l.5.6v-1.3h.8Zm-.8-4v-1.6a4.1,4.1,0,1,0,0,1.6Z" transform="translate(-118.1 -153)"/><path class="cls-2" d="M217.2,286.4h.8v6.9l.5-.6a5,5,0,1,1,0,7.1l-.5-.6v1.8h-.8Zm.8,9v1.7a4.2,4.2,0,1,0,0-1.7Z" transform="translate(-118.1 -153)"/><path class="cls-2" d="M230.5,286.4v14.7h-.8V286.4Z" transform="translate(-118.1 -153)"/><path class="cls-2" d="M235,299.4a4,4,0,0,0,2.8,1.1,4,4,0,0,0,2.9-1.2l.3-.3.9.3-.5.6a5,5,0,1,1-.4-7.5l.4.4.2.2-.6.6Zm5.3-6.4a4.2,4.2,0,0,0-5.8,5.8Z" transform="translate(-118.1 -153)"/><path class="cls-2" d="M254.2,296h-2.7v5.1h-.8V286.4h3.9a4.9,4.9,0,0,1,2.9,1.4,4.8,4.8,0,0,1,0,6.8,4.7,4.7,0,0,1-2.2,1.3l3.4,5.2h-1Zm-2.7-8.8v7.9h2.5a4,4,0,0,0,0-7.9Z" transform="translate(-118.1 -153)"/><path class="cls-2" d="M262,299.4a4,4,0,0,0,2.8,1.1,4,4,0,0,0,2.9-1.2l.3-.3.9.3-.5.6a5,5,0,1,1-.4-7.5l.4.4.2.2-.6.6Zm5.3-6.4a4.2,4.2,0,0,0-5.8,5.8Z" transform="translate(-118.1 -153)"/><path class="cls-2" d="M272.3,289.2a.8.8,0,0,1,.2.6.8.8,0,0,1-.2.6l-.6.2-.6-.2a.8.8,0,0,1-.2-.6.8.8,0,0,1,.2-.6l.6-.2Zm-.2,3v9h-.8v-9Z" transform="translate(-118.1 -153)"/><path class="cls-2" d="M275.9,294.1v7H275v-9h.8v.6a3.6,3.6,0,0,1,2.6-1.1,3.5,3.5,0,0,1,3.6,3.5v6h-.8v-6a2.6,2.6,0,0,0-.8-2,2.8,2.8,0,0,0-3.9,0A3.1,3.1,0,0,0,275.9,294.1Z" transform="translate(-118.1 -153)"/><path class="cls-2" d="M286.2,292.1v-3.8h.8v3.8h1.8v.8H287v8.2h-.8v-8.2h-1.8v-.8Z" transform="translate(-118.1 -153)"/><path class="cls-2" d="M300.8,301.1h-.8v-1.8l-.5.6a5,5,0,1,1,0-7.1l.5.6v-1.3h.8Zm-.8-4v-1.6a4.1,4.1,0,1,0,0,1.6Z" transform="translate(-118.1 -153)"/><path class="cls-2" d="M304.3,286.4v14.7h-.8V286.4Z" transform="translate(-118.1 -153)"/><path class="cls-2" d="M314.5,286.4l5.5,9.6,5.5-9.6h.9v14.6h-.8V287.9l-5.6,9.7-5.6-9.7v13.2h-.8V286.5h.9Z" transform="translate(-118.1 -153)"/><path class="cls-2" d="M339,301.1h-.8v-1.8l-.5.6a5,5,0,1,1,0-7.1l.5.6v-1.3h.8Zm-.8-4v-1.6a4.1,4.1,0,1,0,0,1.6Z" transform="translate(-118.1 -153)"/><path class="cls-2" d="M344.3,296.5l-1.5-1a2.1,2.1,0,0,1-.6-1.5,2.1,2.1,0,0,1,.6-1.5,2.1,2.1,0,0,1,1.5-.6,2,2,0,0,1,1.5.6,1.8,1.8,0,0,1,.6,1.3h0l-.7.3a1.8,1.8,0,0,0-.4-1,1.2,1.2,0,0,0-.9-.3,1.3,1.3,0,0,0-.9,2.3l1,.7a7.7,7.7,0,0,1,1.7,1.1,2.7,2.7,0,1,1-3.8,3.8,2.4,2.4,0,0,1-.8-1.7l.8-.2a1.8,1.8,0,0,0,.5,1.4,1.9,1.9,0,0,0,2.6-2.6Z" transform="translate(-118.1 -153)"/><path class="cls-2" d="M349.1,286.4h.8v6.1a3.6,3.6,0,0,1,6.1,2.5v6h-.8v-6a2.6,2.6,0,0,0-.8-2,2.8,2.8,0,0,0-3.9,0l-.6.8v7.2h-.8Z" transform="translate(-118.1 -153)"/><path class="cls-2" d="M362.6,301.3a3.6,3.6,0,0,1-2.7-1,3.5,3.5,0,0,1-1-2.5v-5.6h.8v5.5a2.6,2.6,0,0,0,.8,2,2.8,2.8,0,0,0,2,.8,2.7,2.7,0,0,0,2-.8,2.6,2.6,0,0,0,.8-2v-5.5h.8v5.6a3.5,3.5,0,0,1-3.6,3.5Z" transform="translate(-118.1 -153)"/><path class="cls-2" d="M369,292.1h.8v1.3l.5-.6a5,5,0,1,1,0,7.1l-.5-.6v5.3H369Zm.8,3.4v1.7a4.2,4.2,0,1,0,0-1.7Z" transform="translate(-118.1 -153)"/></svg>