<?xml version="1.0" standalone="no"?>
<!DOCTYPE svg PUBLIC "-//W3C//DTD SVG 1.1//EN" "http://www.w3.org/Graphics/SVG/1.1/DTD/svg11.dtd" >
<svg xmlns="http://www.w3.org/2000/svg" xmlns:xlink="http://www.w3.org/1999/xlink" version="1.1">
<metadata>
Created by FontForge 20161116 at Mon Jun 27 22:31:21 2016
 By Jimmy Warting
Copyright (c) 2015 by Je're'mie Dupuis. All rights reserved.
</metadata>
<defs>
<font id="Ghostlight-Regular" horiz-adv-x="0" >
  <font-face 
    font-family="Ghostlight"
    font-weight="400"
    font-stretch="normal"
    units-per-em="1000"
    panose-1="0 0 5 0 0 0 0 0 0 0"
    ascent="800"
    descent="-200"
    x-height="500"
    cap-height="700"
    bbox="-905 -352 1630 1183"
    underline-thickness="70"
    underline-position="-120"
    unicode-range="U+000D-FB02"
  />
<missing-glyph horiz-adv-x="1112" 
d="M808.5 747.5q115.5 -65.5 182 -180t66.5 -255.5t-66.5 -255.5t-182 -180t-257.5 -65.5t-257.5 65.5t-182 180t-66.5 255.5t66.5 255.5t182 180t257.5 65.5t257.5 -65.5zM763 -54q95 55 149.5 151.5t54.5 214.5t-54.5 214.5t-149.5 151.5t-212 55t-212 -55t-149.5 -151.5
t-54.5 -214.5t54.5 -214.5t149.5 -151.5t212 -55t212 55zM657.5 609q46.5 -20 73 -56.5t26.5 -84.5q0 -32 -11.5 -53t-29 -34t-47.5 -29q-35 -19 -56.5 -35.5t-38.5 -47t-21 -77.5h-24q-3 18 -3 40q0 45 9.5 75t23 47t34.5 36q23 21 34 38.5t11 46.5q0 46 -28 74.5t-74 28.5
q-31 0 -57 -13.5t-44 -38.5q22 -4 34.5 -18t12.5 -35q0 -24 -16 -38.5t-41 -14.5q-27 0 -42.5 18.5t-15.5 51.5q0 62 51 100.5t135 38.5q58 0 104.5 -20zM594 119q20 -20 20 -54t-20 -54t-53 -20q-34 0 -54 20t-20 54t20 54t54 20q33 0 53 -20z" />
    <glyph glyph-name="fi" unicode="fi" horiz-adv-x="912" 
d="M40 0zM453 738.5q40 -21.5 59 -54t19 -68.5q0 -38 -19 -60t-52 -22q-31 0 -50.5 18t-19.5 48q0 36 28 53q-16 21 -48 21q-41 0 -65 -28t-24 -74v-72h148v-80h-148v-340h110v-80h-351v80h111v340h-111v80h111v82q0 81 54.5 129.5t146.5 48.5q61 0 101 -21.5zM887 80v-80
h-351v80h111v340h-111v80h241v-420h110zM638 605q-25 25 -25 67q0 41 25 66t67 25q41 0 66 -25t25 -66q0 -42 -25 -67t-66 -25q-42 0 -67 25z" />
    <glyph glyph-name="fl" unicode="fl" horiz-adv-x="852" 
d="M827 80v-80h-351v80h111v471q0 63 -10.5 85t-51.5 28t-157 6q-39 0 -63 -30.5t-24 -79.5v-60h130v-80h-130v-340h110v-80h-351v80h111v340h-111v80h111v70q0 87 55 138.5t153 51.5q21 0 99 -4q90 -6 129 -6h1q43 0 71.5 1.5t57.5 8.5v-680h110z" />
    <glyph glyph-name="T_h.liga" unicode="Th" horiz-adv-x="1262" 
d="M1237 80v-80h-241v250q0 93 -20.5 136.5t-64.5 43.5q-50 0 -80.5 -51.5t-30.5 -138.5v-160h110v-80h-351v80h111v520h-280v-520h110v-80h-361v80h111v520h-83q-38 0 -56.5 -10t-26 -32.5t-12.5 -69.5h-52v212h650q86 0 130 10v-282q26 40 66.5 61t91.5 21q86 0 127 -63
t41 -197v-170h111z" />
    <glyph glyph-name="t_t.liga" unicode="tt" horiz-adv-x="888" 
d="M710 420v-273q0 -40 11.5 -58.5t27.5 -18.5q11 0 19 11.5t8 37.5q0 17 -3 39h70q6 -36 6 -62q0 -55 -30.5 -80.5t-95.5 -25.5q-70 0 -108.5 34.5t-38.5 122.5v273h-310v-273q0 -40 11.5 -58.5t27.5 -18.5q11 0 19 11.5t8 37.5q0 17 -3 39h70q6 -36 6 -62
q0 -55 -30.5 -80.5t-95.5 -25.5q-70 0 -108.5 34.5t-38.5 122.5v273h-107v80h107v200q85 0 134 10v-210h310v200q85 0 134 10v-210h140v-80h-140z" />
    <glyph glyph-name=".notdef" horiz-adv-x="1112" 
d="M808.5 747.5q115.5 -65.5 182 -180t66.5 -255.5t-66.5 -255.5t-182 -180t-257.5 -65.5t-257.5 65.5t-182 180t-66.5 255.5t66.5 255.5t182 180t257.5 65.5t257.5 -65.5zM763 -54q95 55 149.5 151.5t54.5 214.5t-54.5 214.5t-149.5 151.5t-212 55t-212 -55t-149.5 -151.5
t-54.5 -214.5t54.5 -214.5t149.5 -151.5t212 -55t212 55zM657.5 609q46.5 -20 73 -56.5t26.5 -84.5q0 -32 -11.5 -53t-29 -34t-47.5 -29q-35 -19 -56.5 -35.5t-38.5 -47t-21 -77.5h-24q-3 18 -3 40q0 45 9.5 75t23 47t34.5 36q23 21 34 38.5t11 46.5q0 46 -28 74.5t-74 28.5
q-31 0 -57 -13.5t-44 -38.5q22 -4 34.5 -18t12.5 -35q0 -24 -16 -38.5t-41 -14.5q-27 0 -42.5 18.5t-15.5 51.5q0 62 51 100.5t135 38.5q58 0 104.5 -20zM594 119q20 -20 20 -54t-20 -54t-53 -20q-34 0 -54 20t-20 54t20 54t54 20q33 0 53 -20z" />
    <glyph glyph-name=".null" horiz-adv-x="600" 
 />
    <glyph glyph-name="nonmarkingreturn" unicode="&#xd;" horiz-adv-x="600" 
 />
    <glyph glyph-name="space" unicode=" " horiz-adv-x="250" 
 />
    <glyph glyph-name="A" unicode="A" horiz-adv-x="762" 
d="M777 80v-80h-345v80h98l-48 135h-252l-49 -135h90v-80h-286v80h96l241 620h114l242 -620h99zM453 295l-60 168l-12 35q-14 46 -24 68h-1l-25 -71l-11 -32l-61 -168h194z" />
    <glyph glyph-name="Aacute" unicode="&#xc1;" horiz-adv-x="762" 
d="M0 0zM777 80v-80h-345v80h98l-48 135h-252l-49 -135h90v-80h-286v80h96l241 620h114l242 -620h99zM453 295l-60 168l-12 35q-14 46 -24 68h-1l-25 -71l-11 -32l-61 -168h194zM465 932q22 18 47 18q18 0 33 -10.5t23 -27.5q6 -13 6 -28q0 -22 -14 -39t-44 -23l-225 -46
l-6 12z" />
    <glyph glyph-name="Abreve" unicode="&#x102;" horiz-adv-x="762" 
d="M0 0zM777 80v-80h-345v80h98l-48 135h-252l-49 -135h90v-80h-286v80h96l241 620h114l242 -620h99zM453 295l-60 168l-12 35q-14 46 -24 68h-1l-25 -71l-11 -32l-61 -168h194zM223 927h50q0 -69 104 -69q103 0 103 69h50q0 -149 -153 -149q-154 0 -154 149z" />
    <glyph glyph-name="uni1EAE" unicode="&#x1eae;" horiz-adv-x="762" 
d="M305 914l-7 11l167 159q23 23 50 23q17 0 31.5 -9.5t22.5 -24.5q9 -15 9 -33q0 -20 -13 -36.5t-40 -24.5zM223 927h50q0 -69 104 -69q103 0 103 69h50q0 -149 -153 -149q-154 0 -154 149zM777 80v-80h-345v80h98l-48 135h-252l-49 -135h90v-80h-286v80h96l241 620h114
l242 -620h99zM453 295l-60 168l-12 35q-14 46 -24 68h-1l-25 -71l-11 -32l-61 -168h194z" />
    <glyph glyph-name="uni1EB6" unicode="&#x1eb6;" horiz-adv-x="762" 
d="M0 0zM777 80v-80h-345v80h98l-48 135h-252l-49 -135h90v-80h-286v80h96l241 620h114l242 -620h99zM453 295l-60 168l-12 35q-14 46 -24 68h-1l-25 -71l-11 -32l-61 -168h194zM311 -260q-25 25 -25 67q0 41 25 66t67 25q41 0 66 -25t25 -66q0 -42 -25 -67t-66 -25
q-42 0 -67 25zM223 927h50q0 -69 104 -69q103 0 103 69h50q0 -149 -153 -149q-154 0 -154 149z" />
    <glyph glyph-name="uni1EB0" unicode="&#x1eb0;" horiz-adv-x="762" 
d="M188.5 999q-13.5 17 -13.5 38q0 15 8 31t22.5 25.5t32.5 9.5q25 0 49 -21l172 -153l-7 -11l-222 57q-28 7 -41.5 24zM377 858q103 0 103 69h50q0 -149 -153 -149q-154 0 -154 149h50q0 -69 104 -69zM777 80v-80h-345v80h98l-48 135h-252l-49 -135h90v-80h-286v80h96
l241 620h114l242 -620h99zM453 295l-60 168l-12 35q-14 46 -24 68h-1l-25 -71l-11 -32l-61 -168h194z" />
    <glyph glyph-name="uni1EB2" unicode="&#x1eb2;" horiz-adv-x="762" 
d="M0 0zM777 80v-80h-345v80h98l-48 135h-252l-49 -135h90v-80h-286v80h96l241 620h114l242 -620h99zM453 295l-60 168l-12 35q-14 46 -24 68h-1l-25 -71l-11 -32l-61 -168h194zM223 927h50q0 -69 104 -69q103 0 103 69h50q0 -149 -153 -149q-154 0 -154 149zM347 938
q0 15 6 25.5t18 22.5q11 11 16 19t5 19q0 14 -9 22t-23 8q-15 0 -23.5 -7.5t-8.5 -20.5q0 -19 13 -35l-20 -20q-26 15 -37.5 31t-11.5 36q0 34 28.5 54t76.5 20q51 0 82 -23t31 -64q0 -27 -13 -39t-38 -22q-26 -11 -40 -24t-17 -42h-28q-7 22 -7 40z" />
    <glyph glyph-name="uni1EB4" unicode="&#x1eb4;" horiz-adv-x="762" 
d="M0 0zM777 80v-80h-345v80h98l-48 135h-252l-49 -135h90v-80h-286v80h96l241 620h114l242 -620h99zM453 295l-60 168l-12 35q-14 46 -24 68h-1l-25 -71l-11 -32l-61 -168h194zM223 927h50q0 -69 104 -69q103 0 103 69h50q0 -149 -153 -149q-154 0 -154 149zM199 948
q15 51 30.5 78t35.5 37.5t51 10.5q27 0 46 -5.5t41 -15.5q17 -8 28.5 -11.5t24.5 -3.5q25 0 44 15t29 42l26 -10q-15 -51 -30.5 -78t-36 -37.5t-53.5 -10.5q-27 0 -44 5.5t-36 15.5q-14 8 -25 11.5t-26 3.5q-29 0 -49.5 -15t-29.5 -42z" />
    <glyph glyph-name="uni01CD" unicode="&#x1cd;" horiz-adv-x="762" 
d="M0 0zM777 80v-80h-345v80h98l-48 135h-252l-49 -135h90v-80h-286v80h96l241 620h114l242 -620h99zM453 295l-60 168l-12 35q-14 46 -24 68h-1l-25 -71l-11 -32l-61 -168h194zM567 938q-45 -36 -76 -69.5t-53 -71.5h-121q-22 38 -53 71.5t-76 69.5l7 12q110 -22 182 -61
q73 39 183 61z" />
    <glyph glyph-name="Acircumflex" unicode="&#xc2;" horiz-adv-x="762" 
d="M0 0zM777 80v-80h-345v80h98l-48 135h-252l-49 -135h90v-80h-286v80h96l241 620h114l242 -620h99zM453 295l-60 168l-12 35q-14 46 -24 68h-1l-25 -71l-11 -32l-61 -168h194zM560 772q-110 22 -183 61q-72 -39 -182 -61l-7 12q45 36 76 69.5t53 71.5h121q22 -38 53 -71.5
t76 -69.5z" />
    <glyph glyph-name="uni1EA4" unicode="&#x1ea4;" horiz-adv-x="762" 
d="M0 0zM777 80v-80h-345v80h98l-48 135h-252l-49 -135h90v-80h-286v80h96l241 620h114l242 -620h99zM453 295l-60 168l-12 35q-14 46 -24 68h-1l-25 -71l-11 -32l-61 -168h194zM560 772q-110 22 -183 61q-72 -39 -182 -61l-7 12q45 36 76 69.5t53 71.5h121q22 -38 53 -71.5
t76 -69.5zM666 1016q22 18 47 18q18 0 33 -10.5t23 -27.5q6 -13 6 -28q0 -22 -14 -39t-44 -23l-225 -46l-6 12z" />
    <glyph glyph-name="uni1EAC" unicode="&#x1eac;" horiz-adv-x="762" 
d="M0 0zM777 80v-80h-345v80h98l-48 135h-252l-49 -135h90v-80h-286v80h96l241 620h114l242 -620h99zM453 295l-60 168l-12 35q-14 46 -24 68h-1l-25 -71l-11 -32l-61 -168h194zM311 -260q-25 25 -25 67q0 41 25 66t67 25q41 0 66 -25t25 -66q0 -42 -25 -67t-66 -25
q-42 0 -67 25zM560 772q-110 22 -183 61q-72 -39 -182 -61l-7 12q45 36 76 69.5t53 71.5h121q22 -38 53 -71.5t76 -69.5z" />
    <glyph glyph-name="uni1EA6" unicode="&#x1ea6;" horiz-adv-x="762" 
d="M413 1020q0 16 8.5 30.5t22.5 22.5q17 11 36 11t35.5 -12.5t25.5 -38.5l72 -218l-11 -7l-164 161q-25 25 -25 51zM195 772l-7 12q45 36 76 69.5t53 71.5h121q22 -38 53 -71.5t76 -69.5l-7 -12q-110 22 -182 61q-73 -39 -183 -61zM777 80v-80h-345v80h98l-48 135h-252
l-49 -135h90v-80h-286v80h96l241 620h114l242 -620h99zM453 295l-60 168l-12 35q-14 46 -24 68h-1l-25 -71l-11 -32l-61 -168h194z" />
    <glyph glyph-name="uni1EA8" unicode="&#x1ea8;" horiz-adv-x="762" 
d="M0 0zM777 80v-80h-345v80h98l-48 135h-252l-49 -135h90v-80h-286v80h96l241 620h114l242 -620h99zM453 295l-60 168l-12 35q-14 46 -24 68h-1l-25 -71l-11 -32l-61 -168h194zM560 772q-110 22 -183 61q-72 -39 -182 -61l-7 12q45 36 76 69.5t53 71.5h121q22 -38 53 -71.5
t76 -69.5zM498 898q0 15 6 25.5t18 22.5q11 11 16 19t5 19q0 14 -9 22t-23 8q-15 0 -23.5 -7.5t-8.5 -20.5q0 -19 13 -35l-20 -20q-26 15 -37.5 31t-11.5 36q0 34 28.5 54t76.5 20q51 0 82 -23t31 -64q0 -27 -13 -39t-38 -22q-26 -11 -40 -24t-17 -42h-28q-7 22 -7 40z" />
    <glyph glyph-name="uni1EAA" unicode="&#x1eaa;" horiz-adv-x="762" 
d="M0 0zM777 80v-80h-345v80h98l-48 135h-252l-49 -135h90v-80h-286v80h96l241 620h114l242 -620h99zM453 295l-60 168l-12 35q-14 46 -24 68h-1l-25 -71l-11 -32l-61 -168h194zM560 772q-110 22 -183 61q-72 -39 -182 -61l-7 12q45 36 76 69.5t53 71.5h121q22 -38 53 -71.5
t76 -69.5zM199 958q15 51 30.5 78t35.5 37.5t51 10.5q27 0 46 -5.5t41 -15.5q17 -8 28.5 -11.5t24.5 -3.5q25 0 44 15t29 42l26 -10q-15 -51 -30.5 -78t-36 -37.5t-53.5 -10.5q-27 0 -44 5.5t-36 15.5q-14 8 -25 11.5t-26 3.5q-29 0 -49.5 -15t-29.5 -42z" />
    <glyph glyph-name="uni0200" unicode="&#x200;" horiz-adv-x="762" 
d="M0 0zM777 80v-80h-345v80h98l-48 135h-252l-49 -135h90v-80h-286v80h96l241 620h114l242 -620h99zM453 295l-60 168l-12 35q-14 46 -24 68h-1l-25 -71l-11 -32l-61 -168h194zM337 776l-214 85q-24 9 -36 25.5t-12 35.5q0 18 12 37q21 28 53 28q30 0 53 -27l152 -173z
M561 776l-214 85q-24 9 -36 25.5t-12 35.5q0 18 12 37q21 28 53 28q30 0 53 -27l152 -173z" />
    <glyph glyph-name="Adieresis" unicode="&#xc4;" horiz-adv-x="762" 
d="M207.5 797q-22.5 23 -22.5 61t22.5 60.5t60.5 22.5t60.5 -22.5t22.5 -60.5t-22.5 -61t-60.5 -23t-60.5 23zM445.5 797q-22.5 23 -22.5 61t22.5 60.5t60.5 22.5t60.5 -22.5t22.5 -60.5t-22.5 -61t-60.5 -23t-60.5 23zM777 80v-80h-345v80h98l-48 135h-252l-49 -135h90v-80
h-286v80h96l241 620h114l242 -620h99zM453 295l-60 168l-12 35q-14 46 -24 68h-1l-25 -71l-11 -32l-61 -168h194z" />
    <glyph glyph-name="uni1EA0" unicode="&#x1ea0;" horiz-adv-x="762" 
d="M0 0zM777 80v-80h-345v80h98l-48 135h-252l-49 -135h90v-80h-286v80h96l241 620h114l242 -620h99zM453 295l-60 168l-12 35q-14 46 -24 68h-1l-25 -71l-11 -32l-61 -168h194zM311 -260q-25 25 -25 67q0 41 25 66t67 25q41 0 66 -25t25 -66q0 -42 -25 -67t-66 -25
q-42 0 -67 25z" />
    <glyph glyph-name="Agrave" unicode="&#xc0;" horiz-adv-x="762" 
d="M0 0zM777 80v-80h-345v80h98l-48 135h-252l-49 -135h90v-80h-286v80h96l241 620h114l242 -620h99zM453 295l-60 168l-12 35q-14 46 -24 68h-1l-25 -71l-11 -32l-61 -168h194zM463 786l-225 46q-30 6 -44 23t-14 39q0 27 18 46.5t44 19.5q25 0 47 -18l180 -144z" />
    <glyph glyph-name="uni1EA2" unicode="&#x1ea2;" horiz-adv-x="762" 
d="M0 0zM777 80v-80h-345v80h98l-48 135h-252l-49 -135h90v-80h-286v80h96l241 620h114l242 -620h99zM453 295l-60 168l-12 35q-14 46 -24 68h-1l-25 -71l-11 -32l-61 -168h194zM347 800q0 15 6 25.5t18 22.5q11 11 16 19t5 19q0 14 -9 22t-23 8q-15 0 -23.5 -7.5
t-8.5 -20.5q0 -19 13 -35l-20 -20q-26 15 -37.5 31t-11.5 36q0 34 28.5 54t76.5 20q51 0 82 -23t31 -64q0 -27 -13 -39t-38 -22q-26 -11 -40 -24t-17 -42h-28q-7 22 -7 40z" />
    <glyph glyph-name="uni0202" unicode="&#x202;" horiz-adv-x="762" 
d="M0 0zM777 80v-80h-345v80h98l-48 135h-252l-49 -135h90v-80h-286v80h96l241 620h114l242 -620h99zM453 295l-60 168l-12 35q-14 46 -24 68h-1l-25 -71l-11 -32l-61 -168h194zM531 768h-50q0 76 -103 76q-104 0 -104 -76h-50q0 164 154 164q153 0 153 -164z" />
    <glyph glyph-name="Amacron" unicode="&#x100;" horiz-adv-x="762" 
d="M0 0zM777 80v-80h-345v80h98l-48 135h-252l-49 -135h90v-80h-286v80h96l241 620h114l242 -620h99zM453 295l-60 168l-12 35q-14 46 -24 68h-1l-25 -71l-11 -32l-61 -168h194zM190 862h375v-80h-375v80z" />
    <glyph glyph-name="Aogonek" unicode="&#x104;" horiz-adv-x="762" 
d="M779 -167l-4 -48q-28 -18 -71 -18q-63 0 -105.5 33t-42.5 86q0 73 86 114h-210v80h98l-48 135h-252l-49 -135h90v-80h-286v80h96l241 620h114l242 -620h99v-80h-39q-38 -19 -61 -43.5t-23 -62.5q0 -33 19.5 -53t57.5 -20q26 0 48 12zM453 295l-60 168l-12 35
q-14 46 -24 68h-1l-25 -71l-11 -32l-61 -168h194z" />
    <glyph glyph-name="Aring" unicode="&#xc5;" horiz-adv-x="762" 
d="M777 80v-80h-345v80h98l-48 135h-252l-49 -135h90v-80h-286v80h96l231 593q-36 29 -36 74q0 40 30 68t72 28q41 0 71 -28t30 -68q0 -42 -33 -72l232 -595h99zM348.5 779.5q-12.5 -13.5 -12.5 -32.5t12.5 -33t29.5 -14t29 14t12 33t-12 32.5t-29 13.5t-29.5 -13.5z
M453 295l-60 168l-12 35q-14 46 -24 68h-1l-25 -71l-11 -32l-61 -168h194z" />
    <glyph glyph-name="Aringacute" unicode="&#x1fa;" horiz-adv-x="762" 
d="M0 0zM777 80v-80h-345v80h98l-48 135h-252l-49 -135h90v-80h-286v80h96l231 593q-36 29 -36 74q0 40 30 68t72 28q41 0 71 -28t30 -68q0 -42 -33 -72l232 -595h99zM348.5 779.5q-12.5 -13.5 -12.5 -32.5t12.5 -33t29.5 -14t29 14t12 33t-12 32.5t-29 13.5t-29.5 -13.5z
M453 295l-60 168l-12 35q-14 46 -24 68h-1l-25 -71l-11 -32l-61 -168h194zM462 1025q22 18 47 18q18 0 33 -10.5t23 -27.5q6 -13 6 -28q0 -22 -14 -39t-44 -23l-225 -46l-6 12z" />
    <glyph glyph-name="Atilde" unicode="&#xc3;" horiz-adv-x="762" 
d="M0 0zM777 80v-80h-345v80h98l-48 135h-252l-49 -135h90v-80h-286v80h96l241 620h114l242 -620h99zM453 295l-60 168l-12 35q-14 46 -24 68h-1l-25 -71l-11 -32l-61 -168h194zM199 810q15 51 30.5 78t35.5 37.5t51 10.5q27 0 46 -5.5t41 -15.5q17 -8 28.5 -11.5t24.5 -3.5
q25 0 44 15t29 42l26 -10q-15 -51 -30.5 -78t-36 -37.5t-53.5 -10.5q-27 0 -44 5.5t-36 15.5q-14 8 -25 11.5t-26 3.5q-29 0 -49.5 -15t-29.5 -42z" />
    <glyph glyph-name="AE" unicode="&#xc6;" horiz-adv-x="1035" 
d="M985 202v-202h-593v80h111v135h-237l-72 -135h67v-80h-276v80h98l286 540h-96v80h694v-202h-52q-5 47 -12.5 69.5t-26 32.5t-56.5 10h-177v-217h210v-80h-210v-223h195q38 0 56.5 10t26 32.5t12.5 69.5h52zM503 295v325h-23l-172 -325h195z" />
    <glyph glyph-name="AEacute" unicode="&#x1fc;" horiz-adv-x="1035" 
d="M0 0zM985 202v-202h-593v80h111v135h-237l-72 -135h67v-80h-276v80h98l286 540h-96v80h694v-202h-52q-5 47 -12.5 69.5t-26 32.5t-56.5 10h-177v-217h210v-80h-210v-223h195q38 0 56.5 10t26 32.5t12.5 69.5h52zM503 295v325h-23l-172 -325h195zM734 932q22 18 47 18
q18 0 33 -10.5t23 -27.5q6 -13 6 -28q0 -22 -14 -39t-44 -23l-225 -46l-6 12z" />
    <glyph glyph-name="B" unicode="B" horiz-adv-x="744" 
d="M675.5 313q28.5 -37 28.5 -97q0 -102 -75 -159t-211 -57h-378v80h111v540h-111v80h368q81 0 141 -24t92.5 -68t32.5 -104q0 -47 -21.5 -79t-65.5 -53q60 -22 88.5 -59zM291 620v-210h119q62 0 88 20.5t26 72.5q0 58 -30 87.5t-86 29.5h-117zM518.5 116q35.5 36 35.5 101
q0 60 -34 86.5t-110 26.5h-119v-250h127q65 0 100.5 36z" />
    <glyph glyph-name="uni0181" unicode="&#x181;" horiz-adv-x="817" 
d="M748.5 313q28.5 -37 28.5 -97q0 -102 -75 -159t-211 -57h-378v80h111v540h-91q-76 0 -76 -63q0 -17 6 -38h-50q-13 38 -13 75q0 52 26 79t87 27h368q81 0 141 -24t92.5 -68t32.5 -104q0 -47 -21.5 -79t-65.5 -53q60 -22 88.5 -59zM364 620v-210h119q62 0 88 20.5t26 72.5
q0 58 -30 87.5t-86 29.5h-117zM591.5 116q35.5 36 35.5 101q0 60 -34 86.5t-110 26.5h-119v-250h127q65 0 100.5 36z" />
    <glyph glyph-name="C" unicode="C" horiz-adv-x="725" 
d="M685 196q-36 -99 -111 -152.5t-186 -53.5q-103 0 -183 45t-125 126.5t-45 188.5t44 188.5t123 126.5t181 45q134 0 207 -75v65h80v-300h-80q0 73 -25.5 125t-69 78.5t-98.5 26.5q-63 0 -111 -34.5t-74.5 -98t-26.5 -147.5q0 -83 26.5 -146.5t73.5 -98.5t108 -35
q66 0 117.5 40t83.5 115z" />
    <glyph glyph-name="Cacute" unicode="&#x106;" horiz-adv-x="725" 
d="M35 0zM685 196q-36 -99 -111 -152.5t-186 -53.5q-103 0 -183 45t-125 126.5t-45 188.5t44 188.5t123 126.5t181 45q134 0 207 -75v65h80v-300h-80q0 73 -25.5 125t-69 78.5t-98.5 26.5q-63 0 -111 -34.5t-74.5 -98t-26.5 -147.5q0 -83 26.5 -146.5t73.5 -98.5t108 -35
q66 0 117.5 40t83.5 115zM455 932q22 18 47 18q18 0 33 -10.5t23 -27.5q6 -13 6 -28q0 -22 -14 -39t-44 -23l-225 -46l-6 12z" />
    <glyph glyph-name="Ccaron" unicode="&#x10c;" horiz-adv-x="725" 
d="M35 0zM685 196q-36 -99 -111 -152.5t-186 -53.5q-103 0 -183 45t-125 126.5t-45 188.5t44 188.5t123 126.5t181 45q134 0 207 -75v65h80v-300h-80q0 73 -25.5 125t-69 78.5t-98.5 26.5q-63 0 -111 -34.5t-74.5 -98t-26.5 -147.5q0 -83 26.5 -146.5t73.5 -98.5t108 -35
q66 0 117.5 40t83.5 115zM557 938q-45 -36 -76 -69.5t-53 -71.5h-121q-22 38 -53 71.5t-76 69.5l7 12q110 -22 182 -61q73 39 183 61z" />
    <glyph glyph-name="Ccedilla" unicode="&#xc7;" horiz-adv-x="725" 
d="M575 44.5q-74 -53.5 -184 -54.5l-32 -31q12 3 22 3q39 0 68 -29.5t29 -71.5q0 -44 -31.5 -73t-77.5 -29q-26 0 -51 10t-39 26l18 26q9 -8 21.5 -12.5t24.5 -4.5q23 0 37 15.5t14 40.5q0 26 -14.5 44t-35.5 18q-22 0 -39 -17l-3 2l-13 12l59 73q-93 8 -163.5 55t-110 125
t-39.5 178q0 107 44 188.5t123 126.5t181 45q134 0 207 -75v65h80v-300h-80q0 73 -25.5 125t-69 78.5t-98.5 26.5q-63 0 -111 -34.5t-74.5 -98t-26.5 -147.5q0 -83 26.5 -146.5t73.5 -98.5t108 -35q66 0 117.5 40t83.5 115l91 -29q-36 -98 -110 -151.5z" />
    <glyph glyph-name="Ccircumflex" unicode="&#x108;" horiz-adv-x="725" 
d="M35 0zM685 196q-36 -99 -111 -152.5t-186 -53.5q-103 0 -183 45t-125 126.5t-45 188.5t44 188.5t123 126.5t181 45q134 0 207 -75v65h80v-300h-80q0 73 -25.5 125t-69 78.5t-98.5 26.5q-63 0 -111 -34.5t-74.5 -98t-26.5 -147.5q0 -83 26.5 -146.5t73.5 -98.5t108 -35
q66 0 117.5 40t83.5 115zM550 772q-110 22 -183 61q-72 -39 -182 -61l-7 12q45 36 76 69.5t53 71.5h121q22 -38 53 -71.5t76 -69.5z" />
    <glyph glyph-name="Cdotaccent" unicode="&#x10a;" horiz-adv-x="725" 
d="M35 0zM685 196q-36 -99 -111 -152.5t-186 -53.5q-103 0 -183 45t-125 126.5t-45 188.5t44 188.5t123 126.5t181 45q134 0 207 -75v65h80v-300h-80q0 73 -25.5 125t-69 78.5t-98.5 26.5q-63 0 -111 -34.5t-74.5 -98t-26.5 -147.5q0 -83 26.5 -146.5t73.5 -98.5t108 -35
q66 0 117.5 40t83.5 115zM311 805q-25 25 -25 67q0 41 25 66t67 25q41 0 66 -25t25 -66q0 -42 -25 -67t-66 -25q-42 0 -67 25z" />
    <glyph glyph-name="D" unicode="D" horiz-adv-x="772" 
d="M642 608.5q95 -91.5 95 -258.5t-95 -258.5t-268 -91.5h-334v80h111v540h-111v80h334q173 0 268 -91.5zM531.5 150.5q55.5 70.5 55.5 199.5t-55.5 199.5t-157.5 70.5h-83v-540h83q102 0 157.5 70.5z" />
    <glyph glyph-name="uni01F1" unicode="&#x1f1;" horiz-adv-x="1447" 
d="M40 0zM642 608.5q95 -91.5 95 -258.5t-95 -258.5t-268 -91.5h-334v80h111v540h-111v80h334q173 0 268 -91.5zM531.5 150.5q55.5 70.5 55.5 199.5t-55.5 199.5t-157.5 70.5h-83v-540h83q102 0 157.5 70.5zM1397 625l-403 -535h253q38 0 56.5 10t26 32.5t12.5 69.5h52v-202
h-572v70l410 540h-244q-38 0 -56.5 -10t-26 -32.5t-12.5 -69.5h-52v202h556v-75z" />
    <glyph glyph-name="uni01C4" unicode="&#x1c4;" horiz-adv-x="1447" 
d="M40 0zM642 608.5q95 -91.5 95 -258.5t-95 -258.5t-268 -91.5h-334v80h111v540h-111v80h334q173 0 268 -91.5zM531.5 150.5q55.5 70.5 55.5 199.5t-55.5 199.5t-157.5 70.5h-83v-540h83q102 0 157.5 70.5zM1397 625l-403 -535h253q38 0 56.5 10t26 32.5t12.5 69.5h52v-202
h-572v70l410 540h-244q-38 0 -56.5 -10t-26 -32.5t-12.5 -69.5h-52v202h556v-75zM1300 938q-45 -36 -76 -69.5t-53 -71.5h-121q-22 38 -53 71.5t-76 69.5l7 12q110 -22 182 -61q73 39 183 61z" />
    <glyph glyph-name="Eth" unicode="&#xd0;" horiz-adv-x="772" 
d="M642 608.5q95 -91.5 95 -258.5t-95 -258.5t-268 -91.5h-334v80h111v235h-100v70h100v235h-111v80h334q173 0 268 -91.5zM531.5 150.5q55.5 70.5 55.5 199.5t-55.5 199.5t-157.5 70.5h-83v-235h171v-70h-171v-235h83q102 0 157.5 70.5z" />
    <glyph glyph-name="Dcaron" unicode="&#x10e;" horiz-adv-x="772" 
d="M40 0zM642 608.5q95 -91.5 95 -258.5t-95 -258.5t-268 -91.5h-334v80h111v540h-111v80h334q173 0 268 -91.5zM531.5 150.5q55.5 70.5 55.5 199.5t-55.5 199.5t-157.5 70.5h-83v-540h83q102 0 157.5 70.5zM569 938q-45 -36 -76 -69.5t-53 -71.5h-121q-22 38 -53 71.5
t-76 69.5l7 12q110 -22 182 -61q73 39 183 61z" />
    <glyph glyph-name="uni1E10" unicode="&#x1e10;" horiz-adv-x="772" 
d="M40 0zM642 608.5q95 -91.5 95 -258.5t-95 -258.5t-268 -91.5h-334v80h111v540h-111v80h334q173 0 268 -91.5zM531.5 150.5q55.5 70.5 55.5 199.5t-55.5 199.5t-157.5 70.5h-83v-540h83q102 0 157.5 70.5zM445 -112q22 -27 22 -76q0 -58 -33 -100t-98 -64l-8 17
q36 21 53 44.5t21 56.5q-14 -2 -21 -2q-32 0 -51.5 20.5t-19.5 54.5t20.5 55t53.5 21q39 0 61 -27z" />
    <glyph glyph-name="Dcroat" unicode="&#x110;" horiz-adv-x="772" 
d="M40 0zM642 608.5q95 -91.5 95 -258.5t-95 -258.5t-268 -91.5h-334v80h111v235h-100v70h100v235h-111v80h334q173 0 268 -91.5zM531.5 150.5q55.5 70.5 55.5 199.5t-55.5 199.5t-157.5 70.5h-83v-235h171v-70h-171v-235h83q102 0 157.5 70.5z" />
    <glyph glyph-name="uni1E0C" unicode="&#x1e0c;" horiz-adv-x="772" 
d="M40 0zM642 608.5q95 -91.5 95 -258.5t-95 -258.5t-268 -91.5h-334v80h111v540h-111v80h334q173 0 268 -91.5zM531.5 150.5q55.5 70.5 55.5 199.5t-55.5 199.5t-157.5 70.5h-83v-540h83q102 0 157.5 70.5zM309 -260q-25 25 -25 67q0 41 25 66t67 25q41 0 66 -25t25 -66
q0 -42 -25 -67t-66 -25q-42 0 -67 25z" />
    <glyph glyph-name="uni018A" unicode="&#x18a;" horiz-adv-x="837" 
d="M707 608.5q95 -91.5 95 -258.5t-95 -258.5t-268 -91.5h-334v80h111v540h-83q-76 0 -76 -63q0 -17 6 -38h-50q-13 38 -13 75q0 51 24 77.5t81 28.5h334q173 0 268 -91.5zM596.5 150.5q55.5 70.5 55.5 199.5t-55.5 199.5t-157.5 70.5h-83v-540h83q102 0 157.5 70.5z" />
    <glyph glyph-name="uni1E0E" unicode="&#x1e0e;" horiz-adv-x="772" 
d="M40 0zM642 608.5q95 -91.5 95 -258.5t-95 -258.5t-268 -91.5h-334v80h111v540h-111v80h334q173 0 268 -91.5zM531.5 150.5q55.5 70.5 55.5 199.5t-55.5 199.5t-157.5 70.5h-83v-540h83q102 0 157.5 70.5zM192 -142h375v-80h-375v80z" />
    <glyph glyph-name="uni01F2" unicode="&#x1f2;" horiz-adv-x="1314" 
d="M40 0zM642 608.5q95 -91.5 95 -258.5t-95 -258.5t-268 -91.5h-334v80h111v540h-111v80h334q173 0 268 -91.5zM531.5 150.5q55.5 70.5 55.5 199.5t-55.5 199.5t-157.5 70.5h-83v-540h83q102 0 157.5 70.5zM1264 0h-442v74l286 336h-125q-38 0 -56.5 -10t-26 -32.5
t-12.5 -69.5h-52v202h421v-79l-285 -331h144q38 0 56.5 10t26 32.5t12.5 69.5h52v-132z" />
    <glyph glyph-name="uni01C5" unicode="&#x1c5;" horiz-adv-x="1314" 
d="M40 0zM642 608.5q95 -91.5 95 -258.5t-95 -258.5t-268 -91.5h-334v80h111v540h-111v80h334q173 0 268 -91.5zM531.5 150.5q55.5 70.5 55.5 199.5t-55.5 199.5t-157.5 70.5h-83v-540h83q102 0 157.5 70.5zM1264 0h-442v74l286 336h-125q-38 0 -56.5 -10t-26 -32.5
t-12.5 -69.5h-52v202h421v-79l-285 -331h144q38 0 56.5 10t26 32.5t12.5 69.5h52v-132zM1238 738q-45 -36 -76 -69.5t-53 -71.5h-121q-22 38 -53 71.5t-76 69.5l7 12q110 -22 182 -61q73 39 183 61z" />
    <glyph glyph-name="E" unicode="E" horiz-adv-x="683" 
d="M633 202v-202h-593v80h111v540h-111v80h575v-202h-52q-5 47 -12.5 69.5t-26 32.5t-56.5 10h-177v-217h210v-80h-210v-223h195q38 0 56.5 10t26 32.5t12.5 69.5h52z" />
    <glyph glyph-name="Eacute" unicode="&#xc9;" horiz-adv-x="683" 
d="M40 0zM633 202v-202h-593v80h111v540h-111v80h575v-202h-52q-5 47 -12.5 69.5t-26 32.5t-56.5 10h-177v-217h210v-80h-210v-223h195q38 0 56.5 10t26 32.5t12.5 69.5h52zM431 932q22 18 47 18q18 0 33 -10.5t23 -27.5q6 -13 6 -28q0 -22 -14 -39t-44 -23l-225 -46l-6 12z
" />
    <glyph glyph-name="Ebreve" unicode="&#x114;" horiz-adv-x="683" 
d="M40 0zM633 202v-202h-593v80h111v540h-111v80h575v-202h-52q-5 47 -12.5 69.5t-26 32.5t-56.5 10h-177v-217h210v-80h-210v-223h195q38 0 56.5 10t26 32.5t12.5 69.5h52zM189 927h50q0 -69 104 -69q103 0 103 69h50q0 -149 -153 -149q-154 0 -154 149z" />
    <glyph glyph-name="Ecaron" unicode="&#x11a;" horiz-adv-x="683" 
d="M40 0zM633 202v-202h-593v80h111v540h-111v80h575v-202h-52q-5 47 -12.5 69.5t-26 32.5t-56.5 10h-177v-217h210v-80h-210v-223h195q38 0 56.5 10t26 32.5t12.5 69.5h52zM533 938q-45 -36 -76 -69.5t-53 -71.5h-121q-22 38 -53 71.5t-76 69.5l7 12q110 -22 182 -61
q73 39 183 61z" />
    <glyph glyph-name="Ecircumflex" unicode="&#xca;" horiz-adv-x="683" 
d="M40 0zM633 202v-202h-593v80h111v540h-111v80h575v-202h-52q-5 47 -12.5 69.5t-26 32.5t-56.5 10h-177v-217h210v-80h-210v-223h195q38 0 56.5 10t26 32.5t12.5 69.5h52zM526 772q-110 22 -183 61q-72 -39 -182 -61l-7 12q45 36 76 69.5t53 71.5h121q22 -38 53 -71.5
t76 -69.5z" />
    <glyph glyph-name="uni1EBE" unicode="&#x1ebe;" horiz-adv-x="683" 
d="M40 0zM633 202v-202h-593v80h111v540h-111v80h575v-202h-52q-5 47 -12.5 69.5t-26 32.5t-56.5 10h-177v-217h210v-80h-210v-223h195q38 0 56.5 10t26 32.5t12.5 69.5h52zM526 772q-110 22 -183 61q-72 -39 -182 -61l-7 12q45 36 76 69.5t53 71.5h121q22 -38 53 -71.5
t76 -69.5zM632 1016q22 18 47 18q18 0 33 -10.5t23 -27.5q6 -13 6 -28q0 -22 -14 -39t-44 -23l-225 -46l-6 12z" />
    <glyph glyph-name="uni1EC6" unicode="&#x1ec6;" horiz-adv-x="683" 
d="M40 0zM633 202v-202h-593v80h111v540h-111v80h575v-202h-52q-5 47 -12.5 69.5t-26 32.5t-56.5 10h-177v-217h210v-80h-210v-223h195q38 0 56.5 10t26 32.5t12.5 69.5h52zM272 -260q-25 25 -25 67q0 41 25 66t67 25q41 0 66 -25t25 -66q0 -42 -25 -67t-66 -25
q-42 0 -67 25zM526 772q-110 22 -183 61q-72 -39 -182 -61l-7 12q45 36 76 69.5t53 71.5h121q22 -38 53 -71.5t76 -69.5z" />
    <glyph glyph-name="uni1EC0" unicode="&#x1ec0;" horiz-adv-x="683" 
d="M379 1020q0 16 8.5 30.5t22.5 22.5q17 11 36 11t35.5 -12.5t25.5 -38.5l72 -218l-11 -7l-164 161q-25 25 -25 51zM161 772l-7 12q45 36 76 69.5t53 71.5h121q22 -38 53 -71.5t76 -69.5l-7 -12q-110 22 -182 61q-73 -39 -183 -61zM633 202v-202h-593v80h111v540h-111v80
h575v-202h-52q-5 47 -12.5 69.5t-26 32.5t-56.5 10h-177v-217h210v-80h-210v-223h195q38 0 56.5 10t26 32.5t12.5 69.5h52z" />
    <glyph glyph-name="uni1EC2" unicode="&#x1ec2;" horiz-adv-x="683" 
d="M40 0zM633 202v-202h-593v80h111v540h-111v80h575v-202h-52q-5 47 -12.5 69.5t-26 32.5t-56.5 10h-177v-217h210v-80h-210v-223h195q38 0 56.5 10t26 32.5t12.5 69.5h52zM526 772q-110 22 -183 61q-72 -39 -182 -61l-7 12q45 36 76 69.5t53 71.5h121q22 -38 53 -71.5
t76 -69.5zM464 898q0 15 6 25.5t18 22.5q11 11 16 19t5 19q0 14 -9 22t-23 8q-15 0 -23.5 -7.5t-8.5 -20.5q0 -19 13 -35l-20 -20q-26 15 -37.5 31t-11.5 36q0 34 28.5 54t76.5 20q51 0 82 -23t31 -64q0 -27 -13 -39t-38 -22q-26 -11 -40 -24t-17 -42h-28q-7 22 -7 40z" />
    <glyph glyph-name="uni1EC4" unicode="&#x1ec4;" horiz-adv-x="683" 
d="M40 0zM633 202v-202h-593v80h111v540h-111v80h575v-202h-52q-5 47 -12.5 69.5t-26 32.5t-56.5 10h-177v-217h210v-80h-210v-223h195q38 0 56.5 10t26 32.5t12.5 69.5h52zM526 772q-110 22 -183 61q-72 -39 -182 -61l-7 12q45 36 76 69.5t53 71.5h121q22 -38 53 -71.5
t76 -69.5zM165 958q15 51 30.5 78t35.5 37.5t51 10.5q27 0 46 -5.5t41 -15.5q17 -8 28.5 -11.5t24.5 -3.5q25 0 44 15t29 42l26 -10q-15 -51 -30.5 -78t-36 -37.5t-53.5 -10.5q-27 0 -44 5.5t-36 15.5q-14 8 -25 11.5t-26 3.5q-29 0 -49.5 -15t-29.5 -42z" />
    <glyph glyph-name="uni0204" unicode="&#x204;" horiz-adv-x="683" 
d="M53 886.5q-12 16.5 -12 35.5q0 18 12 37q21 28 53 28q30 0 53 -27l152 -173l-8 -11l-214 85q-24 9 -36 25.5zM277 886.5q-12 16.5 -12 35.5q0 18 12 37q21 28 53 28q30 0 53 -27l152 -173l-8 -11l-214 85q-24 9 -36 25.5zM633 202v-202h-593v80h111v540h-111v80h575v-202
h-52q-5 47 -12.5 69.5t-26 32.5t-56.5 10h-177v-217h210v-80h-210v-223h195q38 0 56.5 10t26 32.5t12.5 69.5h52z" />
    <glyph glyph-name="Edieresis" unicode="&#xcb;" horiz-adv-x="683" 
d="M173.5 797q-22.5 23 -22.5 61t22.5 60.5t60.5 22.5t60.5 -22.5t22.5 -60.5t-22.5 -61t-60.5 -23t-60.5 23zM411.5 797q-22.5 23 -22.5 61t22.5 60.5t60.5 22.5t60.5 -22.5t22.5 -60.5t-22.5 -61t-60.5 -23t-60.5 23zM633 202v-202h-593v80h111v540h-111v80h575v-202h-52
q-5 47 -12.5 69.5t-26 32.5t-56.5 10h-177v-217h210v-80h-210v-223h195q38 0 56.5 10t26 32.5t12.5 69.5h52z" />
    <glyph glyph-name="Edotaccent" unicode="&#x116;" horiz-adv-x="683" 
d="M40 0zM633 202v-202h-593v80h111v540h-111v80h575v-202h-52q-5 47 -12.5 69.5t-26 32.5t-56.5 10h-177v-217h210v-80h-210v-223h195q38 0 56.5 10t26 32.5t12.5 69.5h52zM287 805q-25 25 -25 67q0 41 25 66t67 25q41 0 66 -25t25 -66q0 -42 -25 -67t-66 -25q-42 0 -67 25
z" />
    <glyph glyph-name="uni1EB8" unicode="&#x1eb8;" horiz-adv-x="683" 
d="M40 0zM633 202v-202h-593v80h111v540h-111v80h575v-202h-52q-5 47 -12.5 69.5t-26 32.5t-56.5 10h-177v-217h210v-80h-210v-223h195q38 0 56.5 10t26 32.5t12.5 69.5h52zM272 -260q-25 25 -25 67q0 41 25 66t67 25q41 0 66 -25t25 -66q0 -42 -25 -67t-66 -25
q-42 0 -67 25z" />
    <glyph glyph-name="Egrave" unicode="&#xc8;" horiz-adv-x="683" 
d="M40 0zM633 202v-202h-593v80h111v540h-111v80h575v-202h-52q-5 47 -12.5 69.5t-26 32.5t-56.5 10h-177v-217h210v-80h-210v-223h195q38 0 56.5 10t26 32.5t12.5 69.5h52zM429 786l-225 46q-30 6 -44 23t-14 39q0 27 18 46.5t44 19.5q25 0 47 -18l180 -144z" />
    <glyph glyph-name="uni1EBA" unicode="&#x1eba;" horiz-adv-x="683" 
d="M40 0zM633 202v-202h-593v80h111v540h-111v80h575v-202h-52q-5 47 -12.5 69.5t-26 32.5t-56.5 10h-177v-217h210v-80h-210v-223h195q38 0 56.5 10t26 32.5t12.5 69.5h52zM313 800q0 15 6 25.5t18 22.5q11 11 16 19t5 19q0 14 -9 22t-23 8q-15 0 -23.5 -7.5t-8.5 -20.5
q0 -19 13 -35l-20 -20q-26 15 -37.5 31t-11.5 36q0 34 28.5 54t76.5 20q51 0 82 -23t31 -64q0 -27 -13 -39t-38 -22q-26 -11 -40 -24t-17 -42h-28q-7 22 -7 40z" />
    <glyph glyph-name="uni0206" unicode="&#x206;" horiz-adv-x="683" 
d="M40 0zM633 202v-202h-593v80h111v540h-111v80h575v-202h-52q-5 47 -12.5 69.5t-26 32.5t-56.5 10h-177v-217h210v-80h-210v-223h195q38 0 56.5 10t26 32.5t12.5 69.5h52zM497 768h-50q0 76 -103 76q-104 0 -104 -76h-50q0 164 154 164q153 0 153 -164z" />
    <glyph glyph-name="Emacron" unicode="&#x112;" horiz-adv-x="683" 
d="M40 0zM633 202v-202h-593v80h111v540h-111v80h575v-202h-52q-5 47 -12.5 69.5t-26 32.5t-56.5 10h-177v-217h210v-80h-210v-223h195q38 0 56.5 10t26 32.5t12.5 69.5h52zM156 862h375v-80h-375v80z" />
    <glyph glyph-name="Eogonek" unicode="&#x118;" horiz-adv-x="683" 
d="M640 -167l-4 -48q-28 -18 -71 -18q-63 0 -105.5 33t-42.5 86q0 73 86 114h-463v80h111v540h-111v80h575v-202h-52q-5 47 -12.5 69.5t-26 32.5t-56.5 10h-177v-217h210v-80h-210v-223h195q38 0 56.5 10t26 32.5t12.5 69.5h52v-202h-34q-38 -19 -61 -43.5t-23 -62.5
q0 -33 19.5 -53t57.5 -20q26 0 48 12z" />
    <glyph glyph-name="uni018E" unicode="&#x18e;" horiz-adv-x="683" 
d="M532 620v-540h111v-80h-593v202h52q5 -47 12.5 -69.5t26 -32.5t56.5 -10h195v223h-210v80h210v217h-177q-38 0 -56.5 -10t-26 -32.5t-12.5 -69.5h-52v202h575v-80h-111z" />
    <glyph glyph-name="uni1EBC" unicode="&#x1ebc;" horiz-adv-x="683" 
d="M40 0zM633 202v-202h-593v80h111v540h-111v80h575v-202h-52q-5 47 -12.5 69.5t-26 32.5t-56.5 10h-177v-217h210v-80h-210v-223h195q38 0 56.5 10t26 32.5t12.5 69.5h52zM165 810q15 51 30.5 78t35.5 37.5t51 10.5q27 0 46 -5.5t41 -15.5q17 -8 28.5 -11.5t24.5 -3.5
q25 0 44 15t29 42l26 -10q-15 -51 -30.5 -78t-36 -37.5t-53.5 -10.5q-27 0 -44 5.5t-36 15.5q-14 8 -25 11.5t-26 3.5q-29 0 -49.5 -15t-29.5 -42z" />
    <glyph glyph-name="F" unicode="F" horiz-adv-x="635" 
d="M615 498h-52q-5 47 -12.5 69.5t-26 32.5t-56.5 10h-177v-217h210v-80h-210v-233h110v-80h-361v80h111v540h-111v80h575v-202z" />
    <glyph glyph-name="G" unicode="G" horiz-adv-x="731" 
d="M681 70q-42 -32 -122.5 -56t-164.5 -24q-108 0 -189 44.5t-125.5 126t-44.5 189.5q0 107 44.5 189t124.5 126.5t186 44.5q128 0 196 -67v57h80v-300h-80q0 74 -26 126t-70 78t-97 26q-62 0 -109 -34.5t-73 -98t-26 -147.5q0 -128 60 -204t165 -76q41 0 81 11.5t66 31.5
v156h-164v80h288v-279z" />
    <glyph glyph-name="uni01F4" unicode="&#x1f4;" horiz-adv-x="731" 
d="M35 0zM681 70q-42 -32 -122.5 -56t-164.5 -24q-108 0 -189 44.5t-125.5 126t-44.5 189.5q0 107 44.5 189t124.5 126.5t186 44.5q128 0 196 -67v57h80v-300h-80q0 74 -26 126t-70 78t-97 26q-62 0 -109 -34.5t-73 -98t-26 -147.5q0 -128 60 -204t165 -76q41 0 81 11.5
t66 31.5v156h-164v80h288v-279zM477 932q22 18 47 18q18 0 33 -10.5t23 -27.5q6 -13 6 -28q0 -22 -14 -39t-44 -23l-225 -46l-6 12z" />
    <glyph glyph-name="Gbreve" unicode="&#x11e;" horiz-adv-x="731" 
d="M35 0zM681 70q-42 -32 -122.5 -56t-164.5 -24q-108 0 -189 44.5t-125.5 126t-44.5 189.5q0 107 44.5 189t124.5 126.5t186 44.5q128 0 196 -67v57h80v-300h-80q0 74 -26 126t-70 78t-97 26q-62 0 -109 -34.5t-73 -98t-26 -147.5q0 -128 60 -204t165 -76q41 0 81 11.5
t66 31.5v156h-164v80h288v-279zM235 927h50q0 -69 104 -69q103 0 103 69h50q0 -149 -153 -149q-154 0 -154 149z" />
    <glyph glyph-name="Gcaron" unicode="&#x1e6;" horiz-adv-x="731" 
d="M35 0zM681 70q-42 -32 -122.5 -56t-164.5 -24q-108 0 -189 44.5t-125.5 126t-44.5 189.5q0 107 44.5 189t124.5 126.5t186 44.5q128 0 196 -67v57h80v-300h-80q0 74 -26 126t-70 78t-97 26q-62 0 -109 -34.5t-73 -98t-26 -147.5q0 -128 60 -204t165 -76q41 0 81 11.5
t66 31.5v156h-164v80h288v-279zM579 938q-45 -36 -76 -69.5t-53 -71.5h-121q-22 38 -53 71.5t-76 69.5l7 12q110 -22 182 -61q73 39 183 61z" />
    <glyph glyph-name="Gcircumflex" unicode="&#x11c;" horiz-adv-x="731" 
d="M35 0zM681 70q-42 -32 -122.5 -56t-164.5 -24q-108 0 -189 44.5t-125.5 126t-44.5 189.5q0 107 44.5 189t124.5 126.5t186 44.5q128 0 196 -67v57h80v-300h-80q0 74 -26 126t-70 78t-97 26q-62 0 -109 -34.5t-73 -98t-26 -147.5q0 -128 60 -204t165 -76q41 0 81 11.5
t66 31.5v156h-164v80h288v-279zM572 772q-110 22 -183 61q-72 -39 -182 -61l-7 12q45 36 76 69.5t53 71.5h121q22 -38 53 -71.5t76 -69.5z" />
    <glyph glyph-name="Gcommaaccent" unicode="&#x122;" horiz-adv-x="731" 
d="M35 0zM681 70q-42 -32 -122.5 -56t-164.5 -24q-108 0 -189 44.5t-125.5 126t-44.5 189.5q0 107 44.5 189t124.5 126.5t186 44.5q128 0 196 -67v57h80v-300h-80q0 74 -26 126t-70 78t-97 26q-62 0 -109 -34.5t-73 -98t-26 -147.5q0 -128 60 -204t165 -76q41 0 81 11.5
t66 31.5v156h-164v80h288v-279zM455 -112q22 -27 22 -76q0 -58 -33 -100t-98 -64l-8 17q36 21 53 44.5t21 56.5q-14 -2 -21 -2q-32 0 -51.5 20.5t-19.5 54.5t20.5 55t53.5 21q39 0 61 -27z" />
    <glyph glyph-name="Gdotaccent" unicode="&#x120;" horiz-adv-x="731" 
d="M35 0zM681 70q-42 -32 -122.5 -56t-164.5 -24q-108 0 -189 44.5t-125.5 126t-44.5 189.5q0 107 44.5 189t124.5 126.5t186 44.5q128 0 196 -67v57h80v-300h-80q0 74 -26 126t-70 78t-97 26q-62 0 -109 -34.5t-73 -98t-26 -147.5q0 -128 60 -204t165 -76q41 0 81 11.5
t66 31.5v156h-164v80h288v-279zM333 805q-25 25 -25 67q0 41 25 66t67 25q41 0 66 -25t25 -66q0 -42 -25 -67t-66 -25q-42 0 -67 25z" />
    <glyph glyph-name="uni1E20" unicode="&#x1e20;" horiz-adv-x="731" 
d="M35 0zM681 70q-42 -32 -122.5 -56t-164.5 -24q-108 0 -189 44.5t-125.5 126t-44.5 189.5q0 107 44.5 189t124.5 126.5t186 44.5q128 0 196 -67v57h80v-300h-80q0 74 -26 126t-70 78t-97 26q-62 0 -109 -34.5t-73 -98t-26 -147.5q0 -128 60 -204t165 -76q41 0 81 11.5
t66 31.5v156h-164v80h288v-279zM202 862h375v-80h-375v80z" />
    <glyph glyph-name="H" unicode="H" horiz-adv-x="931" 
d="M781 620v-540h110v-80h-361v80h111v242h-350v-242h110v-80h-361v80h111v540h-111v80h361v-80h-110v-202h350v202h-111v80h361v-80h-110z" />
    <glyph glyph-name="Hbar" unicode="&#x126;" horiz-adv-x="931" 
d="M781 620v-60h109v-80h-109v-400h110v-80h-361v80h111v242h-350v-242h110v-80h-361v80h111v400h-109v80h109v60h-111v80h361v-80h-110v-60h350v60h-111v80h361v-80h-110zM641 480h-350v-62h350v62z" />
    <glyph glyph-name="uni1E2A" unicode="&#x1e2a;" horiz-adv-x="931" 
d="M40 0zM781 620v-540h110v-80h-361v80h111v242h-350v-242h110v-80h-361v80h111v540h-111v80h361v-80h-110v-202h350v202h-111v80h361v-80h-110zM313 -88h50q0 -76 104 -76q103 0 103 76h50q0 -164 -153 -164q-154 0 -154 164z" />
    <glyph glyph-name="uni1E28" unicode="&#x1e28;" horiz-adv-x="931" 
d="M40 0zM781 620v-540h110v-80h-361v80h111v242h-350v-242h110v-80h-361v80h111v540h-111v80h361v-80h-110v-202h350v202h-111v80h361v-80h-110zM303 -67.5q29 -29.5 29 -71.5q0 -44 -31.5 -73t-77.5 -29q-26 0 -51 10t-39 26l18 26q9 -8 21.5 -12.5t24.5 -4.5
q23 0 37 15.5t14 40.5q0 26 -14.5 44t-35.5 18q-22 0 -39 -17l-3 2l-13 12l75 93h50l-55 -53q12 3 22 3q39 0 68 -29.5z" />
    <glyph glyph-name="Hcircumflex" unicode="&#x124;" horiz-adv-x="931" 
d="M40 0zM781 620v-540h110v-80h-361v80h111v242h-350v-242h110v-80h-361v80h111v540h-111v80h361v-80h-110v-202h350v202h-111v80h361v-80h-110zM649 772q-110 22 -183 61q-72 -39 -182 -61l-7 12q45 36 76 69.5t53 71.5h121q22 -38 53 -71.5t76 -69.5z" />
    <glyph glyph-name="uni1E24" unicode="&#x1e24;" horiz-adv-x="931" 
d="M40 0zM781 620v-540h110v-80h-361v80h111v242h-350v-242h110v-80h-361v80h111v540h-111v80h361v-80h-110v-202h350v202h-111v80h361v-80h-110zM396 -260q-25 25 -25 67q0 41 25 66t67 25q41 0 66 -25t25 -66q0 -42 -25 -67t-66 -25q-42 0 -67 25z" />
    <glyph glyph-name="I" unicode="I" horiz-adv-x="430" 
d="M280 610v-520h110v-90h-350v90h110v520h-110v90h350v-90h-110z" />
    <glyph glyph-name="IJ" unicode="&#x132;" horiz-adv-x="1044" 
d="M40 0zM280 610v-520h110v-90h-350v90h110v520h-110v90h350v-90h-110zM1019 620h-110v-374q0 -125 -61 -190.5t-173 -65.5q-68 0 -117.5 23.5t-76 64.5t-26.5 91t25 76.5t65 26.5q41 0 64 -25t23 -62q0 -51 -45 -72q19 -27 65 -27q56 0 86.5 42.5t30.5 117.5v374h-111v80
h361v-80z" />
    <glyph glyph-name="Iacute" unicode="&#xcd;" horiz-adv-x="430" 
d="M40 0zM280 610v-520h110v-90h-350v90h110v520h-110v90h350v-90h-110zM303 932q22 18 47 18q18 0 33 -10.5t23 -27.5q6 -13 6 -28q0 -22 -14 -39t-44 -23l-225 -46l-6 12z" />
    <glyph glyph-name="Ibreve" unicode="&#x12c;" horiz-adv-x="430" 
d="M40 0zM280 610v-520h110v-90h-350v90h110v520h-110v90h350v-90h-110zM61 927h50q0 -69 104 -69q103 0 103 69h50q0 -149 -153 -149q-154 0 -154 149z" />
    <glyph glyph-name="uni01CF" unicode="&#x1cf;" horiz-adv-x="430" 
d="M26 0zM280 610v-520h110v-90h-350v90h110v520h-110v90h350v-90h-110zM405 938q-45 -36 -76 -69.5t-53 -71.5h-121q-22 38 -53 71.5t-76 69.5l7 12q110 -22 182 -61q73 39 183 61z" />
    <glyph glyph-name="Icircumflex" unicode="&#xce;" horiz-adv-x="430" 
d="M26 0zM280 610v-520h110v-90h-350v90h110v520h-110v90h350v-90h-110zM398 772q-110 22 -183 61q-72 -39 -182 -61l-7 12q45 36 76 69.5t53 71.5h121q22 -38 53 -71.5t76 -69.5z" />
    <glyph glyph-name="uni0208" unicode="&#x208;" horiz-adv-x="430" 
d="M175 776l-214 85q-24 9 -36 25.5t-12 35.5q0 18 12 37q21 28 53 28q30 0 53 -27l152 -173zM407 787l-8 -11l-214 85q-24 9 -36 25.5t-12 35.5q0 18 12 37q21 28 53 28q30 0 53 -27zM390 610h-110v-520h110v-90h-350v90h110v520h-110v90h350v-90z" />
    <glyph glyph-name="Idieresis" unicode="&#xcf;" horiz-adv-x="430" 
d="M45.5 797q-22.5 23 -22.5 61t22.5 60.5t60.5 22.5t60.5 -22.5t22.5 -60.5t-22.5 -61t-60.5 -23t-60.5 23zM404.5 918.5q22.5 -22.5 22.5 -60.5t-22.5 -61t-60.5 -23t-60.5 23t-22.5 61t22.5 60.5t60.5 22.5t60.5 -22.5zM390 610h-110v-520h110v-90h-350v90h110v520h-110
v90h350v-90z" />
    <glyph glyph-name="Idotaccent" unicode="&#x130;" horiz-adv-x="430" 
d="M40 0zM280 610v-520h110v-90h-350v90h110v520h-110v90h350v-90h-110zM159 805q-25 25 -25 67q0 41 25 66t67 25q41 0 66 -25t25 -66q0 -42 -25 -67t-66 -25q-42 0 -67 25z" />
    <glyph glyph-name="uni1ECA" unicode="&#x1eca;" horiz-adv-x="430" 
d="M40 0zM280 610v-520h110v-90h-350v90h110v520h-110v90h350v-90h-110zM145 -260q-25 25 -25 67q0 41 25 66t67 25q41 0 66 -25t25 -66q0 -42 -25 -67t-66 -25q-42 0 -67 25z" />
    <glyph glyph-name="Igrave" unicode="&#xcc;" horiz-adv-x="430" 
d="M18 0zM280 610v-520h110v-90h-350v90h110v520h-110v90h350v-90h-110zM301 786l-225 46q-30 6 -44 23t-14 39q0 27 18 46.5t44 19.5q25 0 47 -18l180 -144z" />
    <glyph glyph-name="uni1EC8" unicode="&#x1ec8;" horiz-adv-x="430" 
d="M40 0zM280 610v-520h110v-90h-350v90h110v520h-110v90h350v-90h-110zM185 800q0 15 6 25.5t18 22.5q11 11 16 19t5 19q0 14 -9 22t-23 8q-15 0 -23.5 -7.5t-8.5 -20.5q0 -19 13 -35l-20 -20q-26 15 -37.5 31t-11.5 36q0 34 28.5 54t76.5 20q51 0 82 -23t31 -64
q0 -27 -13 -39t-38 -22q-26 -11 -40 -24t-17 -42h-28q-7 22 -7 40z" />
    <glyph glyph-name="uni020A" unicode="&#x20a;" horiz-adv-x="430" 
d="M40 0zM280 610v-520h110v-90h-350v90h110v520h-110v90h350v-90h-110zM369 768h-50q0 76 -103 76q-104 0 -104 -76h-50q0 164 154 164q153 0 153 -164z" />
    <glyph glyph-name="Imacron" unicode="&#x12a;" horiz-adv-x="430" 
d="M28 0zM280 610v-520h110v-90h-350v90h110v520h-110v90h350v-90h-110zM28 862h375v-80h-375v80z" />
    <glyph glyph-name="Iogonek" unicode="&#x12e;" horiz-adv-x="430" 
d="M392 -167l-4 -48q-28 -18 -71 -18q-63 0 -105.5 33t-42.5 86q0 73 86 114h-215v90h110v520h-110v90h350v-90h-110v-520h110v-90h-39q-38 -19 -61 -43.5t-23 -62.5q0 -33 19.5 -53t57.5 -20q26 0 48 12z" />
    <glyph glyph-name="Itilde" unicode="&#x128;" horiz-adv-x="430" 
d="M37 0zM280 610v-520h110v-90h-350v90h110v520h-110v90h350v-90h-110zM37 810q15 51 30.5 78t35.5 37.5t51 10.5q27 0 46 -5.5t41 -15.5q17 -8 28.5 -11.5t24.5 -3.5q25 0 44 15t29 42l26 -10q-15 -51 -30.5 -78t-36 -37.5t-53.5 -10.5q-27 0 -44 5.5t-36 15.5
q-14 8 -25 11.5t-26 3.5q-29 0 -49.5 -15t-29.5 -42z" />
    <glyph glyph-name="J" unicode="J" horiz-adv-x="614" 
d="M589 620h-110v-374q0 -125 -61 -190.5t-173 -65.5q-68 0 -117.5 23.5t-76 64.5t-26.5 91t25 76.5t65 26.5q41 0 64 -25t23 -62q0 -51 -45 -72q19 -27 65 -27q56 0 86.5 42.5t30.5 117.5v374h-111v80h361v-80z" />
    <glyph glyph-name="Jacute" horiz-adv-x="614" 
d="M25 0zM589 620h-110v-374q0 -125 -61 -190.5t-173 -65.5q-68 0 -117.5 23.5t-76 64.5t-26.5 91t25 76.5t65 26.5q41 0 64 -25t23 -62q0 -51 -45 -72q19 -27 65 -27q56 0 86.5 42.5t30.5 117.5v374h-111v80h361v-80zM497 932q22 18 47 18q18 0 33 -10.5t23 -27.5
q6 -13 6 -28q0 -22 -14 -39t-44 -23l-225 -46l-6 12z" />
    <glyph glyph-name="Jcircumflex" unicode="&#x134;" horiz-adv-x="614" 
d="M25 0zM589 620h-110v-374q0 -125 -61 -190.5t-173 -65.5q-68 0 -117.5 23.5t-76 64.5t-26.5 91t25 76.5t65 26.5q41 0 64 -25t23 -62q0 -51 -45 -72q19 -27 65 -27q56 0 86.5 42.5t30.5 117.5v374h-111v80h361v-80zM592 772q-110 22 -183 61q-72 -39 -182 -61l-7 12
q45 36 76 69.5t53 71.5h121q22 -38 53 -71.5t76 -69.5z" />
    <glyph glyph-name="K" unicode="K" horiz-adv-x="803" 
d="M788 80v-80h-199l-208 318l-90 -95v-143h110v-80h-361v80h111v540h-111v80h361v-80h-110v-258l252 258h-63v80h286v-80h-101l-197 -209l226 -331h94z" />
    <glyph glyph-name="Kcommaaccent" unicode="&#x136;" horiz-adv-x="803" 
d="M40 0zM788 80v-80h-199l-208 318l-90 -95v-143h110v-80h-361v80h111v540h-111v80h361v-80h-110v-258l252 258h-63v80h286v-80h-101l-197 -209l226 -331h94zM475 -112q22 -27 22 -76q0 -58 -33 -100t-98 -64l-8 17q36 21 53 44.5t21 56.5q-14 -2 -21 -2q-32 0 -51.5 20.5
t-19.5 54.5t20.5 55t53.5 21q39 0 61 -27z" />
    <glyph glyph-name="uni0198" unicode="&#x198;" horiz-adv-x="821" 
d="M690 80h98v-80h-199l-233 329l-65 -75v-174h110v-80h-361v80h111v540h-111v80h361v-80h-110v-219l196 233q31 37 69 56.5t88 19.5q71 0 116.5 -39.5t45.5 -117.5q0 -58 -26 -90.5t-70 -32.5q-37 0 -58 22.5t-21 56.5q0 32 17.5 51t46.5 19q8 0 12 -1q-4 17 -21 26t-37 9
q-23 0 -44 -12t-33.5 -25t-41.5 -46l-91 -105z" />
    <glyph glyph-name="uni1E34" unicode="&#x1e34;" horiz-adv-x="803" 
d="M40 0zM788 80v-80h-199l-208 318l-90 -95v-143h110v-80h-361v80h111v540h-111v80h361v-80h-110v-258l252 258h-63v80h286v-80h-101l-197 -209l226 -331h94zM222 -142h375v-80h-375v80z" />
    <glyph glyph-name="L" unicode="L" horiz-adv-x="640" 
d="M615 202v-202h-575v80h111v540h-111v80h361v-80h-110v-530h177q38 0 56.5 10t26 32.5t12.5 69.5h52z" />
    <glyph glyph-name="uni01C7" unicode="&#x1c7;" horiz-adv-x="1254" 
d="M40 0zM615 202v-202h-575v80h111v540h-111v80h361v-80h-110v-530h177q38 0 56.5 10t26 32.5t12.5 69.5h52zM1229 620h-110v-374q0 -125 -61 -190.5t-173 -65.5q-68 0 -117.5 23.5t-76 64.5t-26.5 91t25 76.5t65 26.5q41 0 64 -25t23 -62q0 -51 -45 -72q19 -27 65 -27
q56 0 86.5 42.5t30.5 117.5v374h-111v80h361v-80z" />
    <glyph glyph-name="Lacute" unicode="&#x139;" horiz-adv-x="640" 
d="M40 0zM615 202v-202h-575v80h111v540h-111v80h361v-80h-110v-530h177q38 0 56.5 10t26 32.5t12.5 69.5h52zM309 932q22 18 47 18q18 0 33 -10.5t23 -27.5q6 -13 6 -28q0 -22 -14 -39t-44 -23l-225 -46l-6 12z" />
    <glyph glyph-name="Lcaron" unicode="&#x13d;" horiz-adv-x="640" 
d="M40 0zM615 202v-202h-575v80h111v540h-111v80h361v-80h-110v-530h177q38 0 56.5 10t26 32.5t12.5 69.5h52zM487 684q1 33 19 50.5t44 17.5q25 0 45 -16.5t20 -42.5q0 -19 -12 -40l-109 -203l-13 4z" />
    <glyph glyph-name="Lcommaaccent" unicode="&#x13b;" horiz-adv-x="640" 
d="M40 0zM615 202v-202h-575v80h111v540h-111v80h361v-80h-110v-530h177q38 0 56.5 10t26 32.5t12.5 69.5h52zM409 -112q22 -27 22 -76q0 -58 -33 -100t-98 -64l-8 17q36 21 53 44.5t21 56.5q-14 -2 -21 -2q-32 0 -51.5 20.5t-19.5 54.5t20.5 55t53.5 21q39 0 61 -27z" />
    <glyph glyph-name="Ldot" unicode="&#x13f;" horiz-adv-x="660" 
d="M40 0zM615 202v-202h-575v80h111v540h-111v80h361v-80h-110v-530h177q38 0 56.5 10t26 32.5t12.5 69.5h52zM495 335q-25 25 -25 67q0 41 25 66t67 25q41 0 66 -25t25 -66q0 -42 -25 -67t-66 -25q-42 0 -67 25z" />
    <glyph glyph-name="uni1E36" unicode="&#x1e36;" horiz-adv-x="640" 
d="M40 0zM615 202v-202h-575v80h111v540h-111v80h361v-80h-110v-530h177q38 0 56.5 10t26 32.5t12.5 69.5h52zM273 -260q-25 25 -25 67q0 41 25 66t67 25q41 0 66 -25t25 -66q0 -42 -25 -67t-66 -25q-42 0 -67 25z" />
    <glyph glyph-name="uni1E38" unicode="&#x1e38;" horiz-adv-x="640" 
d="M34 0zM615 202v-202h-575v80h111v540h-111v80h361v-80h-110v-530h177q38 0 56.5 10t26 32.5t12.5 69.5h52zM273 -260q-25 25 -25 67q0 41 25 66t67 25q41 0 66 -25t25 -66q0 -42 -25 -67t-66 -25q-42 0 -67 25zM34 862h375v-80h-375v80z" />
    <glyph glyph-name="uni01C8" unicode="&#x1c8;" horiz-adv-x="977" 
d="M40 0zM615 202v-202h-575v80h111v540h-111v80h361v-80h-110v-530h177q38 0 56.5 10t26 32.5t12.5 69.5h52zM902 -54q0 -105 -50.5 -155.5t-152.5 -50.5q-71 0 -112.5 21.5t-58 52.5t-16.5 63q0 39 22.5 62t59.5 23q34 0 54.5 -19t20.5 -48q0 -34 -27 -59q14 -10 42 -10
q45 0 66.5 32t21.5 98v464h-111v80h241v-554zM763 605q-25 25 -25 67q0 41 25 66t67 25q41 0 66 -25t25 -66q0 -42 -25 -67t-66 -25q-42 0 -67 25z" />
    <glyph glyph-name="uni1E3A" unicode="&#x1e3a;" horiz-adv-x="640" 
d="M40 0zM615 202v-202h-575v80h111v540h-111v80h361v-80h-110v-530h177q38 0 56.5 10t26 32.5t12.5 69.5h52zM156 -142h375v-80h-375v80z" />
    <glyph glyph-name="Lslash" unicode="&#x141;" horiz-adv-x="640" 
d="M615 202v-202h-575v80h111v180l-121 -75v106l121 75v254h-111v80h361v-80h-110v-167l132 82v-106l-132 -82v-257h177q38 0 56.5 10t26 32.5t12.5 69.5h52z" />
    <glyph glyph-name="M" unicode="M" horiz-adv-x="1035" 
d="M884 620v-540h108v-80h-340v80h92v373h-2l-176 -453h-114l-199 510h-2v-430h105v-80h-316v80h111v540h-111v80h275l209 -550l212 550h259v-80h-111z" />
    <glyph glyph-name="uni1E42" unicode="&#x1e42;" horiz-adv-x="1035" 
d="M40 0zM884 620v-540h108v-80h-340v80h92v373h-2l-176 -453h-114l-199 510h-2v-430h105v-80h-316v80h111v540h-111v80h275l209 -550l212 550h259v-80h-111zM437 -260q-25 25 -25 67q0 41 25 66t67 25q41 0 66 -25t25 -66q0 -42 -25 -67t-66 -25q-42 0 -67 25z" />
    <glyph glyph-name="N" unicode="N" horiz-adv-x="866" 
d="M841 620h-110v-620h-122l-356 546h-2v-466h110v-80h-321v80h111v540h-111v80h277l311 -471h3v391h-111v80h321v-80z" />
    <glyph glyph-name="uni01CA" unicode="&#x1ca;" horiz-adv-x="1430" 
d="M40 0zM841 620h-110v-620h-122l-356 546h-2v-466h110v-80h-321v80h111v540h-111v80h277l311 -471h3v391h-111v80h321v-80zM1405 620h-110v-374q0 -125 -61 -190.5t-173 -65.5q-68 0 -117.5 23.5t-76 64.5t-26.5 91t25 76.5t65 26.5q41 0 64 -25t23 -62q0 -51 -45 -72
q19 -27 65 -27q56 0 86.5 42.5t30.5 117.5v374h-111v80h361v-80z" />
    <glyph glyph-name="Nacute" unicode="&#x143;" horiz-adv-x="866" 
d="M40 0zM841 620h-110v-620h-122l-356 546h-2v-466h110v-80h-321v80h111v540h-111v80h277l311 -471h3v391h-111v80h321v-80zM524 932q22 18 47 18q18 0 33 -10.5t23 -27.5q6 -13 6 -28q0 -22 -14 -39t-44 -23l-225 -46l-6 12z" />
    <glyph glyph-name="Ncaron" unicode="&#x147;" horiz-adv-x="866" 
d="M40 0zM841 620h-110v-620h-122l-356 546h-2v-466h110v-80h-321v80h111v540h-111v80h277l311 -471h3v391h-111v80h321v-80zM626 938q-45 -36 -76 -69.5t-53 -71.5h-121q-22 38 -53 71.5t-76 69.5l7 12q110 -22 182 -61q73 39 183 61z" />
    <glyph glyph-name="Ncommaaccent" unicode="&#x145;" horiz-adv-x="866" 
d="M40 0zM841 620h-110v-620h-122l-356 546h-2v-466h110v-80h-321v80h111v540h-111v80h277l311 -471h3v391h-111v80h321v-80zM502 -112q22 -27 22 -76q0 -58 -33 -100t-98 -64l-8 17q36 21 53 44.5t21 56.5q-14 -2 -21 -2q-32 0 -51.5 20.5t-19.5 54.5t20.5 55t53.5 21
q39 0 61 -27z" />
    <glyph glyph-name="uni1E44" unicode="&#x1e44;" horiz-adv-x="866" 
d="M40 0zM841 620h-110v-620h-122l-356 546h-2v-466h110v-80h-321v80h111v540h-111v80h277l311 -471h3v391h-111v80h321v-80zM380 805q-25 25 -25 67q0 41 25 66t67 25q41 0 66 -25t25 -66q0 -42 -25 -67t-66 -25q-42 0 -67 25z" />
    <glyph glyph-name="uni1E46" unicode="&#x1e46;" horiz-adv-x="866" 
d="M40 0zM841 620h-110v-620h-122l-356 546h-2v-466h110v-80h-321v80h111v540h-111v80h277l311 -471h3v391h-111v80h321v-80zM366 -260q-25 25 -25 67q0 41 25 66t67 25q41 0 66 -25t25 -66q0 -42 -25 -67t-66 -25q-42 0 -67 25z" />
    <glyph glyph-name="Eng" unicode="&#x14a;" horiz-adv-x="866" 
d="M841 620h-110v-669q0 -107 -48.5 -159t-147.5 -52q-74 0 -117.5 25t-60 60.5t-16.5 71.5q0 44 23 68.5t62 24.5q36 0 58 -20.5t22 -55.5q0 -24 -11.5 -42t-31.5 -27q17 -15 50 -15q47 0 69.5 30.5t22.5 90.5v55l-352 540h-2v-466h110v-80h-321v80h111v540h-111v80h277
l311 -471h3v391h-111v80h321v-80z" />
    <glyph glyph-name="uni019D" unicode="&#x19d;" horiz-adv-x="866" 
d="M841 620h-111v-620h-121l-356 546h-3v-610q0 -95 -43.5 -145.5t-132.5 -50.5q-65 0 -105.5 25t-58.5 61t-18 72q0 43 23.5 67.5t62.5 24.5q35 0 57 -20t22 -54q0 -24 -11.5 -42.5t-31.5 -28.5q16 -15 48 -15q44 0 66 30t22 86v674h-110v80h277l311 -471h2v391h-110v80
h321v-80z" />
    <glyph glyph-name="uni01CB" unicode="&#x1cb;" horiz-adv-x="1168" 
d="M40 0zM841 620h-110v-620h-122l-356 546h-2v-466h110v-80h-321v80h111v540h-111v80h277l311 -471h3v391h-111v80h321v-80zM1093 -54q0 -105 -50.5 -155.5t-152.5 -50.5q-71 0 -112.5 21.5t-58 52.5t-16.5 63q0 39 22.5 62t59.5 23q34 0 54.5 -19t20.5 -48q0 -34 -27 -59
q14 -10 42 -10q45 0 66.5 32t21.5 98v464h-111v80h241v-554zM954 605q-25 25 -25 67q0 41 25 66t67 25q41 0 66 -25t25 -66q0 -42 -25 -67t-66 -25q-42 0 -67 25z" />
    <glyph glyph-name="uni1E48" unicode="&#x1e48;" horiz-adv-x="866" 
d="M40 0zM841 620h-110v-620h-122l-356 546h-2v-466h110v-80h-321v80h111v540h-111v80h277l311 -471h3v391h-111v80h321v-80zM249 -142h375v-80h-375v80z" />
    <glyph glyph-name="Ntilde" unicode="&#xd1;" horiz-adv-x="866" 
d="M40 0zM841 620h-110v-620h-122l-356 546h-2v-466h110v-80h-321v80h111v540h-111v80h277l311 -471h3v391h-111v80h321v-80zM258 810q15 51 30.5 78t35.5 37.5t51 10.5q27 0 46 -5.5t41 -15.5q17 -8 28.5 -11.5t24.5 -3.5q25 0 44 15t29 42l26 -10q-15 -51 -30.5 -78
t-36 -37.5t-53.5 -10.5q-27 0 -44 5.5t-36 15.5q-14 8 -25 11.5t-26 3.5q-29 0 -49.5 -15t-29.5 -42z" />
    <glyph glyph-name="O" unicode="O" horiz-adv-x="796" 
d="M207.5 34.5q-82.5 44.5 -127.5 126.5t-45 189t45 189t127.5 126.5t190.5 44.5t190.5 -44.5t127.5 -126.5t45 -189t-45 -189t-127.5 -126.5t-190.5 -44.5t-190.5 44.5zM509.5 104.5q48.5 34.5 75 98t26.5 147.5t-26.5 147.5t-75 98t-111.5 34.5t-111.5 -34.5t-75 -98
t-26.5 -147.5t26.5 -147.5t75 -98t111.5 -34.5t111.5 34.5z" />
    <glyph glyph-name="Oacute" unicode="&#xd3;" horiz-adv-x="796" 
d="M35 0zM207.5 34.5q-82.5 44.5 -127.5 126.5t-45 189t45 189t127.5 126.5t190.5 44.5t190.5 -44.5t127.5 -126.5t45 -189t-45 -189t-127.5 -126.5t-190.5 -44.5t-190.5 44.5zM509.5 104.5q48.5 34.5 75 98t26.5 147.5t-26.5 147.5t-75 98t-111.5 34.5t-111.5 -34.5
t-75 -98t-26.5 -147.5t26.5 -147.5t75 -98t111.5 -34.5t111.5 34.5zM486 932q22 18 47 18q18 0 33 -10.5t23 -27.5q6 -13 6 -28q0 -22 -14 -39t-44 -23l-225 -46l-6 12z" />
    <glyph glyph-name="Obreve" unicode="&#x14e;" horiz-adv-x="796" 
d="M35 0zM207.5 34.5q-82.5 44.5 -127.5 126.5t-45 189t45 189t127.5 126.5t190.5 44.5t190.5 -44.5t127.5 -126.5t45 -189t-45 -189t-127.5 -126.5t-190.5 -44.5t-190.5 44.5zM509.5 104.5q48.5 34.5 75 98t26.5 147.5t-26.5 147.5t-75 98t-111.5 34.5t-111.5 -34.5
t-75 -98t-26.5 -147.5t26.5 -147.5t75 -98t111.5 -34.5t111.5 34.5zM244 927h50q0 -69 104 -69q103 0 103 69h50q0 -149 -153 -149q-154 0 -154 149z" />
    <glyph glyph-name="uni01D1" unicode="&#x1d1;" horiz-adv-x="796" 
d="M35 0zM207.5 34.5q-82.5 44.5 -127.5 126.5t-45 189t45 189t127.5 126.5t190.5 44.5t190.5 -44.5t127.5 -126.5t45 -189t-45 -189t-127.5 -126.5t-190.5 -44.5t-190.5 44.5zM509.5 104.5q48.5 34.5 75 98t26.5 147.5t-26.5 147.5t-75 98t-111.5 34.5t-111.5 -34.5
t-75 -98t-26.5 -147.5t26.5 -147.5t75 -98t111.5 -34.5t111.5 34.5zM588 938q-45 -36 -76 -69.5t-53 -71.5h-121q-22 38 -53 71.5t-76 69.5l7 12q110 -22 182 -61q73 39 183 61z" />
    <glyph glyph-name="Ocircumflex" unicode="&#xd4;" horiz-adv-x="796" 
d="M35 0zM207.5 34.5q-82.5 44.5 -127.5 126.5t-45 189t45 189t127.5 126.5t190.5 44.5t190.5 -44.5t127.5 -126.5t45 -189t-45 -189t-127.5 -126.5t-190.5 -44.5t-190.5 44.5zM509.5 104.5q48.5 34.5 75 98t26.5 147.5t-26.5 147.5t-75 98t-111.5 34.5t-111.5 -34.5
t-75 -98t-26.5 -147.5t26.5 -147.5t75 -98t111.5 -34.5t111.5 34.5zM581 772q-110 22 -183 61q-72 -39 -182 -61l-7 12q45 36 76 69.5t53 71.5h121q22 -38 53 -71.5t76 -69.5z" />
    <glyph glyph-name="uni1ED0" unicode="&#x1ed0;" horiz-adv-x="796" 
d="M35 0zM207.5 34.5q-82.5 44.5 -127.5 126.5t-45 189t45 189t127.5 126.5t190.5 44.5t190.5 -44.5t127.5 -126.5t45 -189t-45 -189t-127.5 -126.5t-190.5 -44.5t-190.5 44.5zM509.5 104.5q48.5 34.5 75 98t26.5 147.5t-26.5 147.5t-75 98t-111.5 34.5t-111.5 -34.5
t-75 -98t-26.5 -147.5t26.5 -147.5t75 -98t111.5 -34.5t111.5 34.5zM581 772q-110 22 -183 61q-72 -39 -182 -61l-7 12q45 36 76 69.5t53 71.5h121q22 -38 53 -71.5t76 -69.5zM687 1016q22 18 47 18q18 0 33 -10.5t23 -27.5q6 -13 6 -28q0 -22 -14 -39t-44 -23l-225 -46
l-6 12z" />
    <glyph glyph-name="uni1ED8" unicode="&#x1ed8;" horiz-adv-x="796" 
d="M35 0zM207.5 34.5q-82.5 44.5 -127.5 126.5t-45 189t45 189t127.5 126.5t190.5 44.5t190.5 -44.5t127.5 -126.5t45 -189t-45 -189t-127.5 -126.5t-190.5 -44.5t-190.5 44.5zM509.5 104.5q48.5 34.5 75 98t26.5 147.5t-26.5 147.5t-75 98t-111.5 34.5t-111.5 -34.5
t-75 -98t-26.5 -147.5t26.5 -147.5t75 -98t111.5 -34.5t111.5 34.5zM328 -260q-25 25 -25 67q0 41 25 66t67 25q41 0 66 -25t25 -66q0 -42 -25 -67t-66 -25q-42 0 -67 25zM581 772q-110 22 -183 61q-72 -39 -182 -61l-7 12q45 36 76 69.5t53 71.5h121q22 -38 53 -71.5
t76 -69.5z" />
    <glyph glyph-name="uni1ED2" unicode="&#x1ed2;" horiz-adv-x="796" 
d="M434 1020q0 16 8.5 30.5t22.5 22.5q17 11 36 11t35.5 -12.5t25.5 -38.5l72 -218l-11 -7l-164 161q-25 25 -25 51zM216 772l-7 12q45 36 76 69.5t53 71.5h121q22 -38 53 -71.5t76 -69.5l-7 -12q-110 22 -182 61q-73 -39 -183 -61zM588.5 665.5q82.5 -44.5 127.5 -126.5
t45 -189t-45 -189t-127.5 -126.5t-190.5 -44.5t-190.5 44.5t-127.5 126.5t-45 189t45 189t127.5 126.5t190.5 44.5t190.5 -44.5zM509.5 104.5q48.5 34.5 75 98t26.5 147.5t-26.5 147.5t-75 98t-111.5 34.5t-111.5 -34.5t-75 -98t-26.5 -147.5t26.5 -147.5t75 -98
t111.5 -34.5t111.5 34.5z" />
    <glyph glyph-name="uni1ED4" unicode="&#x1ed4;" horiz-adv-x="796" 
d="M35 0zM207.5 34.5q-82.5 44.5 -127.5 126.5t-45 189t45 189t127.5 126.5t190.5 44.5t190.5 -44.5t127.5 -126.5t45 -189t-45 -189t-127.5 -126.5t-190.5 -44.5t-190.5 44.5zM509.5 104.5q48.5 34.5 75 98t26.5 147.5t-26.5 147.5t-75 98t-111.5 34.5t-111.5 -34.5
t-75 -98t-26.5 -147.5t26.5 -147.5t75 -98t111.5 -34.5t111.5 34.5zM581 772q-110 22 -183 61q-72 -39 -182 -61l-7 12q45 36 76 69.5t53 71.5h121q22 -38 53 -71.5t76 -69.5zM519 898q0 15 6 25.5t18 22.5q11 11 16 19t5 19q0 14 -9 22t-23 8q-15 0 -23.5 -7.5t-8.5 -20.5
q0 -19 13 -35l-20 -20q-26 15 -37.5 31t-11.5 36q0 34 28.5 54t76.5 20q51 0 82 -23t31 -64q0 -27 -13 -39t-38 -22q-26 -11 -40 -24t-17 -42h-28q-7 22 -7 40z" />
    <glyph glyph-name="uni1ED6" unicode="&#x1ed6;" horiz-adv-x="796" 
d="M35 0zM207.5 34.5q-82.5 44.5 -127.5 126.5t-45 189t45 189t127.5 126.5t190.5 44.5t190.5 -44.5t127.5 -126.5t45 -189t-45 -189t-127.5 -126.5t-190.5 -44.5t-190.5 44.5zM509.5 104.5q48.5 34.5 75 98t26.5 147.5t-26.5 147.5t-75 98t-111.5 34.5t-111.5 -34.5
t-75 -98t-26.5 -147.5t26.5 -147.5t75 -98t111.5 -34.5t111.5 34.5zM581 772q-110 22 -183 61q-72 -39 -182 -61l-7 12q45 36 76 69.5t53 71.5h121q22 -38 53 -71.5t76 -69.5zM220 958q15 51 30.5 78t35.5 37.5t51 10.5q27 0 46 -5.5t41 -15.5q17 -8 28.5 -11.5t24.5 -3.5
q25 0 44 15t29 42l26 -10q-15 -51 -30.5 -78t-36 -37.5t-53.5 -10.5q-27 0 -44 5.5t-36 15.5q-14 8 -25 11.5t-26 3.5q-29 0 -49.5 -15t-29.5 -42z" />
    <glyph glyph-name="uni020C" unicode="&#x20c;" horiz-adv-x="796" 
d="M358 776l-214 85q-24 9 -36 25.5t-12 35.5q0 18 12 37q21 28 53 28q30 0 53 -27l152 -173zM582 776l-214 85q-24 9 -36 25.5t-12 35.5q0 18 12 37q21 28 53 28q30 0 53 -27l152 -173zM207.5 34.5q-82.5 44.5 -127.5 126.5t-45 189t45 189t127.5 126.5t190.5 44.5
t190.5 -44.5t127.5 -126.5t45 -189t-45 -189t-127.5 -126.5t-190.5 -44.5t-190.5 44.5zM509.5 104.5q48.5 34.5 75 98t26.5 147.5t-26.5 147.5t-75 98t-111.5 34.5t-111.5 -34.5t-75 -98t-26.5 -147.5t26.5 -147.5t75 -98t111.5 -34.5t111.5 34.5z" />
    <glyph glyph-name="Odieresis" unicode="&#xd6;" horiz-adv-x="796" 
d="M228.5 797q-22.5 23 -22.5 61t22.5 60.5t60.5 22.5t60.5 -22.5t22.5 -60.5t-22.5 -61t-60.5 -23t-60.5 23zM466.5 797q-22.5 23 -22.5 61t22.5 60.5t60.5 22.5t60.5 -22.5t22.5 -60.5t-22.5 -61t-60.5 -23t-60.5 23zM207.5 34.5q-82.5 44.5 -127.5 126.5t-45 189t45 189
t127.5 126.5t190.5 44.5t190.5 -44.5t127.5 -126.5t45 -189t-45 -189t-127.5 -126.5t-190.5 -44.5t-190.5 44.5zM509.5 104.5q48.5 34.5 75 98t26.5 147.5t-26.5 147.5t-75 98t-111.5 34.5t-111.5 -34.5t-75 -98t-26.5 -147.5t26.5 -147.5t75 -98t111.5 -34.5t111.5 34.5z
" />
    <glyph glyph-name="uni1ECC" unicode="&#x1ecc;" horiz-adv-x="796" 
d="M35 0zM207.5 34.5q-82.5 44.5 -127.5 126.5t-45 189t45 189t127.5 126.5t190.5 44.5t190.5 -44.5t127.5 -126.5t45 -189t-45 -189t-127.5 -126.5t-190.5 -44.5t-190.5 44.5zM509.5 104.5q48.5 34.5 75 98t26.5 147.5t-26.5 147.5t-75 98t-111.5 34.5t-111.5 -34.5
t-75 -98t-26.5 -147.5t26.5 -147.5t75 -98t111.5 -34.5t111.5 34.5zM328 -260q-25 25 -25 67q0 41 25 66t67 25q41 0 66 -25t25 -66q0 -42 -25 -67t-66 -25q-42 0 -67 25z" />
    <glyph glyph-name="Ograve" unicode="&#xd2;" horiz-adv-x="796" 
d="M35 0zM207.5 34.5q-82.5 44.5 -127.5 126.5t-45 189t45 189t127.5 126.5t190.5 44.5t190.5 -44.5t127.5 -126.5t45 -189t-45 -189t-127.5 -126.5t-190.5 -44.5t-190.5 44.5zM509.5 104.5q48.5 34.5 75 98t26.5 147.5t-26.5 147.5t-75 98t-111.5 34.5t-111.5 -34.5
t-75 -98t-26.5 -147.5t26.5 -147.5t75 -98t111.5 -34.5t111.5 34.5zM484 786l-225 46q-30 6 -44 23t-14 39q0 27 18 46.5t44 19.5q25 0 47 -18l180 -144z" />
    <glyph glyph-name="uni1ECE" unicode="&#x1ece;" horiz-adv-x="796" 
d="M35 0zM207.5 34.5q-82.5 44.5 -127.5 126.5t-45 189t45 189t127.5 126.5t190.5 44.5t190.5 -44.5t127.5 -126.5t45 -189t-45 -189t-127.5 -126.5t-190.5 -44.5t-190.5 44.5zM509.5 104.5q48.5 34.5 75 98t26.5 147.5t-26.5 147.5t-75 98t-111.5 34.5t-111.5 -34.5
t-75 -98t-26.5 -147.5t26.5 -147.5t75 -98t111.5 -34.5t111.5 34.5zM368 800q0 15 6 25.5t18 22.5q11 11 16 19t5 19q0 14 -9 22t-23 8q-15 0 -23.5 -7.5t-8.5 -20.5q0 -19 13 -35l-20 -20q-26 15 -37.5 31t-11.5 36q0 34 28.5 54t76.5 20q51 0 82 -23t31 -64q0 -27 -13 -39
t-38 -22q-26 -11 -40 -24t-17 -42h-28q-7 22 -7 40z" />
    <glyph glyph-name="Ohorn" unicode="&#x1a0;" horiz-adv-x="796" 
d="M733 502.5q28 -68.5 28 -152.5q0 -107 -45 -189t-127.5 -126.5t-190.5 -44.5t-190.5 44.5t-127.5 126.5t-45 189t45 189t127.5 126.5t190.5 44.5q137 0 230 -70q40 8 57 34t20 67q-12 -2 -18 -2q-33 0 -53 20.5t-20 54.5t20 54.5t54 20.5q37 0 59 -27.5t22 -79.5
q0 -58 -28.5 -103t-87.5 -60q52 -48 80 -116.5zM509.5 104.5q48.5 34.5 75 98t26.5 147.5t-26.5 147.5t-75 98t-111.5 34.5t-111.5 -34.5t-75 -98t-26.5 -147.5t26.5 -147.5t75 -98t111.5 -34.5t111.5 34.5z" />
    <glyph glyph-name="uni1EDA" unicode="&#x1eda;" horiz-adv-x="796" 
d="M35 0zM733 502.5q28 -68.5 28 -152.5q0 -107 -45 -189t-127.5 -126.5t-190.5 -44.5t-190.5 44.5t-127.5 126.5t-45 189t45 189t127.5 126.5t190.5 44.5q137 0 230 -70q40 8 57 34t20 67q-12 -2 -18 -2q-33 0 -53 20.5t-20 54.5t20 54.5t54 20.5q37 0 59 -27.5t22 -79.5
q0 -58 -28.5 -103t-87.5 -60q52 -48 80 -116.5zM509.5 104.5q48.5 34.5 75 98t26.5 147.5t-26.5 147.5t-75 98t-111.5 34.5t-111.5 -34.5t-75 -98t-26.5 -147.5t26.5 -147.5t75 -98t111.5 -34.5t111.5 34.5zM486 932q22 18 47 18q18 0 33 -10.5t23 -27.5q6 -13 6 -28
q0 -22 -14 -39t-44 -23l-225 -46l-6 12z" />
    <glyph glyph-name="uni1EE2" unicode="&#x1ee2;" horiz-adv-x="796" 
d="M35 0zM733 502.5q28 -68.5 28 -152.5q0 -107 -45 -189t-127.5 -126.5t-190.5 -44.5t-190.5 44.5t-127.5 126.5t-45 189t45 189t127.5 126.5t190.5 44.5q137 0 230 -70q40 8 57 34t20 67q-12 -2 -18 -2q-33 0 -53 20.5t-20 54.5t20 54.5t54 20.5q37 0 59 -27.5t22 -79.5
q0 -58 -28.5 -103t-87.5 -60q52 -48 80 -116.5zM509.5 104.5q48.5 34.5 75 98t26.5 147.5t-26.5 147.5t-75 98t-111.5 34.5t-111.5 -34.5t-75 -98t-26.5 -147.5t26.5 -147.5t75 -98t111.5 -34.5t111.5 34.5zM328 -260q-25 25 -25 67q0 41 25 66t67 25q41 0 66 -25t25 -66
q0 -42 -25 -67t-66 -25q-42 0 -67 25z" />
    <glyph glyph-name="uni1EDC" unicode="&#x1edc;" horiz-adv-x="796" 
d="M35 0zM733 502.5q28 -68.5 28 -152.5q0 -107 -45 -189t-127.5 -126.5t-190.5 -44.5t-190.5 44.5t-127.5 126.5t-45 189t45 189t127.5 126.5t190.5 44.5q137 0 230 -70q40 8 57 34t20 67q-12 -2 -18 -2q-33 0 -53 20.5t-20 54.5t20 54.5t54 20.5q37 0 59 -27.5t22 -79.5
q0 -58 -28.5 -103t-87.5 -60q52 -48 80 -116.5zM509.5 104.5q48.5 34.5 75 98t26.5 147.5t-26.5 147.5t-75 98t-111.5 34.5t-111.5 -34.5t-75 -98t-26.5 -147.5t26.5 -147.5t75 -98t111.5 -34.5t111.5 34.5zM484 786l-225 46q-30 6 -44 23t-14 39q0 27 18 46.5t44 19.5
q25 0 47 -18l180 -144z" />
    <glyph glyph-name="uni1EDE" unicode="&#x1ede;" horiz-adv-x="796" 
d="M35 0zM733 502.5q28 -68.5 28 -152.5q0 -107 -45 -189t-127.5 -126.5t-190.5 -44.5t-190.5 44.5t-127.5 126.5t-45 189t45 189t127.5 126.5t190.5 44.5q137 0 230 -70q40 8 57 34t20 67q-12 -2 -18 -2q-33 0 -53 20.5t-20 54.5t20 54.5t54 20.5q37 0 59 -27.5t22 -79.5
q0 -58 -28.5 -103t-87.5 -60q52 -48 80 -116.5zM509.5 104.5q48.5 34.5 75 98t26.5 147.5t-26.5 147.5t-75 98t-111.5 34.5t-111.5 -34.5t-75 -98t-26.5 -147.5t26.5 -147.5t75 -98t111.5 -34.5t111.5 34.5zM368 800q0 15 6 25.5t18 22.5q11 11 16 19t5 19q0 14 -9 22t-23 8
q-15 0 -23.5 -7.5t-8.5 -20.5q0 -19 13 -35l-20 -20q-26 15 -37.5 31t-11.5 36q0 34 28.5 54t76.5 20q51 0 82 -23t31 -64q0 -27 -13 -39t-38 -22q-26 -11 -40 -24t-17 -42h-28q-7 22 -7 40z" />
    <glyph glyph-name="uni1EE0" unicode="&#x1ee0;" horiz-adv-x="796" 
d="M35 0zM733 502.5q28 -68.5 28 -152.5q0 -107 -45 -189t-127.5 -126.5t-190.5 -44.5t-190.5 44.5t-127.5 126.5t-45 189t45 189t127.5 126.5t190.5 44.5q137 0 230 -70q40 8 57 34t20 67q-12 -2 -18 -2q-33 0 -53 20.5t-20 54.5t20 54.5t54 20.5q37 0 59 -27.5t22 -79.5
q0 -58 -28.5 -103t-87.5 -60q52 -48 80 -116.5zM509.5 104.5q48.5 34.5 75 98t26.5 147.5t-26.5 147.5t-75 98t-111.5 34.5t-111.5 -34.5t-75 -98t-26.5 -147.5t26.5 -147.5t75 -98t111.5 -34.5t111.5 34.5zM220 810q15 51 30.5 78t35.5 37.5t51 10.5q27 0 46 -5.5t41 -15.5
q17 -8 28.5 -11.5t24.5 -3.5q25 0 44 15t29 42l26 -10q-15 -51 -30.5 -78t-36 -37.5t-53.5 -10.5q-27 0 -44 5.5t-36 15.5q-14 8 -25 11.5t-26 3.5q-29 0 -49.5 -15t-29.5 -42z" />
    <glyph glyph-name="Ohungarumlaut" unicode="&#x150;" horiz-adv-x="796" 
d="M358 960q23 27 53 27q32 0 53 -28q12 -19 12 -37q0 -19 -12 -35.5t-36 -25.5l-214 -85l-8 11zM582 960q23 27 53 27q32 0 53 -28q12 -19 12 -37q0 -19 -12 -35.5t-36 -25.5l-214 -85l-8 11zM207.5 34.5q-82.5 44.5 -127.5 126.5t-45 189t45 189t127.5 126.5t190.5 44.5
t190.5 -44.5t127.5 -126.5t45 -189t-45 -189t-127.5 -126.5t-190.5 -44.5t-190.5 44.5zM509.5 104.5q48.5 34.5 75 98t26.5 147.5t-26.5 147.5t-75 98t-111.5 34.5t-111.5 -34.5t-75 -98t-26.5 -147.5t26.5 -147.5t75 -98t111.5 -34.5t111.5 34.5z" />
    <glyph glyph-name="uni020E" unicode="&#x20e;" horiz-adv-x="796" 
d="M35 0zM207.5 34.5q-82.5 44.5 -127.5 126.5t-45 189t45 189t127.5 126.5t190.5 44.5t190.5 -44.5t127.5 -126.5t45 -189t-45 -189t-127.5 -126.5t-190.5 -44.5t-190.5 44.5zM509.5 104.5q48.5 34.5 75 98t26.5 147.5t-26.5 147.5t-75 98t-111.5 34.5t-111.5 -34.5
t-75 -98t-26.5 -147.5t26.5 -147.5t75 -98t111.5 -34.5t111.5 34.5zM552 768h-50q0 76 -103 76q-104 0 -104 -76h-50q0 164 154 164q153 0 153 -164z" />
    <glyph glyph-name="Omacron" unicode="&#x14c;" horiz-adv-x="796" 
d="M35 0zM207.5 34.5q-82.5 44.5 -127.5 126.5t-45 189t45 189t127.5 126.5t190.5 44.5t190.5 -44.5t127.5 -126.5t45 -189t-45 -189t-127.5 -126.5t-190.5 -44.5t-190.5 44.5zM509.5 104.5q48.5 34.5 75 98t26.5 147.5t-26.5 147.5t-75 98t-111.5 34.5t-111.5 -34.5
t-75 -98t-26.5 -147.5t26.5 -147.5t75 -98t111.5 -34.5t111.5 34.5zM211 862h375v-80h-375v80z" />
    <glyph glyph-name="uni1E52" unicode="&#x1e52;" horiz-adv-x="796" 
d="M35 0zM207.5 34.5q-82.5 44.5 -127.5 126.5t-45 189t45 189t127.5 126.5t190.5 44.5t190.5 -44.5t127.5 -126.5t45 -189t-45 -189t-127.5 -126.5t-190.5 -44.5t-190.5 44.5zM509.5 104.5q48.5 34.5 75 98t26.5 147.5t-26.5 147.5t-75 98t-111.5 34.5t-111.5 -34.5
t-75 -98t-26.5 -147.5t26.5 -147.5t75 -98t111.5 -34.5t111.5 34.5zM211 862h375v-80h-375v80zM486 1094q22 18 47 18q18 0 33 -10.5t23 -27.5q6 -13 6 -28q0 -22 -14 -39t-44 -23l-225 -46l-6 12z" />
    <glyph glyph-name="uni01EA" unicode="&#x1ea;" horiz-adv-x="796" 
d="M495.5 -25q-22.5 -24 -22.5 -61q0 -33 19.5 -53t57.5 -20q26 0 48 12l-4 -48q-28 -18 -71 -18q-63 0 -105.5 33t-42.5 86q0 50 40 84h-17q-108 0 -190.5 44.5t-127.5 126.5t-45 189t45 189t127.5 126.5t190.5 44.5t190.5 -44.5t127.5 -126.5t45 -189q0 -119 -54.5 -206
t-152.5 -126q-36 -19 -58.5 -43zM211.5 202.5q26.5 -63.5 75 -98t111.5 -34.5t111.5 34.5t75 98t26.5 147.5t-26.5 147.5t-75 98t-111.5 34.5t-111.5 -34.5t-75 -98t-26.5 -147.5t26.5 -147.5z" />
    <glyph glyph-name="Oslash" unicode="&#xd8;" horiz-adv-x="796" 
d="M731 507.5q30 -70.5 30 -157.5q0 -107 -45 -189t-127.5 -126.5t-190.5 -44.5q-100 0 -180 39l-66 -92l-64 49l63 88q-56 48 -86 118.5t-30 157.5q0 107 45 189t127.5 126.5t190.5 44.5q100 0 180 -39l64 89l66 -46l-63 -88q56 -48 86 -118.5zM224 176l295 412
q-51 42 -121 42q-63 0 -111.5 -34.5t-75 -98t-26.5 -147.5q0 -102 39 -174zM509.5 104.5q48.5 34.5 75 98t26.5 147.5q0 102 -39 174l-295 -412q51 -42 121 -42q63 0 111.5 34.5z" />
    <glyph glyph-name="Oslashacute" unicode="&#x1fe;" horiz-adv-x="796" 
d="M35 0zM731 507.5q30 -70.5 30 -157.5q0 -107 -45 -189t-127.5 -126.5t-190.5 -44.5q-100 0 -180 39l-66 -92l-64 49l63 88q-56 48 -86 118.5t-30 157.5q0 107 45 189t127.5 126.5t190.5 44.5q100 0 180 -39l64 89l66 -46l-63 -88q56 -48 86 -118.5zM224 176l295 412
q-51 42 -121 42q-63 0 -111.5 -34.5t-75 -98t-26.5 -147.5q0 -102 39 -174zM509.5 104.5q48.5 34.5 75 98t26.5 147.5q0 102 -39 174l-295 -412q51 -42 121 -42q63 0 111.5 34.5zM486 932q22 18 47 18q18 0 33 -10.5t23 -27.5q6 -13 6 -28q0 -22 -14 -39t-44 -23l-225 -46
l-6 12z" />
    <glyph glyph-name="Otilde" unicode="&#xd5;" horiz-adv-x="796" 
d="M35 0zM207.5 34.5q-82.5 44.5 -127.5 126.5t-45 189t45 189t127.5 126.5t190.5 44.5t190.5 -44.5t127.5 -126.5t45 -189t-45 -189t-127.5 -126.5t-190.5 -44.5t-190.5 44.5zM509.5 104.5q48.5 34.5 75 98t26.5 147.5t-26.5 147.5t-75 98t-111.5 34.5t-111.5 -34.5
t-75 -98t-26.5 -147.5t26.5 -147.5t75 -98t111.5 -34.5t111.5 34.5zM220 810q15 51 30.5 78t35.5 37.5t51 10.5q27 0 46 -5.5t41 -15.5q17 -8 28.5 -11.5t24.5 -3.5q25 0 44 15t29 42l26 -10q-15 -51 -30.5 -78t-36 -37.5t-53.5 -10.5q-27 0 -44 5.5t-36 15.5
q-14 8 -25 11.5t-26 3.5q-29 0 -49.5 -15t-29.5 -42z" />
    <glyph glyph-name="OE" unicode="&#x152;" horiz-adv-x="1092" 
d="M1042 202v-202h-482q-13 0 -69 -4q-72 -6 -113 -6q-95 0 -173.5 45t-124 127t-45.5 188t46 188t124.5 127t172.5 45q35 0 109 -6q60 -4 73 -4h464v-202h-52q-5 47 -12.5 69.5t-26 32.5t-56.5 10h-177v-217h210v-80h-210v-223h195q38 0 56.5 10t26 32.5t12.5 69.5h52z
M560 610q-98 20 -162 20q-63 0 -111.5 -34.5t-75 -98t-26.5 -147.5t26.5 -147.5t75 -98t111.5 -34.5q64 0 162 20v520z" />
    <glyph glyph-name="P" unicode="P" horiz-adv-x="723" 
d="M574.5 674.5q63.5 -25.5 98.5 -72.5t35 -110t-35 -110t-98.5 -72.5t-146.5 -25.5h-137v-204h110v-80h-361v80h111v540h-111v80h388q83 0 146.5 -25.5zM527.5 394q30.5 30 30.5 98t-30.5 98t-99.5 30h-137v-256h137q69 0 99.5 30z" />
    <glyph glyph-name="Thorn" unicode="&#xde;" horiz-adv-x="717" 
d="M548.5 542.5q63.5 -25.5 98.5 -72.5t35 -110t-35 -110t-98.5 -72.5t-146.5 -25.5h-121v-72h120v-80h-361v80h111v540h-111v80h361v-80h-120v-52h121q83 0 146.5 -25.5zM501.5 262q30.5 30 30.5 98t-30.5 98t-99.5 30h-121v-256h121q69 0 99.5 30z" />
    <glyph glyph-name="Q" unicode="Q" horiz-adv-x="796" 
d="M720 38q9 -44 9 -76q0 -65 -33.5 -93.5t-101.5 -28.5q-54 0 -85.5 14.5t-51.5 45.5t-42 90h-17q-108 0 -190.5 44.5t-127.5 126.5t-45 189t45 189t127.5 126.5t190.5 44.5t190.5 -44.5t127.5 -126.5t45 -189q0 -121 -57 -209t-158 -126q19 -53 35 -74t36 -21
q18 0 29.5 13.5t11.5 43.5q0 26 -8 61h70zM210 207q25 -62 70.5 -98t105.5 -39l-18 50q-27 74 -89 74v60q81 0 140.5 -28t88.5 -106l5 -13q46 35 72 98t26 145q0 84 -26.5 147.5t-75 98t-111.5 34.5t-111.5 -34.5t-75 -98t-26.5 -147.5q0 -81 25 -143z" />
    <glyph glyph-name="R" unicode="R" horiz-adv-x="805" 
d="M774 113q0 -66 -33.5 -94.5t-104.5 -28.5q-49 0 -79.5 14.5t-50 48t-34.5 94.5l-16 63q-11 47 -36.5 75.5t-60.5 28.5h-68v-234h110v-80h-361v80h111v540h-111v80h392q83 0 146.5 -23.5t98.5 -67.5t35 -103q0 -68 -47.5 -115.5t-131.5 -66.5q43 -37 63 -114l16 -63
q20 -77 57 -77q33 0 33 56q0 18 -3 42h70q5 -33 5 -55zM432 394q69 0 99.5 26t30.5 86q0 61 -30.5 87.5t-99.5 26.5h-141v-226h141z" />
    <glyph glyph-name="Racute" unicode="&#x154;" horiz-adv-x="805" 
d="M40 0zM774 113q0 -66 -33.5 -94.5t-104.5 -28.5q-49 0 -79.5 14.5t-50 48t-34.5 94.5l-16 63q-11 47 -36.5 75.5t-60.5 28.5h-68v-234h110v-80h-361v80h111v540h-111v80h392q83 0 146.5 -23.5t98.5 -67.5t35 -103q0 -68 -47.5 -115.5t-131.5 -66.5q43 -37 63 -114l16 -63
q20 -77 57 -77q33 0 33 56q0 18 -3 42h70q5 -33 5 -55zM432 394q69 0 99.5 26t30.5 86q0 61 -30.5 87.5t-99.5 26.5h-141v-226h141zM446 932q22 18 47 18q18 0 33 -10.5t23 -27.5q6 -13 6 -28q0 -22 -14 -39t-44 -23l-225 -46l-6 12z" />
    <glyph glyph-name="Rcaron" unicode="&#x158;" horiz-adv-x="805" 
d="M40 0zM774 113q0 -66 -33.5 -94.5t-104.5 -28.5q-49 0 -79.5 14.5t-50 48t-34.5 94.5l-16 63q-11 47 -36.5 75.5t-60.5 28.5h-68v-234h110v-80h-361v80h111v540h-111v80h392q83 0 146.5 -23.5t98.5 -67.5t35 -103q0 -68 -47.5 -115.5t-131.5 -66.5q43 -37 63 -114l16 -63
q20 -77 57 -77q33 0 33 56q0 18 -3 42h70q5 -33 5 -55zM432 394q69 0 99.5 26t30.5 86q0 61 -30.5 87.5t-99.5 26.5h-141v-226h141zM548 938q-45 -36 -76 -69.5t-53 -71.5h-121q-22 38 -53 71.5t-76 69.5l7 12q110 -22 182 -61q73 39 183 61z" />
    <glyph glyph-name="Rcommaaccent" unicode="&#x156;" horiz-adv-x="805" 
d="M40 0zM774 113q0 -66 -33.5 -94.5t-104.5 -28.5q-49 0 -79.5 14.5t-50 48t-34.5 94.5l-16 63q-11 47 -36.5 75.5t-60.5 28.5h-68v-234h110v-80h-361v80h111v540h-111v80h392q83 0 146.5 -23.5t98.5 -67.5t35 -103q0 -68 -47.5 -115.5t-131.5 -66.5q43 -37 63 -114l16 -63
q20 -77 57 -77q33 0 33 56q0 18 -3 42h70q5 -33 5 -55zM432 394q69 0 99.5 26t30.5 86q0 61 -30.5 87.5t-99.5 26.5h-141v-226h141zM464 -112q22 -27 22 -76q0 -58 -33 -100t-98 -64l-8 17q36 21 53 44.5t21 56.5q-14 -2 -21 -2q-32 0 -51.5 20.5t-19.5 54.5t20.5 55
t53.5 21q39 0 61 -27z" />
    <glyph glyph-name="uni0210" unicode="&#x210;" horiz-adv-x="805" 
d="M68 886.5q-12 16.5 -12 35.5q0 18 12 37q21 28 53 28q30 0 53 -27l152 -173l-8 -11l-214 85q-24 9 -36 25.5zM292 886.5q-12 16.5 -12 35.5q0 18 12 37q21 28 53 28q30 0 53 -27l152 -173l-8 -11l-214 85q-24 9 -36 25.5zM774 113q0 -66 -33.5 -94.5t-104.5 -28.5
q-49 0 -79.5 14.5t-50 48t-34.5 94.5l-16 63q-11 47 -36.5 75.5t-60.5 28.5h-68v-234h110v-80h-361v80h111v540h-111v80h392q83 0 146.5 -23.5t98.5 -67.5t35 -103q0 -68 -47.5 -115.5t-131.5 -66.5q43 -37 63 -114l16 -63q20 -77 57 -77q33 0 33 56q0 18 -3 42h70
q5 -33 5 -55zM432 394q69 0 99.5 26t30.5 86q0 61 -30.5 87.5t-99.5 26.5h-141v-226h141z" />
    <glyph glyph-name="uni1E5A" unicode="&#x1e5a;" horiz-adv-x="805" 
d="M40 0zM774 113q0 -66 -33.5 -94.5t-104.5 -28.5q-49 0 -79.5 14.5t-50 48t-34.5 94.5l-16 63q-11 47 -36.5 75.5t-60.5 28.5h-68v-234h110v-80h-361v80h111v540h-111v80h392q83 0 146.5 -23.5t98.5 -67.5t35 -103q0 -68 -47.5 -115.5t-131.5 -66.5q43 -37 63 -114l16 -63
q20 -77 57 -77q33 0 33 56q0 18 -3 42h70q5 -33 5 -55zM432 394q69 0 99.5 26t30.5 86q0 61 -30.5 87.5t-99.5 26.5h-141v-226h141zM328 -260q-25 25 -25 67q0 41 25 66t67 25q41 0 66 -25t25 -66q0 -42 -25 -67t-66 -25q-42 0 -67 25z" />
    <glyph glyph-name="uni1E5C" unicode="&#x1e5c;" horiz-adv-x="805" 
d="M40 0zM774 113q0 -66 -33.5 -94.5t-104.5 -28.5q-49 0 -79.5 14.5t-50 48t-34.5 94.5l-16 63q-11 47 -36.5 75.5t-60.5 28.5h-68v-234h110v-80h-361v80h111v540h-111v80h392q83 0 146.5 -23.5t98.5 -67.5t35 -103q0 -68 -47.5 -115.5t-131.5 -66.5q43 -37 63 -114l16 -63
q20 -77 57 -77q33 0 33 56q0 18 -3 42h70q5 -33 5 -55zM432 394q69 0 99.5 26t30.5 86q0 61 -30.5 87.5t-99.5 26.5h-141v-226h141zM328 -260q-25 25 -25 67q0 41 25 66t67 25q41 0 66 -25t25 -66q0 -42 -25 -67t-66 -25q-42 0 -67 25zM171 862h375v-80h-375v80z" />
    <glyph glyph-name="uni0212" unicode="&#x212;" horiz-adv-x="805" 
d="M40 0zM774 113q0 -66 -33.5 -94.5t-104.5 -28.5q-49 0 -79.5 14.5t-50 48t-34.5 94.5l-16 63q-11 47 -36.5 75.5t-60.5 28.5h-68v-234h110v-80h-361v80h111v540h-111v80h392q83 0 146.5 -23.5t98.5 -67.5t35 -103q0 -68 -47.5 -115.5t-131.5 -66.5q43 -37 63 -114l16 -63
q20 -77 57 -77q33 0 33 56q0 18 -3 42h70q5 -33 5 -55zM432 394q69 0 99.5 26t30.5 86q0 61 -30.5 87.5t-99.5 26.5h-141v-226h141zM512 768h-50q0 76 -103 76q-104 0 -104 -76h-50q0 164 154 164q153 0 153 -164z" />
    <glyph glyph-name="uni1E5E" unicode="&#x1e5e;" horiz-adv-x="805" 
d="M40 0zM774 113q0 -66 -33.5 -94.5t-104.5 -28.5q-49 0 -79.5 14.5t-50 48t-34.5 94.5l-16 63q-11 47 -36.5 75.5t-60.5 28.5h-68v-234h110v-80h-361v80h111v540h-111v80h392q83 0 146.5 -23.5t98.5 -67.5t35 -103q0 -68 -47.5 -115.5t-131.5 -66.5q43 -37 63 -114l16 -63
q20 -77 57 -77q33 0 33 56q0 18 -3 42h70q5 -33 5 -55zM432 394q69 0 99.5 26t30.5 86q0 61 -30.5 87.5t-99.5 26.5h-141v-226h141zM211 -142h375v-80h-375v80z" />
    <glyph glyph-name="S" unicode="S" horiz-adv-x="643" 
d="M212 474q22 -21 55 -31.5t92 -23.5q78 -16 126.5 -33.5t83 -59.5t34.5 -117q0 -112 -76.5 -165.5t-196.5 -53.5q-137 0 -210 69v-59h-80v280h80q0 -107 52 -158.5t149 -51.5q73 0 107.5 27t34.5 77q0 44 -25 70.5t-62 40t-101 27.5q-72 16 -117.5 33t-76.5 54t-31 101
q0 70 37.5 117.5t97 70t128.5 22.5q121 0 194 -68v58h80v-260h-80q0 88 -47 139t-136 51q-65 0 -99.5 -27t-34.5 -72q0 -36 22 -57z" />
    <glyph glyph-name="Sacute" unicode="&#x15a;" horiz-adv-x="643" 
d="M40 0zM212 474q22 -21 55 -31.5t92 -23.5q78 -16 126.5 -33.5t83 -59.5t34.5 -117q0 -112 -76.5 -165.5t-196.5 -53.5q-137 0 -210 69v-59h-80v280h80q0 -107 52 -158.5t149 -51.5q73 0 107.5 27t34.5 77q0 44 -25 70.5t-62 40t-101 27.5q-72 16 -117.5 33t-76.5 54
t-31 101q0 70 37.5 117.5t97 70t128.5 22.5q121 0 194 -68v58h80v-260h-80q0 88 -47 139t-136 51q-65 0 -99.5 -27t-34.5 -72q0 -36 22 -57zM410 932q22 18 47 18q18 0 33 -10.5t23 -27.5q6 -13 6 -28q0 -22 -14 -39t-44 -23l-225 -46l-6 12z" />
    <glyph glyph-name="Scaron" unicode="&#x160;" horiz-adv-x="643" 
d="M40 0zM212 474q22 -21 55 -31.5t92 -23.5q78 -16 126.5 -33.5t83 -59.5t34.5 -117q0 -112 -76.5 -165.5t-196.5 -53.5q-137 0 -210 69v-59h-80v280h80q0 -107 52 -158.5t149 -51.5q73 0 107.5 27t34.5 77q0 44 -25 70.5t-62 40t-101 27.5q-72 16 -117.5 33t-76.5 54
t-31 101q0 70 37.5 117.5t97 70t128.5 22.5q121 0 194 -68v58h80v-260h-80q0 88 -47 139t-136 51q-65 0 -99.5 -27t-34.5 -72q0 -36 22 -57zM512 938q-45 -36 -76 -69.5t-53 -71.5h-121q-22 38 -53 71.5t-76 69.5l7 12q110 -22 182 -61q73 39 183 61z" />
    <glyph glyph-name="Scedilla" unicode="&#x15e;" horiz-adv-x="643" 
d="M531.5 47.5q-71.5 -53.5 -185.5 -57.5l-32 -31q12 3 22 3q39 0 68 -29.5t29 -71.5q0 -44 -31.5 -73t-77.5 -29q-26 0 -51 10t-39 26l18 26q9 -8 21.5 -12.5t24.5 -4.5q23 0 37 15.5t14 40.5q0 26 -14.5 44t-35.5 18q-22 0 -39 -17l-3 2l-13 12l58 72q-117 6 -182 68v-59
h-80v280h80q0 -107 52 -158.5t149 -51.5q73 0 107.5 27t34.5 77q0 44 -25 70.5t-62 40t-101 27.5q-72 16 -117.5 33t-76.5 54t-31 101q0 70 37.5 117.5t97 70t128.5 22.5q121 0 194 -68v58h80v-260h-80q0 88 -47 139t-136 51q-65 0 -99.5 -27t-34.5 -72q0 -36 22 -57
t55 -31.5t92 -23.5q78 -16 126.5 -33.5t83 -59.5t34.5 -117q0 -108 -71.5 -161.5z" />
    <glyph glyph-name="Scircumflex" unicode="&#x15c;" horiz-adv-x="643" 
d="M40 0zM212 474q22 -21 55 -31.5t92 -23.5q78 -16 126.5 -33.5t83 -59.5t34.5 -117q0 -112 -76.5 -165.5t-196.5 -53.5q-137 0 -210 69v-59h-80v280h80q0 -107 52 -158.5t149 -51.5q73 0 107.5 27t34.5 77q0 44 -25 70.5t-62 40t-101 27.5q-72 16 -117.5 33t-76.5 54
t-31 101q0 70 37.5 117.5t97 70t128.5 22.5q121 0 194 -68v58h80v-260h-80q0 88 -47 139t-136 51q-65 0 -99.5 -27t-34.5 -72q0 -36 22 -57zM505 772q-110 22 -183 61q-72 -39 -182 -61l-7 12q45 36 76 69.5t53 71.5h121q22 -38 53 -71.5t76 -69.5z" />
    <glyph glyph-name="Scommaaccent" unicode="&#x218;" horiz-adv-x="643" 
d="M40 0zM212 474q22 -21 55 -31.5t92 -23.5q78 -16 126.5 -33.5t83 -59.5t34.5 -117q0 -112 -76.5 -165.5t-196.5 -53.5q-137 0 -210 69v-59h-80v280h80q0 -107 52 -158.5t149 -51.5q73 0 107.5 27t34.5 77q0 44 -25 70.5t-62 40t-101 27.5q-72 16 -117.5 33t-76.5 54
t-31 101q0 70 37.5 117.5t97 70t128.5 22.5q121 0 194 -68v58h80v-260h-80q0 88 -47 139t-136 51q-65 0 -99.5 -27t-34.5 -72q0 -36 22 -57zM388 -112q22 -27 22 -76q0 -58 -33 -100t-98 -64l-8 17q36 21 53 44.5t21 56.5q-14 -2 -21 -2q-32 0 -51.5 20.5t-19.5 54.5
t20.5 55t53.5 21q39 0 61 -27z" />
    <glyph glyph-name="uni1E62" unicode="&#x1e62;" horiz-adv-x="643" 
d="M40 0zM212 474q22 -21 55 -31.5t92 -23.5q78 -16 126.5 -33.5t83 -59.5t34.5 -117q0 -112 -76.5 -165.5t-196.5 -53.5q-137 0 -210 69v-59h-80v280h80q0 -107 52 -158.5t149 -51.5q73 0 107.5 27t34.5 77q0 44 -25 70.5t-62 40t-101 27.5q-72 16 -117.5 33t-76.5 54
t-31 101q0 70 37.5 117.5t97 70t128.5 22.5q121 0 194 -68v58h80v-260h-80q0 88 -47 139t-136 51q-65 0 -99.5 -27t-34.5 -72q0 -36 22 -57zM252 -260q-25 25 -25 67q0 41 25 66t67 25q41 0 66 -25t25 -66q0 -42 -25 -67t-66 -25q-42 0 -67 25z" />
    <glyph glyph-name="uni018F" unicode="&#x18f;" horiz-adv-x="755" 
d="M552.5 665.5q79.5 -44.5 123.5 -126t44 -189.5q0 -107 -43 -189t-121 -126.5t-181 -44.5q-101 0 -178 42.5t-119.5 120.5t-42.5 179v51h538q-7 114 -61 180.5t-151 66.5q-75 0 -133.5 -40.5t-86.5 -114.5l-91 29q37 97 119.5 151.5t197.5 54.5q106 0 185.5 -44.5z
M512 134q53 64 61 179h-394q0 -69 24.5 -124.5t69 -87t101.5 -31.5q85 0 138 64z" />
    <glyph glyph-name="T" unicode="T" horiz-adv-x="640" 
d="M620 700v-212h-52q-5 47 -12.5 69.5t-26 32.5t-56.5 10h-83v-520h110v-80h-361v80h111v520h-83q-38 0 -56.5 -10t-26 -32.5t-12.5 -69.5h-52v212h600z" />
    <glyph glyph-name="Tbar" unicode="&#x166;" horiz-adv-x="640" 
d="M620 700v-212h-52q-5 47 -12.5 69.5t-26 32.5t-56.5 10h-83v-215h135v-70h-135v-235h110v-80h-361v80h111v235h-136v70h136v215h-83q-38 0 -56.5 -10t-26 -32.5t-12.5 -69.5h-52v212h600z" />
    <glyph glyph-name="Tcaron" unicode="&#x164;" horiz-adv-x="640" 
d="M20 0zM620 700v-212h-52q-5 47 -12.5 69.5t-26 32.5t-56.5 10h-83v-520h110v-80h-361v80h111v520h-83q-38 0 -56.5 -10t-26 -32.5t-12.5 -69.5h-52v212h600zM510 938q-45 -36 -76 -69.5t-53 -71.5h-121q-22 38 -53 71.5t-76 69.5l7 12q110 -22 182 -61q73 39 183 61z" />
    <glyph glyph-name="uni0162" unicode="&#x162;" horiz-adv-x="640" 
d="M620 700v-212h-52q-5 47 -12.5 69.5t-26 32.5t-56.5 10h-83v-520h110v-80h-142l-43 -41q12 3 22 3q39 0 68 -29.5t29 -71.5q0 -44 -31.5 -73t-77.5 -29q-26 0 -51 10t-39 26l18 26q9 -8 21.5 -12.5t24.5 -4.5q23 0 37 15.5t14 40.5q0 26 -14.5 44t-35.5 18q-22 0 -39 -17
l-3 2l-13 12l65 81h-171v80h111v520h-83q-38 0 -56.5 -10t-26 -32.5t-12.5 -69.5h-52v212h600z" />
    <glyph glyph-name="uni021A" unicode="&#x21a;" horiz-adv-x="640" 
d="M20 0zM620 700v-212h-52q-5 47 -12.5 69.5t-26 32.5t-56.5 10h-83v-520h110v-80h-361v80h111v520h-83q-38 0 -56.5 -10t-26 -32.5t-12.5 -69.5h-52v212h600zM389 -112q22 -27 22 -76q0 -58 -33 -100t-98 -64l-8 17q36 21 53 44.5t21 56.5q-14 -2 -21 -2q-32 0 -51.5 20.5
t-19.5 54.5t20.5 55t53.5 21q39 0 61 -27z" />
    <glyph glyph-name="uni1E6C" unicode="&#x1e6c;" horiz-adv-x="640" 
d="M20 0zM620 700v-212h-52q-5 47 -12.5 69.5t-26 32.5t-56.5 10h-83v-520h110v-80h-361v80h111v520h-83q-38 0 -56.5 -10t-26 -32.5t-12.5 -69.5h-52v212h600zM253 -260q-25 25 -25 67q0 41 25 66t67 25q41 0 66 -25t25 -66q0 -42 -25 -67t-66 -25q-42 0 -67 25z" />
    <glyph glyph-name="uni1E6E" unicode="&#x1e6e;" horiz-adv-x="640" 
d="M20 0zM620 700v-212h-52q-5 47 -12.5 69.5t-26 32.5t-56.5 10h-83v-520h110v-80h-361v80h111v520h-83q-38 0 -56.5 -10t-26 -32.5t-12.5 -69.5h-52v212h600zM136 -142h375v-80h-375v80z" />
    <glyph glyph-name="U" unicode="U" horiz-adv-x="835" 
d="M810 620h-110v-334q0 -296 -281 -296q-283 0 -283 296v334h-111v80h361v-80h-110v-334q0 -196 162 -196t162 196v334h-111v80h321v-80z" />
    <glyph glyph-name="Uacute" unicode="&#xda;" horiz-adv-x="835" 
d="M25 0zM810 620h-110v-334q0 -296 -281 -296q-283 0 -283 296v334h-111v80h361v-80h-110v-334q0 -196 162 -196t162 196v334h-111v80h321v-80zM508 932q22 18 47 18q18 0 33 -10.5t23 -27.5q6 -13 6 -28q0 -22 -14 -39t-44 -23l-225 -46l-6 12z" />
    <glyph glyph-name="Ubreve" unicode="&#x16c;" horiz-adv-x="835" 
d="M25 0zM810 620h-110v-334q0 -296 -281 -296q-283 0 -283 296v334h-111v80h361v-80h-110v-334q0 -196 162 -196t162 196v334h-111v80h321v-80zM266 927h50q0 -69 104 -69q103 0 103 69h50q0 -149 -153 -149q-154 0 -154 149z" />
    <glyph glyph-name="uni01D3" unicode="&#x1d3;" horiz-adv-x="835" 
d="M25 0zM810 620h-110v-334q0 -296 -281 -296q-283 0 -283 296v334h-111v80h361v-80h-110v-334q0 -196 162 -196t162 196v334h-111v80h321v-80zM610 938q-45 -36 -76 -69.5t-53 -71.5h-121q-22 38 -53 71.5t-76 69.5l7 12q110 -22 182 -61q73 39 183 61z" />
    <glyph glyph-name="Ucircumflex" unicode="&#xdb;" horiz-adv-x="835" 
d="M25 0zM810 620h-110v-334q0 -296 -281 -296q-283 0 -283 296v334h-111v80h361v-80h-110v-334q0 -196 162 -196t162 196v334h-111v80h321v-80zM603 772q-110 22 -183 61q-72 -39 -182 -61l-7 12q45 36 76 69.5t53 71.5h121q22 -38 53 -71.5t76 -69.5z" />
    <glyph glyph-name="uni0214" unicode="&#x214;" horiz-adv-x="835" 
d="M130 886.5q-12 16.5 -12 35.5q0 18 12 37q21 28 53 28q30 0 53 -27l152 -173l-8 -11l-214 85q-24 9 -36 25.5zM354 886.5q-12 16.5 -12 35.5q0 18 12 37q21 28 53 28q30 0 53 -27l152 -173l-8 -11l-214 85q-24 9 -36 25.5zM810 620h-110v-334q0 -296 -281 -296
q-283 0 -283 296v334h-111v80h361v-80h-110v-334q0 -196 162 -196t162 196v334h-111v80h321v-80z" />
    <glyph glyph-name="Udieresis" unicode="&#xdc;" horiz-adv-x="835" 
d="M250.5 797q-22.5 23 -22.5 61t22.5 60.5t60.5 22.5t60.5 -22.5t22.5 -60.5t-22.5 -61t-60.5 -23t-60.5 23zM488.5 797q-22.5 23 -22.5 61t22.5 60.5t60.5 22.5t60.5 -22.5t22.5 -60.5t-22.5 -61t-60.5 -23t-60.5 23zM810 620h-110v-334q0 -296 -281 -296q-283 0 -283 296
v334h-111v80h361v-80h-110v-334q0 -196 162 -196t162 196v334h-111v80h321v-80z" />
    <glyph glyph-name="uni01D7" unicode="&#x1d7;" horiz-adv-x="835" 
d="M343 999l-6 12l180 144q22 18 47 18q18 0 33 -10.5t23 -27.5q6 -13 6 -28q0 -22 -14 -39t-44 -23zM250.5 797q-22.5 23 -22.5 61t22.5 60.5t60.5 22.5t60.5 -22.5t22.5 -60.5t-22.5 -61t-60.5 -23t-60.5 23zM609.5 918.5q22.5 -22.5 22.5 -60.5t-22.5 -61t-60.5 -23
t-60.5 23t-22.5 61t22.5 60.5t60.5 22.5t60.5 -22.5zM810 620h-110v-334q0 -296 -281 -296q-283 0 -283 296v334h-111v80h361v-80h-110v-334q0 -196 162 -196t162 196v334h-111v80h321v-80z" />
    <glyph glyph-name="uni01D9" unicode="&#x1d9;" horiz-adv-x="835" 
d="M316 1091.5q-31 33.5 -76 69.5l7 12q110 -22 183 -61q72 39 182 61l7 -12q-45 -36 -76 -69.5t-53 -71.5h-121q-22 38 -53 71.5zM250.5 797q-22.5 23 -22.5 61t22.5 60.5t60.5 22.5t60.5 -22.5t22.5 -60.5t-22.5 -61t-60.5 -23t-60.5 23zM609.5 918.5
q22.5 -22.5 22.5 -60.5t-22.5 -61t-60.5 -23t-60.5 23t-22.5 61t22.5 60.5t60.5 22.5t60.5 -22.5zM810 620h-110v-334q0 -296 -281 -296q-283 0 -283 296v334h-111v80h361v-80h-110v-334q0 -196 162 -196t162 196v334h-111v80h321v-80z" />
    <glyph glyph-name="uni01DB" unicode="&#x1db;" horiz-adv-x="835" 
d="M246 1078q-14 17 -14 39q0 27 18 46.5t44 19.5q25 0 47 -18l180 -144l-6 -12l-225 46q-30 6 -44 23zM250.5 797q-22.5 23 -22.5 61t22.5 60.5t60.5 22.5t60.5 -22.5t22.5 -60.5t-22.5 -61t-60.5 -23t-60.5 23zM488.5 918.5q22.5 22.5 60.5 22.5t60.5 -22.5t22.5 -60.5
t-22.5 -61t-60.5 -23t-60.5 23t-22.5 61t22.5 60.5zM810 620h-110v-334q0 -296 -281 -296q-283 0 -283 296v334h-111v80h361v-80h-110v-334q0 -196 162 -196t162 196v334h-111v80h321v-80z" />
    <glyph glyph-name="uni01D5" unicode="&#x1d5;" horiz-adv-x="835" 
d="M617 1005h-375v80h375v-80zM250.5 797q-22.5 23 -22.5 61t22.5 60.5t60.5 22.5t60.5 -22.5t22.5 -60.5t-22.5 -61t-60.5 -23t-60.5 23zM609.5 918.5q22.5 -22.5 22.5 -60.5t-22.5 -61t-60.5 -23t-60.5 23t-22.5 61t22.5 60.5t60.5 22.5t60.5 -22.5zM810 620h-110v-334
q0 -296 -281 -296q-283 0 -283 296v334h-111v80h361v-80h-110v-334q0 -196 162 -196t162 196v334h-111v80h321v-80z" />
    <glyph glyph-name="uni1EE4" unicode="&#x1ee4;" horiz-adv-x="835" 
d="M25 0zM810 620h-110v-334q0 -296 -281 -296q-283 0 -283 296v334h-111v80h361v-80h-110v-334q0 -196 162 -196t162 196v334h-111v80h321v-80zM350 -260q-25 25 -25 67q0 41 25 66t67 25q41 0 66 -25t25 -66q0 -42 -25 -67t-66 -25q-42 0 -67 25z" />
    <glyph glyph-name="Ugrave" unicode="&#xd9;" horiz-adv-x="835" 
d="M25 0zM810 620h-110v-334q0 -296 -281 -296q-283 0 -283 296v334h-111v80h361v-80h-110v-334q0 -196 162 -196t162 196v334h-111v80h321v-80zM506 786l-225 46q-30 6 -44 23t-14 39q0 27 18 46.5t44 19.5q25 0 47 -18l180 -144z" />
    <glyph glyph-name="uni1EE6" unicode="&#x1ee6;" horiz-adv-x="835" 
d="M25 0zM810 620h-110v-334q0 -296 -281 -296q-283 0 -283 296v334h-111v80h361v-80h-110v-334q0 -196 162 -196t162 196v334h-111v80h321v-80zM390 800q0 15 6 25.5t18 22.5q11 11 16 19t5 19q0 14 -9 22t-23 8q-15 0 -23.5 -7.5t-8.5 -20.5q0 -19 13 -35l-20 -20
q-26 15 -37.5 31t-11.5 36q0 34 28.5 54t76.5 20q51 0 82 -23t31 -64q0 -27 -13 -39t-38 -22q-26 -11 -40 -24t-17 -42h-28q-7 22 -7 40z" />
    <glyph glyph-name="Uhorn" unicode="&#x1af;" horiz-adv-x="835" 
d="M886.5 744.5q-24.5 -43.5 -76.5 -60.5v-64h-110v-334q0 -296 -281 -296q-283 0 -283 296v334h-111v80h361v-80h-110v-334q0 -196 162 -196t162 196v334h-111v80h281q40 8 57 34t20 67q-12 -2 -18 -2q-33 0 -53 20.5t-20 54.5t20 54.5t54 20.5q37 0 59 -27.5t22 -79.5
q0 -54 -24.5 -97.5z" />
    <glyph glyph-name="uni1EE8" unicode="&#x1ee8;" horiz-adv-x="835" 
d="M25 0zM886.5 744.5q-24.5 -43.5 -76.5 -60.5v-64h-110v-334q0 -296 -281 -296q-283 0 -283 296v334h-111v80h361v-80h-110v-334q0 -196 162 -196t162 196v334h-111v80h281q40 8 57 34t20 67q-12 -2 -18 -2q-33 0 -53 20.5t-20 54.5t20 54.5t54 20.5q37 0 59 -27.5
t22 -79.5q0 -54 -24.5 -97.5zM508 932q22 18 47 18q18 0 33 -10.5t23 -27.5q6 -13 6 -28q0 -22 -14 -39t-44 -23l-225 -46l-6 12z" />
    <glyph glyph-name="uni1EF0" unicode="&#x1ef0;" horiz-adv-x="835" 
d="M25 0zM886.5 744.5q-24.5 -43.5 -76.5 -60.5v-64h-110v-334q0 -296 -281 -296q-283 0 -283 296v334h-111v80h361v-80h-110v-334q0 -196 162 -196t162 196v334h-111v80h281q40 8 57 34t20 67q-12 -2 -18 -2q-33 0 -53 20.5t-20 54.5t20 54.5t54 20.5q37 0 59 -27.5
t22 -79.5q0 -54 -24.5 -97.5zM350 -260q-25 25 -25 67q0 41 25 66t67 25q41 0 66 -25t25 -66q0 -42 -25 -67t-66 -25q-42 0 -67 25z" />
    <glyph glyph-name="uni1EEA" unicode="&#x1eea;" horiz-adv-x="835" 
d="M25 0zM886.5 744.5q-24.5 -43.5 -76.5 -60.5v-64h-110v-334q0 -296 -281 -296q-283 0 -283 296v334h-111v80h361v-80h-110v-334q0 -196 162 -196t162 196v334h-111v80h281q40 8 57 34t20 67q-12 -2 -18 -2q-33 0 -53 20.5t-20 54.5t20 54.5t54 20.5q37 0 59 -27.5
t22 -79.5q0 -54 -24.5 -97.5zM506 786l-225 46q-30 6 -44 23t-14 39q0 27 18 46.5t44 19.5q25 0 47 -18l180 -144z" />
    <glyph glyph-name="uni1EEC" unicode="&#x1eec;" horiz-adv-x="835" 
d="M25 0zM886.5 744.5q-24.5 -43.5 -76.5 -60.5v-64h-110v-334q0 -296 -281 -296q-283 0 -283 296v334h-111v80h361v-80h-110v-334q0 -196 162 -196t162 196v334h-111v80h281q40 8 57 34t20 67q-12 -2 -18 -2q-33 0 -53 20.5t-20 54.5t20 54.5t54 20.5q37 0 59 -27.5
t22 -79.5q0 -54 -24.5 -97.5zM390 800q0 15 6 25.5t18 22.5q11 11 16 19t5 19q0 14 -9 22t-23 8q-15 0 -23.5 -7.5t-8.5 -20.5q0 -19 13 -35l-20 -20q-26 15 -37.5 31t-11.5 36q0 34 28.5 54t76.5 20q51 0 82 -23t31 -64q0 -27 -13 -39t-38 -22q-26 -11 -40 -24t-17 -42h-28
q-7 22 -7 40z" />
    <glyph glyph-name="uni1EEE" unicode="&#x1eee;" horiz-adv-x="835" 
d="M25 0zM886.5 744.5q-24.5 -43.5 -76.5 -60.5v-64h-110v-334q0 -296 -281 -296q-283 0 -283 296v334h-111v80h361v-80h-110v-334q0 -196 162 -196t162 196v334h-111v80h281q40 8 57 34t20 67q-12 -2 -18 -2q-33 0 -53 20.5t-20 54.5t20 54.5t54 20.5q37 0 59 -27.5
t22 -79.5q0 -54 -24.5 -97.5zM242 810q15 51 30.5 78t35.5 37.5t51 10.5q27 0 46 -5.5t41 -15.5q17 -8 28.5 -11.5t24.5 -3.5q25 0 44 15t29 42l26 -10q-15 -51 -30.5 -78t-36 -37.5t-53.5 -10.5q-27 0 -44 5.5t-36 15.5q-14 8 -25 11.5t-26 3.5q-29 0 -49.5 -15t-29.5 -42z
" />
    <glyph glyph-name="Uhungarumlaut" unicode="&#x170;" horiz-adv-x="835" 
d="M236 776l-8 11l152 173q23 27 53 27q32 0 53 -28q12 -19 12 -37q0 -19 -12 -35.5t-36 -25.5zM452 787l152 173q23 27 53 27q32 0 53 -28q12 -19 12 -37q0 -19 -12 -35.5t-36 -25.5l-214 -85zM810 620h-110v-334q0 -296 -281 -296q-283 0 -283 296v334h-111v80h361v-80
h-110v-334q0 -196 162 -196t162 196v334h-111v80h321v-80z" />
    <glyph glyph-name="uni0216" unicode="&#x216;" horiz-adv-x="835" 
d="M25 0zM810 620h-110v-334q0 -296 -281 -296q-283 0 -283 296v334h-111v80h361v-80h-110v-334q0 -196 162 -196t162 196v334h-111v80h321v-80zM574 768h-50q0 76 -103 76q-104 0 -104 -76h-50q0 164 154 164q153 0 153 -164z" />
    <glyph glyph-name="Umacron" unicode="&#x16a;" horiz-adv-x="835" 
d="M25 0zM810 620h-110v-334q0 -296 -281 -296q-283 0 -283 296v334h-111v80h361v-80h-110v-334q0 -196 162 -196t162 196v334h-111v80h321v-80zM233 862h375v-80h-375v80z" />
    <glyph glyph-name="Uogonek" unicode="&#x172;" horiz-adv-x="835" 
d="M810 620h-110v-334q0 -199 -125 -263l1 -3q-38 -19 -61 -43.5t-23 -62.5q0 -33 19.5 -53t57.5 -20q26 0 48 12l-4 -48q-28 -18 -71 -18q-63 0 -105.5 33t-42.5 86q0 50 40 84h-15q-283 0 -283 296v334h-111v80h361v-80h-110v-334q0 -196 162 -196t162 196v334h-111v80
h321v-80z" />
    <glyph glyph-name="Uring" unicode="&#x16e;" horiz-adv-x="835" 
d="M25 0zM810 620h-110v-334q0 -296 -281 -296q-283 0 -283 296v334h-111v80h361v-80h-110v-334q0 -196 162 -196t162 196v334h-111v80h321v-80zM348 807.5q-30 28.5 -30 68.5t30 68t72 28q41 0 71 -28t30 -68t-29.5 -68.5t-71.5 -28.5t-72 28.5zM449 843q12 14 12 33
t-12 32.5t-29 13.5t-29.5 -13.5t-12.5 -32.5t12.5 -33t29.5 -14t29 14z" />
    <glyph glyph-name="Utilde" unicode="&#x168;" horiz-adv-x="835" 
d="M25 0zM810 620h-110v-334q0 -296 -281 -296q-283 0 -283 296v334h-111v80h361v-80h-110v-334q0 -196 162 -196t162 196v334h-111v80h321v-80zM242 810q15 51 30.5 78t35.5 37.5t51 10.5q27 0 46 -5.5t41 -15.5q17 -8 28.5 -11.5t24.5 -3.5q25 0 44 15t29 42l26 -10
q-15 -51 -30.5 -78t-36 -37.5t-53.5 -10.5q-27 0 -44 5.5t-36 15.5q-14 8 -25 11.5t-26 3.5q-29 0 -49.5 -15t-29.5 -42z" />
    <glyph glyph-name="V" unicode="V" horiz-adv-x="762" 
d="M777 620h-96l-241 -620h-114l-242 620h-99v80h345v-80h-98l137 -383l12 -35q14 -46 24 -68h1l25 71l11 32l139 383h-90v80h286v-80z" />
    <glyph glyph-name="W" unicode="W" horiz-adv-x="1158" 
d="M1173 620h-96l-241 -620h-114l-143 367l-143 -367h-114l-242 620h-95v80h333v-80h-93l174 -457l129 335l-48 122h-99v80h337v-80h-93l174 -457l176 457h-88v80h286v-80z" />
    <glyph glyph-name="Wacute" unicode="&#x1e82;" horiz-adv-x="1158" 
d="M0 0zM1173 620h-96l-241 -620h-114l-143 367l-143 -367h-114l-242 620h-95v80h333v-80h-93l174 -457l129 335l-48 122h-99v80h337v-80h-93l174 -457l176 457h-88v80h286v-80zM665 932q22 18 47 18q18 0 33 -10.5t23 -27.5q6 -13 6 -28q0 -22 -14 -39t-44 -23l-225 -46
l-6 12z" />
    <glyph glyph-name="Wcircumflex" unicode="&#x174;" horiz-adv-x="1158" 
d="M0 0zM1173 620h-96l-241 -620h-114l-143 367l-143 -367h-114l-242 620h-95v80h333v-80h-93l174 -457l129 335l-48 122h-99v80h337v-80h-93l174 -457l176 457h-88v80h286v-80zM760 772q-110 22 -183 61q-72 -39 -182 -61l-7 12q45 36 76 69.5t53 71.5h121q22 -38 53 -71.5
t76 -69.5z" />
    <glyph glyph-name="Wdieresis" unicode="&#x1e84;" horiz-adv-x="1158" 
d="M407.5 797q-22.5 23 -22.5 61t22.5 60.5t60.5 22.5t60.5 -22.5t22.5 -60.5t-22.5 -61t-60.5 -23t-60.5 23zM645.5 797q-22.5 23 -22.5 61t22.5 60.5t60.5 22.5t60.5 -22.5t22.5 -60.5t-22.5 -61t-60.5 -23t-60.5 23zM1173 620h-96l-241 -620h-114l-143 367l-143 -367
h-114l-242 620h-95v80h333v-80h-93l174 -457l129 335l-48 122h-99v80h337v-80h-93l174 -457l176 457h-88v80h286v-80z" />
    <glyph glyph-name="Wgrave" unicode="&#x1e80;" horiz-adv-x="1158" 
d="M0 0zM1173 620h-96l-241 -620h-114l-143 367l-143 -367h-114l-242 620h-95v80h333v-80h-93l174 -457l129 335l-48 122h-99v80h337v-80h-93l174 -457l176 457h-88v80h286v-80zM663 786l-225 46q-30 6 -44 23t-14 39q0 27 18 46.5t44 19.5q25 0 47 -18l180 -144z" />
    <glyph glyph-name="X" unicode="X" horiz-adv-x="791" 
d="M776 80v-80h-339v80h79l-138 202l-156 -202h79v-80h-286v80h103l213 271l-183 269h-114v80h339v-80h-82l127 -182l140 182h-77v80h286v-80h-107l-194 -252l200 -288h110z" />
    <glyph glyph-name="Y" unicode="Y" horiz-adv-x="721" 
d="M430 314v-234h110v-80h-361v80h111v223l-196 317h-109v80h345v-80h-96l144 -242l153 242h-81v80h286v-80h-105z" />
    <glyph glyph-name="Yacute" unicode="&#xdd;" horiz-adv-x="721" 
d="M0 0zM430 314v-234h110v-80h-361v80h111v223l-196 317h-109v80h345v-80h-96l144 -242l153 242h-81v80h286v-80h-105zM449 932q22 18 47 18q18 0 33 -10.5t23 -27.5q6 -13 6 -28q0 -22 -14 -39t-44 -23l-225 -46l-6 12z" />
    <glyph glyph-name="Ycircumflex" unicode="&#x176;" horiz-adv-x="721" 
d="M0 0zM430 314v-234h110v-80h-361v80h111v223l-196 317h-109v80h345v-80h-96l144 -242l153 242h-81v80h286v-80h-105zM544 772q-110 22 -183 61q-72 -39 -182 -61l-7 12q45 36 76 69.5t53 71.5h121q22 -38 53 -71.5t76 -69.5z" />
    <glyph glyph-name="Ydieresis" unicode="&#x178;" horiz-adv-x="721" 
d="M191.5 797q-22.5 23 -22.5 61t22.5 60.5t60.5 22.5t60.5 -22.5t22.5 -60.5t-22.5 -61t-60.5 -23t-60.5 23zM429.5 797q-22.5 23 -22.5 61t22.5 60.5t60.5 22.5t60.5 -22.5t22.5 -60.5t-22.5 -61t-60.5 -23t-60.5 23zM430 314v-234h110v-80h-361v80h111v223l-196 317h-109
v80h345v-80h-96l144 -242l153 242h-81v80h286v-80h-105z" />
    <glyph glyph-name="uni1EF4" unicode="&#x1ef4;" horiz-adv-x="721" 
d="M0 0zM430 314v-234h110v-80h-361v80h111v223l-196 317h-109v80h345v-80h-96l144 -242l153 242h-81v80h286v-80h-105zM291 -260q-25 25 -25 67q0 41 25 66t67 25q41 0 66 -25t25 -66q0 -42 -25 -67t-66 -25q-42 0 -67 25z" />
    <glyph glyph-name="Ygrave" unicode="&#x1ef2;" horiz-adv-x="721" 
d="M0 0zM430 314v-234h110v-80h-361v80h111v223l-196 317h-109v80h345v-80h-96l144 -242l153 242h-81v80h286v-80h-105zM447 786l-225 46q-30 6 -44 23t-14 39q0 27 18 46.5t44 19.5q25 0 47 -18l180 -144z" />
    <glyph glyph-name="uni1EF6" unicode="&#x1ef6;" horiz-adv-x="721" 
d="M0 0zM430 314v-234h110v-80h-361v80h111v223l-196 317h-109v80h345v-80h-96l144 -242l153 242h-81v80h286v-80h-105zM331 800q0 15 6 25.5t18 22.5q11 11 16 19t5 19q0 14 -9 22t-23 8q-15 0 -23.5 -7.5t-8.5 -20.5q0 -19 13 -35l-20 -20q-26 15 -37.5 31t-11.5 36
q0 34 28.5 54t76.5 20q51 0 82 -23t31 -64q0 -27 -13 -39t-38 -22q-26 -11 -40 -24t-17 -42h-28q-7 22 -7 40z" />
    <glyph glyph-name="uni0232" unicode="&#x232;" horiz-adv-x="721" 
d="M0 0zM430 314v-234h110v-80h-361v80h111v223l-196 317h-109v80h345v-80h-96l144 -242l153 242h-81v80h286v-80h-105zM174 862h375v-80h-375v80z" />
    <glyph glyph-name="uni1EF8" unicode="&#x1ef8;" horiz-adv-x="721" 
d="M0 0zM430 314v-234h110v-80h-361v80h111v223l-196 317h-109v80h345v-80h-96l144 -242l153 242h-81v80h286v-80h-105zM183 810q15 51 30.5 78t35.5 37.5t51 10.5q27 0 46 -5.5t41 -15.5q17 -8 28.5 -11.5t24.5 -3.5q25 0 44 15t29 42l26 -10q-15 -51 -30.5 -78t-36 -37.5
t-53.5 -10.5q-27 0 -44 5.5t-36 15.5q-14 8 -25 11.5t-26 3.5q-29 0 -49.5 -15t-29.5 -42z" />
    <glyph glyph-name="Z" unicode="Z" horiz-adv-x="675" 
d="M625 625l-403 -535h253q38 0 56.5 10t26 32.5t12.5 69.5h52v-202h-572v70l410 540h-244q-38 0 -56.5 -10t-26 -32.5t-12.5 -69.5h-52v202h556v-75z" />
    <glyph glyph-name="Zacute" unicode="&#x179;" horiz-adv-x="675" 
d="M50 0zM625 625l-403 -535h253q38 0 56.5 10t26 32.5t12.5 69.5h52v-202h-572v70l410 540h-244q-38 0 -56.5 -10t-26 -32.5t-12.5 -69.5h-52v202h556v-75zM426 932q22 18 47 18q18 0 33 -10.5t23 -27.5q6 -13 6 -28q0 -22 -14 -39t-44 -23l-225 -46l-6 12z" />
    <glyph glyph-name="Zcaron" unicode="&#x17d;" horiz-adv-x="675" 
d="M50 0zM625 625l-403 -535h253q38 0 56.5 10t26 32.5t12.5 69.5h52v-202h-572v70l410 540h-244q-38 0 -56.5 -10t-26 -32.5t-12.5 -69.5h-52v202h556v-75zM528 938q-45 -36 -76 -69.5t-53 -71.5h-121q-22 38 -53 71.5t-76 69.5l7 12q110 -22 182 -61q73 39 183 61z" />
    <glyph glyph-name="Zdotaccent" unicode="&#x17b;" horiz-adv-x="675" 
d="M50 0zM625 625l-403 -535h253q38 0 56.5 10t26 32.5t12.5 69.5h52v-202h-572v70l410 540h-244q-38 0 -56.5 -10t-26 -32.5t-12.5 -69.5h-52v202h556v-75zM282 805q-25 25 -25 67q0 41 25 66t67 25q41 0 66 -25t25 -66q0 -42 -25 -67t-66 -25q-42 0 -67 25z" />
    <glyph glyph-name="uni1E92" unicode="&#x1e92;" horiz-adv-x="675" 
d="M50 0zM625 625l-403 -535h253q38 0 56.5 10t26 32.5t12.5 69.5h52v-202h-572v70l410 540h-244q-38 0 -56.5 -10t-26 -32.5t-12.5 -69.5h-52v202h556v-75zM268 -260q-25 25 -25 67q0 41 25 66t67 25q41 0 66 -25t25 -66q0 -42 -25 -67t-66 -25q-42 0 -67 25z" />
    <glyph glyph-name="Cacute.loclPLK" horiz-adv-x="725" 
d="M35 0zM685 196q-36 -99 -111 -152.5t-186 -53.5q-103 0 -183 45t-125 126.5t-45 188.5t44 188.5t123 126.5t181 45q134 0 207 -75v65h80v-300h-80q0 73 -25.5 125t-69 78.5t-98.5 26.5q-63 0 -111 -34.5t-74.5 -98t-26.5 -147.5q0 -83 26.5 -146.5t73.5 -98.5t108 -35
q66 0 117.5 40t83.5 115zM395 974q8 26 24.5 39t37.5 13q19 0 34 -9t23.5 -22.5t8.5 -30.5q0 -27 -23 -50l-158 -168l-12 7z" />
    <glyph glyph-name="Nacute.loclPLK" horiz-adv-x="866" 
d="M40 0zM841 620h-110v-620h-122l-356 546h-2v-466h110v-80h-321v80h111v540h-111v80h277l311 -471h3v391h-111v80h321v-80zM464 974q8 26 24.5 39t37.5 13q19 0 34 -9t23.5 -22.5t8.5 -30.5q0 -27 -23 -50l-158 -168l-12 7z" />
    <glyph glyph-name="Oacute.loclPLK" horiz-adv-x="796" 
d="M35 0zM207.5 34.5q-82.5 44.5 -127.5 126.5t-45 189t45 189t127.5 126.5t190.5 44.5t190.5 -44.5t127.5 -126.5t45 -189t-45 -189t-127.5 -126.5t-190.5 -44.5t-190.5 44.5zM509.5 104.5q48.5 34.5 75 98t26.5 147.5t-26.5 147.5t-75 98t-111.5 34.5t-111.5 -34.5
t-75 -98t-26.5 -147.5t26.5 -147.5t75 -98t111.5 -34.5t111.5 34.5zM426 974q8 26 24.5 39t37.5 13q19 0 34 -9t23.5 -22.5t8.5 -30.5q0 -27 -23 -50l-158 -168l-12 7z" />
    <glyph glyph-name="Sacute.loclPLK" horiz-adv-x="643" 
d="M40 0zM212 474q22 -21 55 -31.5t92 -23.5q78 -16 126.5 -33.5t83 -59.5t34.5 -117q0 -112 -76.5 -165.5t-196.5 -53.5q-137 0 -210 69v-59h-80v280h80q0 -107 52 -158.5t149 -51.5q73 0 107.5 27t34.5 77q0 44 -25 70.5t-62 40t-101 27.5q-72 16 -117.5 33t-76.5 54
t-31 101q0 70 37.5 117.5t97 70t128.5 22.5q121 0 194 -68v58h80v-260h-80q0 88 -47 139t-136 51q-65 0 -99.5 -27t-34.5 -72q0 -36 22 -57zM350 974q8 26 24.5 39t37.5 13q19 0 34 -9t23.5 -22.5t8.5 -30.5q0 -27 -23 -50l-158 -168l-12 7z" />
    <glyph glyph-name="Zacute.loclPLK" horiz-adv-x="675" 
d="M50 0zM625 625l-403 -535h253q38 0 56.5 10t26 32.5t12.5 69.5h52v-202h-572v70l410 540h-244q-38 0 -56.5 -10t-26 -32.5t-12.5 -69.5h-52v202h556v-75zM366 974q8 26 24.5 39t37.5 13q19 0 34 -9t23.5 -22.5t8.5 -30.5q0 -27 -23 -50l-158 -168l-12 7z" />
    <glyph glyph-name="R.ss03" horiz-adv-x="807" 
d="M776 80v-80h-221l-200 308h-64v-228h110v-80h-361v80h111v540h-111v80h392q83 0 146.5 -24t98.5 -68.5t35 -103.5q0 -76 -57 -126.5t-154 -64.5l151 -233h124zM291 388h141q69 0 99.5 27t30.5 89t-30.5 89t-99.5 27h-141v-232z" />
    <glyph glyph-name="Racute.ss03" horiz-adv-x="807" 
d="M40 0zM776 80v-80h-221l-200 308h-64v-228h110v-80h-361v80h111v540h-111v80h392q83 0 146.5 -24t98.5 -68.5t35 -103.5q0 -76 -57 -126.5t-154 -64.5l151 -233h124zM291 388h141q69 0 99.5 27t30.5 89t-30.5 89t-99.5 27h-141v-232zM455 932q22 18 47 18q18 0 33 -10.5
t23 -27.5q6 -13 6 -28q0 -22 -14 -39t-44 -23l-225 -46l-6 12z" />
    <glyph glyph-name="Rcaron.ss03" horiz-adv-x="807" 
d="M40 0zM776 80v-80h-221l-200 308h-64v-228h110v-80h-361v80h111v540h-111v80h392q83 0 146.5 -24t98.5 -68.5t35 -103.5q0 -76 -57 -126.5t-154 -64.5l151 -233h124zM291 388h141q69 0 99.5 27t30.5 89t-30.5 89t-99.5 27h-141v-232zM557 938q-45 -36 -76 -69.5
t-53 -71.5h-121q-22 38 -53 71.5t-76 69.5l7 12q110 -22 182 -61q73 39 183 61z" />
    <glyph glyph-name="Rcommaaccent.ss03" horiz-adv-x="807" 
d="M40 0zM776 80v-80h-221l-200 308h-64v-228h110v-80h-361v80h111v540h-111v80h392q83 0 146.5 -24t98.5 -68.5t35 -103.5q0 -76 -57 -126.5t-154 -64.5l151 -233h124zM291 388h141q69 0 99.5 27t30.5 89t-30.5 89t-99.5 27h-141v-232zM476 -112q22 -27 22 -76
q0 -58 -33 -100t-98 -64l-8 17q36 21 53 44.5t21 56.5q-14 -2 -21 -2q-32 0 -51.5 20.5t-19.5 54.5t20.5 55t53.5 21q39 0 61 -27z" />
    <glyph glyph-name="uni0210.ss03" horiz-adv-x="807" 
d="M77 886.5q-12 16.5 -12 35.5q0 18 12 37q21 28 53 28q30 0 53 -27l152 -173l-8 -11l-214 85q-24 9 -36 25.5zM301 886.5q-12 16.5 -12 35.5q0 18 12 37q21 28 53 28q30 0 53 -27l152 -173l-8 -11l-214 85q-24 9 -36 25.5zM776 80v-80h-221l-200 308h-64v-228h110v-80
h-361v80h111v540h-111v80h392q83 0 146.5 -24t98.5 -68.5t35 -103.5q0 -76 -57 -126.5t-154 -64.5l151 -233h124zM291 388h141q69 0 99.5 27t30.5 89t-30.5 89t-99.5 27h-141v-232z" />
    <glyph glyph-name="uni1E5A.ss03" horiz-adv-x="807" 
d="M40 0zM776 80v-80h-221l-200 308h-64v-228h110v-80h-361v80h111v540h-111v80h392q83 0 146.5 -24t98.5 -68.5t35 -103.5q0 -76 -57 -126.5t-154 -64.5l151 -233h124zM291 388h141q69 0 99.5 27t30.5 89t-30.5 89t-99.5 27h-141v-232zM340 -260q-25 25 -25 67q0 41 25 66
t67 25q41 0 66 -25t25 -66q0 -42 -25 -67t-66 -25q-42 0 -67 25z" />
    <glyph glyph-name="uni0212.ss03" horiz-adv-x="807" 
d="M40 0zM776 80v-80h-221l-200 308h-64v-228h110v-80h-361v80h111v540h-111v80h392q83 0 146.5 -24t98.5 -68.5t35 -103.5q0 -76 -57 -126.5t-154 -64.5l151 -233h124zM291 388h141q69 0 99.5 27t30.5 89t-30.5 89t-99.5 27h-141v-232zM521 768h-50q0 76 -103 76
q-104 0 -104 -76h-50q0 164 154 164q153 0 153 -164z" />
    <glyph glyph-name="a" unicode="a" horiz-adv-x="636" 
d="M611 80v-80h-241v73q-23 -39 -61 -61t-89 -22q-71 0 -120.5 39.5t-49.5 109.5q0 69 49.5 105t130.5 44l33 3q45 3 69.5 9t33.5 24q-18 106 -106 106q-45 0 -72 -27q18 -13 18 -40q0 -26 -16.5 -43t-43.5 -17q-28 0 -44.5 19t-16.5 52q0 61 54 98.5t139 37.5
q104 0 163 -61.5t59 -173.5v-195h111zM343 98q27 38 27 102v59q-31 -22 -90 -30q-41 -6 -68.5 -24t-27.5 -61q0 -40 24.5 -62t60.5 -22q47 0 74 38z" />
    <glyph glyph-name="aacute" unicode="&#xe1;" horiz-adv-x="636" 
d="M50 0zM611 80v-80h-241v73q-23 -39 -61 -61t-89 -22q-71 0 -120.5 39.5t-49.5 109.5q0 69 49.5 105t130.5 44l33 3q45 3 69.5 9t33.5 24q-18 106 -106 106q-45 0 -72 -27q18 -13 18 -40q0 -26 -16.5 -43t-43.5 -17q-28 0 -44.5 19t-16.5 52q0 61 54 98.5t139 37.5
q104 0 163 -61.5t59 -173.5v-195h111zM343 98q27 38 27 102v59q-31 -22 -90 -30q-41 -6 -68.5 -24t-27.5 -61q0 -40 24.5 -62t60.5 -22q47 0 74 38zM342 777q24 32 55 32q29 0 50 -24q15 -18 15 -42q0 -38 -42 -58l-206 -104l-9 11z" />
    <glyph glyph-name="abreve" unicode="&#x103;" horiz-adv-x="636" 
d="M50 0zM611 80v-80h-241v73q-23 -39 -61 -61t-89 -22q-71 0 -120.5 39.5t-49.5 109.5q0 69 49.5 105t130.5 44l33 3q45 3 69.5 9t33.5 24q-18 106 -106 106q-45 0 -72 -27q18 -13 18 -40q0 -26 -16.5 -43t-43.5 -17q-28 0 -44.5 19t-16.5 52q0 61 54 98.5t139 37.5
q104 0 163 -61.5t59 -173.5v-195h111zM343 98q27 38 27 102v59q-31 -22 -90 -30q-41 -6 -68.5 -24t-27.5 -61q0 -40 24.5 -62t60.5 -22q47 0 74 38zM121 772h50q0 -76 104 -76q103 0 103 76h50q0 -164 -153 -164q-154 0 -154 164z" />
    <glyph glyph-name="uni1EAF" unicode="&#x1eaf;" horiz-adv-x="636" 
d="M50 0zM611 80v-80h-241v73q-23 -39 -61 -61t-89 -22q-71 0 -120.5 39.5t-49.5 109.5q0 69 49.5 105t130.5 44l33 3q45 3 69.5 9t33.5 24q-18 106 -106 106q-45 0 -72 -27q18 -13 18 -40q0 -26 -16.5 -43t-43.5 -17q-28 0 -44.5 19t-16.5 52q0 61 54 98.5t139 37.5
q104 0 163 -61.5t59 -173.5v-195h111zM343 98q27 38 27 102v59q-31 -22 -90 -30q-41 -6 -68.5 -24t-27.5 -61q0 -40 24.5 -62t60.5 -22q47 0 74 38zM121 772h50q0 -76 104 -76q103 0 103 76h50q0 -164 -153 -164q-154 0 -154 164zM342 950q24 32 55 32q29 0 50 -24
q15 -18 15 -42q0 -38 -42 -58l-206 -104l-9 11z" />
    <glyph glyph-name="uni1EB7" unicode="&#x1eb7;" horiz-adv-x="636" 
d="M50 0zM611 80v-80h-241v73q-23 -39 -61 -61t-89 -22q-71 0 -120.5 39.5t-49.5 109.5q0 69 49.5 105t130.5 44l33 3q45 3 69.5 9t33.5 24q-18 106 -106 106q-45 0 -72 -27q18 -13 18 -40q0 -26 -16.5 -43t-43.5 -17q-28 0 -44.5 19t-16.5 52q0 61 54 98.5t139 37.5
q104 0 163 -61.5t59 -173.5v-195h111zM343 98q27 38 27 102v59q-31 -22 -90 -30q-41 -6 -68.5 -24t-27.5 -61q0 -40 24.5 -62t60.5 -22q47 0 74 38zM202 -260q-25 25 -25 67q0 41 25 66t67 25q41 0 66 -25t25 -66q0 -42 -25 -67t-66 -25q-42 0 -67 25zM121 772h50
q0 -76 104 -76q103 0 103 76h50q0 -164 -153 -164q-154 0 -154 164z" />
    <glyph glyph-name="uni1EB1" unicode="&#x1eb1;" horiz-adv-x="636" 
d="M50 0zM611 80v-80h-241v73q-23 -39 -61 -61t-89 -22q-71 0 -120.5 39.5t-49.5 109.5q0 69 49.5 105t130.5 44l33 3q45 3 69.5 9t33.5 24q-18 106 -106 106q-45 0 -72 -27q18 -13 18 -40q0 -26 -16.5 -43t-43.5 -17q-28 0 -44.5 19t-16.5 52q0 61 54 98.5t139 37.5
q104 0 163 -61.5t59 -173.5v-195h111zM343 98q27 38 27 102v59q-31 -22 -90 -30q-41 -6 -68.5 -24t-27.5 -61q0 -40 24.5 -62t60.5 -22q47 0 74 38zM121 772h50q0 -76 104 -76q103 0 103 76h50q0 -164 -153 -164q-154 0 -154 164zM336 754l-206 104q-42 20 -42 58
q0 24 15 42q21 24 50 24q31 0 55 -32l137 -185z" />
    <glyph glyph-name="uni1EB3" unicode="&#x1eb3;" horiz-adv-x="636" 
d="M50 0zM611 80v-80h-241v73q-23 -39 -61 -61t-89 -22q-71 0 -120.5 39.5t-49.5 109.5q0 69 49.5 105t130.5 44l33 3q45 3 69.5 9t33.5 24q-18 106 -106 106q-45 0 -72 -27q18 -13 18 -40q0 -26 -16.5 -43t-43.5 -17q-28 0 -44.5 19t-16.5 52q0 61 54 98.5t139 37.5
q104 0 163 -61.5t59 -173.5v-195h111zM343 98q27 38 27 102v59q-31 -22 -90 -30q-41 -6 -68.5 -24t-27.5 -61q0 -40 24.5 -62t60.5 -22q47 0 74 38zM121 772h50q0 -76 104 -76q103 0 103 76h50q0 -164 -153 -164q-154 0 -154 164zM245 773q0 15 6 25.5t18 22.5q11 11 16 19
t5 19q0 14 -9 22t-23 8q-15 0 -23.5 -7.5t-8.5 -20.5q0 -19 13 -35l-20 -20q-26 15 -37.5 31t-11.5 36q0 34 28.5 54t76.5 20q51 0 82 -23t31 -64q0 -27 -13 -39t-38 -22q-26 -11 -40 -24t-17 -42h-28q-7 22 -7 40z" />
    <glyph glyph-name="uni1EB5" unicode="&#x1eb5;" horiz-adv-x="636" 
d="M50 0zM611 80v-80h-241v73q-23 -39 -61 -61t-89 -22q-71 0 -120.5 39.5t-49.5 109.5q0 69 49.5 105t130.5 44l33 3q45 3 69.5 9t33.5 24q-18 106 -106 106q-45 0 -72 -27q18 -13 18 -40q0 -26 -16.5 -43t-43.5 -17q-28 0 -44.5 19t-16.5 52q0 61 54 98.5t139 37.5
q104 0 163 -61.5t59 -173.5v-195h111zM343 98q27 38 27 102v59q-31 -22 -90 -30q-41 -6 -68.5 -24t-27.5 -61q0 -40 24.5 -62t60.5 -22q47 0 74 38zM121 772h50q0 -76 104 -76q103 0 103 76h50q0 -164 -153 -164q-154 0 -154 164zM97 791q15 51 30.5 78t35.5 37.5t51 10.5
q27 0 46 -5.5t41 -15.5q17 -8 28.5 -11.5t24.5 -3.5q25 0 44 15t29 42l26 -10q-15 -51 -30.5 -78t-36 -37.5t-53.5 -10.5q-27 0 -44 5.5t-36 15.5q-14 8 -25 11.5t-26 3.5q-29 0 -49.5 -15t-29.5 -42z" />
    <glyph glyph-name="uni01CE" unicode="&#x1ce;" horiz-adv-x="636" 
d="M50 0zM611 80v-80h-241v73q-23 -39 -61 -61t-89 -22q-71 0 -120.5 39.5t-49.5 109.5q0 69 49.5 105t130.5 44l33 3q45 3 69.5 9t33.5 24q-18 106 -106 106q-45 0 -72 -27q18 -13 18 -40q0 -26 -16.5 -43t-43.5 -17q-28 0 -44.5 19t-16.5 52q0 61 54 98.5t139 37.5
q104 0 163 -61.5t59 -173.5v-195h111zM343 98q27 38 27 102v59q-31 -22 -90 -30q-41 -6 -68.5 -24t-27.5 -61q0 -40 24.5 -62t60.5 -22q47 0 74 38zM465 787q-77 -79 -129 -176h-121q-52 97 -129 176l7 12q95 -35 182 -90q89 55 183 90z" />
    <glyph glyph-name="acircumflex" unicode="&#xe2;" horiz-adv-x="636" 
d="M50 0zM611 80v-80h-241v73q-23 -39 -61 -61t-89 -22q-71 0 -120.5 39.5t-49.5 109.5q0 69 49.5 105t130.5 44l33 3q45 3 69.5 9t33.5 24q-18 106 -106 106q-45 0 -72 -27q18 -13 18 -40q0 -26 -16.5 -43t-43.5 -17q-28 0 -44.5 19t-16.5 52q0 61 54 98.5t139 37.5
q104 0 163 -61.5t59 -173.5v-195h111zM343 98q27 38 27 102v59q-31 -22 -90 -30q-41 -6 -68.5 -24t-27.5 -61q0 -40 24.5 -62t60.5 -22q47 0 74 38zM458 593q-94 35 -183 90q-87 -55 -182 -90l-7 12q77 79 129 176h121q52 -97 129 -176z" />
    <glyph glyph-name="uni1EA5" unicode="&#x1ea5;" horiz-adv-x="636" 
d="M50 0zM611 80v-80h-241v73q-23 -39 -61 -61t-89 -22q-71 0 -120.5 39.5t-49.5 109.5q0 69 49.5 105t130.5 44l33 3q45 3 69.5 9t33.5 24q-18 106 -106 106q-45 0 -72 -27q18 -13 18 -40q0 -26 -16.5 -43t-43.5 -17q-28 0 -44.5 19t-16.5 52q0 61 54 98.5t139 37.5
q104 0 163 -61.5t59 -173.5v-195h111zM343 98q27 38 27 102v59q-31 -22 -90 -30q-41 -6 -68.5 -24t-27.5 -61q0 -40 24.5 -62t60.5 -22q47 0 74 38zM458 593q-94 35 -183 90q-87 -55 -182 -90l-7 12q77 79 129 176h121q52 -97 129 -176zM513 931q24 32 55 32q29 0 50 -24
q15 -18 15 -42q0 -38 -42 -58l-206 -104l-9 11z" />
    <glyph glyph-name="uni1EAD" unicode="&#x1ead;" horiz-adv-x="636" 
d="M50 0zM611 80v-80h-241v73q-23 -39 -61 -61t-89 -22q-71 0 -120.5 39.5t-49.5 109.5q0 69 49.5 105t130.5 44l33 3q45 3 69.5 9t33.5 24q-18 106 -106 106q-45 0 -72 -27q18 -13 18 -40q0 -26 -16.5 -43t-43.5 -17q-28 0 -44.5 19t-16.5 52q0 61 54 98.5t139 37.5
q104 0 163 -61.5t59 -173.5v-195h111zM343 98q27 38 27 102v59q-31 -22 -90 -30q-41 -6 -68.5 -24t-27.5 -61q0 -40 24.5 -62t60.5 -22q47 0 74 38zM202 -260q-25 25 -25 67q0 41 25 66t67 25q41 0 66 -25t25 -66q0 -42 -25 -67t-66 -25q-42 0 -67 25zM458 593
q-94 35 -183 90q-87 -55 -182 -90l-7 12q77 79 129 176h121q52 -97 129 -176z" />
    <glyph glyph-name="uni1EA7" unicode="&#x1ea7;" horiz-adv-x="636" 
d="M278 903q0 26 20 46q21 19 45 19q35 0 58 -38l117 -198l-11 -10l-193 125q-36 22 -36 56zM93 593l-7 12q77 79 129 176h121q52 -97 129 -176l-7 -12q-95 35 -182 90q-89 -55 -183 -90zM611 80v-80h-241v73q-23 -39 -61 -61t-89 -22q-71 0 -120.5 39.5t-49.5 109.5
q0 69 49.5 105t130.5 44l33 3q45 3 69.5 9t33.5 24q-18 106 -106 106q-45 0 -72 -27q18 -13 18 -40q0 -26 -16.5 -43t-43.5 -17q-28 0 -44.5 19t-16.5 52q0 61 54 98.5t139 37.5q104 0 163 -61.5t59 -173.5v-195h111zM343 98q27 38 27 102v59q-31 -22 -90 -30
q-41 -6 -68.5 -24t-27.5 -61q0 -40 24.5 -62t60.5 -22q47 0 74 38z" />
    <glyph glyph-name="uni1EA9" unicode="&#x1ea9;" horiz-adv-x="636" 
d="M50 0zM611 80v-80h-241v73q-23 -39 -61 -61t-89 -22q-71 0 -120.5 39.5t-49.5 109.5q0 69 49.5 105t130.5 44l33 3q45 3 69.5 9t33.5 24q-18 106 -106 106q-45 0 -72 -27q18 -13 18 -40q0 -26 -16.5 -43t-43.5 -17q-28 0 -44.5 19t-16.5 52q0 61 54 98.5t139 37.5
q104 0 163 -61.5t59 -173.5v-195h111zM343 98q27 38 27 102v59q-31 -22 -90 -30q-41 -6 -68.5 -24t-27.5 -61q0 -40 24.5 -62t60.5 -22q47 0 74 38zM458 593q-94 35 -183 90q-87 -55 -182 -90l-7 12q77 79 129 176h121q52 -97 129 -176zM416 754q0 15 6 25.5t18 22.5
q11 11 16 19t5 19q0 14 -9 22t-23 8q-15 0 -23.5 -7.5t-8.5 -20.5q0 -19 13 -35l-20 -20q-26 15 -37.5 31t-11.5 36q0 34 28.5 54t76.5 20q51 0 82 -23t31 -64q0 -27 -13 -39t-38 -22q-26 -11 -40 -24t-17 -42h-28q-7 22 -7 40z" />
    <glyph glyph-name="uni1EAB" unicode="&#x1eab;" horiz-adv-x="636" 
d="M50 0zM611 80v-80h-241v73q-23 -39 -61 -61t-89 -22q-71 0 -120.5 39.5t-49.5 109.5q0 69 49.5 105t130.5 44l33 3q45 3 69.5 9t33.5 24q-18 106 -106 106q-45 0 -72 -27q18 -13 18 -40q0 -26 -16.5 -43t-43.5 -17q-28 0 -44.5 19t-16.5 52q0 61 54 98.5t139 37.5
q104 0 163 -61.5t59 -173.5v-195h111zM343 98q27 38 27 102v59q-31 -22 -90 -30q-41 -6 -68.5 -24t-27.5 -61q0 -40 24.5 -62t60.5 -22q47 0 74 38zM458 593q-94 35 -183 90q-87 -55 -182 -90l-7 12q77 79 129 176h121q52 -97 129 -176zM97 807q15 51 30.5 78t35.5 37.5
t51 10.5q27 0 46 -5.5t41 -15.5q17 -8 28.5 -11.5t24.5 -3.5q25 0 44 15t29 42l26 -10q-15 -51 -30.5 -78t-36 -37.5t-53.5 -10.5q-27 0 -44 5.5t-36 15.5q-14 8 -25 11.5t-26 3.5q-29 0 -49.5 -15t-29.5 -42z" />
    <glyph glyph-name="uni0201" unicode="&#x201;" horiz-adv-x="636" 
d="M0 0zM611 80v-80h-241v73q-23 -39 -61 -61t-89 -22q-71 0 -120.5 39.5t-49.5 109.5q0 69 49.5 105t130.5 44l33 3q45 3 69.5 9t33.5 24q-18 106 -106 106q-45 0 -72 -27q18 -13 18 -40q0 -26 -16.5 -43t-43.5 -17q-28 0 -44.5 19t-16.5 52q0 61 54 98.5t139 37.5
q104 0 163 -61.5t59 -173.5v-195h111zM343 98q27 38 27 102v59q-31 -22 -90 -30q-41 -6 -68.5 -24t-27.5 -61q0 -40 24.5 -62t60.5 -22q47 0 74 38zM192 552l-173 154q-27 24 -27 52q0 15 7.5 29t19.5 22q20 13 40 13q19 0 35 -12t25 -36l84 -214zM381 552l-173 154
q-27 24 -27 52q0 15 7.5 29t19.5 22q20 13 40 13q19 0 35 -12t25 -36l84 -214z" />
    <glyph glyph-name="adieresis" unicode="&#xe4;" horiz-adv-x="636" 
d="M50 0zM611 80v-80h-241v73q-23 -39 -61 -61t-89 -22q-71 0 -120.5 39.5t-49.5 109.5q0 69 49.5 105t130.5 44l33 3q45 3 69.5 9t33.5 24q-18 106 -106 106q-45 0 -72 -27q18 -13 18 -40q0 -26 -16.5 -43t-43.5 -17q-28 0 -44.5 19t-16.5 52q0 61 54 98.5t139 37.5
q104 0 163 -61.5t59 -173.5v-195h111zM343 98q27 38 27 102v59q-31 -22 -90 -30q-41 -6 -68.5 -24t-27.5 -61q0 -40 24.5 -62t60.5 -22q47 0 74 38zM330 605q-25 25 -25 67q0 41 25 66t67 25q41 0 66 -25t25 -66q0 -42 -25 -67t-66 -25q-42 0 -67 25zM88 605q-25 25 -25 67
q0 41 25 66t67 25q41 0 66 -25t25 -66q0 -42 -25 -67t-66 -25q-42 0 -67 25z" />
    <glyph glyph-name="uni1EA1" unicode="&#x1ea1;" horiz-adv-x="636" 
d="M50 0zM611 80v-80h-241v73q-23 -39 -61 -61t-89 -22q-71 0 -120.5 39.5t-49.5 109.5q0 69 49.5 105t130.5 44l33 3q45 3 69.5 9t33.5 24q-18 106 -106 106q-45 0 -72 -27q18 -13 18 -40q0 -26 -16.5 -43t-43.5 -17q-28 0 -44.5 19t-16.5 52q0 61 54 98.5t139 37.5
q104 0 163 -61.5t59 -173.5v-195h111zM343 98q27 38 27 102v59q-31 -22 -90 -30q-41 -6 -68.5 -24t-27.5 -61q0 -40 24.5 -62t60.5 -22q47 0 74 38zM202 -260q-25 25 -25 67q0 41 25 66t67 25q41 0 66 -25t25 -66q0 -42 -25 -67t-66 -25q-42 0 -67 25z" />
    <glyph glyph-name="agrave" unicode="&#xe0;" horiz-adv-x="636" 
d="M50 0zM611 80v-80h-241v73q-23 -39 -61 -61t-89 -22q-71 0 -120.5 39.5t-49.5 109.5q0 69 49.5 105t130.5 44l33 3q45 3 69.5 9t33.5 24q-18 106 -106 106q-45 0 -72 -27q18 -13 18 -40q0 -26 -16.5 -43t-43.5 -17q-28 0 -44.5 19t-16.5 52q0 61 54 98.5t139 37.5
q104 0 163 -61.5t59 -173.5v-195h111zM343 98q27 38 27 102v59q-31 -22 -90 -30q-41 -6 -68.5 -24t-27.5 -61q0 -40 24.5 -62t60.5 -22q47 0 74 38zM336 581l-206 104q-42 20 -42 58q0 24 15 42q21 24 50 24q31 0 55 -32l137 -185z" />
    <glyph glyph-name="uni1EA3" unicode="&#x1ea3;" horiz-adv-x="636" 
d="M50 0zM611 80v-80h-241v73q-23 -39 -61 -61t-89 -22q-71 0 -120.5 39.5t-49.5 109.5q0 69 49.5 105t130.5 44l33 3q45 3 69.5 9t33.5 24q-18 106 -106 106q-45 0 -72 -27q18 -13 18 -40q0 -26 -16.5 -43t-43.5 -17q-28 0 -44.5 19t-16.5 52q0 61 54 98.5t139 37.5
q104 0 163 -61.5t59 -173.5v-195h111zM343 98q27 38 27 102v59q-31 -22 -90 -30q-41 -6 -68.5 -24t-27.5 -61q0 -40 24.5 -62t60.5 -22q47 0 74 38zM253 640q0 20 8.5 33t25.5 29q16 17 23.5 28.5t7.5 28.5q0 21 -12 34t-32 13q-22 0 -36 -15.5t-14 -38.5q0 -20 13 -39
l-20 -20q-26 17 -37.5 35.5t-11.5 42.5q0 42 33.5 67.5t88.5 25.5q57 0 91.5 -28t34.5 -77q0 -33 -15 -48.5t-45 -29.5q-31 -13 -48 -29.5t-20 -51.5h-28q-7 21 -7 40z" />
    <glyph glyph-name="uni0203" unicode="&#x203;" horiz-adv-x="636" 
d="M50 0zM611 80v-80h-241v73q-23 -39 -61 -61t-89 -22q-71 0 -120.5 39.5t-49.5 109.5q0 69 49.5 105t130.5 44l33 3q45 3 69.5 9t33.5 24q-18 106 -106 106q-45 0 -72 -27q18 -13 18 -40q0 -26 -16.5 -43t-43.5 -17q-28 0 -44.5 19t-16.5 52q0 61 54 98.5t139 37.5
q104 0 163 -61.5t59 -173.5v-195h111zM343 98q27 38 27 102v59q-31 -22 -90 -30q-41 -6 -68.5 -24t-27.5 -61q0 -40 24.5 -62t60.5 -22q47 0 74 38zM429 598h-50q0 76 -103 76q-104 0 -104 -76h-50q0 164 154 164q153 0 153 -164z" />
    <glyph glyph-name="amacron" unicode="&#x101;" horiz-adv-x="636" 
d="M50 0zM611 80v-80h-241v73q-23 -39 -61 -61t-89 -22q-71 0 -120.5 39.5t-49.5 109.5q0 69 49.5 105t130.5 44l33 3q45 3 69.5 9t33.5 24q-18 106 -106 106q-45 0 -72 -27q18 -13 18 -40q0 -26 -16.5 -43t-43.5 -17q-28 0 -44.5 19t-16.5 52q0 61 54 98.5t139 37.5
q104 0 163 -61.5t59 -173.5v-195h111zM343 98q27 38 27 102v59q-31 -22 -90 -30q-41 -6 -68.5 -24t-27.5 -61q0 -40 24.5 -62t60.5 -22q47 0 74 38zM87 708h375v-80h-375v80z" />
    <glyph glyph-name="aogonek" unicode="&#x105;" horiz-adv-x="636" 
d="M631 -167l-4 -48q-28 -18 -71 -18q-63 0 -105.5 33t-42.5 86q0 73 86 114h-124v73q-23 -39 -61 -61t-89 -22q-71 0 -120.5 39.5t-49.5 109.5q0 69 49.5 105t130.5 44l33 3q45 3 69.5 9t33.5 24q-18 106 -106 106q-45 0 -72 -27q18 -13 18 -40q0 -26 -16.5 -43t-43.5 -17
q-28 0 -44.5 19t-16.5 52q0 61 54 98.5t139 37.5q104 0 163 -61.5t59 -173.5v-195h111v-80h-21q-38 -19 -61 -43.5t-23 -62.5q0 -33 19.5 -53t57.5 -20q26 0 48 12zM343 98q27 38 27 102v59q-31 -22 -90 -30q-41 -6 -68.5 -24t-27.5 -61q0 -40 24.5 -62t60.5 -22q47 0 74 38
z" />
    <glyph glyph-name="aring" unicode="&#xe5;" horiz-adv-x="636" 
d="M50 0zM611 80v-80h-241v73q-23 -39 -61 -61t-89 -22q-71 0 -120.5 39.5t-49.5 109.5q0 69 49.5 105t130.5 44l33 3q45 3 69.5 9t33.5 24q-18 106 -106 106q-45 0 -72 -27q18 -13 18 -40q0 -26 -16.5 -43t-43.5 -17q-28 0 -44.5 19t-16.5 52q0 61 54 98.5t139 37.5
q104 0 163 -61.5t59 -173.5v-195h111zM343 98q27 38 27 102v59q-31 -22 -90 -30q-41 -6 -68.5 -24t-27.5 -61q0 -40 24.5 -62t60.5 -22q47 0 74 38zM203 607.5q-30 28.5 -30 68.5t30 68t72 28q41 0 71 -28t30 -68t-29.5 -68.5t-71.5 -28.5t-72 28.5zM304 643q12 14 12 33
t-12 32.5t-29 13.5t-29.5 -13.5t-12.5 -32.5t12.5 -33t29.5 -14t29 14z" />
    <glyph glyph-name="aringacute" unicode="&#x1fb;" horiz-adv-x="636" 
d="M50 0zM611 80v-80h-241v73q-23 -39 -61 -61t-89 -22q-71 0 -120.5 39.5t-49.5 109.5q0 69 49.5 105t130.5 44l33 3q45 3 69.5 9t33.5 24q-18 106 -106 106q-45 0 -72 -27q18 -13 18 -40q0 -26 -16.5 -43t-43.5 -17q-28 0 -44.5 19t-16.5 52q0 61 54 98.5t139 37.5
q104 0 163 -61.5t59 -173.5v-195h111zM343 98q27 38 27 102v59q-31 -22 -90 -30q-41 -6 -68.5 -24t-27.5 -61q0 -40 24.5 -62t60.5 -22q47 0 74 38zM203 607.5q-30 28.5 -30 68.5t30 68t72 28q41 0 71 -28t30 -68t-29.5 -68.5t-71.5 -28.5t-72 28.5zM304 643q12 14 12 33
t-12 32.5t-29 13.5t-29.5 -13.5t-12.5 -32.5t12.5 -33t29.5 -14t29 14zM338 999q24 32 55 32q29 0 50 -24q15 -18 15 -42q0 -38 -42 -58l-206 -104l-9 11z" />
    <glyph glyph-name="atilde" unicode="&#xe3;" horiz-adv-x="636" 
d="M50 0zM611 80v-80h-241v73q-23 -39 -61 -61t-89 -22q-71 0 -120.5 39.5t-49.5 109.5q0 69 49.5 105t130.5 44l33 3q45 3 69.5 9t33.5 24q-18 106 -106 106q-45 0 -72 -27q18 -13 18 -40q0 -26 -16.5 -43t-43.5 -17q-28 0 -44.5 19t-16.5 52q0 61 54 98.5t139 37.5
q104 0 163 -61.5t59 -173.5v-195h111zM343 98q27 38 27 102v59q-31 -22 -90 -30q-41 -6 -68.5 -24t-27.5 -61q0 -40 24.5 -62t60.5 -22q47 0 74 38zM97 610q15 51 30.5 78t35.5 37.5t51 10.5q27 0 46 -5.5t41 -15.5q17 -8 28.5 -11.5t24.5 -3.5q25 0 44 15t29 42l26 -10
q-15 -51 -30.5 -78t-36 -37.5t-53.5 -10.5q-27 0 -44 5.5t-36 15.5q-14 8 -25 11.5t-26 3.5q-29 0 -49.5 -15t-29.5 -42z" />
    <glyph glyph-name="ae" unicode="&#xe6;" horiz-adv-x="888" 
d="M853 227h-356q5 -73 40.5 -115t91.5 -42q37 0 69 19t49 56l91 -29q-26 -59 -83.5 -92.5t-136.5 -33.5q-64 0 -115.5 22t-85.5 63q-28 -40 -73.5 -62.5t-107.5 -22.5q-85 0 -135.5 42t-50.5 109t48 102t126 45q12 2 36 4q45 5 65.5 10.5t28.5 21.5q-16 106 -101 106
q-42 0 -70 -25q17 -12 17 -37q0 -28 -16.5 -45t-44.5 -17q-27 0 -43.5 19.5t-16.5 51.5q0 59 52 96t133 37q108 0 167 -67q69 67 181 67q107 0 172.5 -62t68.5 -170v-51zM537.5 394q-30.5 -36 -38.5 -97h222q-2 61 -31.5 97t-76.5 36q-45 0 -75.5 -36zM358 258
q-16 -12 -35 -17.5t-32.5 -8t-16.5 -3.5q-40 -7 -65 -25.5t-25 -59.5q0 -38 21.5 -61t55.5 -23q44 0 70.5 38t26.5 102v58z" />
    <glyph glyph-name="aeacute" unicode="&#x1fd;" horiz-adv-x="888" 
d="M50 0zM853 227h-356q5 -73 40.5 -115t91.5 -42q37 0 69 19t49 56l91 -29q-26 -59 -83.5 -92.5t-136.5 -33.5q-64 0 -115.5 22t-85.5 63q-28 -40 -73.5 -62.5t-107.5 -22.5q-85 0 -135.5 42t-50.5 109t48 102t126 45q12 2 36 4q45 5 65.5 10.5t28.5 21.5q-16 106 -101 106
q-42 0 -70 -25q17 -12 17 -37q0 -28 -16.5 -45t-44.5 -17q-27 0 -43.5 19.5t-16.5 51.5q0 59 52 96t133 37q108 0 167 -67q69 67 181 67q107 0 172.5 -62t68.5 -170v-51zM537.5 394q-30.5 -36 -38.5 -97h222q-2 61 -31.5 97t-76.5 36q-45 0 -75.5 -36zM358 258
q-16 -12 -35 -17.5t-32.5 -8t-16.5 -3.5q-40 -7 -65 -25.5t-25 -59.5q0 -38 21.5 -61t55.5 -23q44 0 70.5 38t26.5 102v58zM507 777q24 32 55 32q29 0 50 -24q15 -18 15 -42q0 -38 -42 -58l-206 -104l-9 11z" />
    <glyph glyph-name="b" unicode="b" horiz-adv-x="716" 
d="M569 477q53 -33 82.5 -92t29.5 -135t-29.5 -135t-82.5 -92t-121 -33q-52 0 -94 19.5t-73 55.5v-65h-241v80h111v590h-111v80h241v-315q31 36 73 55.5t94 19.5q68 0 121 -33zM504 120q37 50 37 130t-37 130t-95 50q-57 0 -92.5 -49.5t-35.5 -130.5q0 -80 35 -130t93 -50
t95 50z" />
    <glyph glyph-name="uni0253" unicode="&#x253;" horiz-adv-x="716" 
d="M569 477q53 -33 82.5 -92t29.5 -135t-29.5 -135t-82.5 -92t-122 -33q-51 0 -93 19.5t-73 54.5v-64h-241v80h111v537q0 78 37.5 110.5t111.5 32.5q44 0 82 -13v-50q-19 6 -37 6q-32 0 -48 -26t-16 -88v-153q31 35 73 54.5t93 19.5q69 0 122 -33zM504 120q37 50 37 130
t-37 130t-95 50q-57 0 -92.5 -49.5t-35.5 -130.5q0 -80 35 -130t93 -50t95 50z" />
    <glyph glyph-name="c" unicode="c" horiz-adv-x="550" 
d="M515 136q-28 -72 -84.5 -109t-136.5 -37q-76 0 -135 32.5t-91.5 91.5t-32.5 137q0 77 32 136t89.5 91t132.5 32q81 0 131 -40v30h80v-250h-80q1 92 -30.5 136t-85.5 44q-60 0 -94.5 -49t-34.5 -132q0 -81 33.5 -130t89.5 -49q38 0 71 24.5t55 70.5z" />
    <glyph glyph-name="cacute" unicode="&#x107;" horiz-adv-x="550" 
d="M35 0zM515 136q-28 -72 -84.5 -109t-136.5 -37q-76 0 -135 32.5t-91.5 91.5t-32.5 137q0 77 32 136t89.5 91t132.5 32q81 0 131 -40v30h80v-250h-80q1 92 -30.5 136t-85.5 44q-60 0 -94.5 -49t-34.5 -132q0 -81 33.5 -130t89.5 -49q38 0 71 24.5t55 70.5zM339 777
q24 32 55 32q29 0 50 -24q15 -18 15 -42q0 -38 -42 -58l-206 -104l-9 11z" />
    <glyph glyph-name="ccaron" unicode="&#x10d;" horiz-adv-x="550" 
d="M35 0zM515 136q-28 -72 -84.5 -109t-136.5 -37q-76 0 -135 32.5t-91.5 91.5t-32.5 137q0 77 32 136t89.5 91t132.5 32q81 0 131 -40v30h80v-250h-80q1 92 -30.5 136t-85.5 44q-60 0 -94.5 -49t-34.5 -132q0 -81 33.5 -130t89.5 -49q38 0 71 24.5t55 70.5zM462 787
q-77 -79 -129 -176h-121q-52 97 -129 176l7 12q95 -35 182 -90q89 55 183 90z" />
    <glyph glyph-name="ccedilla" unicode="&#xe7;" horiz-adv-x="550" 
d="M431.5 28q-55.5 -37 -135.5 -38l-32 -31q12 3 22 3q39 0 68 -29.5t29 -71.5q0 -44 -31.5 -73t-77.5 -29q-26 0 -51 10t-39 26l18 26q9 -8 21.5 -12.5t24.5 -4.5q23 0 37 15.5t14 40.5q0 26 -14.5 44t-35.5 18q-22 0 -39 -17l-3 2l-13 12l59 74q-99 12 -158.5 81.5
t-59.5 176.5q0 77 32 136t89.5 91t132.5 32q81 0 131 -40v30h80v-250h-80q1 92 -30.5 136t-85.5 44q-60 0 -94.5 -49t-34.5 -132q0 -81 33.5 -130t89.5 -49q38 0 71 24.5t55 70.5l91 -29q-28 -71 -83.5 -108z" />
    <glyph glyph-name="ccircumflex" unicode="&#x109;" horiz-adv-x="550" 
d="M35 0zM515 136q-28 -72 -84.5 -109t-136.5 -37q-76 0 -135 32.5t-91.5 91.5t-32.5 137q0 77 32 136t89.5 91t132.5 32q81 0 131 -40v30h80v-250h-80q1 92 -30.5 136t-85.5 44q-60 0 -94.5 -49t-34.5 -132q0 -81 33.5 -130t89.5 -49q38 0 71 24.5t55 70.5zM455 593
q-94 35 -183 90q-87 -55 -182 -90l-7 12q77 79 129 176h121q52 -97 129 -176z" />
    <glyph glyph-name="cdotaccent" unicode="&#x10b;" horiz-adv-x="550" 
d="M35 0zM515 136q-28 -72 -84.5 -109t-136.5 -37q-76 0 -135 32.5t-91.5 91.5t-32.5 137q0 77 32 136t89.5 91t132.5 32q81 0 131 -40v30h80v-250h-80q1 92 -30.5 136t-85.5 44q-60 0 -94.5 -49t-34.5 -132q0 -81 33.5 -130t89.5 -49q38 0 71 24.5t55 70.5zM216 605
q-25 25 -25 67q0 41 25 66t67 25q41 0 66 -25t25 -66q0 -42 -25 -67t-66 -25q-42 0 -67 25z" />
    <glyph glyph-name="d" unicode="d" horiz-adv-x="701" 
d="M676 80v-80h-241v63q-31 -35 -73 -54t-93 -19q-69 0 -122 33t-82.5 92t-29.5 135t29.5 135t82.5 92t122 33q51 0 93 -19t73 -54v233h-111v80h241v-670h111zM399 119.5q36 49.5 36 130.5t-36 130.5t-94 49.5q-59 0 -96.5 -50t-37.5 -130t37.5 -130t96.5 -50q58 0 94 49.5z
" />
    <glyph glyph-name="eth" unicode="&#xf0;" horiz-adv-x="614" 
d="M579 306q0 -153 -66 -234.5t-203 -81.5q-83 0 -145 32t-96 91.5t-34 140.5q0 76 30 134t85 90t129 32q81 0 133 -41q-27 85 -76 146l-88 -59l-33 50l81 54q-47 44 -111 75l10 25q94 -22 163 -59l117 78l33 -50l-94 -63q165 -120 165 -360zM404 118q34 48 35 149
q-2 79 -34 121t-91 42q-65 0 -102 -48.5t-37 -130.5t36.5 -131.5t99.5 -49.5q59 0 93 48z" />
    <glyph glyph-name="dcaron" unicode="&#x10f;" horiz-adv-x="758" 
d="M35 0zM676 80v-80h-241v63q-31 -35 -73 -54t-93 -19q-69 0 -122 33t-82.5 92t-29.5 135t29.5 135t82.5 92t122 33q51 0 93 -19t73 -54v233h-111v80h241v-670h111zM399 119.5q36 49.5 36 130.5t-36 130.5t-94 49.5q-59 0 -96.5 -50t-37.5 -130t37.5 -130t96.5 -50
q58 0 94 49.5zM649 714q1 33 19 50.5t44 17.5q25 0 45 -16.5t20 -42.5q0 -19 -12 -40l-109 -203l-13 4z" />
    <glyph glyph-name="uni1E11" unicode="&#x1e11;" horiz-adv-x="701" 
d="M35 0zM676 80v-80h-241v63q-31 -35 -73 -54t-93 -19q-69 0 -122 33t-82.5 92t-29.5 135t29.5 135t82.5 92t122 33q51 0 93 -19t73 -54v233h-111v80h241v-670h111zM399 119.5q36 49.5 36 130.5t-36 130.5t-94 49.5q-59 0 -96.5 -50t-37.5 -130t37.5 -130t96.5 -50
q58 0 94 49.5zM424 -112q22 -27 22 -76q0 -58 -33 -100t-98 -64l-8 17q36 21 53 44.5t21 56.5q-14 -2 -21 -2q-32 0 -51.5 20.5t-19.5 54.5t20.5 55t53.5 21q39 0 61 -27z" />
    <glyph glyph-name="dcroat" unicode="&#x111;" horiz-adv-x="701" 
d="M676 80v-80h-241v63q-31 -35 -73 -54t-93 -19q-69 0 -122 33t-82.5 92t-29.5 135t29.5 135t82.5 92t122 33q51 0 93 -19t73 -54v118h-163v70h163v45h-111v80h241v-125h102v-70h-102v-475h111zM399 119.5q36 49.5 36 130.5t-36 130.5t-94 49.5q-59 0 -96.5 -50t-37.5 -130
t37.5 -130t96.5 -50q58 0 94 49.5z" />
    <glyph glyph-name="uni1E0D" unicode="&#x1e0d;" horiz-adv-x="701" 
d="M35 0zM676 80v-80h-241v63q-31 -35 -73 -54t-93 -19q-69 0 -122 33t-82.5 92t-29.5 135t29.5 135t82.5 92t122 33q51 0 93 -19t73 -54v233h-111v80h241v-670h111zM399 119.5q36 49.5 36 130.5t-36 130.5t-94 49.5q-59 0 -96.5 -50t-37.5 -130t37.5 -130t96.5 -50
q58 0 94 49.5zM288 -260q-25 25 -25 67q0 41 25 66t67 25q41 0 66 -25t25 -66q0 -42 -25 -67t-66 -25q-42 0 -67 25z" />
    <glyph glyph-name="uni0257" unicode="&#x257;" horiz-adv-x="701" 
d="M676 80v-80h-241v63q-31 -35 -73 -54t-93 -19q-69 0 -122 33t-82.5 92t-29.5 135t29.5 135t82.5 92t122 33q51 0 93 -19t73 -54v180q0 78 37.5 110.5t111.5 32.5q44 0 82 -13v-50q-20 6 -37 6q-32 0 -48 -26t-16 -88v-509h111zM399 119.5q36 49.5 36 130.5t-36 130.5
t-94 49.5q-59 0 -96.5 -50t-37.5 -130t37.5 -130t96.5 -50q58 0 94 49.5z" />
    <glyph glyph-name="uni1E0F" unicode="&#x1e0f;" horiz-adv-x="701" 
d="M35 0zM676 80v-80h-241v63q-31 -35 -73 -54t-93 -19q-69 0 -122 33t-82.5 92t-29.5 135t29.5 135t82.5 92t122 33q51 0 93 -19t73 -54v233h-111v80h241v-670h111zM399 119.5q36 49.5 36 130.5t-36 130.5t-94 49.5q-59 0 -96.5 -50t-37.5 -130t37.5 -130t96.5 -50
q58 0 94 49.5zM171 -142h375v-80h-375v80z" />
    <glyph glyph-name="uni01F3" unicode="&#x1f3;" horiz-adv-x="1243" 
d="M35 0zM676 80v-80h-241v63q-31 -35 -73 -54t-93 -19q-69 0 -122 33t-82.5 92t-29.5 135t29.5 135t82.5 92t122 33q51 0 93 -19t73 -54v233h-111v80h241v-670h111zM399 119.5q36 49.5 36 130.5t-36 130.5t-94 49.5q-59 0 -96.5 -50t-37.5 -130t37.5 -130t96.5 -50
q58 0 94 49.5zM1193 0h-442v74l286 336h-125q-38 0 -56.5 -10t-26 -32.5t-12.5 -69.5h-52v202h421v-79l-285 -331h144q38 0 56.5 10t26 32.5t12.5 69.5h52v-132z" />
    <glyph glyph-name="uni01C6" unicode="&#x1c6;" horiz-adv-x="1243" 
d="M35 0zM676 80v-80h-241v63q-31 -35 -73 -54t-93 -19q-69 0 -122 33t-82.5 92t-29.5 135t29.5 135t82.5 92t122 33q51 0 93 -19t73 -54v233h-111v80h241v-670h111zM399 119.5q36 49.5 36 130.5t-36 130.5t-94 49.5q-59 0 -96.5 -50t-37.5 -130t37.5 -130t96.5 -50
q58 0 94 49.5zM1193 0h-442v74l286 336h-125q-38 0 -56.5 -10t-26 -32.5t-12.5 -69.5h-52v202h421v-79l-285 -331h144q38 0 56.5 10t26 32.5t12.5 69.5h52v-132zM1167 787q-77 -79 -129 -176h-121q-52 97 -129 176l7 12q95 -35 182 -90q89 55 183 90z" />
    <glyph glyph-name="e" unicode="e" horiz-adv-x="565" 
d="M530 227h-356q5 -73 40.5 -115t91.5 -42q37 0 69 19t49 56l91 -29q-26 -59 -83.5 -92.5t-136.5 -33.5q-78 0 -137 32.5t-91 91.5t-32 138q0 77 31.5 135.5t89 90.5t133.5 32q107 0 172.5 -62t68.5 -170v-51zM214.5 394q-30.5 -36 -38.5 -97h222q-2 61 -31.5 97t-76.5 36
q-45 0 -75.5 -36z" />
    <glyph glyph-name="eacute" unicode="&#xe9;" horiz-adv-x="565" 
d="M35 0zM530 227h-356q5 -73 40.5 -115t91.5 -42q37 0 69 19t49 56l91 -29q-26 -59 -83.5 -92.5t-136.5 -33.5q-78 0 -137 32.5t-91 91.5t-32 138q0 77 31.5 135.5t89 90.5t133.5 32q107 0 172.5 -62t68.5 -170v-51zM214.5 394q-30.5 -36 -38.5 -97h222q-2 61 -31.5 97
t-76.5 36q-45 0 -75.5 -36zM350 777q24 32 55 32q29 0 50 -24q15 -18 15 -42q0 -38 -42 -58l-206 -104l-9 11z" />
    <glyph glyph-name="ebreve" unicode="&#x115;" horiz-adv-x="565" 
d="M35 0zM530 227h-356q5 -73 40.5 -115t91.5 -42q37 0 69 19t49 56l91 -29q-26 -59 -83.5 -92.5t-136.5 -33.5q-78 0 -137 32.5t-91 91.5t-32 138q0 77 31.5 135.5t89 90.5t133.5 32q107 0 172.5 -62t68.5 -170v-51zM214.5 394q-30.5 -36 -38.5 -97h222q-2 61 -31.5 97
t-76.5 36q-45 0 -75.5 -36zM129 772h50q0 -76 104 -76q103 0 103 76h50q0 -164 -153 -164q-154 0 -154 164z" />
    <glyph glyph-name="ecaron" unicode="&#x11b;" horiz-adv-x="565" 
d="M35 0zM530 227h-356q5 -73 40.5 -115t91.5 -42q37 0 69 19t49 56l91 -29q-26 -59 -83.5 -92.5t-136.5 -33.5q-78 0 -137 32.5t-91 91.5t-32 138q0 77 31.5 135.5t89 90.5t133.5 32q107 0 172.5 -62t68.5 -170v-51zM214.5 394q-30.5 -36 -38.5 -97h222q-2 61 -31.5 97
t-76.5 36q-45 0 -75.5 -36zM473 787q-77 -79 -129 -176h-121q-52 97 -129 176l7 12q95 -35 182 -90q89 55 183 90z" />
    <glyph glyph-name="ecircumflex" unicode="&#xea;" horiz-adv-x="565" 
d="M35 0zM530 227h-356q5 -73 40.5 -115t91.5 -42q37 0 69 19t49 56l91 -29q-26 -59 -83.5 -92.5t-136.5 -33.5q-78 0 -137 32.5t-91 91.5t-32 138q0 77 31.5 135.5t89 90.5t133.5 32q107 0 172.5 -62t68.5 -170v-51zM214.5 394q-30.5 -36 -38.5 -97h222q-2 61 -31.5 97
t-76.5 36q-45 0 -75.5 -36zM466 593q-94 35 -183 90q-87 -55 -182 -90l-7 12q77 79 129 176h121q52 -97 129 -176z" />
    <glyph glyph-name="uni1EBF" unicode="&#x1ebf;" horiz-adv-x="565" 
d="M35 0zM530 227h-356q5 -73 40.5 -115t91.5 -42q37 0 69 19t49 56l91 -29q-26 -59 -83.5 -92.5t-136.5 -33.5q-78 0 -137 32.5t-91 91.5t-32 138q0 77 31.5 135.5t89 90.5t133.5 32q107 0 172.5 -62t68.5 -170v-51zM214.5 394q-30.5 -36 -38.5 -97h222q-2 61 -31.5 97
t-76.5 36q-45 0 -75.5 -36zM466 593q-94 35 -183 90q-87 -55 -182 -90l-7 12q77 79 129 176h121q52 -97 129 -176zM521 931q24 32 55 32q29 0 50 -24q15 -18 15 -42q0 -38 -42 -58l-206 -104l-9 11z" />
    <glyph glyph-name="uni1EC7" unicode="&#x1ec7;" horiz-adv-x="565" 
d="M35 0zM530 227h-356q5 -73 40.5 -115t91.5 -42q37 0 69 19t49 56l91 -29q-26 -59 -83.5 -92.5t-136.5 -33.5q-78 0 -137 32.5t-91 91.5t-32 138q0 77 31.5 135.5t89 90.5t133.5 32q107 0 172.5 -62t68.5 -170v-51zM214.5 394q-30.5 -36 -38.5 -97h222q-2 61 -31.5 97
t-76.5 36q-45 0 -75.5 -36zM213 -260q-25 25 -25 67q0 41 25 66t67 25q41 0 66 -25t25 -66q0 -42 -25 -67t-66 -25q-42 0 -67 25zM466 593q-94 35 -183 90q-87 -55 -182 -90l-7 12q77 79 129 176h121q52 -97 129 -176z" />
    <glyph glyph-name="uni1EC1" unicode="&#x1ec1;" horiz-adv-x="565" 
d="M286 903q0 26 20 46q21 19 45 19q35 0 58 -38l117 -198l-11 -10l-193 125q-36 22 -36 56zM101 593l-7 12q77 79 129 176h121q52 -97 129 -176l-7 -12q-95 35 -182 90q-89 -55 -183 -90zM530 227h-356q5 -73 40.5 -115t91.5 -42q37 0 69 19t49 56l91 -29
q-26 -59 -83.5 -92.5t-136.5 -33.5q-78 0 -137 32.5t-91 91.5t-32 138q0 77 31.5 135.5t89 90.5t133.5 32q107 0 172.5 -62t68.5 -170v-51zM214.5 394q-30.5 -36 -38.5 -97h222q-2 61 -31.5 97t-76.5 36q-45 0 -75.5 -36z" />
    <glyph glyph-name="uni1EC3" unicode="&#x1ec3;" horiz-adv-x="565" 
d="M35 0zM530 227h-356q5 -73 40.5 -115t91.5 -42q37 0 69 19t49 56l91 -29q-26 -59 -83.5 -92.5t-136.5 -33.5q-78 0 -137 32.5t-91 91.5t-32 138q0 77 31.5 135.5t89 90.5t133.5 32q107 0 172.5 -62t68.5 -170v-51zM214.5 394q-30.5 -36 -38.5 -97h222q-2 61 -31.5 97
t-76.5 36q-45 0 -75.5 -36zM466 593q-94 35 -183 90q-87 -55 -182 -90l-7 12q77 79 129 176h121q52 -97 129 -176zM424 754q0 15 6 25.5t18 22.5q11 11 16 19t5 19q0 14 -9 22t-23 8q-15 0 -23.5 -7.5t-8.5 -20.5q0 -19 13 -35l-20 -20q-26 15 -37.5 31t-11.5 36
q0 34 28.5 54t76.5 20q51 0 82 -23t31 -64q0 -27 -13 -39t-38 -22q-26 -11 -40 -24t-17 -42h-28q-7 22 -7 40z" />
    <glyph glyph-name="uni1EC5" unicode="&#x1ec5;" horiz-adv-x="565" 
d="M35 0zM530 227h-356q5 -73 40.5 -115t91.5 -42q37 0 69 19t49 56l91 -29q-26 -59 -83.5 -92.5t-136.5 -33.5q-78 0 -137 32.5t-91 91.5t-32 138q0 77 31.5 135.5t89 90.5t133.5 32q107 0 172.5 -62t68.5 -170v-51zM214.5 394q-30.5 -36 -38.5 -97h222q-2 61 -31.5 97
t-76.5 36q-45 0 -75.5 -36zM466 593q-94 35 -183 90q-87 -55 -182 -90l-7 12q77 79 129 176h121q52 -97 129 -176zM105 807q15 51 30.5 78t35.5 37.5t51 10.5q27 0 46 -5.5t41 -15.5q17 -8 28.5 -11.5t24.5 -3.5q25 0 44 15t29 42l26 -10q-15 -51 -30.5 -78t-36 -37.5
t-53.5 -10.5q-27 0 -44 5.5t-36 15.5q-14 8 -25 11.5t-26 3.5q-29 0 -49.5 -15t-29.5 -42z" />
    <glyph glyph-name="uni0205" unicode="&#x205;" horiz-adv-x="565" 
d="M200 552l-173 154q-27 24 -27 52q0 15 7.5 29t19.5 22q20 13 40 13q19 0 35 -12t25 -36l84 -214zM189 758q0 15 7.5 29t19.5 22q20 13 40 13q19 0 35 -12t25 -36l84 -214l-11 -8l-173 154q-27 24 -27 52zM530 227h-356q5 -73 40.5 -115t91.5 -42q37 0 69 19t49 56l91 -29
q-26 -59 -83.5 -92.5t-136.5 -33.5q-78 0 -137 32.5t-91 91.5t-32 138q0 77 31.5 135.5t89 90.5t133.5 32q107 0 172.5 -62t68.5 -170v-51zM214.5 394q-30.5 -36 -38.5 -97h222q-2 61 -31.5 97t-76.5 36q-45 0 -75.5 -36z" />
    <glyph glyph-name="edieresis" unicode="&#xeb;" horiz-adv-x="565" 
d="M35 0zM530 227h-356q5 -73 40.5 -115t91.5 -42q37 0 69 19t49 56l91 -29q-26 -59 -83.5 -92.5t-136.5 -33.5q-78 0 -137 32.5t-91 91.5t-32 138q0 77 31.5 135.5t89 90.5t133.5 32q107 0 172.5 -62t68.5 -170v-51zM214.5 394q-30.5 -36 -38.5 -97h222q-2 61 -31.5 97
t-76.5 36q-45 0 -75.5 -36zM338 605q-25 25 -25 67q0 41 25 66t67 25q41 0 66 -25t25 -66q0 -42 -25 -67t-66 -25q-42 0 -67 25zM96 605q-25 25 -25 67q0 41 25 66t67 25q41 0 66 -25t25 -66q0 -42 -25 -67t-66 -25q-42 0 -67 25z" />
    <glyph glyph-name="edotaccent" unicode="&#x117;" horiz-adv-x="565" 
d="M35 0zM530 227h-356q5 -73 40.5 -115t91.5 -42q37 0 69 19t49 56l91 -29q-26 -59 -83.5 -92.5t-136.5 -33.5q-78 0 -137 32.5t-91 91.5t-32 138q0 77 31.5 135.5t89 90.5t133.5 32q107 0 172.5 -62t68.5 -170v-51zM214.5 394q-30.5 -36 -38.5 -97h222q-2 61 -31.5 97
t-76.5 36q-45 0 -75.5 -36zM227 605q-25 25 -25 67q0 41 25 66t67 25q41 0 66 -25t25 -66q0 -42 -25 -67t-66 -25q-42 0 -67 25z" />
    <glyph glyph-name="uni1EB9" unicode="&#x1eb9;" horiz-adv-x="565" 
d="M35 0zM530 227h-356q5 -73 40.5 -115t91.5 -42q37 0 69 19t49 56l91 -29q-26 -59 -83.5 -92.5t-136.5 -33.5q-78 0 -137 32.5t-91 91.5t-32 138q0 77 31.5 135.5t89 90.5t133.5 32q107 0 172.5 -62t68.5 -170v-51zM214.5 394q-30.5 -36 -38.5 -97h222q-2 61 -31.5 97
t-76.5 36q-45 0 -75.5 -36zM213 -260q-25 25 -25 67q0 41 25 66t67 25q41 0 66 -25t25 -66q0 -42 -25 -67t-66 -25q-42 0 -67 25z" />
    <glyph glyph-name="egrave" unicode="&#xe8;" horiz-adv-x="565" 
d="M35 0zM530 227h-356q5 -73 40.5 -115t91.5 -42q37 0 69 19t49 56l91 -29q-26 -59 -83.5 -92.5t-136.5 -33.5q-78 0 -137 32.5t-91 91.5t-32 138q0 77 31.5 135.5t89 90.5t133.5 32q107 0 172.5 -62t68.5 -170v-51zM214.5 394q-30.5 -36 -38.5 -97h222q-2 61 -31.5 97
t-76.5 36q-45 0 -75.5 -36zM344 581l-206 104q-42 20 -42 58q0 24 15 42q21 24 50 24q31 0 55 -32l137 -185z" />
    <glyph glyph-name="uni1EBB" unicode="&#x1ebb;" horiz-adv-x="565" 
d="M35 0zM530 227h-356q5 -73 40.5 -115t91.5 -42q37 0 69 19t49 56l91 -29q-26 -59 -83.5 -92.5t-136.5 -33.5q-78 0 -137 32.5t-91 91.5t-32 138q0 77 31.5 135.5t89 90.5t133.5 32q107 0 172.5 -62t68.5 -170v-51zM214.5 394q-30.5 -36 -38.5 -97h222q-2 61 -31.5 97
t-76.5 36q-45 0 -75.5 -36zM261 640q0 20 8.5 33t25.5 29q16 17 23.5 28.5t7.5 28.5q0 21 -12 34t-32 13q-22 0 -36 -15.5t-14 -38.5q0 -20 13 -39l-20 -20q-26 17 -37.5 35.5t-11.5 42.5q0 42 33.5 67.5t88.5 25.5q57 0 91.5 -28t34.5 -77q0 -33 -15 -48.5t-45 -29.5
q-31 -13 -48 -29.5t-20 -51.5h-28q-7 21 -7 40z" />
    <glyph glyph-name="uni0207" unicode="&#x207;" horiz-adv-x="565" 
d="M35 0zM530 227h-356q5 -73 40.5 -115t91.5 -42q37 0 69 19t49 56l91 -29q-26 -59 -83.5 -92.5t-136.5 -33.5q-78 0 -137 32.5t-91 91.5t-32 138q0 77 31.5 135.5t89 90.5t133.5 32q107 0 172.5 -62t68.5 -170v-51zM214.5 394q-30.5 -36 -38.5 -97h222q-2 61 -31.5 97
t-76.5 36q-45 0 -75.5 -36zM437 598h-50q0 76 -103 76q-104 0 -104 -76h-50q0 164 154 164q153 0 153 -164z" />
    <glyph glyph-name="emacron" unicode="&#x113;" horiz-adv-x="565" 
d="M35 0zM530 227h-356q5 -73 40.5 -115t91.5 -42q37 0 69 19t49 56l91 -29q-26 -59 -83.5 -92.5t-136.5 -33.5q-78 0 -137 32.5t-91 91.5t-32 138q0 77 31.5 135.5t89 90.5t133.5 32q107 0 172.5 -62t68.5 -170v-51zM214.5 394q-30.5 -36 -38.5 -97h222q-2 61 -31.5 97
t-76.5 36q-45 0 -75.5 -36zM95 708h375v-80h-375v80z" />
    <glyph glyph-name="eogonek" unicode="&#x119;" horiz-adv-x="565" 
d="M530 227h-356q5 -73 40.5 -115t91.5 -42q37 0 69 19t49 56l91 -29q-31 -69 -101 -102q-33 -18 -53 -41.5t-20 -58.5q0 -33 19.5 -53t57.5 -20q26 0 48 12l-4 -48q-28 -18 -71 -18q-63 0 -105.5 33t-42.5 86q0 50 40 84q-74 2 -130.5 35t-87 91.5t-30.5 135.5t31.5 135.5
t89 90.5t133.5 32q107 0 172.5 -62t68.5 -170v-51zM214.5 394q-30.5 -36 -38.5 -97h222q-2 61 -31.5 97t-76.5 36q-45 0 -75.5 -36z" />
    <glyph glyph-name="uni1EBD" unicode="&#x1ebd;" horiz-adv-x="565" 
d="M35 0zM530 227h-356q5 -73 40.5 -115t91.5 -42q37 0 69 19t49 56l91 -29q-26 -59 -83.5 -92.5t-136.5 -33.5q-78 0 -137 32.5t-91 91.5t-32 138q0 77 31.5 135.5t89 90.5t133.5 32q107 0 172.5 -62t68.5 -170v-51zM214.5 394q-30.5 -36 -38.5 -97h222q-2 61 -31.5 97
t-76.5 36q-45 0 -75.5 -36zM105 610q15 51 30.5 78t35.5 37.5t51 10.5q27 0 46 -5.5t41 -15.5q17 -8 28.5 -11.5t24.5 -3.5q25 0 44 15t29 42l26 -10q-15 -51 -30.5 -78t-36 -37.5t-53.5 -10.5q-27 0 -44 5.5t-36 15.5q-14 8 -25 11.5t-26 3.5q-29 0 -49.5 -15t-29.5 -42z
" />
    <glyph glyph-name="uni01DD" unicode="&#x1dd;" horiz-adv-x="565" 
d="M407 477.5q59 -32.5 91 -91.5t32 -138q0 -77 -31.5 -135.5t-89 -90.5t-133.5 -32q-107 0 -172.5 62t-68.5 170v51h356q-5 73 -40.5 115t-91.5 42q-37 0 -69 -19t-49 -56l-91 29q26 59 83.5 92.5t136.5 33.5q78 0 137 -32.5zM350.5 106q30.5 36 38.5 97h-222
q2 -61 31.5 -97t76.5 -36q45 0 75.5 36z" />
    <glyph glyph-name="f" unicode="f" horiz-adv-x="496" 
d="M453 738.5q40 -21.5 59 -54t19 -68.5q0 -38 -19 -60t-52 -22q-31 0 -50.5 18t-19.5 48q0 36 28 53q-16 21 -48 21q-41 0 -65 -28t-24 -74v-72h148v-80h-148v-340h110v-80h-351v80h111v340h-111v80h111v82q0 81 54.5 129.5t146.5 48.5q61 0 101 -21.5z" />
    <glyph glyph-name="g" unicode="g" horiz-adv-x="705" 
d="M680 420h-111v-445q0 -116 -70 -175.5t-195 -59.5q-75 0 -130 20.5t-84.5 57.5t-29.5 84q0 40 20.5 62t53.5 22q32 0 53 -19.5t21 -50.5q0 -35 -25 -54q17 -20 45 -30.5t63 -10.5q71 0 109.5 43t38.5 121v80q-31 -36 -73.5 -55.5t-94.5 -19.5q-69 0 -122.5 32.5
t-83.5 91.5t-30 136t30 136t83.5 91.5t122.5 32.5q52 0 94.5 -19.5t73.5 -55.5v65h241v-80zM404 120.5q35 50.5 35 129.5q0 81 -35 130.5t-95 49.5q-59 0 -96.5 -49t-37.5 -131t37.5 -131t96.5 -49q60 0 95 50.5z" />
    <glyph glyph-name="uni01F5" unicode="&#x1f5;" horiz-adv-x="705" 
d="M35 0zM680 420h-111v-445q0 -116 -70 -175.5t-195 -59.5q-75 0 -130 20.5t-84.5 57.5t-29.5 84q0 40 20.5 62t53.5 22q32 0 53 -19.5t21 -50.5q0 -35 -25 -54q17 -20 45 -30.5t63 -10.5q71 0 109.5 43t38.5 121v80q-31 -36 -73.5 -55.5t-94.5 -19.5q-69 0 -122.5 32.5
t-83.5 91.5t-30 136t30 136t83.5 91.5t122.5 32.5q52 0 94.5 -19.5t73.5 -55.5v65h241v-80zM404 120.5q35 50.5 35 129.5q0 81 -35 130.5t-95 49.5q-59 0 -96.5 -49t-37.5 -131t37.5 -131t96.5 -49q60 0 95 50.5zM386 777q24 32 55 32q29 0 50 -24q15 -18 15 -42
q0 -38 -42 -58l-206 -104l-9 11z" />
    <glyph glyph-name="gbreve" unicode="&#x11f;" horiz-adv-x="705" 
d="M35 0zM680 420h-111v-445q0 -116 -70 -175.5t-195 -59.5q-75 0 -130 20.5t-84.5 57.5t-29.5 84q0 40 20.5 62t53.5 22q32 0 53 -19.5t21 -50.5q0 -35 -25 -54q17 -20 45 -30.5t63 -10.5q71 0 109.5 43t38.5 121v80q-31 -36 -73.5 -55.5t-94.5 -19.5q-69 0 -122.5 32.5
t-83.5 91.5t-30 136t30 136t83.5 91.5t122.5 32.5q52 0 94.5 -19.5t73.5 -55.5v65h241v-80zM404 120.5q35 50.5 35 129.5q0 81 -35 130.5t-95 49.5q-59 0 -96.5 -49t-37.5 -131t37.5 -131t96.5 -49q60 0 95 50.5zM165 772h50q0 -76 104 -76q103 0 103 76h50
q0 -164 -153 -164q-154 0 -154 164z" />
    <glyph glyph-name="gcaron" unicode="&#x1e7;" horiz-adv-x="705" 
d="M35 0zM680 420h-111v-445q0 -116 -70 -175.5t-195 -59.5q-75 0 -130 20.5t-84.5 57.5t-29.5 84q0 40 20.5 62t53.5 22q32 0 53 -19.5t21 -50.5q0 -35 -25 -54q17 -20 45 -30.5t63 -10.5q71 0 109.5 43t38.5 121v80q-31 -36 -73.5 -55.5t-94.5 -19.5q-69 0 -122.5 32.5
t-83.5 91.5t-30 136t30 136t83.5 91.5t122.5 32.5q52 0 94.5 -19.5t73.5 -55.5v65h241v-80zM404 120.5q35 50.5 35 129.5q0 81 -35 130.5t-95 49.5q-59 0 -96.5 -49t-37.5 -131t37.5 -131t96.5 -49q60 0 95 50.5zM509 787q-77 -79 -129 -176h-121q-52 97 -129 176l7 12
q95 -35 182 -90q89 55 183 90z" />
    <glyph glyph-name="gcircumflex" unicode="&#x11d;" horiz-adv-x="705" 
d="M35 0zM680 420h-111v-445q0 -116 -70 -175.5t-195 -59.5q-75 0 -130 20.5t-84.5 57.5t-29.5 84q0 40 20.5 62t53.5 22q32 0 53 -19.5t21 -50.5q0 -35 -25 -54q17 -20 45 -30.5t63 -10.5q71 0 109.5 43t38.5 121v80q-31 -36 -73.5 -55.5t-94.5 -19.5q-69 0 -122.5 32.5
t-83.5 91.5t-30 136t30 136t83.5 91.5t122.5 32.5q52 0 94.5 -19.5t73.5 -55.5v65h241v-80zM404 120.5q35 50.5 35 129.5q0 81 -35 130.5t-95 49.5q-59 0 -96.5 -49t-37.5 -131t37.5 -131t96.5 -49q60 0 95 50.5zM502 593q-94 35 -183 90q-87 -55 -182 -90l-7 12
q77 79 129 176h121q52 -97 129 -176z" />
    <glyph glyph-name="gcommaaccent" unicode="&#x123;" horiz-adv-x="705" 
d="M35 0zM680 420h-111v-445q0 -116 -70 -175.5t-195 -59.5q-75 0 -130 20.5t-84.5 57.5t-29.5 84q0 40 20.5 62t53.5 22q32 0 53 -19.5t21 -50.5q0 -35 -25 -54q17 -20 45 -30.5t63 -10.5q71 0 109.5 43t38.5 121v80q-31 -36 -73.5 -55.5t-94.5 -19.5q-69 0 -122.5 32.5
t-83.5 91.5t-30 136t30 136t83.5 91.5t122.5 32.5q52 0 94.5 -19.5t73.5 -55.5v65h241v-80zM404 120.5q35 50.5 35 129.5q0 81 -35 130.5t-95 49.5q-59 0 -96.5 -49t-37.5 -131t37.5 -131t96.5 -49q60 0 95 50.5zM377.5 717q19.5 -21 19.5 -55t-20.5 -54.5t-53.5 -20.5
q-39 0 -61 27t-22 75q0 58 33.5 100t98.5 64l7 -16q-35 -21 -52 -44.5t-21 -56.5q14 2 20 2q32 0 51.5 -21z" />
    <glyph glyph-name="gdotaccent" unicode="&#x121;" horiz-adv-x="705" 
d="M35 0zM680 420h-111v-445q0 -116 -70 -175.5t-195 -59.5q-75 0 -130 20.5t-84.5 57.5t-29.5 84q0 40 20.5 62t53.5 22q32 0 53 -19.5t21 -50.5q0 -35 -25 -54q17 -20 45 -30.5t63 -10.5q71 0 109.5 43t38.5 121v80q-31 -36 -73.5 -55.5t-94.5 -19.5q-69 0 -122.5 32.5
t-83.5 91.5t-30 136t30 136t83.5 91.5t122.5 32.5q52 0 94.5 -19.5t73.5 -55.5v65h241v-80zM404 120.5q35 50.5 35 129.5q0 81 -35 130.5t-95 49.5q-59 0 -96.5 -49t-37.5 -131t37.5 -131t96.5 -49q60 0 95 50.5zM263 605q-25 25 -25 67q0 41 25 66t67 25q41 0 66 -25
t25 -66q0 -42 -25 -67t-66 -25q-42 0 -67 25z" />
    <glyph glyph-name="uni1E21" unicode="&#x1e21;" horiz-adv-x="705" 
d="M35 0zM680 420h-111v-445q0 -116 -70 -175.5t-195 -59.5q-75 0 -130 20.5t-84.5 57.5t-29.5 84q0 40 20.5 62t53.5 22q32 0 53 -19.5t21 -50.5q0 -35 -25 -54q17 -20 45 -30.5t63 -10.5q71 0 109.5 43t38.5 121v80q-31 -36 -73.5 -55.5t-94.5 -19.5q-69 0 -122.5 32.5
t-83.5 91.5t-30 136t30 136t83.5 91.5t122.5 32.5q52 0 94.5 -19.5t73.5 -55.5v65h241v-80zM404 120.5q35 50.5 35 129.5q0 81 -35 130.5t-95 49.5q-59 0 -96.5 -49t-37.5 -131t37.5 -131t96.5 -49q60 0 95 50.5zM131 708h375v-80h-375v80z" />
    <glyph glyph-name="h" unicode="h" horiz-adv-x="743" 
d="M718 80v-80h-241v250q0 93 -21 136.5t-66 43.5q-50 0 -79.5 -50t-29.5 -140v-160h110v-80h-351v80h111v590h-111v80h241v-322q26 40 66.5 61t92.5 21q86 0 126.5 -63t40.5 -197v-170h111z" />
    <glyph glyph-name="hbar" unicode="&#x127;" horiz-adv-x="743" 
d="M718 80v-80h-241v250q0 93 -21 136.5t-66 43.5q-50 0 -79.5 -50t-29.5 -140v-160h110v-80h-351v80h111v475h-104v70h104v45h-111v80h241v-125h177v-70h-177v-127q26 40 66.5 61t92.5 21q86 0 126.5 -63t40.5 -197v-170h111z" />
    <glyph glyph-name="uni1E2B" unicode="&#x1e2b;" horiz-adv-x="743" 
d="M40 0zM718 80v-80h-241v250q0 93 -21 136.5t-66 43.5q-50 0 -79.5 -50t-29.5 -140v-160h110v-80h-351v80h111v590h-111v80h241v-322q26 40 66.5 61t92.5 21q86 0 126.5 -63t40.5 -197v-170h111zM226 -88h50q0 -76 104 -76q103 0 103 76h50q0 -164 -153 -164
q-154 0 -154 164z" />
    <glyph glyph-name="uni1E29" unicode="&#x1e29;" horiz-adv-x="743" 
d="M40 0zM718 80v-80h-241v250q0 93 -21 136.5t-66 43.5q-50 0 -79.5 -50t-29.5 -140v-160h110v-80h-351v80h111v590h-111v80h241v-322q26 40 66.5 61t92.5 21q86 0 126.5 -63t40.5 -197v-170h111zM298 -67.5q29 -29.5 29 -71.5q0 -44 -31.5 -73t-77.5 -29q-26 0 -51 10
t-39 26l18 26q9 -8 21.5 -12.5t24.5 -4.5q23 0 37 15.5t14 40.5q0 26 -14.5 44t-35.5 18q-22 0 -39 -17l-3 2l-13 12l75 93h50l-55 -53q12 3 22 3q39 0 68 -29.5z" />
    <glyph glyph-name="hcircumflex" unicode="&#x125;" horiz-adv-x="743" 
d="M17 0zM718 80v-80h-241v250q0 93 -21 136.5t-66 43.5q-50 0 -79.5 -50t-29.5 -140v-160h110v-80h-351v80h111v590h-111v80h241v-322q26 40 66.5 61t92.5 21q86 0 126.5 -63t40.5 -197v-170h111zM389 802q-110 22 -183 61q-72 -39 -182 -61l-7 12q45 36 76 69.5t53 71.5
h121q22 -38 53 -71.5t76 -69.5z" />
    <glyph glyph-name="uni1E25" unicode="&#x1e25;" horiz-adv-x="743" 
d="M40 0zM718 80v-80h-241v250q0 93 -21 136.5t-66 43.5q-50 0 -79.5 -50t-29.5 -140v-160h110v-80h-351v80h111v590h-111v80h241v-322q26 40 66.5 61t92.5 21q86 0 126.5 -63t40.5 -197v-170h111zM309 -260q-25 25 -25 67q0 41 25 66t67 25q41 0 66 -25t25 -66
q0 -42 -25 -67t-66 -25q-42 0 -67 25z" />
    <glyph glyph-name="uni1E96" unicode="&#x1e96;" horiz-adv-x="743" 
d="M40 0zM718 80v-80h-241v250q0 93 -21 136.5t-66 43.5q-50 0 -79.5 -50t-29.5 -140v-160h110v-80h-351v80h111v590h-111v80h241v-322q26 40 66.5 61t92.5 21q86 0 126.5 -63t40.5 -197v-170h111zM192 -142h375v-80h-375v80z" />
    <glyph glyph-name="i" unicode="i" horiz-adv-x="416" 
d="M40 0zM391 80v-80h-351v80h111v340h-111v80h241v-420h110zM142 605q-25 25 -25 67q0 41 25 66t67 25q41 0 66 -25t25 -66q0 -42 -25 -67t-66 -25q-42 0 -67 25z" />
    <glyph glyph-name="dotlessi" unicode="&#x131;" horiz-adv-x="416" 
d="M391 80v-80h-351v80h111v340h-111v80h241v-420h110z" />
    <glyph glyph-name="iacute" unicode="&#xed;" horiz-adv-x="416" 
d="M40 0zM391 80v-80h-351v80h111v340h-111v80h241v-420h110zM265 777q24 32 55 32q29 0 50 -24q15 -18 15 -42q0 -38 -42 -58l-206 -104l-9 11z" />
    <glyph glyph-name="ibreve" unicode="&#x12d;" horiz-adv-x="416" 
d="M40 0zM391 80v-80h-351v80h111v340h-111v80h241v-420h110zM44 772h50q0 -76 104 -76q103 0 103 76h50q0 -164 -153 -164q-154 0 -154 164z" />
    <glyph glyph-name="uni01D0" unicode="&#x1d0;" horiz-adv-x="416" 
d="M9 0zM391 80v-80h-351v80h111v340h-111v80h241v-420h110zM388 787q-77 -79 -129 -176h-121q-52 97 -129 176l7 12q95 -35 182 -90q89 55 183 90z" />
    <glyph glyph-name="icircumflex" unicode="&#xee;" horiz-adv-x="416" 
d="M9 0zM391 80v-80h-351v80h111v340h-111v80h241v-420h110zM381 593q-94 35 -183 90q-87 -55 -182 -90l-7 12q77 79 129 176h121q52 -97 129 -176z" />
    <glyph glyph-name="uni0209" unicode="&#x209;" horiz-adv-x="416" 
d="M115 552l-173 154q-27 24 -27 52q0 15 7.5 29t19.5 22q20 13 40 13q19 0 35 -12t25 -36l84 -214zM104 758q0 15 7.5 29t19.5 22q20 13 40 13q19 0 35 -12t25 -36l84 -214l-11 -8l-173 154q-27 24 -27 52zM391 80v-80h-351v80h111v340h-111v80h241v-420h110z" />
    <glyph glyph-name="idieresis" unicode="&#xef;" horiz-adv-x="416" 
d="M0 0zM391 80v-80h-351v80h111v340h-111v80h241v-420h110zM253 605q-25 25 -25 67q0 41 25 66t67 25q41 0 66 -25t25 -66q0 -42 -25 -67t-66 -25q-42 0 -67 25zM11 605q-25 25 -25 67q0 41 25 66t67 25q41 0 66 -25t25 -66q0 -42 -25 -67t-66 -25q-42 0 -67 25z" />
    <glyph glyph-name="uni1E2F" unicode="&#x1e2f;" horiz-adv-x="416" 
d="M0 0zM391 80v-80h-351v80h111v340h-111v80h241v-420h110zM253 605q-25 25 -25 67q0 41 25 66t67 25q41 0 66 -25t25 -66q0 -42 -25 -67t-66 -25q-42 0 -67 25zM11 605q-25 25 -25 67q0 41 25 66t67 25q41 0 66 -25t25 -66q0 -42 -25 -67t-66 -25q-42 0 -67 25zM265 990
q24 32 55 32q29 0 50 -24q15 -18 15 -42q0 -38 -42 -58l-206 -104l-9 11z" />
    <glyph glyph-name="i.loclTRK" horiz-adv-x="416" 
d="M40 0zM391 80v-80h-351v80h111v340h-111v80h241v-420h110zM142 605q-25 25 -25 67q0 41 25 66t67 25q41 0 66 -25t25 -66q0 -42 -25 -67t-66 -25q-42 0 -67 25z" />
    <glyph glyph-name="uni1ECB" unicode="&#x1ecb;" horiz-adv-x="416" 
d="M40 0zM391 80v-80h-351v80h111v340h-111v80h241v-420h110zM142 605q-25 25 -25 67q0 41 25 66t67 25q41 0 66 -25t25 -66q0 -42 -25 -67t-66 -25q-42 0 -67 25zM142 -260q-25 25 -25 67q0 41 25 66t67 25q41 0 66 -25t25 -66q0 -42 -25 -67t-66 -25q-42 0 -67 25z" />
    <glyph glyph-name="igrave" unicode="&#xec;" horiz-adv-x="416" 
d="M11 0zM391 80v-80h-351v80h111v340h-111v80h241v-420h110zM259 581l-206 104q-42 20 -42 58q0 24 15 42q21 24 50 24q31 0 55 -32l137 -185z" />
    <glyph glyph-name="uni1EC9" unicode="&#x1ec9;" horiz-adv-x="416" 
d="M40 0zM391 80v-80h-351v80h111v340h-111v80h241v-420h110zM176 640q0 20 8.5 33t25.5 29q16 17 23.5 28.5t7.5 28.5q0 21 -12 34t-32 13q-22 0 -36 -15.5t-14 -38.5q0 -20 13 -39l-20 -20q-26 17 -37.5 35.5t-11.5 42.5q0 42 33.5 67.5t88.5 25.5q57 0 91.5 -28t34.5 -77
q0 -33 -15 -48.5t-45 -29.5q-31 -13 -48 -29.5t-20 -51.5h-28q-7 21 -7 40z" />
    <glyph glyph-name="uni020B" unicode="&#x20b;" horiz-adv-x="416" 
d="M40 0zM391 80v-80h-351v80h111v340h-111v80h241v-420h110zM352 598h-50q0 76 -103 76q-104 0 -104 -76h-50q0 164 154 164q153 0 153 -164z" />
    <glyph glyph-name="ij" unicode="&#x133;" horiz-adv-x="753" 
d="M40 0zM391 80v-80h-351v80h111v340h-111v80h241v-420h110zM142 605q-25 25 -25 67q0 41 25 66t67 25q41 0 66 -25t25 -66q0 -42 -25 -67t-66 -25q-42 0 -67 25zM678 -54q0 -105 -50.5 -155.5t-152.5 -50.5q-71 0 -112.5 21.5t-58 52.5t-16.5 63q0 39 22.5 62t59.5 23
q34 0 54.5 -19t20.5 -48q0 -34 -27 -59q14 -10 42 -10q45 0 66.5 32t21.5 98v464h-111v80h241v-554zM539 605q-25 25 -25 67q0 41 25 66t67 25q41 0 66 -25t25 -66q0 -42 -25 -67t-66 -25q-42 0 -67 25z" />
    <glyph glyph-name="imacron" unicode="&#x12b;" horiz-adv-x="416" 
d="M10 0zM391 80v-80h-351v80h111v340h-111v80h241v-420h110zM10 708h375v-80h-375v80z" />
    <glyph glyph-name="iogonek" unicode="&#x12f;" horiz-adv-x="416" 
d="M142 605q-25 25 -25 67q0 41 25 66t67 25q41 0 66 -25t25 -66q0 -42 -25 -67t-66 -25q-42 0 -67 25zM403 -167l-4 -48q-28 -18 -71 -18q-63 0 -105.5 33t-42.5 86q0 73 86 114h-226v80h111v340h-111v80h241v-420h110v-80h-29q-38 -19 -61 -43.5t-23 -62.5q0 -33 19.5 -53
t57.5 -20q26 0 48 12z" />
    <glyph glyph-name="itilde" unicode="&#x129;" horiz-adv-x="416" 
d="M20 0zM391 80v-80h-351v80h111v340h-111v80h241v-420h110zM20 610q15 51 30.5 78t35.5 37.5t51 10.5q27 0 46 -5.5t41 -15.5q17 -8 28.5 -11.5t24.5 -3.5q25 0 44 15t29 42l26 -10q-15 -51 -30.5 -78t-36 -37.5t-53.5 -10.5q-27 0 -44 5.5t-36 15.5q-14 8 -25 11.5
t-26 3.5q-29 0 -49.5 -15t-29.5 -42z" />
    <glyph glyph-name="j" unicode="j" horiz-adv-x="337" 
d="M0 0zM262 -54q0 -105 -50.5 -155.5t-152.5 -50.5q-71 0 -112.5 21.5t-58 52.5t-16.5 63q0 39 22.5 62t59.5 23q34 0 54.5 -19t20.5 -48q0 -34 -27 -59q14 -10 42 -10q45 0 66.5 32t21.5 98v464h-111v80h241v-554zM123 605q-25 25 -25 67q0 41 25 66t67 25q41 0 66 -25
t25 -66q0 -42 -25 -67t-66 -25q-42 0 -67 25z" />
    <glyph glyph-name="uni0237" unicode="&#x237;" horiz-adv-x="337" 
d="M262 -54q0 -105 -50.5 -155.5t-152.5 -50.5q-71 0 -112.5 21.5t-58 52.5t-16.5 63q0 39 22.5 62t59.5 23q34 0 54.5 -19t20.5 -48q0 -34 -27 -59q14 -10 42 -10q45 0 66.5 32t21.5 98v464h-111v80h241v-554z" />
    <glyph glyph-name="jacute" horiz-adv-x="337" 
d="M0 0zM262 -54q0 -105 -50.5 -155.5t-152.5 -50.5q-71 0 -112.5 21.5t-58 52.5t-16.5 63q0 39 22.5 62t59.5 23q34 0 54.5 -19t20.5 -48q0 -34 -27 -59q14 -10 42 -10q45 0 66.5 32t21.5 98v464h-111v80h241v-554zM246 777q24 32 55 32q29 0 50 -24q15 -18 15 -42
q0 -38 -42 -58l-206 -104l-9 11z" />
    <glyph glyph-name="jcircumflex" unicode="&#x135;" horiz-adv-x="337" 
d="M0 0zM262 -54q0 -105 -50.5 -155.5t-152.5 -50.5q-71 0 -112.5 21.5t-58 52.5t-16.5 63q0 39 22.5 62t59.5 23q34 0 54.5 -19t20.5 -48q0 -34 -27 -59q14 -10 42 -10q45 0 66.5 32t21.5 98v464h-111v80h241v-554zM362 593q-94 35 -183 90q-87 -55 -182 -90l-7 12
q77 79 129 176h121q52 -97 129 -176z" />
    <glyph glyph-name="k" unicode="k" horiz-adv-x="684" 
d="M659 80v-80h-166l-157 210l-55 -55v-75h79v-80h-319v80h110v590h-111v80h241v-483l159 153h-67v80h256v-80h-81l-129 -128l163 -212h77z" />
    <glyph glyph-name="kcommaaccent" unicode="&#x137;" horiz-adv-x="684" 
d="M40 0zM659 80v-80h-166l-157 210l-55 -55v-75h79v-80h-319v80h110v590h-111v80h241v-483l159 153h-67v80h256v-80h-81l-129 -128l163 -212h77zM398 -112q22 -27 22 -76q0 -58 -33 -100t-98 -64l-8 17q36 21 53 44.5t21 56.5q-14 -2 -21 -2q-32 0 -51.5 20.5t-19.5 54.5
t20.5 55t53.5 21q39 0 61 -27z" />
    <glyph glyph-name="kgreenlandic" unicode="&#x138;" horiz-adv-x="684" 
d="M659 80v-80h-166l-157 210l-55 -55v-75h78v-80h-319v80h111v340h-111v80h241v-233l159 153h-67v80h256v-80h-81l-129 -128l163 -212h77z" />
    <glyph glyph-name="uni0199" unicode="&#x199;" horiz-adv-x="683" 
d="M658 80v-80h-166l-157 210l-55 -55v-75h79v-80h-319v80h112l-2 537q0 78 37.5 110.5t111.5 32.5q44 0 82 -13v-50q-19 6 -37 6q-32 0 -48 -26t-16 -88v-322l159 153h-67v80h256v-80h-81l-129 -128l163 -212h77z" />
    <glyph glyph-name="uni1E35" unicode="&#x1e35;" horiz-adv-x="684" 
d="M40 0zM659 80v-80h-166l-157 210l-55 -55v-75h79v-80h-319v80h110v590h-111v80h241v-483l159 153h-67v80h256v-80h-81l-129 -128l163 -212h77zM145 -142h375v-80h-375v80z" />
    <glyph glyph-name="l" unicode="l" horiz-adv-x="416" 
d="M391 80v-80h-351v80h111v590h-111v80h241v-670h110z" />
    <glyph glyph-name="lacute" unicode="&#x13a;" horiz-adv-x="416" 
d="M40 0zM391 80v-80h-351v80h111v590h-111v80h241v-670h110zM294 962q22 18 47 18q18 0 33 -10.5t23 -27.5q6 -13 6 -28q0 -22 -14 -39t-44 -23l-225 -46l-6 12z" />
    <glyph glyph-name="lcaron" unicode="&#x13e;" horiz-adv-x="479" 
d="M40 0zM391 80v-80h-351v80h111v590h-111v80h241v-670h110zM361 734q1 33 19 50.5t44 17.5q25 0 45 -16.5t20 -42.5q0 -19 -12 -40l-109 -203l-13 4z" />
    <glyph glyph-name="lcommaaccent" unicode="&#x13c;" horiz-adv-x="416" 
d="M40 0zM391 80v-80h-351v80h111v590h-111v80h241v-670h110zM282 -112q22 -27 22 -76q0 -58 -33 -100t-98 -64l-8 17q36 21 53 44.5t21 56.5q-14 -2 -21 -2q-32 0 -51.5 20.5t-19.5 54.5t20.5 55t53.5 21q39 0 61 -27z" />
    <glyph glyph-name="ldot" unicode="&#x140;" horiz-adv-x="548" 
d="M40 0zM391 80v-80h-351v80h111v590h-111v80h241v-670h110zM412 335q-25 25 -25 67q0 41 25 66t67 25q41 0 66 -25t25 -66q0 -42 -25 -67t-66 -25q-42 0 -67 25z" />
    <glyph glyph-name="uni1E37" unicode="&#x1e37;" horiz-adv-x="416" 
d="M40 0zM391 80v-80h-351v80h111v590h-111v80h241v-670h110zM146 -260q-25 25 -25 67q0 41 25 66t67 25q41 0 66 -25t25 -66q0 -42 -25 -67t-66 -25q-42 0 -67 25z" />
    <glyph glyph-name="uni1E39" unicode="&#x1e39;" horiz-adv-x="416" 
d="M18 0zM391 80v-80h-351v80h111v590h-111v80h241v-670h110zM146 -260q-25 25 -25 67q0 41 25 66t67 25q41 0 66 -25t25 -66q0 -42 -25 -67t-66 -25q-42 0 -67 25zM18 938h375v-80h-375v80z" />
    <glyph glyph-name="uni01C9" unicode="&#x1c9;" horiz-adv-x="753" 
d="M40 0zM391 80v-80h-351v80h111v590h-111v80h241v-670h110zM678 -54q0 -105 -50.5 -155.5t-152.5 -50.5q-71 0 -112.5 21.5t-58 52.5t-16.5 63q0 39 22.5 62t59.5 23q34 0 54.5 -19t20.5 -48q0 -34 -27 -59q14 -10 42 -10q45 0 66.5 32t21.5 98v464h-111v80h241v-554z
M539 605q-25 25 -25 67q0 41 25 66t67 25q41 0 66 -25t25 -66q0 -42 -25 -67t-66 -25q-42 0 -67 25z" />
    <glyph glyph-name="uni1E3B" unicode="&#x1e3b;" horiz-adv-x="416" 
d="M29 0zM391 80v-80h-351v80h111v590h-111v80h241v-670h110zM29 -142h375v-80h-375v80z" />
    <glyph glyph-name="lslash" unicode="&#x142;" horiz-adv-x="416" 
d="M281 368v-288h110v-80h-351v80h111v207l-132 -82v106l132 82v277h-111v80h241v-276l131 81v-106z" />
    <glyph glyph-name="m" unicode="m" horiz-adv-x="1037" 
d="M1012 80v-80h-241v250q0 92 -19 136t-58 44q-29 0 -52.5 -23.5t-37 -67t-13.5 -99.5v-160h97v-80h-227v250q0 92 -19 136t-58 44q-29 0 -52.5 -23.5t-37 -67t-13.5 -99.5v-160h98v-80h-339v80h111v340h-111v80h241v-83q26 45 65.5 69t89.5 24q55 0 90 -30t51 -92
q23 59 66.5 90.5t101.5 31.5q80 0 118 -63.5t38 -196.5v-170h111z" />
    <glyph glyph-name="uni1E43" unicode="&#x1e43;" horiz-adv-x="1037" 
d="M40 0zM1012 80v-80h-241v250q0 92 -19 136t-58 44q-29 0 -52.5 -23.5t-37 -67t-13.5 -99.5v-160h97v-80h-227v250q0 92 -19 136t-58 44q-29 0 -52.5 -23.5t-37 -67t-13.5 -99.5v-160h98v-80h-339v80h111v340h-111v80h241v-83q26 45 65.5 69t89.5 24q55 0 90 -30t51 -92
q23 59 66.5 90.5t101.5 31.5q80 0 118 -63.5t38 -196.5v-170h111zM451 -260q-25 25 -25 67q0 41 25 66t67 25q41 0 66 -25t25 -66q0 -42 -25 -67t-66 -25q-42 0 -67 25z" />
    <glyph glyph-name="n" unicode="n" horiz-adv-x="739" 
d="M714 80v-80h-241v250q0 180 -83 180q-31 0 -56 -23.5t-39 -67t-14 -99.5v-160h110v-80h-351v80h111v340h-111v80h241v-84q26 45 67.5 69.5t93.5 24.5q82 0 121.5 -63t39.5 -197v-170h111z" />
    <glyph glyph-name="nacute" unicode="&#x144;" horiz-adv-x="739" 
d="M40 0zM714 80v-80h-241v250q0 180 -83 180q-31 0 -56 -23.5t-39 -67t-14 -99.5v-160h110v-80h-351v80h111v340h-111v80h241v-84q26 45 67.5 69.5t93.5 24.5q82 0 121.5 -63t39.5 -197v-170h111zM454 777q24 32 55 32q29 0 50 -24q15 -18 15 -42q0 -38 -42 -58l-206 -104
l-9 11z" />
    <glyph glyph-name="napostrophe" unicode="&#x149;" horiz-adv-x="929" 
d="M30 0zM193 740.5q27 -32.5 27 -91.5q0 -70 -40 -121t-119 -78l-9 20q43 26 63.5 54t24.5 69q-10 -3 -24 -3q-38 0 -62 25t-24 66q0 42 24.5 67t65.5 25q46 0 73 -32.5zM904 80v-80h-241v250q0 180 -83 180q-31 0 -56 -23.5t-39 -67t-14 -99.5v-160h110v-80h-351v80h111
v340h-111v80h241v-84q26 45 67.5 69.5t93.5 24.5q82 0 121.5 -63t39.5 -197v-170h111z" />
    <glyph glyph-name="ncaron" unicode="&#x148;" horiz-adv-x="739" 
d="M40 0zM714 80v-80h-241v250q0 180 -83 180q-31 0 -56 -23.5t-39 -67t-14 -99.5v-160h110v-80h-351v80h111v340h-111v80h241v-84q26 45 67.5 69.5t93.5 24.5q82 0 121.5 -63t39.5 -197v-170h111zM577 787q-77 -79 -129 -176h-121q-52 97 -129 176l7 12q95 -35 182 -90
q89 55 183 90z" />
    <glyph glyph-name="ncommaaccent" unicode="&#x146;" horiz-adv-x="739" 
d="M40 0zM714 80v-80h-241v250q0 180 -83 180q-31 0 -56 -23.5t-39 -67t-14 -99.5v-160h110v-80h-351v80h111v340h-111v80h241v-84q26 45 67.5 69.5t93.5 24.5q82 0 121.5 -63t39.5 -197v-170h111zM443 -112q22 -27 22 -76q0 -58 -33 -100t-98 -64l-8 17q36 21 53 44.5
t21 56.5q-14 -2 -21 -2q-32 0 -51.5 20.5t-19.5 54.5t20.5 55t53.5 21q39 0 61 -27z" />
    <glyph glyph-name="uni1E45" unicode="&#x1e45;" horiz-adv-x="739" 
d="M40 0zM714 80v-80h-241v250q0 180 -83 180q-31 0 -56 -23.5t-39 -67t-14 -99.5v-160h110v-80h-351v80h111v340h-111v80h241v-84q26 45 67.5 69.5t93.5 24.5q82 0 121.5 -63t39.5 -197v-170h111zM331 605q-25 25 -25 67q0 41 25 66t67 25q41 0 66 -25t25 -66
q0 -42 -25 -67t-66 -25q-42 0 -67 25z" />
    <glyph glyph-name="uni1E47" unicode="&#x1e47;" horiz-adv-x="739" 
d="M40 0zM714 80v-80h-241v250q0 180 -83 180q-31 0 -56 -23.5t-39 -67t-14 -99.5v-160h110v-80h-351v80h111v340h-111v80h241v-84q26 45 67.5 69.5t93.5 24.5q82 0 121.5 -63t39.5 -197v-170h111zM307 -260q-25 25 -25 67q0 41 25 66t67 25q41 0 66 -25t25 -66
q0 -42 -25 -67t-66 -25q-42 0 -67 25z" />
    <glyph glyph-name="eng" unicode="&#x14b;" horiz-adv-x="653" 
d="M563 447q40 -63 40 -197v-310q0 -101 -50 -150.5t-150 -49.5q-72 0 -115 22t-59.5 54t-16.5 64q0 39 22.5 62t59.5 23q34 0 54.5 -19.5t20.5 -49.5q0 -36 -29 -59q17 -11 44 -11q46 0 67.5 31t21.5 93v300q0 92 -21 136t-64 44q-49 0 -78 -51.5t-29 -138.5v-160h110v-80
h-351v80h111v340h-111v80h241v-81q26 45 66 68t92 23q84 0 124 -63z" />
    <glyph glyph-name="uni0272" unicode="&#x272;" horiz-adv-x="738" 
d="M713 80v-80h-241v250q0 92 -20.5 136t-61.5 44q-31 0 -56 -23.5t-39.5 -67t-14.5 -99.5v-300q0 -102 -49.5 -151t-150.5 -49q-72 0 -114.5 22.5t-59 55t-16.5 64.5q0 39 22.5 62.5t59.5 23.5q34 0 54.5 -19.5t20.5 -49.5q0 -38 -31 -62q17 -11 45 -11q46 0 67.5 31
t21.5 93v470h-118v80h248v-85q26 46 67.5 70.5t93.5 24.5q82 0 121.5 -63t39.5 -197v-170h111z" />
    <glyph glyph-name="uni01CC" unicode="&#x1cc;" horiz-adv-x="1076" 
d="M40 0zM714 80v-80h-241v250q0 180 -83 180q-31 0 -56 -23.5t-39 -67t-14 -99.5v-160h110v-80h-351v80h111v340h-111v80h241v-84q26 45 67.5 69.5t93.5 24.5q82 0 121.5 -63t39.5 -197v-170h111zM1001 -54q0 -105 -50.5 -155.5t-152.5 -50.5q-71 0 -112.5 21.5t-58 52.5
t-16.5 63q0 39 22.5 62t59.5 23q34 0 54.5 -19t20.5 -48q0 -34 -27 -59q14 -10 42 -10q45 0 66.5 32t21.5 98v464h-111v80h241v-554zM862 605q-25 25 -25 67q0 41 25 66t67 25q41 0 66 -25t25 -66q0 -42 -25 -67t-66 -25q-42 0 -67 25z" />
    <glyph glyph-name="uni1E49" unicode="&#x1e49;" horiz-adv-x="739" 
d="M40 0zM714 80v-80h-241v250q0 180 -83 180q-31 0 -56 -23.5t-39 -67t-14 -99.5v-160h110v-80h-351v80h111v340h-111v80h241v-84q26 45 67.5 69.5t93.5 24.5q82 0 121.5 -63t39.5 -197v-170h111zM190 -142h375v-80h-375v80z" />
    <glyph glyph-name="ntilde" unicode="&#xf1;" horiz-adv-x="739" 
d="M40 0zM714 80v-80h-241v250q0 180 -83 180q-31 0 -56 -23.5t-39 -67t-14 -99.5v-160h110v-80h-351v80h111v340h-111v80h241v-84q26 45 67.5 69.5t93.5 24.5q82 0 121.5 -63t39.5 -197v-170h111zM209 610q15 51 30.5 78t35.5 37.5t51 10.5q27 0 46 -5.5t41 -15.5
q17 -8 28.5 -11.5t24.5 -3.5q25 0 44 15t29 42l26 -10q-15 -51 -30.5 -78t-36 -37.5t-53.5 -10.5q-27 0 -44 5.5t-36 15.5q-14 8 -25 11.5t-26 3.5q-29 0 -49.5 -15t-29.5 -42z" />
    <glyph glyph-name="o" unicode="o" horiz-adv-x="622" 
d="M165.5 22q-62.5 32 -96.5 91t-34 137t34 137t96.5 91t145.5 32t145.5 -32t96.5 -91t34 -137t-34 -137t-96.5 -91t-145.5 -32t-145.5 32zM410 119q37 49 37 131t-37 131t-99 49t-99 -49t-37 -131t37 -131t99 -49t99 49z" />
    <glyph glyph-name="oacute" unicode="&#xf3;" horiz-adv-x="622" 
d="M35 0zM165.5 22q-62.5 32 -96.5 91t-34 137t34 137t96.5 91t145.5 32t145.5 -32t96.5 -91t34 -137t-34 -137t-96.5 -91t-145.5 -32t-145.5 32zM410 119q37 49 37 131t-37 131t-99 49t-99 -49t-37 -131t37 -131t99 -49t99 49zM378 777q24 32 55 32q29 0 50 -24
q15 -18 15 -42q0 -38 -42 -58l-206 -104l-9 11z" />
    <glyph glyph-name="obreve" unicode="&#x14f;" horiz-adv-x="622" 
d="M35 0zM165.5 22q-62.5 32 -96.5 91t-34 137t34 137t96.5 91t145.5 32t145.5 -32t96.5 -91t34 -137t-34 -137t-96.5 -91t-145.5 -32t-145.5 32zM410 119q37 49 37 131t-37 131t-99 49t-99 -49t-37 -131t37 -131t99 -49t99 49zM157 772h50q0 -76 104 -76q103 0 103 76h50
q0 -164 -153 -164q-154 0 -154 164z" />
    <glyph glyph-name="uni01D2" unicode="&#x1d2;" horiz-adv-x="622" 
d="M35 0zM165.5 22q-62.5 32 -96.5 91t-34 137t34 137t96.5 91t145.5 32t145.5 -32t96.5 -91t34 -137t-34 -137t-96.5 -91t-145.5 -32t-145.5 32zM410 119q37 49 37 131t-37 131t-99 49t-99 -49t-37 -131t37 -131t99 -49t99 49zM501 787q-77 -79 -129 -176h-121
q-52 97 -129 176l7 12q95 -35 182 -90q89 55 183 90z" />
    <glyph glyph-name="ocircumflex" unicode="&#xf4;" horiz-adv-x="622" 
d="M35 0zM165.5 22q-62.5 32 -96.5 91t-34 137t34 137t96.5 91t145.5 32t145.5 -32t96.5 -91t34 -137t-34 -137t-96.5 -91t-145.5 -32t-145.5 32zM410 119q37 49 37 131t-37 131t-99 49t-99 -49t-37 -131t37 -131t99 -49t99 49zM494 593q-94 35 -183 90q-87 -55 -182 -90
l-7 12q77 79 129 176h121q52 -97 129 -176z" />
    <glyph glyph-name="uni1ED1" unicode="&#x1ed1;" horiz-adv-x="622" 
d="M35 0zM165.5 22q-62.5 32 -96.5 91t-34 137t34 137t96.5 91t145.5 32t145.5 -32t96.5 -91t34 -137t-34 -137t-96.5 -91t-145.5 -32t-145.5 32zM410 119q37 49 37 131t-37 131t-99 49t-99 -49t-37 -131t37 -131t99 -49t99 49zM494 593q-94 35 -183 90q-87 -55 -182 -90
l-7 12q77 79 129 176h121q52 -97 129 -176zM549 931q24 32 55 32q29 0 50 -24q15 -18 15 -42q0 -38 -42 -58l-206 -104l-9 11z" />
    <glyph glyph-name="uni1ED9" unicode="&#x1ed9;" horiz-adv-x="622" 
d="M35 0zM165.5 22q-62.5 32 -96.5 91t-34 137t34 137t96.5 91t145.5 32t145.5 -32t96.5 -91t34 -137t-34 -137t-96.5 -91t-145.5 -32t-145.5 32zM410 119q37 49 37 131t-37 131t-99 49t-99 -49t-37 -131t37 -131t99 -49t99 49zM241 -260q-25 25 -25 67q0 41 25 66t67 25
q41 0 66 -25t25 -66q0 -42 -25 -67t-66 -25q-42 0 -67 25zM494 593q-94 35 -183 90q-87 -55 -182 -90l-7 12q77 79 129 176h121q52 -97 129 -176z" />
    <glyph glyph-name="uni1ED3" unicode="&#x1ed3;" horiz-adv-x="622" 
d="M314 903q0 26 20 46q21 19 45 19q35 0 58 -38l117 -198l-11 -10l-193 125q-36 22 -36 56zM129 593l-7 12q77 79 129 176h121q52 -97 129 -176l-7 -12q-95 35 -182 90q-89 -55 -183 -90zM456.5 478q62.5 -32 96.5 -91t34 -137t-34 -137t-96.5 -91t-145.5 -32t-145.5 32
t-96.5 91t-34 137t34 137t96.5 91t145.5 32t145.5 -32zM410 119q37 49 37 131t-37 131t-99 49t-99 -49t-37 -131t37 -131t99 -49t99 49z" />
    <glyph glyph-name="uni1ED5" unicode="&#x1ed5;" horiz-adv-x="622" 
d="M35 0zM165.5 22q-62.5 32 -96.5 91t-34 137t34 137t96.5 91t145.5 32t145.5 -32t96.5 -91t34 -137t-34 -137t-96.5 -91t-145.5 -32t-145.5 32zM410 119q37 49 37 131t-37 131t-99 49t-99 -49t-37 -131t37 -131t99 -49t99 49zM494 593q-94 35 -183 90q-87 -55 -182 -90
l-7 12q77 79 129 176h121q52 -97 129 -176zM452 754q0 15 6 25.5t18 22.5q11 11 16 19t5 19q0 14 -9 22t-23 8q-15 0 -23.5 -7.5t-8.5 -20.5q0 -19 13 -35l-20 -20q-26 15 -37.5 31t-11.5 36q0 34 28.5 54t76.5 20q51 0 82 -23t31 -64q0 -27 -13 -39t-38 -22
q-26 -11 -40 -24t-17 -42h-28q-7 22 -7 40z" />
    <glyph glyph-name="uni1ED7" unicode="&#x1ed7;" horiz-adv-x="622" 
d="M35 0zM165.5 22q-62.5 32 -96.5 91t-34 137t34 137t96.5 91t145.5 32t145.5 -32t96.5 -91t34 -137t-34 -137t-96.5 -91t-145.5 -32t-145.5 32zM410 119q37 49 37 131t-37 131t-99 49t-99 -49t-37 -131t37 -131t99 -49t99 49zM494 593q-94 35 -183 90q-87 -55 -182 -90
l-7 12q77 79 129 176h121q52 -97 129 -176zM133 807q15 51 30.5 78t35.5 37.5t51 10.5q27 0 46 -5.5t41 -15.5q17 -8 28.5 -11.5t24.5 -3.5q25 0 44 15t29 42l26 -10q-15 -51 -30.5 -78t-36 -37.5t-53.5 -10.5q-27 0 -44 5.5t-36 15.5q-14 8 -25 11.5t-26 3.5
q-29 0 -49.5 -15t-29.5 -42z" />
    <glyph glyph-name="uni020D" unicode="&#x20d;" horiz-adv-x="622" 
d="M228 552l-173 154q-27 24 -27 52q0 15 7.5 29t19.5 22q19 13 40 13q19 0 35 -12t25 -36l84 -214zM417 552l-173 154q-27 24 -27 52q0 15 7.5 29t19.5 22q19 13 40 13q19 0 35 -12t25 -36l84 -214zM165.5 22q-62.5 32 -96.5 91t-34 137t34 137t96.5 91t145.5 32t145.5 -32
t96.5 -91t34 -137t-34 -137t-96.5 -91t-145.5 -32t-145.5 32zM410 119q37 49 37 131t-37 131t-99 49t-99 -49t-37 -131t37 -131t99 -49t99 49z" />
    <glyph glyph-name="odieresis" unicode="&#xf6;" horiz-adv-x="622" 
d="M35 0zM165.5 22q-62.5 32 -96.5 91t-34 137t34 137t96.5 91t145.5 32t145.5 -32t96.5 -91t34 -137t-34 -137t-96.5 -91t-145.5 -32t-145.5 32zM410 119q37 49 37 131t-37 131t-99 49t-99 -49t-37 -131t37 -131t99 -49t99 49zM366 605q-25 25 -25 67q0 41 25 66t67 25
q41 0 66 -25t25 -66q0 -42 -25 -67t-66 -25q-42 0 -67 25zM124 605q-25 25 -25 67q0 41 25 66t67 25q41 0 66 -25t25 -66q0 -42 -25 -67t-66 -25q-42 0 -67 25z" />
    <glyph glyph-name="uni1ECD" unicode="&#x1ecd;" horiz-adv-x="622" 
d="M35 0zM165.5 22q-62.5 32 -96.5 91t-34 137t34 137t96.5 91t145.5 32t145.5 -32t96.5 -91t34 -137t-34 -137t-96.5 -91t-145.5 -32t-145.5 32zM410 119q37 49 37 131t-37 131t-99 49t-99 -49t-37 -131t37 -131t99 -49t99 49zM241 -260q-25 25 -25 67q0 41 25 66t67 25
q41 0 66 -25t25 -66q0 -42 -25 -67t-66 -25q-42 0 -67 25z" />
    <glyph glyph-name="ograve" unicode="&#xf2;" horiz-adv-x="622" 
d="M35 0zM165.5 22q-62.5 32 -96.5 91t-34 137t34 137t96.5 91t145.5 32t145.5 -32t96.5 -91t34 -137t-34 -137t-96.5 -91t-145.5 -32t-145.5 32zM410 119q37 49 37 131t-37 131t-99 49t-99 -49t-37 -131t37 -131t99 -49t99 49zM372 581l-206 104q-42 20 -42 58q0 24 15 42
q21 24 50 24q31 0 55 -32l137 -185z" />
    <glyph glyph-name="uni1ECF" unicode="&#x1ecf;" horiz-adv-x="622" 
d="M35 0zM165.5 22q-62.5 32 -96.5 91t-34 137t34 137t96.5 91t145.5 32t145.5 -32t96.5 -91t34 -137t-34 -137t-96.5 -91t-145.5 -32t-145.5 32zM410 119q37 49 37 131t-37 131t-99 49t-99 -49t-37 -131t37 -131t99 -49t99 49zM289 640q0 20 8.5 33t25.5 29
q16 17 23.5 28.5t7.5 28.5q0 21 -12 34t-32 13q-22 0 -36 -15.5t-14 -38.5q0 -20 13 -39l-20 -20q-26 17 -37.5 35.5t-11.5 42.5q0 42 33.5 67.5t88.5 25.5q57 0 91.5 -28t34.5 -77q0 -33 -15 -48.5t-45 -29.5q-31 -13 -48 -29.5t-20 -51.5h-28q-7 21 -7 40z" />
    <glyph glyph-name="ohorn" unicode="&#x1a1;" horiz-adv-x="622" 
d="M593 481q-24 -38 -74 -49q68 -71 68 -182q0 -78 -34 -137t-96.5 -91t-145.5 -32t-145.5 32t-96.5 91t-34 137t34 137t96.5 91t145.5 32q117 0 190 -62v2q33 6 47 27.5t16 54.5l-14 -1q-28 0 -44.5 17t-16.5 45q0 29 17 45.5t45 16.5q31 0 48.5 -22.5t17.5 -65.5
q0 -48 -24 -86zM410 119q37 49 37 131t-37 131t-99 49t-99 -49t-37 -131t37 -131t99 -49t99 49z" />
    <glyph glyph-name="uni1EDB" unicode="&#x1edb;" horiz-adv-x="622" 
d="M35 0zM593 481q-24 -38 -74 -49q68 -71 68 -182q0 -78 -34 -137t-96.5 -91t-145.5 -32t-145.5 32t-96.5 91t-34 137t34 137t96.5 91t145.5 32q117 0 190 -62v2q33 6 47 27.5t16 54.5l-14 -1q-28 0 -44.5 17t-16.5 45q0 29 17 45.5t45 16.5q31 0 48.5 -22.5t17.5 -65.5
q0 -48 -24 -86zM410 119q37 49 37 131t-37 131t-99 49t-99 -49t-37 -131t37 -131t99 -49t99 49zM378 777q24 32 55 32q29 0 50 -24q15 -18 15 -42q0 -38 -42 -58l-206 -104l-9 11z" />
    <glyph glyph-name="uni1EE3" unicode="&#x1ee3;" horiz-adv-x="622" 
d="M35 0zM593 481q-24 -38 -74 -49q68 -71 68 -182q0 -78 -34 -137t-96.5 -91t-145.5 -32t-145.5 32t-96.5 91t-34 137t34 137t96.5 91t145.5 32q117 0 190 -62v2q33 6 47 27.5t16 54.5l-14 -1q-28 0 -44.5 17t-16.5 45q0 29 17 45.5t45 16.5q31 0 48.5 -22.5t17.5 -65.5
q0 -48 -24 -86zM410 119q37 49 37 131t-37 131t-99 49t-99 -49t-37 -131t37 -131t99 -49t99 49zM241 -260q-25 25 -25 67q0 41 25 66t67 25q41 0 66 -25t25 -66q0 -42 -25 -67t-66 -25q-42 0 -67 25z" />
    <glyph glyph-name="uni1EDD" unicode="&#x1edd;" horiz-adv-x="622" 
d="M35 0zM593 481q-24 -38 -74 -49q68 -71 68 -182q0 -78 -34 -137t-96.5 -91t-145.5 -32t-145.5 32t-96.5 91t-34 137t34 137t96.5 91t145.5 32q117 0 190 -62v2q33 6 47 27.5t16 54.5l-14 -1q-28 0 -44.5 17t-16.5 45q0 29 17 45.5t45 16.5q31 0 48.5 -22.5t17.5 -65.5
q0 -48 -24 -86zM410 119q37 49 37 131t-37 131t-99 49t-99 -49t-37 -131t37 -131t99 -49t99 49zM372 581l-206 104q-42 20 -42 58q0 24 15 42q21 24 50 24q31 0 55 -32l137 -185z" />
    <glyph glyph-name="uni1EDF" unicode="&#x1edf;" horiz-adv-x="622" 
d="M35 0zM593 481q-24 -38 -74 -49q68 -71 68 -182q0 -78 -34 -137t-96.5 -91t-145.5 -32t-145.5 32t-96.5 91t-34 137t34 137t96.5 91t145.5 32q117 0 190 -62v2q33 6 47 27.5t16 54.5l-14 -1q-28 0 -44.5 17t-16.5 45q0 29 17 45.5t45 16.5q31 0 48.5 -22.5t17.5 -65.5
q0 -48 -24 -86zM410 119q37 49 37 131t-37 131t-99 49t-99 -49t-37 -131t37 -131t99 -49t99 49zM289 640q0 20 8.5 33t25.5 29q16 17 23.5 28.5t7.5 28.5q0 21 -12 34t-32 13q-22 0 -36 -15.5t-14 -38.5q0 -20 13 -39l-20 -20q-26 17 -37.5 35.5t-11.5 42.5q0 42 33.5 67.5
t88.5 25.5q57 0 91.5 -28t34.5 -77q0 -33 -15 -48.5t-45 -29.5q-31 -13 -48 -29.5t-20 -51.5h-28q-7 21 -7 40z" />
    <glyph glyph-name="uni1EE1" unicode="&#x1ee1;" horiz-adv-x="622" 
d="M35 0zM593 481q-24 -38 -74 -49q68 -71 68 -182q0 -78 -34 -137t-96.5 -91t-145.5 -32t-145.5 32t-96.5 91t-34 137t34 137t96.5 91t145.5 32q117 0 190 -62v2q33 6 47 27.5t16 54.5l-14 -1q-28 0 -44.5 17t-16.5 45q0 29 17 45.5t45 16.5q31 0 48.5 -22.5t17.5 -65.5
q0 -48 -24 -86zM410 119q37 49 37 131t-37 131t-99 49t-99 -49t-37 -131t37 -131t99 -49t99 49zM133 610q15 51 30.5 78t35.5 37.5t51 10.5q27 0 46 -5.5t41 -15.5q17 -8 28.5 -11.5t24.5 -3.5q25 0 44 15t29 42l26 -10q-15 -51 -30.5 -78t-36 -37.5t-53.5 -10.5
q-27 0 -44 5.5t-36 15.5q-14 8 -25 11.5t-26 3.5q-29 0 -49.5 -15t-29.5 -42z" />
    <glyph glyph-name="ohungarumlaut" unicode="&#x151;" horiz-adv-x="622" 
d="M253 774q9 24 25 36t35 12q20 0 40 -13q12 -8 19.5 -22t7.5 -29q0 -28 -27 -52l-173 -154l-11 8zM442 774q9 24 25 36t35 12q20 0 40 -13q12 -8 19.5 -22t7.5 -29q0 -28 -27 -52l-173 -154l-11 8zM165.5 22q-62.5 32 -96.5 91t-34 137t34 137t96.5 91t145.5 32t145.5 -32
t96.5 -91t34 -137t-34 -137t-96.5 -91t-145.5 -32t-145.5 32zM410 119q37 49 37 131t-37 131t-99 49t-99 -49t-37 -131t37 -131t99 -49t99 49z" />
    <glyph glyph-name="uni020F" unicode="&#x20f;" horiz-adv-x="622" 
d="M35 0zM165.5 22q-62.5 32 -96.5 91t-34 137t34 137t96.5 91t145.5 32t145.5 -32t96.5 -91t34 -137t-34 -137t-96.5 -91t-145.5 -32t-145.5 32zM410 119q37 49 37 131t-37 131t-99 49t-99 -49t-37 -131t37 -131t99 -49t99 49zM465 598h-50q0 76 -103 76q-104 0 -104 -76
h-50q0 164 154 164q153 0 153 -164z" />
    <glyph glyph-name="omacron" unicode="&#x14d;" horiz-adv-x="622" 
d="M35 0zM165.5 22q-62.5 32 -96.5 91t-34 137t34 137t96.5 91t145.5 32t145.5 -32t96.5 -91t34 -137t-34 -137t-96.5 -91t-145.5 -32t-145.5 32zM410 119q37 49 37 131t-37 131t-99 49t-99 -49t-37 -131t37 -131t99 -49t99 49zM123 708h375v-80h-375v80z" />
    <glyph glyph-name="uni1E53" unicode="&#x1e53;" horiz-adv-x="622" 
d="M35 0zM165.5 22q-62.5 32 -96.5 91t-34 137t34 137t96.5 91t145.5 32t145.5 -32t96.5 -91t34 -137t-34 -137t-96.5 -91t-145.5 -32t-145.5 32zM410 119q37 49 37 131t-37 131t-99 49t-99 -49t-37 -131t37 -131t99 -49t99 49zM123 708h375v-80h-375v80zM378 935
q24 32 55 32q29 0 50 -24q15 -18 15 -42q0 -38 -42 -58l-206 -104l-9 11z" />
    <glyph glyph-name="uni01EB" unicode="&#x1eb;" horiz-adv-x="622" 
d="M552 111.5q-35 -59.5 -99 -90.5v-1q-38 -19 -61 -43.5t-23 -62.5q0 -33 19.5 -53t57.5 -20q26 0 48 12l-4 -48q-28 -18 -71 -18q-63 0 -105.5 33t-42.5 86q0 49 40 84q-83 0 -145.5 32t-96.5 91t-34 137t34 137t96.5 91t145.5 32t145.5 -32t96.5 -91t34 -137
q0 -79 -35 -138.5zM212 119q37 -49 99 -49t99 49t37 131t-37 131t-99 49t-99 -49t-37 -131t37 -131z" />
    <glyph glyph-name="oslash" unicode="&#xf8;" horiz-adv-x="622" 
d="M587 250q0 -78 -34 -137t-96.5 -91t-145.5 -32q-81 0 -140 30l-73 -87l-61 51l68 82q-70 70 -70 184q0 78 34 137t96.5 91t145.5 32q78 0 141 -30l70 84l63 -49l-68 -81q70 -70 70 -184zM188 165l200 239q-32 26 -77 26q-62 0 -99 -49t-37 -131q0 -46 13 -85zM410 119
q37 49 37 131q0 44 -13 85l-200 -239q34 -26 77 -26q62 0 99 49z" />
    <glyph glyph-name="oslashacute" unicode="&#x1ff;" horiz-adv-x="622" 
d="M35 0zM587 250q0 -78 -34 -137t-96.5 -91t-145.5 -32q-81 0 -140 30l-73 -87l-61 51l68 82q-70 70 -70 184q0 78 34 137t96.5 91t145.5 32q78 0 141 -30l70 84l63 -49l-68 -81q70 -70 70 -184zM188 165l200 239q-32 26 -77 26q-62 0 -99 -49t-37 -131q0 -46 13 -85z
M410 119q37 49 37 131q0 44 -13 85l-200 -239q34 -26 77 -26q62 0 99 49zM378 777q24 32 55 32q29 0 50 -24q15 -18 15 -42q0 -38 -42 -58l-206 -104l-9 11z" />
    <glyph glyph-name="otilde" unicode="&#xf5;" horiz-adv-x="622" 
d="M35 0zM165.5 22q-62.5 32 -96.5 91t-34 137t34 137t96.5 91t145.5 32t145.5 -32t96.5 -91t34 -137t-34 -137t-96.5 -91t-145.5 -32t-145.5 32zM410 119q37 49 37 131t-37 131t-99 49t-99 -49t-37 -131t37 -131t99 -49t99 49zM133 610q15 51 30.5 78t35.5 37.5t51 10.5
q27 0 46 -5.5t41 -15.5q17 -8 28.5 -11.5t24.5 -3.5q25 0 44 15t29 42l26 -10q-15 -51 -30.5 -78t-36 -37.5t-53.5 -10.5q-27 0 -44 5.5t-36 15.5q-14 8 -25 11.5t-26 3.5q-29 0 -49.5 -15t-29.5 -42z" />
    <glyph glyph-name="oe" unicode="&#x153;" horiz-adv-x="911" 
d="M876 226h-338q5 -73 38.5 -115t87.5 -42q35 0 65 19t47 56l86 -29q-24 -59 -78.5 -92.5t-130.5 -33.5q-57 0 -104 20t-80 57q-34 -37 -80.5 -56.5t-104.5 -19.5q-74 0 -130.5 32t-87.5 91t-31 137t31 137t87.5 91t130.5 32q57 0 104.5 -19.5t79.5 -56.5q67 75 180 75
q101 0 163 -62t65 -170v-51zM372.5 119q33.5 49 33.5 131t-33.5 131t-88.5 49q-56 0 -89.5 -49t-33.5 -131t33.5 -131t89.5 -49q55 0 88.5 49zM576.5 393q-28.5 -36 -36.5 -97h211q-2 61 -30.5 97t-72.5 36q-43 0 -71.5 -36z" />
    <glyph glyph-name="p" unicode="p" horiz-adv-x="701" 
d="M554 477q53 -33 82.5 -92t29.5 -135t-29.5 -135t-82.5 -92t-121 -33q-52 0 -94 19.5t-73 55.5v-235h110v-80h-351v80h111v590h-111v80h241v-65q31 36 73 55.5t94 19.5q68 0 121 -33zM489 120q37 50 37 130t-37 130t-95 50t-93 -50t-35 -130q0 -81 35.5 -130.5t92.5 -49.5
q58 0 95 50z" />
    <glyph glyph-name="thorn" unicode="&#xfe;" horiz-adv-x="701" 
d="M554 477q53 -33 82.5 -92t29.5 -135t-29.5 -135t-82.5 -92t-121 -33q-52 0 -94 19.5t-73 55.5v-235h110v-80h-351v80h111v840h-111v80h241v-315q31 36 73 55.5t94 19.5q68 0 121 -33zM462.5 92.5q29.5 22.5 46.5 63.5t17 94t-17 94t-46.5 63.5t-67.5 22.5
q-58 0 -93.5 -49.5t-35.5 -130.5t35.5 -130.5t93.5 -49.5q38 0 67.5 22.5z" />
    <glyph glyph-name="q" unicode="q" horiz-adv-x="701" 
d="M565 420v-590h111v-80h-351v80h110v235q-31 -36 -73 -55.5t-94 -19.5q-68 0 -121 33t-82.5 92t-29.5 135t29.5 135t82.5 92t121 33q52 0 94 -19.5t73 -55.5v65h241v-80h-111zM399.5 119.5q35.5 49.5 35.5 130.5q0 80 -35 130t-93 50t-95 -50t-37 -130t37 -130t95 -50
q57 0 92.5 49.5z" />
    <glyph glyph-name="r" unicode="r" horiz-adv-x="584" 
d="M505 487q29 -23 41.5 -56t12.5 -65q0 -42 -20 -65t-54 -23q-32 0 -52.5 19t-20.5 50q0 22 11 37.5t31 23.5q-16 22 -48 22t-60.5 -24t-46.5 -67.5t-18 -98.5v-160h110v-80h-351v80h111v340h-111v80h241v-89q25 48 63.5 73.5t85.5 25.5q46 0 75 -23z" />
    <glyph glyph-name="racute" unicode="&#x155;" horiz-adv-x="584" 
d="M40 0zM505 487q29 -23 41.5 -56t12.5 -65q0 -42 -20 -65t-54 -23q-32 0 -52.5 19t-20.5 50q0 22 11 37.5t31 23.5q-16 22 -48 22t-60.5 -24t-46.5 -67.5t-18 -98.5v-160h110v-80h-351v80h111v340h-111v80h241v-89q25 48 63.5 73.5t85.5 25.5q46 0 75 -23zM456 777
q24 32 55 32q29 0 50 -24q15 -18 15 -42q0 -38 -42 -58l-206 -104l-9 11z" />
    <glyph glyph-name="rcaron" unicode="&#x159;" horiz-adv-x="584" 
d="M40 0zM505 487q29 -23 41.5 -56t12.5 -65q0 -42 -20 -65t-54 -23q-32 0 -52.5 19t-20.5 50q0 22 11 37.5t31 23.5q-16 22 -48 22t-60.5 -24t-46.5 -67.5t-18 -98.5v-160h110v-80h-351v80h111v340h-111v80h241v-89q25 48 63.5 73.5t85.5 25.5q46 0 75 -23zM579 787
q-77 -79 -129 -176h-121q-52 97 -129 176l7 12q95 -35 182 -90q89 55 183 90z" />
    <glyph glyph-name="rcommaaccent" unicode="&#x157;" horiz-adv-x="584" 
d="M40 0zM505 487q29 -23 41.5 -56t12.5 -65q0 -42 -20 -65t-54 -23q-32 0 -52.5 19t-20.5 50q0 22 11 37.5t31 23.5q-16 22 -48 22t-60.5 -24t-46.5 -67.5t-18 -98.5v-160h110v-80h-351v80h111v340h-111v80h241v-89q25 48 63.5 73.5t85.5 25.5q46 0 75 -23zM282 -112
q22 -27 22 -76q0 -58 -33 -100t-98 -64l-8 17q36 21 53 44.5t21 56.5q-14 -2 -21 -2q-32 0 -51.5 20.5t-19.5 54.5t20.5 55t53.5 21q39 0 61 -27z" />
    <glyph glyph-name="uni0211" unicode="&#x211;" horiz-adv-x="584" 
d="M106 758q0 15 7.5 29t19.5 22q19 13 40 13q19 0 35 -12t25 -36l84 -214l-11 -8l-173 154q-27 24 -27 52zM295 758q0 15 7.5 29t19.5 22q19 13 40 13q19 0 35 -12t25 -36l84 -214l-11 -8l-173 154q-27 24 -27 52zM505 487q29 -23 41.5 -56t12.5 -65q0 -42 -20 -65t-54 -23
q-32 0 -52.5 19t-20.5 50q0 22 11 37.5t31 23.5q-16 22 -48 22t-60.5 -24t-46.5 -67.5t-18 -98.5v-160h110v-80h-351v80h111v340h-111v80h241v-89q25 48 63.5 73.5t85.5 25.5q46 0 75 -23z" />
    <glyph glyph-name="uni1E5B" unicode="&#x1e5b;" horiz-adv-x="584" 
d="M40 0zM505 487q29 -23 41.5 -56t12.5 -65q0 -42 -20 -65t-54 -23q-32 0 -52.5 19t-20.5 50q0 22 11 37.5t31 23.5q-16 22 -48 22t-60.5 -24t-46.5 -67.5t-18 -98.5v-160h110v-80h-351v80h111v340h-111v80h241v-89q25 48 63.5 73.5t85.5 25.5q46 0 75 -23zM146 -260
q-25 25 -25 67q0 41 25 66t67 25q41 0 66 -25t25 -66q0 -42 -25 -67t-66 -25q-42 0 -67 25z" />
    <glyph glyph-name="uni1E5D" unicode="&#x1e5d;" horiz-adv-x="584" 
d="M40 0zM505 487q29 -23 41.5 -56t12.5 -65q0 -42 -20 -65t-54 -23q-32 0 -52.5 19t-20.5 50q0 22 11 37.5t31 23.5q-16 22 -48 22t-60.5 -24t-46.5 -67.5t-18 -98.5v-160h110v-80h-351v80h111v340h-111v80h241v-89q25 48 63.5 73.5t85.5 25.5q46 0 75 -23zM146 -260
q-25 25 -25 67q0 41 25 66t67 25q41 0 66 -25t25 -66q0 -42 -25 -67t-66 -25q-42 0 -67 25zM201 708h375v-80h-375v80z" />
    <glyph glyph-name="uni0213" unicode="&#x213;" horiz-adv-x="584" 
d="M40 0zM505 487q29 -23 41.5 -56t12.5 -65q0 -42 -20 -65t-54 -23q-32 0 -52.5 19t-20.5 50q0 22 11 37.5t31 23.5q-16 22 -48 22t-60.5 -24t-46.5 -67.5t-18 -98.5v-160h110v-80h-351v80h111v340h-111v80h241v-89q25 48 63.5 73.5t85.5 25.5q46 0 75 -23zM543 598h-50
q0 76 -103 76q-104 0 -104 -76h-50q0 164 154 164q153 0 153 -164z" />
    <glyph glyph-name="uni1E5F" unicode="&#x1e5f;" horiz-adv-x="584" 
d="M29 0zM505 487q29 -23 41.5 -56t12.5 -65q0 -42 -20 -65t-54 -23q-32 0 -52.5 19t-20.5 50q0 22 11 37.5t31 23.5q-16 22 -48 22t-60.5 -24t-46.5 -67.5t-18 -98.5v-160h110v-80h-351v80h111v340h-111v80h241v-89q25 48 63.5 73.5t85.5 25.5q46 0 75 -23zM29 -142h375
v-80h-375v80z" />
    <glyph glyph-name="s" unicode="s" horiz-adv-x="535" 
d="M216.5 329.5q26.5 -11.5 84.5 -22.5q59 -11 95 -23.5t62.5 -43t26.5 -84.5q0 -82 -59 -124t-155 -42q-87 0 -141 35v-25h-80v200h80q0 -69 33 -99.5t93 -30.5q47 0 73 18t26 48q0 24 -16 39t-40 22.5t-66 15.5q-55 12 -89.5 24t-59 40t-24.5 76q0 76 58 116.5t148 40.5
q74 0 123 -29v19h80v-180h-80q0 110 -105 110q-44 0 -69 -16.5t-25 -43.5q0 -29 26.5 -40.5z" />
    <glyph glyph-name="sacute" unicode="&#x15b;" horiz-adv-x="535" 
d="M50 0zM216.5 329.5q26.5 -11.5 84.5 -22.5q59 -11 95 -23.5t62.5 -43t26.5 -84.5q0 -82 -59 -124t-155 -42q-87 0 -141 35v-25h-80v200h80q0 -69 33 -99.5t93 -30.5q47 0 73 18t26 48q0 24 -16 39t-40 22.5t-66 15.5q-55 12 -89.5 24t-59 40t-24.5 76q0 76 58 116.5
t148 40.5q74 0 123 -29v19h80v-180h-80q0 110 -105 110q-44 0 -69 -16.5t-25 -43.5q0 -29 26.5 -40.5zM339 777q24 32 55 32q29 0 50 -24q15 -18 15 -42q0 -38 -42 -58l-206 -104l-9 11z" />
    <glyph glyph-name="scaron" unicode="&#x161;" horiz-adv-x="535" 
d="M50 0zM216.5 329.5q26.5 -11.5 84.5 -22.5q59 -11 95 -23.5t62.5 -43t26.5 -84.5q0 -82 -59 -124t-155 -42q-87 0 -141 35v-25h-80v200h80q0 -69 33 -99.5t93 -30.5q47 0 73 18t26 48q0 24 -16 39t-40 22.5t-66 15.5q-55 12 -89.5 24t-59 40t-24.5 76q0 76 58 116.5
t148 40.5q74 0 123 -29v19h80v-180h-80q0 110 -105 110q-44 0 -69 -16.5t-25 -43.5q0 -29 26.5 -40.5zM462 787q-77 -79 -129 -176h-121q-52 97 -129 176l7 12q95 -35 182 -90q89 55 183 90z" />
    <glyph glyph-name="scedilla" unicode="&#x15f;" horiz-adv-x="535" 
d="M434 38q-51 -42 -137 -47l-33 -32q12 3 22 3q39 0 68 -29.5t29 -71.5q0 -44 -31.5 -73t-77.5 -29q-26 0 -51 10t-39 26l18 26q9 -8 21.5 -12.5t24.5 -4.5q23 0 37 15.5t14 40.5q0 26 -14.5 44t-35.5 18q-22 0 -39 -17l-3 2l-13 12l58 71q-76 5 -122 35v-25h-80v200h80
q0 -69 33 -99.5t93 -30.5q47 0 73 18t26 48q0 24 -16 39t-40 22.5t-66 15.5q-55 12 -89.5 24t-59 40t-24.5 76q0 76 58 116.5t148 40.5q74 0 123 -29v19h80v-180h-80q0 110 -105 110q-44 0 -69 -16.5t-25 -43.5q0 -29 26.5 -40.5t84.5 -22.5q59 -11 95 -23.5t62.5 -43
t26.5 -84.5q0 -76 -51 -118z" />
    <glyph glyph-name="scircumflex" unicode="&#x15d;" horiz-adv-x="535" 
d="M50 0zM216.5 329.5q26.5 -11.5 84.5 -22.5q59 -11 95 -23.5t62.5 -43t26.5 -84.5q0 -82 -59 -124t-155 -42q-87 0 -141 35v-25h-80v200h80q0 -69 33 -99.5t93 -30.5q47 0 73 18t26 48q0 24 -16 39t-40 22.5t-66 15.5q-55 12 -89.5 24t-59 40t-24.5 76q0 76 58 116.5
t148 40.5q74 0 123 -29v19h80v-180h-80q0 110 -105 110q-44 0 -69 -16.5t-25 -43.5q0 -29 26.5 -40.5zM455 593q-94 35 -183 90q-87 -55 -182 -90l-7 12q77 79 129 176h121q52 -97 129 -176z" />
    <glyph glyph-name="scommaaccent" unicode="&#x219;" horiz-adv-x="535" 
d="M50 0zM216.5 329.5q26.5 -11.5 84.5 -22.5q59 -11 95 -23.5t62.5 -43t26.5 -84.5q0 -82 -59 -124t-155 -42q-87 0 -141 35v-25h-80v200h80q0 -69 33 -99.5t93 -30.5q47 0 73 18t26 48q0 24 -16 39t-40 22.5t-66 15.5q-55 12 -89.5 24t-59 40t-24.5 76q0 76 58 116.5
t148 40.5q74 0 123 -29v19h80v-180h-80q0 110 -105 110q-44 0 -69 -16.5t-25 -43.5q0 -29 26.5 -40.5zM338 -112q22 -27 22 -76q0 -58 -33 -100t-98 -64l-8 17q36 21 53 44.5t21 56.5q-14 -2 -21 -2q-32 0 -51.5 20.5t-19.5 54.5t20.5 55t53.5 21q39 0 61 -27z" />
    <glyph glyph-name="uni1E63" unicode="&#x1e63;" horiz-adv-x="535" 
d="M50 0zM216.5 329.5q26.5 -11.5 84.5 -22.5q59 -11 95 -23.5t62.5 -43t26.5 -84.5q0 -82 -59 -124t-155 -42q-87 0 -141 35v-25h-80v200h80q0 -69 33 -99.5t93 -30.5q47 0 73 18t26 48q0 24 -16 39t-40 22.5t-66 15.5q-55 12 -89.5 24t-59 40t-24.5 76q0 76 58 116.5
t148 40.5q74 0 123 -29v19h80v-180h-80q0 110 -105 110q-44 0 -69 -16.5t-25 -43.5q0 -29 26.5 -40.5zM202 -260q-25 25 -25 67q0 41 25 66t67 25q41 0 66 -25t25 -66q0 -42 -25 -67t-66 -25q-42 0 -67 25z" />
    <glyph glyph-name="germandbls" unicode="&#xdf;" horiz-adv-x="702" 
d="M629.5 323.5q32.5 -46.5 32.5 -116.5q0 -100 -62 -158.5t-170 -58.5q-61 0 -102 15v87q24 -12 59 -12q62 0 98.5 34.5t36.5 101.5t-44 100.5t-150 33.5v80q82 0 113 29t31 89q0 64 -26.5 98t-75.5 34q-89 0 -89 -118v-562h-241v80h111v340h-111v80h111v62q0 94 55.5 146
t162.5 52q112 0 177.5 -55.5t65.5 -149.5q0 -103 -82 -157q67 -28 99.5 -74.5z" />
    <glyph glyph-name="longs" unicode="&#x17f;" horiz-adv-x="496" 
d="M453 738.5q40 -21.5 59 -54t19 -68.5q0 -38 -19 -60t-52 -22q-31 0 -50.5 18t-19.5 48q0 36 28 53q-16 21 -48 21q-41 0 -65 -28t-24 -74v-492h110v-80h-351v80h111v340h-111v80h111v82q0 81 54.5 129.5t146.5 48.5q61 0 101 -21.5z" />
    <glyph glyph-name="uni0259" unicode="&#x259;" horiz-adv-x="565" 
d="M407 477.5q59 -32.5 91 -91.5t32 -138q0 -77 -31.5 -135.5t-89 -90.5t-133.5 -32q-107 0 -172.5 62t-68.5 170v51h356q-5 73 -40.5 115t-91.5 42q-37 0 -69 -19t-49 -56l-91 29q26 59 83.5 92.5t136.5 33.5q78 0 137 -32.5zM350.5 106q30.5 36 38.5 97h-222
q2 -61 31.5 -97t76.5 -36q45 0 75.5 36z" />
    <glyph glyph-name="t" unicode="t" horiz-adv-x="444" 
d="M266 420v-273q0 -40 11.5 -58.5t27.5 -18.5q11 0 19 11.5t8 37.5q0 17 -3 39h70q6 -36 6 -62q0 -55 -30.5 -80.5t-95.5 -25.5q-70 0 -108.5 34.5t-38.5 122.5v273h-107v80h107v200q85 0 134 10v-210h140v-80h-140z" />
    <glyph glyph-name="tbar" unicode="&#x167;" horiz-adv-x="444" 
d="M266 265v-118q0 -40 11.5 -58.5t27.5 -18.5q11 0 19 11.5t8 37.5q0 17 -3 39h70q6 -36 6 -62q0 -55 -30.5 -80.5t-95.5 -25.5q-70 0 -108.5 34.5t-38.5 122.5v118h-106v70h106v85h-107v80h107v200q85 0 134 10v-210h140v-80h-140v-85h146v-70h-146z" />
    <glyph glyph-name="tcaron" unicode="&#x165;" horiz-adv-x="444" 
d="M25 0zM266 420v-273q0 -40 11.5 -58.5t27.5 -18.5q11 0 19 11.5t8 37.5q0 17 -3 39h70q6 -36 6 -62q0 -55 -30.5 -80.5t-95.5 -25.5q-70 0 -108.5 34.5t-38.5 122.5v273h-107v80h107v200q85 0 134 10v-210h140v-80h-140zM329 784q1 33 19 50.5t44 17.5q25 0 45 -16.5
t20 -42.5q0 -19 -12 -40l-109 -203l-13 4z" />
    <glyph glyph-name="uni0163" unicode="&#x163;" horiz-adv-x="444" 
d="M266 420v-273q0 -40 11.5 -58.5t27.5 -18.5q11 0 19 11.5t8 37.5q0 17 -3 39h70q6 -36 6 -62q0 -52 -26.5 -77.5t-83.5 -28.5l-33 -31q12 3 22 3q39 0 68 -29.5t29 -71.5q0 -44 -31.5 -73t-77.5 -29q-26 0 -51 10t-39 26l18 26q9 -8 21.5 -12.5t24.5 -4.5q23 0 37 15.5
t14 40.5q0 26 -14.5 44t-35.5 18q-22 0 -39 -17l-3 2l-13 12l58 72q-57 6 -87.5 42t-30.5 114v273h-107v80h107v200q85 0 134 10v-210h140v-80h-140z" />
    <glyph glyph-name="uni021B" unicode="&#x21b;" horiz-adv-x="444" 
d="M25 0zM266 420v-273q0 -40 11.5 -58.5t27.5 -18.5q11 0 19 11.5t8 37.5q0 17 -3 39h70q6 -36 6 -62q0 -55 -30.5 -80.5t-95.5 -25.5q-70 0 -108.5 34.5t-38.5 122.5v273h-107v80h107v200q85 0 134 10v-210h140v-80h-140zM336 -112q22 -27 22 -76q0 -58 -33 -100t-98 -64
l-8 17q36 21 53 44.5t21 56.5q-14 -2 -21 -2q-32 0 -51.5 20.5t-19.5 54.5t20.5 55t53.5 21q39 0 61 -27z" />
    <glyph glyph-name="uni1E97" unicode="&#x1e97;" horiz-adv-x="444" 
d="M29.5 797q-22.5 23 -22.5 61t22.5 60.5t60.5 22.5t60.5 -22.5t22.5 -60.5t-22.5 -61t-60.5 -23t-60.5 23zM267.5 797q-22.5 23 -22.5 61t22.5 60.5t60.5 22.5t60.5 -22.5t22.5 -60.5t-22.5 -61t-60.5 -23t-60.5 23zM266 500h140v-80h-140v-273q0 -40 11.5 -58.5
t27.5 -18.5q11 0 19 11.5t8 37.5q0 17 -3 39h70q6 -36 6 -62q0 -55 -30.5 -80.5t-95.5 -25.5q-70 0 -108.5 34.5t-38.5 122.5v273h-107v80h107v200q85 0 134 10v-210z" />
    <glyph glyph-name="uni1E6D" unicode="&#x1e6d;" horiz-adv-x="444" 
d="M25 0zM266 420v-273q0 -40 11.5 -58.5t27.5 -18.5q11 0 19 11.5t8 37.5q0 17 -3 39h70q6 -36 6 -62q0 -55 -30.5 -80.5t-95.5 -25.5q-70 0 -108.5 34.5t-38.5 122.5v273h-107v80h107v200q85 0 134 10v-210h140v-80h-140zM200 -260q-25 25 -25 67q0 41 25 66t67 25
q41 0 66 -25t25 -66q0 -42 -25 -67t-66 -25q-42 0 -67 25z" />
    <glyph glyph-name="uni1E6F" unicode="&#x1e6f;" horiz-adv-x="444" 
d="M25 0zM266 420v-273q0 -40 11.5 -58.5t27.5 -18.5q11 0 19 11.5t8 37.5q0 17 -3 39h70q6 -36 6 -62q0 -55 -30.5 -80.5t-95.5 -25.5q-70 0 -108.5 34.5t-38.5 122.5v273h-107v80h107v200q85 0 134 10v-210h140v-80h-140zM83 -142h375v-80h-375v80z" />
    <glyph glyph-name="u" unicode="u" horiz-adv-x="724" 
d="M699 80v-80h-241v96q-28 -51 -71 -78.5t-96 -27.5q-79 0 -117 63t-38 197v170h-111v80h241v-250q0 -93 19.5 -136.5t60.5 -43.5q31 0 57 25t40.5 71t14.5 106v148h-111v80h241v-420h111z" />
    <glyph glyph-name="uacute" unicode="&#xfa;" horiz-adv-x="724" 
d="M25 0zM699 80v-80h-241v96q-28 -51 -71 -78.5t-96 -27.5q-79 0 -117 63t-38 197v170h-111v80h241v-250q0 -93 19.5 -136.5t60.5 -43.5q31 0 57 25t40.5 71t14.5 106v148h-111v80h241v-420h111zM408 777q24 32 55 32q29 0 50 -24q15 -18 15 -42q0 -38 -42 -58l-206 -104
l-9 11z" />
    <glyph glyph-name="ubreve" unicode="&#x16d;" horiz-adv-x="724" 
d="M25 0zM699 80v-80h-241v96q-28 -51 -71 -78.5t-96 -27.5q-79 0 -117 63t-38 197v170h-111v80h241v-250q0 -93 19.5 -136.5t60.5 -43.5q31 0 57 25t40.5 71t14.5 106v148h-111v80h241v-420h111zM187 772h50q0 -76 104 -76q103 0 103 76h50q0 -164 -153 -164
q-154 0 -154 164z" />
    <glyph glyph-name="uni01D4" unicode="&#x1d4;" horiz-adv-x="724" 
d="M25 0zM699 80v-80h-241v96q-28 -51 -71 -78.5t-96 -27.5q-79 0 -117 63t-38 197v170h-111v80h241v-250q0 -93 19.5 -136.5t60.5 -43.5q31 0 57 25t40.5 71t14.5 106v148h-111v80h241v-420h111zM531 787q-77 -79 -129 -176h-121q-52 97 -129 176l7 12q95 -35 182 -90
q89 55 183 90z" />
    <glyph glyph-name="ucircumflex" unicode="&#xfb;" horiz-adv-x="724" 
d="M25 0zM699 80v-80h-241v96q-28 -51 -71 -78.5t-96 -27.5q-79 0 -117 63t-38 197v170h-111v80h241v-250q0 -93 19.5 -136.5t60.5 -43.5q31 0 57 25t40.5 71t14.5 106v148h-111v80h241v-420h111zM524 593q-94 35 -183 90q-87 -55 -182 -90l-7 12q77 79 129 176h121
q52 -97 129 -176z" />
    <glyph glyph-name="uni0215" unicode="&#x215;" horiz-adv-x="724" 
d="M58 758q0 15 7.5 29t19.5 22q19 13 40 13q19 0 35 -12t25 -36l84 -214l-11 -8l-173 154q-27 24 -27 52zM247 758q0 15 7.5 29t19.5 22q19 13 40 13q19 0 35 -12t25 -36l84 -214l-11 -8l-173 154q-27 24 -27 52zM699 80v-80h-241v96q-28 -51 -71 -78.5t-96 -27.5
q-79 0 -117 63t-38 197v170h-111v80h241v-250q0 -93 19.5 -136.5t60.5 -43.5q31 0 57 25t40.5 71t14.5 106v148h-111v80h241v-420h111z" />
    <glyph glyph-name="udieresis" unicode="&#xfc;" horiz-adv-x="724" 
d="M25 0zM699 80v-80h-241v96q-28 -51 -71 -78.5t-96 -27.5q-79 0 -117 63t-38 197v170h-111v80h241v-250q0 -93 19.5 -136.5t60.5 -43.5q31 0 57 25t40.5 71t14.5 106v148h-111v80h241v-420h111zM396 605q-25 25 -25 67q0 41 25 66t67 25q41 0 66 -25t25 -66q0 -42 -25 -67
t-66 -25q-42 0 -67 25zM154 605q-25 25 -25 67q0 41 25 66t67 25q41 0 66 -25t25 -66q0 -42 -25 -67t-66 -25q-42 0 -67 25z" />
    <glyph glyph-name="uni01D8" unicode="&#x1d8;" horiz-adv-x="724" 
d="M25 0zM699 80v-80h-241v96q-28 -51 -71 -78.5t-96 -27.5q-79 0 -117 63t-38 197v170h-111v80h241v-250q0 -93 19.5 -136.5t60.5 -43.5q31 0 57 25t40.5 71t14.5 106v148h-111v80h241v-420h111zM396 605q-25 25 -25 67q0 41 25 66t67 25q41 0 66 -25t25 -66q0 -42 -25 -67
t-66 -25q-42 0 -67 25zM154 605q-25 25 -25 67q0 41 25 66t67 25q41 0 66 -25t25 -66q0 -42 -25 -67t-66 -25q-42 0 -67 25zM408 990q24 32 55 32q29 0 50 -24q15 -18 15 -42q0 -38 -42 -58l-206 -104l-9 11z" />
    <glyph glyph-name="uni01DA" unicode="&#x1da;" horiz-adv-x="724" 
d="M25 0zM699 80v-80h-241v96q-28 -51 -71 -78.5t-96 -27.5q-79 0 -117 63t-38 197v170h-111v80h241v-250q0 -93 19.5 -136.5t60.5 -43.5q31 0 57 25t40.5 71t14.5 106v148h-111v80h241v-420h111zM396 605q-25 25 -25 67q0 41 25 66t67 25q41 0 66 -25t25 -66q0 -42 -25 -67
t-66 -25q-42 0 -67 25zM154 605q-25 25 -25 67q0 41 25 66t67 25q41 0 66 -25t25 -66q0 -42 -25 -67t-66 -25q-42 0 -67 25zM531 1000q-77 -79 -129 -176h-121q-52 97 -129 176l7 12q95 -35 182 -90q89 55 183 90z" />
    <glyph glyph-name="uni01DC" unicode="&#x1dc;" horiz-adv-x="724" 
d="M25 0zM699 80v-80h-241v96q-28 -51 -71 -78.5t-96 -27.5q-79 0 -117 63t-38 197v170h-111v80h241v-250q0 -93 19.5 -136.5t60.5 -43.5q31 0 57 25t40.5 71t14.5 106v148h-111v80h241v-420h111zM396 605q-25 25 -25 67q0 41 25 66t67 25q41 0 66 -25t25 -66q0 -42 -25 -67
t-66 -25q-42 0 -67 25zM154 605q-25 25 -25 67q0 41 25 66t67 25q41 0 66 -25t25 -66q0 -42 -25 -67t-66 -25q-42 0 -67 25zM402 794l-206 104q-42 20 -42 58q0 24 15 42q21 24 50 24q31 0 55 -32l137 -185z" />
    <glyph glyph-name="uni01D6" unicode="&#x1d6;" horiz-adv-x="724" 
d="M25 0zM699 80v-80h-241v96q-28 -51 -71 -78.5t-96 -27.5q-79 0 -117 63t-38 197v170h-111v80h241v-250q0 -93 19.5 -136.5t60.5 -43.5q31 0 57 25t40.5 71t14.5 106v148h-111v80h241v-420h111zM396 605q-25 25 -25 67q0 41 25 66t67 25q41 0 66 -25t25 -66q0 -42 -25 -67
t-66 -25q-42 0 -67 25zM154 605q-25 25 -25 67q0 41 25 66t67 25q41 0 66 -25t25 -66q0 -42 -25 -67t-66 -25q-42 0 -67 25zM153 921h375v-80h-375v80z" />
    <glyph glyph-name="uni1EE5" unicode="&#x1ee5;" horiz-adv-x="724" 
d="M25 0zM699 80v-80h-241v96q-28 -51 -71 -78.5t-96 -27.5q-79 0 -117 63t-38 197v170h-111v80h241v-250q0 -93 19.5 -136.5t60.5 -43.5q31 0 57 25t40.5 71t14.5 106v148h-111v80h241v-420h111zM299 -260q-25 25 -25 67q0 41 25 66t67 25q41 0 66 -25t25 -66
q0 -42 -25 -67t-66 -25q-42 0 -67 25z" />
    <glyph glyph-name="ugrave" unicode="&#xf9;" horiz-adv-x="724" 
d="M25 0zM699 80v-80h-241v96q-28 -51 -71 -78.5t-96 -27.5q-79 0 -117 63t-38 197v170h-111v80h241v-250q0 -93 19.5 -136.5t60.5 -43.5q31 0 57 25t40.5 71t14.5 106v148h-111v80h241v-420h111zM402 581l-206 104q-42 20 -42 58q0 24 15 42q21 24 50 24q31 0 55 -32
l137 -185z" />
    <glyph glyph-name="uni1EE7" unicode="&#x1ee7;" horiz-adv-x="724" 
d="M25 0zM699 80v-80h-241v96q-28 -51 -71 -78.5t-96 -27.5q-79 0 -117 63t-38 197v170h-111v80h241v-250q0 -93 19.5 -136.5t60.5 -43.5q31 0 57 25t40.5 71t14.5 106v148h-111v80h241v-420h111zM319 640q0 20 8.5 33t25.5 29q16 17 23.5 28.5t7.5 28.5q0 21 -12 34t-32 13
q-22 0 -36 -15.5t-14 -38.5q0 -20 13 -39l-20 -20q-26 17 -37.5 35.5t-11.5 42.5q0 42 33.5 67.5t88.5 25.5q57 0 91.5 -28t34.5 -77q0 -33 -15 -48.5t-45 -29.5q-31 -13 -48 -29.5t-20 -51.5h-28q-7 21 -7 40z" />
    <glyph glyph-name="uhorn" unicode="&#x1b0;" horiz-adv-x="724" 
d="M588 80h111v-80h-241v96q-28 -51 -71 -78.5t-96 -27.5q-79 0 -117 63t-38 197v170h-111v80h241v-250q0 -93 19.5 -136.5t60.5 -43.5q31 0 57 25t40.5 71t14.5 106v148h-111v80h241q40 8 57 34t20 67q-12 -2 -18 -2q-33 0 -53 20.5t-20 54.5t20 54.5t54 20.5
q37 0 59 -27.5t22 -79.5q0 -64 -34.5 -111.5t-106.5 -55.5v-395z" />
    <glyph glyph-name="uni1EE9" unicode="&#x1ee9;" horiz-adv-x="724" 
d="M25 0zM588 80h111v-80h-241v96q-28 -51 -71 -78.5t-96 -27.5q-79 0 -117 63t-38 197v170h-111v80h241v-250q0 -93 19.5 -136.5t60.5 -43.5q31 0 57 25t40.5 71t14.5 106v148h-111v80h241q40 8 57 34t20 67q-12 -2 -18 -2q-33 0 -53 20.5t-20 54.5t20 54.5t54 20.5
q37 0 59 -27.5t22 -79.5q0 -64 -34.5 -111.5t-106.5 -55.5v-395zM408 777q24 32 55 32q29 0 50 -24q15 -18 15 -42q0 -38 -42 -58l-206 -104l-9 11z" />
    <glyph glyph-name="uni1EF1" unicode="&#x1ef1;" horiz-adv-x="724" 
d="M25 0zM588 80h111v-80h-241v96q-28 -51 -71 -78.5t-96 -27.5q-79 0 -117 63t-38 197v170h-111v80h241v-250q0 -93 19.5 -136.5t60.5 -43.5q31 0 57 25t40.5 71t14.5 106v148h-111v80h241q40 8 57 34t20 67q-12 -2 -18 -2q-33 0 -53 20.5t-20 54.5t20 54.5t54 20.5
q37 0 59 -27.5t22 -79.5q0 -64 -34.5 -111.5t-106.5 -55.5v-395zM299 -260q-25 25 -25 67q0 41 25 66t67 25q41 0 66 -25t25 -66q0 -42 -25 -67t-66 -25q-42 0 -67 25z" />
    <glyph glyph-name="uni1EEB" unicode="&#x1eeb;" horiz-adv-x="724" 
d="M25 0zM588 80h111v-80h-241v96q-28 -51 -71 -78.5t-96 -27.5q-79 0 -117 63t-38 197v170h-111v80h241v-250q0 -93 19.5 -136.5t60.5 -43.5q31 0 57 25t40.5 71t14.5 106v148h-111v80h241q40 8 57 34t20 67q-12 -2 -18 -2q-33 0 -53 20.5t-20 54.5t20 54.5t54 20.5
q37 0 59 -27.5t22 -79.5q0 -64 -34.5 -111.5t-106.5 -55.5v-395zM402 581l-206 104q-42 20 -42 58q0 24 15 42q21 24 50 24q31 0 55 -32l137 -185z" />
    <glyph glyph-name="uni1EED" unicode="&#x1eed;" horiz-adv-x="724" 
d="M25 0zM588 80h111v-80h-241v96q-28 -51 -71 -78.5t-96 -27.5q-79 0 -117 63t-38 197v170h-111v80h241v-250q0 -93 19.5 -136.5t60.5 -43.5q31 0 57 25t40.5 71t14.5 106v148h-111v80h241q40 8 57 34t20 67q-12 -2 -18 -2q-33 0 -53 20.5t-20 54.5t20 54.5t54 20.5
q37 0 59 -27.5t22 -79.5q0 -64 -34.5 -111.5t-106.5 -55.5v-395zM319 640q0 20 8.5 33t25.5 29q16 17 23.5 28.5t7.5 28.5q0 21 -12 34t-32 13q-22 0 -36 -15.5t-14 -38.5q0 -20 13 -39l-20 -20q-26 17 -37.5 35.5t-11.5 42.5q0 42 33.5 67.5t88.5 25.5q57 0 91.5 -28
t34.5 -77q0 -33 -15 -48.5t-45 -29.5q-31 -13 -48 -29.5t-20 -51.5h-28q-7 21 -7 40z" />
    <glyph glyph-name="uni1EEF" unicode="&#x1eef;" horiz-adv-x="724" 
d="M25 0zM588 80h111v-80h-241v96q-28 -51 -71 -78.5t-96 -27.5q-79 0 -117 63t-38 197v170h-111v80h241v-250q0 -93 19.5 -136.5t60.5 -43.5q31 0 57 25t40.5 71t14.5 106v148h-111v80h241q40 8 57 34t20 67q-12 -2 -18 -2q-33 0 -53 20.5t-20 54.5t20 54.5t54 20.5
q37 0 59 -27.5t22 -79.5q0 -64 -34.5 -111.5t-106.5 -55.5v-395zM163 610q15 51 30.5 78t35.5 37.5t51 10.5q27 0 46 -5.5t41 -15.5q17 -8 28.5 -11.5t24.5 -3.5q25 0 44 15t29 42l26 -10q-15 -51 -30.5 -78t-36 -37.5t-53.5 -10.5q-27 0 -44 5.5t-36 15.5q-14 8 -25 11.5
t-26 3.5q-29 0 -49.5 -15t-29.5 -42z" />
    <glyph glyph-name="uhungarumlaut" unicode="&#x171;" horiz-adv-x="724" 
d="M210 552l-11 8l84 214q9 24 25 36t35 12q20 0 40 -13q12 -8 19.5 -22t7.5 -29q0 -28 -27 -52zM388 560l84 214q9 24 25 36t35 12q20 0 40 -13q12 -8 19.5 -22t7.5 -29q0 -28 -27 -52l-173 -154zM699 80v-80h-241v96q-28 -51 -71 -78.5t-96 -27.5q-79 0 -117 63t-38 197
v170h-111v80h241v-250q0 -93 19.5 -136.5t60.5 -43.5q31 0 57 25t40.5 71t14.5 106v148h-111v80h241v-420h111z" />
    <glyph glyph-name="uni0217" unicode="&#x217;" horiz-adv-x="724" 
d="M25 0zM699 80v-80h-241v96q-28 -51 -71 -78.5t-96 -27.5q-79 0 -117 63t-38 197v170h-111v80h241v-250q0 -93 19.5 -136.5t60.5 -43.5q31 0 57 25t40.5 71t14.5 106v148h-111v80h241v-420h111zM495 598h-50q0 76 -103 76q-104 0 -104 -76h-50q0 164 154 164
q153 0 153 -164z" />
    <glyph glyph-name="umacron" unicode="&#x16b;" horiz-adv-x="724" 
d="M25 0zM699 80v-80h-241v96q-28 -51 -71 -78.5t-96 -27.5q-79 0 -117 63t-38 197v170h-111v80h241v-250q0 -93 19.5 -136.5t60.5 -43.5q31 0 57 25t40.5 71t14.5 106v148h-111v80h241v-420h111zM153 708h375v-80h-375v80z" />
    <glyph glyph-name="uogonek" unicode="&#x173;" horiz-adv-x="724" 
d="M719 -167l-4 -48q-28 -18 -71 -18q-63 0 -105.5 33t-42.5 86q0 73 86 114h-124v96q-28 -51 -71 -78.5t-96 -27.5q-79 0 -117 63t-38 197v170h-111v80h241v-250q0 -93 19.5 -136.5t60.5 -43.5q31 0 57 25t40.5 71t14.5 106v148h-111v80h241v-420h111v-80h-21
q-38 -19 -61 -43.5t-23 -62.5q0 -33 19.5 -53t57.5 -20q26 0 48 12z" />
    <glyph glyph-name="uring" unicode="&#x16f;" horiz-adv-x="724" 
d="M25 0zM699 80v-80h-241v96q-28 -51 -71 -78.5t-96 -27.5q-79 0 -117 63t-38 197v170h-111v80h241v-250q0 -93 19.5 -136.5t60.5 -43.5q31 0 57 25t40.5 71t14.5 106v148h-111v80h241v-420h111zM269 607.5q-30 28.5 -30 68.5t30 68t72 28q41 0 71 -28t30 -68t-29.5 -68.5
t-71.5 -28.5t-72 28.5zM370 643q12 14 12 33t-12 32.5t-29 13.5t-29.5 -13.5t-12.5 -32.5t12.5 -33t29.5 -14t29 14z" />
    <glyph glyph-name="utilde" unicode="&#x169;" horiz-adv-x="724" 
d="M25 0zM699 80v-80h-241v96q-28 -51 -71 -78.5t-96 -27.5q-79 0 -117 63t-38 197v170h-111v80h241v-250q0 -93 19.5 -136.5t60.5 -43.5q31 0 57 25t40.5 71t14.5 106v148h-111v80h241v-420h111zM163 610q15 51 30.5 78t35.5 37.5t51 10.5q27 0 46 -5.5t41 -15.5
q17 -8 28.5 -11.5t24.5 -3.5q25 0 44 15t29 42l26 -10q-15 -51 -30.5 -78t-36 -37.5t-53.5 -10.5q-27 0 -44 5.5t-36 15.5q-14 8 -25 11.5t-26 3.5q-29 0 -49.5 -15t-29.5 -42z" />
    <glyph glyph-name="v" unicode="v" horiz-adv-x="628" 
d="M643 420h-97l-170 -420h-124l-171 420h-96v80h322v-80h-86l111 -281l112 281h-87v80h286v-80z" />
    <glyph glyph-name="w" unicode="w" horiz-adv-x="970" 
d="M985 420h-96l-161 -420h-126l-109 264l-115 -264h-126l-171 420h-96v80h318v-80h-86l115 -292l110 259l-14 33h-87v80h299v-80h-77l116 -286l109 286h-89v80h286v-80z" />
    <glyph glyph-name="wacute" unicode="&#x1e83;" horiz-adv-x="970" 
d="M0 0zM985 420h-96l-161 -420h-126l-109 264l-115 -264h-126l-171 420h-96v80h318v-80h-86l115 -292l110 259l-14 33h-87v80h299v-80h-77l116 -286l109 286h-89v80h286v-80zM550 777q24 32 55 32q29 0 50 -24q15 -18 15 -42q0 -38 -42 -58l-206 -104l-9 11z" />
    <glyph glyph-name="wcircumflex" unicode="&#x175;" horiz-adv-x="970" 
d="M0 0zM985 420h-96l-161 -420h-126l-109 264l-115 -264h-126l-171 420h-96v80h318v-80h-86l115 -292l110 259l-14 33h-87v80h299v-80h-77l116 -286l109 286h-89v80h286v-80zM666 593q-94 35 -183 90q-87 -55 -182 -90l-7 12q77 79 129 176h121q52 -97 129 -176z" />
    <glyph glyph-name="wdieresis" unicode="&#x1e85;" horiz-adv-x="970" 
d="M0 0zM985 420h-96l-161 -420h-126l-109 264l-115 -264h-126l-171 420h-96v80h318v-80h-86l115 -292l110 259l-14 33h-87v80h299v-80h-77l116 -286l109 286h-89v80h286v-80zM538 605q-25 25 -25 67q0 41 25 66t67 25q41 0 66 -25t25 -66q0 -42 -25 -67t-66 -25
q-42 0 -67 25zM296 605q-25 25 -25 67q0 41 25 66t67 25q41 0 66 -25t25 -66q0 -42 -25 -67t-66 -25q-42 0 -67 25z" />
    <glyph glyph-name="wgrave" unicode="&#x1e81;" horiz-adv-x="970" 
d="M0 0zM985 420h-96l-161 -420h-126l-109 264l-115 -264h-126l-171 420h-96v80h318v-80h-86l115 -292l110 259l-14 33h-87v80h299v-80h-77l116 -286l109 286h-89v80h286v-80zM544 581l-206 104q-42 20 -42 58q0 24 15 42q21 24 50 24q31 0 55 -32l137 -185z" />
    <glyph glyph-name="x" unicode="x" horiz-adv-x="683" 
d="M421 254l148 -174h89v-80h-306v80h60l-86 103l-92 -103h47v-80h-256v80h87l156 172l-140 168h-91v80h304v-80h-61l83 -97l87 97h-47v80h255v-80h-87z" />
    <glyph glyph-name="y" unicode="y" horiz-adv-x="628" 
d="M643 420h-97l-217 -537q-32 -78 -67 -110.5t-95 -32.5q-55 0 -88.5 22.5t-47.5 55t-14 65.5q0 42 22 66.5t60 24.5q34 0 54.5 -19.5t20.5 -51.5q0 -22 -11 -39t-29 -26q10 -16 35 -16q18 0 30 9.5t22 30t28 64.5l17 43l-184 451h-97v80h318v-80h-88l115 -290l116 290h-89
v80h286v-80z" />
    <glyph glyph-name="yacute" unicode="&#xfd;" horiz-adv-x="628" 
d="M0 0zM643 420h-97l-217 -537q-32 -78 -67 -110.5t-95 -32.5q-55 0 -88.5 22.5t-47.5 55t-14 65.5q0 42 22 66.5t60 24.5q34 0 54.5 -19.5t20.5 -51.5q0 -22 -11 -39t-29 -26q10 -16 35 -16q18 0 30 9.5t22 30t28 64.5l17 43l-184 451h-97v80h318v-80h-88l115 -290
l116 290h-89v80h286v-80zM379 777q24 32 55 32q29 0 50 -24q15 -18 15 -42q0 -38 -42 -58l-206 -104l-9 11z" />
    <glyph glyph-name="ycircumflex" unicode="&#x177;" horiz-adv-x="628" 
d="M0 0zM643 420h-97l-217 -537q-32 -78 -67 -110.5t-95 -32.5q-55 0 -88.5 22.5t-47.5 55t-14 65.5q0 42 22 66.5t60 24.5q34 0 54.5 -19.5t20.5 -51.5q0 -22 -11 -39t-29 -26q10 -16 35 -16q18 0 30 9.5t22 30t28 64.5l17 43l-184 451h-97v80h318v-80h-88l115 -290
l116 290h-89v80h286v-80zM495 593q-94 35 -183 90q-87 -55 -182 -90l-7 12q77 79 129 176h121q52 -97 129 -176z" />
    <glyph glyph-name="ydieresis" unicode="&#xff;" horiz-adv-x="628" 
d="M0 0zM643 420h-97l-217 -537q-32 -78 -67 -110.5t-95 -32.5q-55 0 -88.5 22.5t-47.5 55t-14 65.5q0 42 22 66.5t60 24.5q34 0 54.5 -19.5t20.5 -51.5q0 -22 -11 -39t-29 -26q10 -16 35 -16q18 0 30 9.5t22 30t28 64.5l17 43l-184 451h-97v80h318v-80h-88l115 -290
l116 290h-89v80h286v-80zM367 605q-25 25 -25 67q0 41 25 66t67 25q41 0 66 -25t25 -66q0 -42 -25 -67t-66 -25q-42 0 -67 25zM125 605q-25 25 -25 67q0 41 25 66t67 25q41 0 66 -25t25 -66q0 -42 -25 -67t-66 -25q-42 0 -67 25z" />
    <glyph glyph-name="uni1EF5" unicode="&#x1ef5;" horiz-adv-x="628" 
d="M0 0zM643 420h-97l-217 -537q-32 -78 -67 -110.5t-95 -32.5q-55 0 -88.5 22.5t-47.5 55t-14 65.5q0 42 22 66.5t60 24.5q34 0 54.5 -19.5t20.5 -51.5q0 -22 -11 -39t-29 -26q10 -16 35 -16q18 0 30 9.5t22 30t28 64.5l17 43l-184 451h-97v80h318v-80h-88l115 -290
l116 290h-89v80h286v-80zM422 -200q-25 25 -25 67q0 41 25 66t67 25q41 0 66 -25t25 -66q0 -42 -25 -67t-66 -25q-42 0 -67 25z" />
    <glyph glyph-name="ygrave" unicode="&#x1ef3;" horiz-adv-x="628" 
d="M0 0zM643 420h-97l-217 -537q-32 -78 -67 -110.5t-95 -32.5q-55 0 -88.5 22.5t-47.5 55t-14 65.5q0 42 22 66.5t60 24.5q34 0 54.5 -19.5t20.5 -51.5q0 -22 -11 -39t-29 -26q10 -16 35 -16q18 0 30 9.5t22 30t28 64.5l17 43l-184 451h-97v80h318v-80h-88l115 -290
l116 290h-89v80h286v-80zM373 581l-206 104q-42 20 -42 58q0 24 15 42q21 24 50 24q31 0 55 -32l137 -185z" />
    </font>
</defs>
</svg>
