<?xml version="1.0" standalone="no"?>
<!DOCTYPE svg PUBLIC "-//W3C//DTD SVG 1.1//EN" "http://www.w3.org/Graphics/SVG/1.1/DTD/svg11.dtd" >
<svg xmlns="http://www.w3.org/2000/svg" xmlns:xlink="http://www.w3.org/1999/xlink" version="1.1">
<metadata>
Created by FontForge 20161116 at (null) By Jimmy Warting
UrsaSerifEngraved (c)1993 Jim Pearson
</metadata>
<defs>
<font id="UrsaSerifEngraved" horiz-adv-x="556" >
  <font-face 
    font-family="Ursa"
    font-weight="400"
    font-stretch="normal"
    units-per-em="1000"
    panose-1="0 0 4 0 0 0 0 0 0 0"
    ascent="800"
    descent="-200"
    x-height="498"
    cap-height="804"
    bbox="-27.25 -201 1306 1034"
    underline-thickness="20"
    underline-position="-143"
    unicode-range="U+0020-F002"
  />
<missing-glyph horiz-adv-x="500" 
d="M63 0v800h375v-800h-375zM125 63h250v675h-250v-675z" />
    <glyph glyph-name=".notdef" horiz-adv-x="500" 
d="M63 0v800h375v-800h-375zM125 63h250v675h-250v-675z" />
    <glyph glyph-name=".null" horiz-adv-x="0" 
 />
    <glyph glyph-name="nonmarkingreturn" horiz-adv-x="250" 
 />
    <glyph glyph-name="space" unicode=" " horiz-adv-x="250" 
 />
    <glyph glyph-name="exclam" unicode="!" horiz-adv-x="215" 
d="M193 713q-16 -142 -29 -244q-30 -246 -35.5 -249t-25.5 -2q-20 0 -20 2l-45 484q-1 8 -1 16q0 63 84 68q64 4 72 -75zM187 78q0 -32 -23 -55t-55 -23t-55 23t-23 55t23 55t55 23t55 -23t23 -55zM105 255l-32 447q-3 30 22 47l-11 7q-24 -4 -29 -54l40 -447h10zM91 7v7
q-26 21 -24 63q2 40 15 53l2 11q-11 -3 -24 -25t-13 -40q0 -22 14 -43.5t30 -25.5z" />
    <glyph glyph-name="quotedbl" unicode="&#x22;" horiz-adv-x="275" 
d="M247 719q0 -22 -12 -41q-20 -67 -49 -140q-13 1 -25 3q-8 140 -8 180q0 78 60 78q28 0 33 -24q1 -4 1 -56zM118 719q0 -22 -12 -41q-20 -67 -49 -140q-13 1 -25 3q-8 140 -8 180q0 78 60 78q28 0 33 -24q1 -4 1 -56zM200 782l-1 4q-8 -3 -14 -9q-15 -12 -17 -31
q-7 -41 -1 -51l4 2q0 -4 5 27q9 47 24 58zM69 782l-1 4q-8 -3 -14 -9q-14 -12 -16 -31q-8 -41 -2 -51l4 2q0 -4 6 27q8 47 23 58z" />
    <glyph glyph-name="numbersign" unicode="#" horiz-adv-x="440" 
d="M421 508h-119v-119h-55v119h-64v-119h-55v119h-118v55h118v63h-118v55h118v118h55v-118h64v118h55v-118h119v-55h-119v-63h119v-55zM247 507v1v-1zM247 563v63h-64v-63h64z" />
    <glyph glyph-name="dollar" unicode="$" horiz-adv-x="575" 
d="M535 231q0 -43 -24 -92q-23 -45 -57 -75q-52 -46 -152 -55v-45h-75v44q-158 5 -197 25q-19 10 -21 26q0 -2 0 39v52q0 3 -1.5 19t-1.5 26q0 32 13 32q23 0 39 -62q9 -35 10 -38q6 -17 21 -32q28 -29 138 -47v302q-104 23 -153 73q-55 57 -56 161q-2 171 209 199v27h75
v-23q134 -6 167 -24q15 -8 15 -43v-88q0 -36 -18 -36q-16 0 -24 26q-11 34 -54 71t-86 50v-204h6q3 -1 5 -1q105 -10 169 -117q53 -90 53 -190zM443 704q-17 30 -81 30q18 -6 78 -69q2 4 6.5 8t4.5 8q0 7 -8 23zM227 554v188q-75 -19 -91 -79q-3 -11 -3 -22q0 -60 94 -87z
M398 67q57 63 57 132q0 70 -54 128q-50 54 -109 64q-238 40 -238 181q0 50 28 112l-12 7q-34 -68 -34 -124q0 -107 119 -163q35 -17 136 -40q43 -10 86 -52q56 -53 56 -118q0 -61 -51 -124zM411 158q1 10 1 20q0 113 -110 155v-285q41 11 71 40q34 31 38 70zM91 44
q-42 16 -67 66q2 -39 19 -60z" />
    <glyph glyph-name="percent" unicode="%" horiz-adv-x="819" 
d="M788 167q-18 -59 -67 -92q-45 -30 -103 -30q-79 0 -141 57t-62 137q0 27 8 53q17 57 66 88q45 29 102 29q111 0 168 -94q34 -56 34 -111q0 -20 -5 -37zM570 763l-278 -720h-68l251 649q-29 -15 -59 -30q-33 -16 -55 -21q20 -45 20 -85q0 -20 -5 -37q-18 -59 -67 -92
q-45 -30 -103 -30q-78 0 -139 56q-64 58 -64 138q0 27 8 53q17 57 66 89q45 29 102 29q105 0 163 -87q45 9 161 88h67zM712 179q8 33 8 69q0 82 -26 101q-10 7 -12 7t1 -4q17 -47 17 -101q0 -38 -10 -72q-19 -67 -68 -104l14 -4q18 11 31 26q34 35 45 82zM675 188
q11 39 11 76q0 44 -14 76q-13 29 -30 35q-8 3 -17 3q-29 0 -56 -37q-21 -29 -33 -69q-13 -44 -13 -92q0 -86 47 -102q9 -3 18 -3q54 0 87 113zM301 532q8 33 8 69q0 82 -26 101q-9 7 -12 7q-2 0 2 -4q16 -47 16 -101q0 -38 -9 -72q-20 -67 -69 -104l15 -4q17 11 31 26
q33 35 44 82zM263 541q11 39 11 76q0 44 -14 76q-13 29 -30 35q-8 3 -17 3q-29 0 -56 -37q-21 -29 -33 -69q-13 -44 -13 -93q0 -86 46 -102q9 -3 18 -3q55 0 88 114zM543 374v7l-16 -2q-25 -8 -46 -26q-29 -27 -40 -69q-8 -32 -8 -54q0 -40 41 -112l4 11q-28 52 -28 104
q0 93 93 141zM128 731v7q-7 -1 -15 -2q-26 -8 -46 -27q-29 -26 -40 -69q-9 -31 -9 -53q0 -41 42 -112l4 11q-28 51 -28 104q0 92 92 141z" />
    <glyph glyph-name="ampersand" unicode="&#x26;" horiz-adv-x="833" 
d="M783 133q6 -6 6 -14q0 -20 -44 -64q-47 -59 -118 -59q-48 0 -89 30q-24 17 -63 62q-114 -91 -222 -91q-81 0 -138 44q-67 51 -67 138q0 89 80 159q42 36 130 82q-52 91 -52 150q0 87 63 132q52 36 131 36q141 0 168 -127q3 -13 3 -26q0 -55 -39.5 -106.5t-85.5 -67.5
l121 -179q16 19 31 38q8 12 11 45q1 12 -15 24.5t-21.5 29t-5.5 26.5q0 7 18 26q15 15 44 15q32 0 49 -20q12 -14 12 -31q0 -9 -9 -44q-9 -38 -21 -57q-14 -22 -70 -86q38 -51 58 -69q30 -27 62 -27q24 0 47 44q9 -2 26 -13zM471 508q31 43 31 85q0 41 -27 77q-22 28 -47 39
l-6 -3q63 -48 63 -119q0 -39 -25 -77zM467 573q0 45 -24 85q-27 46 -67 46q-53 0 -53 -62q0 -59 74 -155q70 26 70 86zM623 412l-4 8q-32 -7 -32 -30q0 -19 25 -46l7 7q-19 16 -19 33t23 28zM619 16q-7 13 -43 45q-39 36 -51 51q-181 231 -264 409q-12 26 -12 65
q0 71 57 109l2 11q-80 -33 -80 -126q0 -39 15 -88q6 -19 130 -204.5t145 -208.5q47 -49 101 -63zM452 118q-67 92 -129 195l-30 50q-34 -2 -61 -22q-31 -23 -31 -55q0 -92 17 -128q33 -72 140 -72q53 0 94 32zM221 25q-120 65 -120 170q0 46 26 96l-7 11q-11 -11 -24 -39
q-19 -42 -19 -82q0 -78 72 -136q55 -31 65 -31z" />
    <glyph glyph-name="quotesingle" unicode="'" horiz-adv-x="148" 
d="M118 719q0 -22 -12 -41q-20 -67 -49 -140q-13 1 -25 3q-8 140 -8 180q0 78 60 78q28 0 33 -24q1 -4 1 -56zM69 782l-1 4q-8 -3 -14 -9q-14 -12 -16 -31q-8 -41 -2 -51l4 2q0 -4 6 27q8 47 23 58z" />
    <glyph glyph-name="parenleft" unicode="(" horiz-adv-x="420" 
d="M396 -110q3 -13 -30 -18q-194 0 -291 158q-77 124 -77 302q0 158 74 291q96 175 277 175q19 -6 19 -14q0 -9 -22 -14q-82 0 -137 -153q-45 -125 -45 -240q0 -141 32 -267q54 -208 173 -208q7 0 13 -2q12 -3 14 -10zM197 -62q-70 44 -113 179q-36 112 -36 217
q0 260 137 372l-10 8q-152 -126 -152 -380q0 -106 42 -221q48 -132 124 -181z" />
    <glyph glyph-name="parenright" unicode=")" horiz-adv-x="420" 
d="M371 332q0 -178 -77 -302q-97 -158 -291 -158q-33 5 -30 18q2 10 27 12q119 0 173 208q32 126 32 267q0 115 -45 240q-55 153 -137 153q-22 5 -22 14q0 8 19 14q181 0 278 -175q73 -133 73 -291zM252 337q0 128 -32 233q-38 123 -114 186l-10 -8q131 -107 131 -411
q0 -110 -33 -228q-41 -145 -110 -189l8 -6q74 49 121 192q39 120 39 231z" />
    <glyph glyph-name="asterisk" unicode="*" horiz-adv-x="324" 
d="M301 697q0 -6 -30 -35q-14 -13 -23 -13q-20 -4 -68 -26v-8q34 -13 83 -35q27 -18 27 -41q0 -10 -7 -20t-15 -10q-5 0 -37 20q-14 7 -19 21q-14 10 -45 41q5 -34 11 -85q3 -49 -35 -53q-17 -2 -22 13q-1 18 -3 36q-2 17 5 26q4 19 14 62q-2 -2 -60 -53q-21 -18 -39 -18
q-11 0 -21 9t-10 17q0 6 30 35q14 13 23 13q24 5 66 24v2q0 4 1 6q-35 14 -84 37q-27 18 -27 41q0 10 7 20t15 10q5 0 37 -20q14 -7 19 -21q14 -11 45 -42q-10 66 -11 84q-3 49 35 53q17 2 22 -13q1 -18 3 -36q2 -17 -5 -26q-4 -19 -14 -63q6 6 62 56q21 18 39 18
q11 0 21 -9t10 -17z" />
    <glyph glyph-name="plus" unicode="+" horiz-adv-x="440" 
d="M400 362h-163v-163h-75v163h-162v75h162v162h75v-162h163v-75z" />
    <glyph glyph-name="comma" unicode="," horiz-adv-x="221" 
d="M187 78q0 -22 -12 -41q-44 -83 -97 -172q-13 0 -25 3q3 3 30 60.5t27 68.5q0 3 -1 3q-32 0 -55 23t-23 55t23 55t55 23t55 -23t23 -55zM91 7v7q-26 21 -24 63q2 40 15 53l2 11q-11 -3 -24 -25t-13 -40q0 -22 14 -43.5t30 -25.5z" />
    <glyph glyph-name="hyphen" unicode="-" horiz-adv-x="440" 
d="M400 362h-400v75h400v-75z" />
    <glyph glyph-name="period" unicode="." horiz-adv-x="221" 
d="M187 78q0 -32 -23 -55t-55 -23t-55 23t-23 55t23 55t55 23t55 -23t23 -55zM91 7v7q-26 21 -24 63q2 40 15 53l2 11q-11 -3 -24 -25t-13 -40q0 -22 14 -43.5t30 -25.5z" />
    <glyph glyph-name="slash" unicode="/" horiz-adv-x="385" 
d="M356 740l-282 -740h-75l282 740h75z" />
    <glyph glyph-name="zero" unicode="0" horiz-adv-x="730" 
d="M711 369q0 -145 -100 -257.5t-230 -112.5q-194 0 -291 126q-77 99 -77 241q0 127 74 234q96 140 277 140q134 0 240.5 -112t106.5 -259zM600 343q0 235 -126 337l-8 -10q59 -48 88 -163q22 -84 22 -165q0 -66 -25 -149q-33 -107 -87 -149l7 -9q64 50 99 150q30 82 30 158
zM552 346q0 113 -38 215q-52 142 -153 142q-82 0 -137 -116q-45 -95 -45 -185q0 -106 36 -208q57 -159 177 -157q79 1 125 120q35 92 35 189zM222 48q-160 101 -160 316q0 104 40 182q38 71 118 137l-10 8l-48 -36q-51 -45 -82 -105q-43 -83 -43 -186q0 -130 63 -218
q38 -53 115 -103z" />
    <glyph glyph-name="one" unicode="1" horiz-adv-x="372" 
d="M343 25q3 -3 3 -7q0 -10 -15 -20q-30 0 -76.5 5.5t-72.5 5.5q-21 0 -157 -8q-11 -1 -18.5 6t-7.5 19q2 17 13 20.5t22 6.5q42 17 45 21q18 17 18 71v443q0 15 -8 15q-4 0 -30.5 -11t-49.5 -12q-13 0 -13 14q0 7 3.5 15.5t5.5 6t86.5 44t100.5 63.5q7 7 31 7q31 0 36 -9
q8 -13 8 -79v-471v-25q-1 -17 -1 -25q0 -62 41 -73q12 -3 36 -23zM145 126v431q0 61 -51 75l-2 -12q29 -19 29 -63v-431q0 -59 -61 -78l8 -8q77 22 77 86z" />
    <glyph glyph-name="two" unicode="2" horiz-adv-x="564" 
d="M498 563q0 -90 -120 -189l-136 -112q-41 -34 -37 -67q2 -20 46 -20h145q30 0 40 11q8 8 18 42q6 23 20 23q21 0 16 -56q-6 -44 -6 -69q0 -30 6 -82q2 -32 -3.5 -37.5t-34.5 -5.5h-411q-23 0 -26 1q-15 3 -15 19q0 15 33 60l157 216q112 154 112 239q0 58 -32 100t-81 42
q-87 0 -107 -86q-3 -10 13 -22t20 -25q4 -18 4 -28q0 -9 -15.5 -25t-44.5 -16q-33 0 -49 20q-12 14 -12 31q0 9 9 44q14 59 73 110q34 30 96 47q54 14 105 14q83 0 137 -36q80 -54 80 -143zM68 495q-45 34 -45 61v0q0 5 -1 5q-4 0 -4 -18q0 -20 9 -33q13 -18 41 -15z
M354 536q0 63 -32 108q-35 49 -90 49q-14 0 -14 -8q0 -7 12 -7q42 0 70.5 -43.5t28.5 -98.5q0 -81 -110 -232l-157 -216l-20 -24q-11 -15 -11 -29q0 -11 9 -11q10 0 10 13q0 8 11 20l18 18l158 215q117 159 117 246z" />
    <glyph glyph-name="three" unicode="3" horiz-adv-x="564" 
d="M510 273q0 -274 -385 -274q-42 0 -74 18q-38 22 -38 60q0 25 17.5 41t42.5 16q43 0 61 -17q6 -6 18 -34q9 -19 28 -22q16 -2 32 -2q56 0 94 28q41 32 45 91q6 91 -67 148q-40 31 -131 63v18q57 19 83 39q47 36 47 99q0 135 -85 135q-28 0 -34.5 -22t-12.5 -44
q-15 -26 -60 -32q-24 -3 -42 14t-18 43q0 99 230 99q81 0 131 -28q58 -34 58 -102q0 -53 -35 -93q-21 -23 -69 -54q79 -31 112 -60q52 -47 52 -128zM323 578q0 59 -45 97q-21 18 -42 25q-10 3 -13 -6q8 -2 16 -5q23 -14 40 -40q22 -36 23 -85q4 -24 -10.5 -64t-28.5 -49
l12 -3q-1 -2 -2 -3v0q50 55 50 133zM99 597q-45 35 -45 61v0q0 6 -1 6q-4 0 -4 -18q0 -21 9 -34q13 -17 41 -15zM392 174q10 160 -177 227q-4 1 -6 1v0q-9 0 -8 -7q0 -7 9 -10q49 -18 64 -29q29 -25 57 -51q41 -36 41 -109q0 -56 -30 -96q-35 -47 -101 -56q-13 -1 -13 -5
t11 -6q41 -6 90 29q59 41 63 112zM108 14l-38 28q-28 28 -23 64l-6 -12q-4 -12 -4 -22q0 -41 71 -58z" />
    <glyph glyph-name="four" unicode="4" horiz-adv-x="564" 
d="M574 25q3 -3 3 -7q0 -10 -15 -20q-31 0 -77.5 5.5t-71.5 5.5q-22 0 -157 -8q-11 -1 -19 6t-7 19q1 17 12.5 20.5t22.5 6.5q45 21 46 22q16 16 16 70q1 165 0 162h-323l-1 74l376 408l58 -48l-334 -359h224v191l92 93q21 -5 37 -10q38 -12 42 -19v-255h72v-75h-72v-136
q0 -52 5 -75q9 -39 35 -48q11 -3 36 -23zM382 737q4 4 4 9v0q0 7 -6 8q-6 2 -12 -4l-288 -315q-5 -5 -5 -10q0 -8 8 -8q5 0 10 5zM375 573q0 12 -12 12q-13 0 -13 -12v-433q0 -27 -12 -51q-14 -30 -39 -39q-8 -2 -8 -8q0 -8 10 -8q3 0 6 1q51 17 62 63q5 20 6 42v433z" />
    <glyph glyph-name="five" unicode="5" horiz-adv-x="564" 
d="M492 299q0 -132 -167 -239q-59 -38 -86 -47q-40 -14 -114 -14q-42 0 -74 18q-38 22 -38 60q0 25 17.5 41t42.5 16q43 0 61 -18q6 -6 18 -34q9 -19 28 -21q67 -6 106 35.5t39 132.5q0 88 -95 129q-34 15 -86 17q-44 2 -89 3q-40 3 -40 16q0 4 7 29l68 247q6 21 15 25
q3 2 32 5l281 33q11 0 11 -12q0 -4 -7 -33q-3 -11 -25 -55q-20 -40 -28 -52.5t-46 -12.5h-172q-23 0 -42.5 -33t-19.5 -64q0 -18 28 -19q23 -1 93 22t116 21q59 -3 112.5 -67.5t53.5 -128.5zM114 659q4 16 -5 16q-5 0 -7 -9l-67 -255q-4 -15 5 -15q5 0 7 9zM374 228
q0 50 -34 99.5t-75 63.5q-22 7 -46 7q-20 0 -29 -4q-10 -5 6 -6q60 -3 106 -47q48 -47 48 -114q0 -79 -44 -133q-41 -49 -87 -45q-11 2 -11 -3q0 -6 13 -7q49 -5 99 49q54 60 54 140zM101 14v3q-21 11 -35 25q-23 23 -24 53q0 3 -4.5 -7t-4.5 -20q0 -43 68 -54z" />
    <glyph glyph-name="six" unicode="6" horiz-adv-x="564" 
d="M560 237q0 -101 -83.5 -176.5t-184.5 -75.5q-117 0 -196.5 84t-79.5 197q0 86 50 182q46 88 116 153q64 60 148 100q102 49 159 49q25 0 25 -18q0 -11 -36 -22q-75 -22 -121 -52q-52 -34 -94 -94q-62 -88 -76 -199q29 16 65 37q43 27 96 27q89 0 150.5 -55t61.5 -137z
M416 77q27 49 27 107q0 60 -26 114q-24 49 -56 66q-6 3 -9 3q-8 0 4 -22l-1 1q70 -58 70 -179q0 -45 -13 -83q-5 -15 -2 -15q3 1 6 8zM404 158q0 66 -27 124.5t-77 68.5q-12 2 -24 2q-57 0 -83 -50q-9 -17 -9 -65q0 -36 6 -51l22 -48q15 -36 43 -63q33 -33 69 -33
q80 0 80 115zM227 598q5 5 5 10v0q0 5 -5 7q-5 1 -11 -5q-73 -67 -120 -157q-52 -99 -52 -188q0 -120 102 -222q10 0 12 5q1 4 -4 12q-24 32 -48 65q-37 62 -37 140q0 85 46 180q45 90 112 153z" />
    <glyph glyph-name="seven" unicode="7" horiz-adv-x="564" 
d="M556 731q-9 -77 -39 -152l-177 -438q-16 -26 -16 -46q0 -31 37 -40q21 -5 31 -10q16 -7 23 -20q2 -4 2 -7q0 -14 -35 -20q-14 -2 -66 2q-68 5 -94 5q-54 1 -170 -7q-8 6 -16 12.5t-8 14.5q0 16 39 22q33 11 52 31q9 9 31 43l192 429q42 66 42 99t-40 33q-75 0 -210 -80
q-39 -23 -86 -91l-43 -3q6 54 13 99q15 107 31 150q4 11 27 -3q5 -3 8.5 -13t8.5 -10q256 8 305 8q108 0 158 -8zM73 721q-1 6 -8 5q-5 0 -7 -2q-7 -7 -22 -85.5t-11 -94.5q3 -12 8 -7q-2 -2 -2 3q0 15 20.5 100t21.5 81zM404 687q-13 0 -3 -16q3 -5 3 -14q0 -34 -32 -105
l-194 -432q-10 -19 -19 -37q-9 -13 -36 -22q-10 -4 -10 -9q0 -4 6 -4q4 0 8 2q39 13 47.5 19.5t25.5 37.5l1 2l194 432q25 57 25 106q0 15 -5 27.5t-11 12.5z" />
    <glyph glyph-name="eight" unicode="8" horiz-adv-x="564" 
d="M548 225q0 -49 -34 -102q-30 -45 -72 -77q-63 -48 -181 -48q-92 0 -161 41q-86 50 -86 145q0 71 44 114.5t76 51.5q15 4 15 11q0 -1 -13 8q-121 65 -121 168q0 79 89 156q53 46 172 46q82 0 135 -31q83 -49 83 -132q0 -48 -25 -84t-64 -50q-21 -7 -21 -11t8 -6
q5 -1 10 -3q60 -31 99 -79q47 -56 47 -118zM410 560q0 28 -12 62q-15 42 -42 63l-22 1q58 -29 58 -129q0 -23 -11 -55q-10 -28 -14 -28h14q29 59 29 86zM376 558q0 60 -29 101t-81 41q-40 0 -70.5 -28t-30.5 -73q0 -50 50 -88q23 -18 89 -50q21 -10 46.5 19t25.5 78zM385 66
q37 56 37 108t-37 94q-33 38 -124 84l-100 50q-94 62 -94 137q0 33 12 63q7 21 20 40l12 16l-4 10q-68 -66 -65 -133q3 -55 33 -91q23 -28 80.5 -60t115.5 -63q87 -48 96 -62l22 -34q15 -28 15 -58q0 -46 -37 -97q18 -6 18 -4zM386 156q0 51 -28 85q-21 25 -68 50
q-57 30 -68 30q-7 0 -21.5 -9.5t-19.5 -16.5q-37 -51 -37 -96q0 -67 35 -112t93 -45q41 0 77.5 34.5t36.5 79.5zM118 59q-69 56 -69 126t62 119l3 16q-83 -44 -83 -135q0 -61 38 -103q28 -30 40 -30q2 0 9 7z" />
    <glyph glyph-name="nine" unicode="9" horiz-adv-x="564" 
d="M544 459q0 -86 -50 -182q-46 -88 -116 -153q-64 -60 -148 -100q-102 -49 -159 -49q-25 0 -25 18q0 11 36 22q75 22 121 52q52 34 94 94q62 88 76 199q-29 -16 -65 -37q-43 -27 -96 -27q-89 0 -150.5 55t-61.5 137q0 101 85 177q82 75 183 75q117 0 198 -85
q78 -83 78 -196zM376 487q-1 26 -7 44l-22 54q-15 37 -42 64q-34 33 -69 33q-80 0 -80 -115q0 -66 27 -124.5t77 -68.5q12 -2 24 -2q57 0 83 50q10 19 9 65zM433 393q10 181 -101 264l-15 -4q91 -68 91 -223q0 -18 -1 -37q-14 -181 -164 -316l15 -3q48 40 83 86
q85 111 92 233zM102 356q-56 49 -56 134q0 40 9 70q6 21 15.5 35t9.5 12v17q-56 -58 -56 -134q0 -82 67 -138z" />
    <glyph glyph-name="colon" unicode=":" horiz-adv-x="221" 
d="M187 320q0 -32 -23 -55t-55 -23t-55 23t-23 55t23 55t55 23t55 -23t23 -55zM187 78q0 -32 -23 -55t-55 -23t-55 23t-23 55t23 55t55 23t55 -23t23 -55zM91 252v7q-26 21 -24 63q2 40 15 53l2 11q-11 -3 -24 -25t-13 -40q0 -22 14 -43.5t30 -25.5zM91 7v7q-26 21 -24 63
q2 40 15 53l2 11q-11 -3 -24 -25t-13 -40q0 -22 14 -43.5t30 -25.5z" />
    <glyph glyph-name="semicolon" unicode=";" horiz-adv-x="221" 
d="M187 320q0 -32 -23 -55t-55 -23t-55 23t-23 55t23 55t55 23t55 -23t23 -55zM187 78q0 -22 -12 -41q-44 -83 -97 -172q-13 0 -25 3q3 3 30 60.5t27 68.5q0 3 -1 3q-32 0 -55 23t-23 55t23 55t55 23t55 -23t23 -55z" />
    <glyph glyph-name="less" unicode="&#x3c;" horiz-adv-x="356" 
d="M338 166l-53 -53l-283 283l283 283l53 -53l-230 -230z" />
    <glyph glyph-name="equal" unicode="=" horiz-adv-x="440" 
d="M400 286h-400v75h400v-75zM400 438h-400v75h400v-75z" />
    <glyph glyph-name="greater" unicode="&#x3e;" horiz-adv-x="356" 
d="M341 396l-283 -283l-53 53l230 230l-230 230l53 53z" />
    <glyph glyph-name="question" unicode="?" horiz-adv-x="464" 
d="M427 579q0 -52 -33 -105q-30 -48 -73 -79q-19 -14 -76 -35q-37 -14 -37 -35q0 -7 8 -28t8 -32q0 -10 -3.5 -16.5t-13 -15t-9.5 -9.5q0 -3 -12 6.5t-17.5 18.5t-4.5 26q3 33 3 24q0 41 26 86q23 41 47 82q26 54 26 116q0 40 -16 65q-19 32 -70 58q-28 15 -50 15
q-33 0 -33 -34q0 -14 18.5 -37.5t18.5 -54.5q0 -39 -23 -59q-17 -14 -38 -14q-35 0 -54 29q-16 24 -16 59q0 55 36 100q51 65 158 65q66 0 127 -29q103 -51 103 -167zM268 78q0 -32 -23 -55t-55 -23t-55 23t-23 55t23 55t55 23t55 -23t23 -55zM313 597q-5 78 -57 113
q-31 21 -62 21q-14 0 -15 -4q32 -9 55 -24q55 -38 57 -106q2 -48 -11 -89q-10 -29 -25 -53q-14 -20 -14 -18v-13q78 59 72 173zM61 563q-7 14 -13 29q-11 29 -14 65v0q-1 4 -2 4q-6 0 -6 -45q1 -48 18 -62q20 1 17 9zM178 10v7q-26 21 -24 63q2 40 15 53l2 11
q-11 -3 -24 -25t-13 -40q0 -21 14 -42.5t30 -26.5z" />
    <glyph glyph-name="at" unicode="@" horiz-adv-x="817" 
d="M792 442q0 -70 -32 -125q-23 -40 -61 -69l-38 -26q-11 -9 -52 -18q-45 -8 -90 -8q-125 0 -137 63q-115 -62 -170 -62q-46 0 -46 52q0 36 32 73.5t80 58.5q104 45 151 55q23 77 21 87q-2 13 -12 25q-13 15 -30 15q-33 0 -53 -20q-16 -21 -33 -42q-11 -12 -11 -34
q-1 -18 -14 -25q-45 -25 -66 -25q-18 0 -18 17q0 22 23 58q71 113 228 110q128 -2 128 -53q0 -8 -3 -19l-61 -230q-4 -14 20.5 -35t51.5 -21q9 0 17 3q125 41 125 189q0 127 -104 216q-100 85 -234 85q-139 0 -240.5 -101t-101.5 -239t101 -240.5t239 -102.5q83 0 159 40.5
t123 107.5q5 7 32 5t23 -9q-52 -86 -141 -139q-93 -55 -195 -55q-159 0 -275.5 117t-116.5 276q0 158 116.5 274.5t276.5 116.5q154 0 269 -98q119 -102 119 -248zM316 549q-21 -16 -37 -31q-38 -35 -42 -59q-3 -13 -7 -28q32 7 32 10q0 -2 -6.5 3.5t-4.5 14.5q3 11 22 37.5
t32 34.5q17 10 11 18zM414 379q1 4 1 7q0 12 -15 12q-32 0 -75 -36q-47 -41 -43 -82q17 -19 40 -19q37 0 74 51zM280 368q-92 -61 -92 -113q0 -19 13 -34q9 -8 27 -8q17 0 37 8l-10 7q-14 -5 -24 -5q-24 0 -24 33q0 32 69 98z" />
    <glyph glyph-name="A" unicode="A" horiz-adv-x="882" 
d="M866 0q-127 5 -163 5q-33 0 -164 -5q-3 7 -12 27q-1 1 27 13t28 30q0 4 -2 10q-26 70 -76 157h-254l-82 -165q-3 -7 -3 -12q0 -13 30 -20q38 -10 47 -16q3 -2 3 -6q0 -8 -12 -18l-136 5q-15 0 -97 -5q3 7 12 27q0 1 31.5 9t41.5 29l254 545l-31 73l121 117l331 -714
q19 -41 91 -57q7 -16 15 -29zM636 37q3 6 3 14q0 19 -16 46l-264 588l-22 -10l263 -587q11 -18 11 -31q0 -26 -41 -27l6 -10q16 1 31 3q22 1 29 14zM470 312l-91 203l-94 -203h185zM359 558l-19 8l-219 -480q-27 -59 -67 -59l2 -9q15 0 41 16q31 20 43 45z" />
    <glyph glyph-name="B" unicode="B" horiz-adv-x="721" 
d="M675 230q1 -13 1 -26q0 -54 -22 -102.5t-54 -73.5q-48 -39 -201 -39q-31 0 -66 2q-213 11 -309 5q-11 -1 -19 6t-7 19q1 16 14 19q18 5 21 8q42 43 42 97v513q0 58 -27 65q-8 2 -23 -2.5t-19 -4.5q-15 0 -15 18q0 20 24 34q34 20 117 26q30 3 189 8q94 3 180 -19
q71 -18 100 -57q24 -31 34 -96q2 -12 2 -24q0 -135 -221 -190q153 -20 200.5 -54t58.5 -132zM396 775q-7 1 -7 -2q0 -6 19 -14q44 -18 65 -76q17 -45 17 -97q0 -36 -14 -60t-53 -57q-4 -3 1 -7q89 50 89 141q0 62 -27 108q-32 54 -90 64zM327 754q-11 0 -24 -2
q-34 -4 -45 -26q-8 -15 -8 -48v-190q0 -19 14.5 -32.5t32.5 -11.5q158 21 158 155q0 63 -28 105q-34 50 -100 50zM566 199q2 90 -27 132q-20 29 -82 62l-8 -10q52 -27 71 -61q23 -41 22 -123q-1 -40 -34 -88t-78 -72q-10 -6 -10 -8t3 -2q14 0 39 15q45 27 74 69.5t30 85.5z
M504 199q2 86 -23 128q-20 31 -76 61q-29 15 -68 15q-10 0 -55 -4q-32 -3 -32 -81v-144q0 -125 59 -133q11 -1 21 -1q70 0 122 51q51 48 52 108zM124 124v558q0 60 -51 75l-2 -12q28 -19 28 -63l1 -558q0 -22 -13.5 -49.5t-22.5 -31.5l6 -8q14 8 32 32q22 30 22 57z" />
    <glyph glyph-name="C" unicode="C" horiz-adv-x="759" 
d="M737 106q0 -16 -21 -50q-27 -44 -106 -59q-42 -8 -132 -9q-101 -1 -168 14q-74 18 -148 65.5t-114 144.5q-35 85 -35 183q0 107 40 183q36 70 119 138q123 101 373 92q42 0 84 -1q34 -1 69 -13q25 -9 24 -51l-1 -49q-1 -39 -23 -39q-6 0 -11.5 3.5t-67.5 64.5
q-42 41 -80 41q-202 0 -266 -122q-52 -99 -52 -208q0 -91 6 -133q10 -76 44 -119q63 -80 117 -113q42 -25 103 -34q15 -2 30 -2q57 0 89 33q20 21 53 75q25 42 41 46q15 4 25 -15q8 -15 8 -29v-37zM690 717q-15 38 -84 63l-2 -10q25 -9 45 -28q25 -23 27 -49zM708 127
l-14 24q-5 -28 -24.5 -57t-39.5 -36l2 -10q52 19 76 79zM230 718l-10 8q-87 -72 -125 -142q-44 -80 -44 -189q0 -99 40 -186q43 -96 121 -147l8 6q-72 45 -111 144q-33 86 -33 183q0 106 38 184q37 75 116 139z" />
    <glyph glyph-name="D" unicode="D" horiz-adv-x="819" 
d="M789 404q0 -166 -134 -285q-128 -113 -304 -125q-30 -2 -64 -2v0q-27 0 -126 4q-77 3 -125 0q-12 -1 -22.5 6t-9.5 19q1 16 17 19q21 5 24 8q42 43 42 97v513q0 58 -27 65q-8 2 -23 -2.5t-19 -4.5q-15 0 -15 18q0 20 24 34q34 20 117 26q30 3 189 8q70 2 162 -20
q87 -21 126 -47q168 -111 168 -331zM643 422q0 115 -62 204q-57 80 -141 109l-2 -3q79 -32 129 -112q52 -84 52 -192q0 -113 -33 -202q-36 -100 -108 -150l4 -8q161 85 161 354zM595 433q0 148 -86 233q-81 81 -215 81q-32 0 -32 -81v-534q0 -100 59 -100q140 0 213 134
q61 110 61 267zM132 124v558q0 60 -49 75v-10q24 -21 24 -65v-558q0 -21 -17 -46q-14 -21 -25 -26l6 -8q61 33 61 80z" />
    <glyph glyph-name="E" unicode="E" horiz-adv-x="745" 
d="M705 169q0 -8 -3.5 -23.5t-4.5 -21.5l-11 -104q-3 -27 -19 -27q-80 0 -239 3.5t-239 3.5q-27 0 -81 -2t-81 -2q-26 0 -26 25q0 15 13 19q19 6 22 8q63 57 63 97v513q0 23 -13 51.5t-32 34.5q-56 17 -56 37q0 23 78 23q35 0 105.5 -3.5t105.5 -3.5q57 0 172.5 3t173.5 3
q23 0 23 -38v-90q0 -22 -20 -22q-14 0 -31 27t-46 52q-26 22 -141 22q-52 0 -91 -5q-32 -4 -42.5 -20.5t-10.5 -50.5v-190q0 -17 12.5 -30.5t28.5 -13.5q117 0 133 3q31 7 46 48q14 38 31 38q21 0 20 -26l-4 -86q0 -14 2 -43t2 -43q0 -28 -21 -28q-28 0 -31 17q-5 30 -7 33
q-7 10 -14 21q-10 12 -19 15q-27 7 -108 7q-48 0 -59.5 -12.5t-11.5 -63.5v-156q0 -111 94 -111q183 0 217 34q26 22 64 66q19 35 34 35q22 0 22 -23zM636 711q-15 38 -84 63l-2 -10q56 -21 72 -77zM512 376v76l-36 -32zM662 82l-1 58q0 -32 -93 -86l10 -8q21 5 37 10
q38 12 47 26zM148 124v558q0 60 -47 77v-12q22 -21 22 -65v-558q0 -20 -26 -45q-20 -19 -35 -26l6 -8q80 43 80 79z" />
    <glyph glyph-name="F" unicode="F" horiz-adv-x="699" 
d="M656 684q0 -17 -1 -21q-4 -10 -19 -10q-14 0 -30.5 26t-46.5 53q-25 22 -141 22q-47 0 -91 -5q-34 -4 -45 -25q-8 -14 -8 -46v-190q0 -19 14.5 -33t32.5 -11q111 0 127 3q34 6 48 53q10 33 29 33q21 0 20 -26l-4 -86l4 -86q1 -28 -21 -28q-28 0 -31 18q-5 30 -7 32
q-8 11 -16 22.5t-17 13.5q-65 14 -147 6q-32 -3 -32 -81v-144q0 -67 2 -78q8 -40 42 -49q48 -12 48 -30q0 -10 -15 -20q-33 0 -90.5 3.5t-83.5 3.5q-21 0 -150 -8q-11 -1 -19 6t-7 19q1 16 14 19q18 5 21 8q39 40 42 44q21 26 21 53v513q0 23 -13 52t-33 34t-30 10
q-16 7 -23 20q-2 4 -2 7q0 14 35 20q16 3 43 3q12 0 112 -5q86 -3 154 -1q153 5 291 5q23 0 23 -38v-81zM636 711q-15 38 -84 63l-2 -10q22 -8 44 -29q23 -24 28 -48zM512 376v76q0 5 -3 5q-8 0 -33 -37zM148 682q0 60 -47 75l-6 -8q28 -23 28 -67v-558q0 -20 -21 -45
q-18 -20 -30 -26l4 -10q71 38 71 81z" />
    <glyph glyph-name="G" unicode="G" horiz-adv-x="874" 
d="M834 401q-1 -16 -14 -19q-18 -5 -21 -8q-19 -20 -37 -20q-6 0 -11 3l-2 -309q-26 -43 -122 -56q-35 -4 -149 -6q-101 -1 -168 14q-74 18 -148 65.5t-114 144.5q-35 85 -35 183q0 107 40 183q36 70 119 138q123 101 373 92q42 0 84 -1q34 -1 69 -13q25 -9 24 -51l-1 -49
q-1 -39 -23 -39q-6 0 -11.5 3.5t-67.5 64.5q-42 41 -80 41q-202 0 -266 -122q-52 -99 -52 -208q0 -91 6 -133q10 -76 44 -119q63 -80 117 -113q42 -25 103 -34q10 -2 21 -2v0q74 0 64 62v264q-14 3 -71 18q-48 12 -48 30q0 10 15 20q30 0 86 -3.5t81 -3.5q29 0 169 8
q11 1 19 -6t7 -19zM690 715q-15 38 -84 63l-2 -10q22 -8 44 -30t28 -47zM629 344q0 46 -35 51l-2 -16q13 1 13 -35l-1 -258q0 -16 -6.5 -25.5t-12.5 -18.5l10 -10q10 8 21.5 18.5t11.5 29.5zM230 716l-10 8q-90 -74 -130 -142q-49 -82 -49 -189q0 -96 45 -186
q47 -95 126 -147l8 6q-73 46 -116 144q-38 89 -38 183q0 189 164 323z" />
    <glyph glyph-name="H" unicode="H" horiz-adv-x="883" 
d="M866 779q-1 -16 -14 -19q-18 -5 -21 -8l-44 -44q-22 -27 -22 -53l1 -484q0 -62 3 -75q8 -40 42 -49q48 -12 48 -30q0 -10 -15 -20q-32 0 -87 3q-58 4 -83 4q-21 0 -154 -8q-11 -1 -19 6t-7 19q1 16 14 19q18 5 21 8q39 40 42 44q21 26 21 53v187q-16 30 -36 30h-240
q-22 0 -39 -33l1 -158q0 -66 2 -75q8 -40 42 -49q48 -12 48 -30q0 -10 -15 -20q-32 0 -90 3.5t-83 3.5q-20 0 -151 -8q-11 -1 -19 6t-7 19q1 16 14 19q18 5 21 8q39 40 42 44q21 27 21 53l1 484q0 65 -2 76q-8 39 -42 48q-48 12 -48 30q0 10 15 20q32 0 88.5 -3.5t81.5 -3.5
q21 0 154 8q11 1 19 -6t7 -19q-1 -16 -14 -19q-18 -5 -21 -8q-22 -22 -43 -44q-22 -27 -22 -53v-185q17 -33 39 -33h237q22 0 39 33l-1 159q0 71 -1 76q-7 39 -41 48q-48 12 -48 30q0 10 15 20q33 0 91.5 -3.5t84.5 -3.5q19 0 148 8q11 1 19 -6t7 -19zM154 132v558
q0 60 -49 79l-4 -12q28 -16 28 -67l1 -558q0 -21 -13 -47t-23 -30l4 -10q15 8 33 31q23 29 23 56zM644 132v558q0 60 -45 77l-6 -10q26 -18 26 -67l1 -558q0 -22 -14.5 -52.5t-23.5 -34.5l4 -10q14 8 34 36q24 34 24 61z" />
    <glyph glyph-name="I" unicode="I" horiz-adv-x="403" 
d="M375 779q-1 -16 -14 -19q-18 -5 -21 -8l-44 -44q-22 -27 -22 -53v-484q0 -61 3 -75q8 -40 43 -49q48 -12 48 -30q0 -10 -15 -20q-31 0 -87 3.5t-80 3.5q-22 0 -157 -8q-11 -1 -19 6t-7 19q1 16 14 19q18 5 21 8q39 40 42 44q21 27 21 53l1 484q0 65 -2 76q-8 39 -42 48
q-48 12 -48 30q0 10 15 20q31 0 87 -3.5t80 -3.5q22 0 157 8q11 1 19 -6t7 -19zM154 690q0 60 -49 79l-8 -12q32 -20 32 -67l1 -558q0 -23 -14 -47t-28 -28l6 -14q15 8 34 32q25 30 25 57z" />
    <glyph glyph-name="J" unicode="J" horiz-adv-x="743" 
d="M709 779q-1 -16 -14 -19q-18 -5 -21 -8l-44 -44q-22 -27 -22 -53v-406q-7 -51 -13 -103q-13 -59 -54 -81q-79 -43 -122.5 -52.5t-141.5 -8.5q-71 1 -135 21q-81 26 -109 71.5t-27 79.5q2 60 24 82q34 34 58 34t41 -35q-4 -20 -4 -45q0 -152 139 -161q104 -7 146 66
q25 44 25 106l1 406q0 65 -2 76q-8 39 -42 48q-48 12 -48 30q0 10 15 20q33 0 91 -3.5t84 -3.5q20 0 149 8q11 1 19 -6t7 -19zM485 172l-1 528q0 60 -49 77l-2 -12q26 -21 26 -65l1 -528q0 -25 -24 -57q-26 -36 -68 -62l8 -6q22 7 58 39q51 43 51 86zM86 124q-31 35 -31 71
q0 25 13 43l-8 16q-22 -33 -22 -73q0 -45 30 -85q9 4 18 28z" />
    <glyph glyph-name="K" unicode="K" horiz-adv-x="953" 
d="M914 27q3 -3 3 -7q0 -10 -15 -20q-28 0 -90.5 2.5t-94.5 2.5q-34 0 -187 -9q-11 -1 -19 6t-7 19q1 17 12.5 19.5t22.5 5.5q15 5 29.5 11t14.5 13q0 6 -7 14l-274 320l-28 -22v-211q0 -61 3 -75q8 -40 43 -49q48 -12 48 -30q0 -10 -15 -20q-29 0 -85.5 4t-93.5 3
q-28 0 -145 -8q-11 -1 -19 6t-7 19q1 16 14 19q18 5 21 8q39 40 42 44q21 27 21 53l1 484q0 65 -2 76q-8 39 -42 48q-48 12 -48 30q0 10 15 20q-18 0 167 -2q94 -1 157 3q11 1 19 -6t7 -19q-1 -16 -14 -19q-18 -5 -21 -8l-44 -44q-22 -27 -22 -53v-226l296 264q31 28 31 39
q0 8 -20 12q-23 5 -46 9q-45 12 -45 30q0 10 15 20q-18 0 167 -2q94 -1 157 3q11 1 19 -6t7 -19q-1 -16 -14 -19q-18 -5 -21 -8q-9 -9 -26 -9v0q137 0 -40 2q-28 1 -54 -9q-34 -13 -70 -46l-187 -173l361 -424q9 -10 19 -18q26 -19 55 -22q11 -5 36 -26zM633 92l-290 346
l-18 -16l276 -328q7 -18 7 -23q0 -16 -37 -32l8 -12q56 13 56 51q0 7 -2 14zM154 690q0 60 -47 75l-2 -6q24 -25 24 -69l1 -558q0 -21 -23.5 -52.5t-34.5 -36.5h28q14 8 31 32q22 30 22 57z" />
    <glyph glyph-name="L" unicode="L" horiz-adv-x="745" 
d="M705 145q0 -5 -3 -22q-5 -20 -5 -23l-11 -80q-4 -27 -19 -27q-188 0 -304 4q-202 7 -336 -1q-11 -1 -19 6t-7 19q1 16 14 19q18 5 21 8q39 40 42 44q21 26 21 53v513q0 23 -13 52t-33 34t-30 10q-16 7 -23 20q-2 4 -2 7q0 14 35 20q16 3 42 3q12 0 113 -5q86 -3 154 -1
q1 -1 15 -12q9 -7 9 -15q0 -16 -39 -22q-35 -12 -45 -29q-8 -13 -8 -42v-504q0 -49 9 -68q14 -29 62 -47q63 -6 119 -6q93 0 118.5 18.5t36.5 27.5q20 17 30 34q15 35 34 35q22 0 22 -23zM666 120q4 -29 -96 -76l10 -8l84 36q6 12 5 25q-2 12 -3 23zM151 132v521
q0 60 -62 109v-8q39 -48 39 -101v-521q0 -21 -18.5 -48.5t-29.5 -32.5l12 -10q15 8 34 33q25 31 25 58z" />
    <glyph glyph-name="M" unicode="M" horiz-adv-x="1048" 
d="M1000 779q0 -12 -20 -20l-30 -10q-33 -18 -42 -52q-3 -13 -3 -60v-466q0 -60 3 -75q8 -39 43 -48q48 -12 48 -30q0 -10 -15 -20q-31 0 -85.5 5.5t-79.5 5.5q-22 0 -157 -8q-11 -1 -19 6t-7 19q1 16 12.5 20t22.5 7q23 13 47 25q16 14 16 67v482l-234 -576
q-19 -48 -51 -48q-14 0 -21 8q-2 3 -11 21l-252 522v-425q0 -39 9 -52q12 -17 52 -17q14 0 32.5 -12t18.5 -28q0 -21 -30 -21q-15 0 -64 2t-64 2q-16 0 -49 -2t-48 -2q-25 0 -25 18q0 27 39 32q54 7 54 64v555q0 35 -5 45t-38 36q-11 5 -24 10t-13 23q0 13 11 15t22 3
q21 2 46 -1q32 -3 46 -3q34 0 94 4q13 1 18 -8t10 -19l266 -506l204 498q4 12 9.5 23.5t17.5 11.5q66 -4 104 -4q41 0 113 4q29 1 29 -21zM785 132v586l-26 -28l1 -558q0 -61 -44 -81l10 -8q25 14 34 23q25 25 25 66zM459 49l-282 588v-54l254 -528zM136 121v558
q0 60 -51 79l-2 -14q28 -21 28 -65l-1 -558q0 -29 -13 -56q-11 -22 -21 -27l8 -6q52 28 52 89z" />
    <glyph glyph-name="N" unicode="N" horiz-adv-x="823" 
d="M810 786q0 -27 -39 -32q-54 -7 -54 -64v-651q-6 -19 -23 -29q-11 -7 -19 -7q-14 0 -23 10.5t-18 21.5l-469 585v-491q0 -39 9 -52q12 -17 52 -17q14 0 32.5 -12t18.5 -28q0 -21 -30 -21q-15 0 -64 2t-64 2q-16 0 -49 -2t-48 -2q-25 0 -25 18q0 27 39 32q54 7 54 64v555
q0 35 -5 45t-38 36q-11 5 -24 10t-13 23q0 13 11 15t22 3q21 2 57 -2q42 -4 56 -4q34 0 91 6q13 1 21 -8t16 -19l360 -428v329q0 39 -9 52q-12 17 -52 17q-14 0 -31 11q-20 13 -20 29q0 21 30 21q15 0 63 -2t63 -2q16 0 49 2t48 2q25 0 25 -18zM671 65l-506 636l2 -38
l476 -592q12 -15 18 -15t10 9zM139 122v558q0 60 -51 79l-2 -14q28 -21 28 -65l-1 -558q0 -29 -13 -56q-11 -22 -21 -27l8 -6q52 28 52 89z" />
    <glyph glyph-name="O" unicode="O" horiz-adv-x="790" 
d="M761 399q0 -158 -108.5 -280.5t-249.5 -122.5q-210 0 -316 137q-83 108 -83 262q0 140 80 255q104 153 301 153q144 0 259 -121q117 -124 117 -283zM640 373q0 85 -28 181q-37 122 -101 174l-8 -10q60 -49 90 -169q22 -88 22 -176q0 -76 -25 -163q-32 -108 -84 -148
l12 -8q56 44 92 152q30 91 30 167zM589 373q0 123 -41 235q-57 154 -166 154q-90 0 -149 -126q-49 -103 -49 -202q0 -114 39 -225q62 -173 192 -171q86 1 135 130q39 100 39 205zM204 66q-73 46 -115 144q-37 88 -37 183q0 209 152 333l-10 8q-85 -70 -124 -147
q-43 -84 -43 -194q0 -97 44 -186q46 -95 125 -147z" />
    <glyph glyph-name="P" unicode="P" horiz-adv-x="697" 
d="M684 616q0 -91 -74.5 -165t-172.5 -74q-30 0 -77.5 11.5t-59.5 10.5q-21 -2 -25 -29q-1 -6 -1 -52v-144q0 -139 59 -133q45 2 48 -17q1 -9 -7 -16q-14 -13 -17 -17q-61 5 -177 12q-21 0 -132 -7q-13 -1 -26 6q-16 7 -15 19q1 16 21 19q26 4 29 8q42 43 42 97v513
q0 58 -27 65q-8 2 -23 -2.5t-19 -4.5q-15 0 -15 18q0 20 24 34q33 19 131 26q26 2 202 8q66 2 103 -3q21 -2 74 -16q78 -20 109 -62q26 -37 26 -105zM551 629q-11 84 -83 120v-11q51 -31 61 -111q3 -19 3 -37q0 -121 -103 -143l6 -12q119 26 119 151q0 20 -3 43zM502 624
q-17 130 -124 130q-11 0 -24 -2q-36 -4 -58 -25.5t-22 -48.5v-190q0 -19 14.5 -32.5t32.5 -11.5q95 13 125 28q59 31 59 113q0 18 -3 39zM152 122v558q0 60 -51 75l-2 -12q28 -19 28 -63v-558q0 -21 -17 -48.5t-27 -32.5l18 -6q14 8 30 31q21 29 21 56z" />
    <glyph glyph-name="Q" unicode="Q" horiz-adv-x="790" 
d="M761 399q0 -82 -45 -175q-41 -86 -102 -147q5 -8 8.5 -61.5t7.5 -61.5q17 -32 40 -42q40 -17 66 -38q11 -9 11 -19v0q0 -27 -66 -35q-70 -8 -120 21q-71 41 -71 149q0 12 1 23q-63 -17 -88 -17q-210 0 -316 137q-83 108 -83 262q0 140 80 255q104 153 301 153
q144 0 259 -121q117 -124 117 -283zM641 374q0 87 -28 183q-35 125 -100 178l-8 -10q60 -49 90 -173q21 -89 21 -178q0 -106 -39 -202q-3 -9 9 -22q55 94 55 224zM589 373q0 123 -41 235q-57 154 -166 154q-90 0 -149 -126q-49 -103 -49 -202q0 -114 39 -224
q62 -174 192 -172q36 0 67 25q-3 39 -16 52q-9 7 -35 10q-30 4 -50 14q-9 9 -9 18q0 20 44 46q36 21 59 21q28 0 83 -32q31 82 31 181zM644 -155l-4 17q-6 -2 -20 5q-40 20 -41 20q-26 12 -33 51q-3 40 -6 79q-8 91 -43 128q-17 18 -43 22q-11 1 -51 1l-4 -12q22 -3 45 -6
q13 -2 35 -23q32 -31 37 -108q4 -68 10 -92q12 -46 44 -60q60 -27 74 -22zM204 66q-72 45 -111 144q-33 86 -33 183q0 113 29 190q32 84 106 145l-10 8q-81 -67 -115.5 -147.5t-34.5 -195.5q0 -99 40 -186q43 -96 121 -147z" />
    <glyph glyph-name="R" unicode="R" horiz-adv-x="805" 
d="M762 30q-4 -13 -15 -17.5t-21 -8.5q-15 -7 -46 -6l-51 2q-7 0 -21.5 -2t-21.5 -2q-32 0 -59 31t-27 71q0 16 6 49.5t6 51.5q2 86 -23 128q-20 31 -76 61q-29 15 -68 15q-10 0 -55 -4q-32 -3 -32 -81v-144q0 -125 59 -133q18 -2 24 -4q13 -5 15 -16q2 -12 -1 -20
q-3 -11 -14 -10q-61 6 -180 12q-22 0 -129 -7q-11 -1 -19 6t-7 19q1 16 14 19q18 5 21 8q42 43 42 97v513q0 58 -27 65q-8 2 -23 -2.5t-19 -4.5q-15 0 -15 18q0 20 24 34q34 20 123 26q29 3 195 8q107 4 195 -19q71 -18 100 -57q24 -31 34 -96q2 -10 2 -20q0 -72 -82 -126
q-64 -42 -166 -68q153 -20 200.5 -54t58.5 -132l8 -102q5 -43 34 -64q1 0 24 -9q14 -6 14 -17q0 -4 -1 -8zM416 768l-4 -12q47 -7 77 -54q28 -43 28 -95q0 -59 -39 -106q-33 -41 -72 -49l6 -12q41 9 78 40q56 47 56 121q0 57 -35 106q-38 53 -95 61zM348 754q-12 0 -25 -2
q-65 -8 -65 -74v-190q0 -19 14.5 -32.5t32.5 -11.5q185 25 185 161q0 59 -36 101q-40 48 -106 48zM597 31q-41 14 -41 84q0 15 2 28q9 197 -79 238l-4 -12q62 -30 59 -223q-1 -56 6 -79q11 -32 45 -38zM136 124v558q0 60 -53 79l-4 -12q32 -23 32 -67v-558q0 -21 -16 -48.5
t-26 -32.5l10 -8q15 8 33 32q24 30 24 57z" />
    <glyph glyph-name="S" unicode="S" horiz-adv-x="617" 
d="M588 223q0 -46 -26 -95t-63 -80q-72 -60 -208 -60q-207 0 -262 27q-21 10 -24 28q1 -4 1 40v55q0 3 -2 20.5t-2 28.5q0 32 15 32q24 0 43 -65q6 -20 12 -39.5t22 -34.5q19 -19 95 -37q68 -17 102 -17q52 0 101 33q54 37 59 88q1 11 1 21q0 69 -45.5 115t-122.5 59
q-134 23 -196 75q-72 60 -73 178t106 173q78 41 193 41q37 0 103 -7q79 -8 99 -19q12 -6 15 -19q1 -4 1 -26v-92q0 -38 -20 -38q-18 0 -27 27q-14 43 -76 88t-111 45q-47 0 -88 -20q-51 -24 -64 -70q-3 -12 -3 -23q0 -91 200 -108q116 -10 186 -124q59 -95 59 -200zM492 726
q-17 31 -81 30q19 -6 78 -69q2 4 7 8t5 8q0 7 -9 23zM443 61q57 62 57 131t-54 126q-50 53 -109 63q-116 19 -189 68q-89 60 -89 151q0 46 22 97l-13 10q-28 -64 -28 -118q0 -122 139 -188q45 -21 157 -47q39 -9 83 -52q56 -55 56 -120q0 -58 -47 -118zM96 36q-42 17 -67 66
q2 -39 19 -60z" />
    <glyph glyph-name="T" unicode="T" horiz-adv-x="786" 
d="M765 635q0 -35 -26 -35q-11 0 -25 24q-12 20 -14 33q-9 53 -71 78q-47 19 -110 19q-36 0 -51 -5v-578q0 -61 3 -75q8 -40 43 -49q48 -12 48 -30q0 -10 -15 -20q-31 0 -87 3.5t-80 3.5q-27 0 -75 -3q-51 -4 -80 -4q-15 10 -15 20q0 18 48 30q35 9 43 49q3 14 3 75v575
q-9 10 -74 10q-151 0 -164 -87q-3 -20 -15 -43t-24 -23q-23 0 -23 32l15 92q0 18 7 39q8 26 21 33l339 -4q49 0 336 7q25 -13 25 -75zM722 684l-12 68l-60 2q18 -13 32 -24q34 -28 40 -46zM108 754q5 5 -31 5q-22 0 -31 -9l-10 -56q14 23 44 43q14 9 28 17zM352 144v603h-25
v-603q0 -39 -14 -71q-11 -24 -17 -27l7 -12q49 33 49 110z" />
    <glyph glyph-name="U" unicode="U" horiz-adv-x="865" 
d="M841 786q0 -27 -38.5 -32t-51.5 -15q-18 -13 -18 -49v-405q0 -66 -17 -105q-13 -28 -54 -77q-46 -54 -116 -79q-50 -17 -131 -24q-28 -2 -51 -2q-119 0 -181 62q-49 49 -59 67q-29 49 -29 136v399q0 51 -17 68q-10 5 -21 10q-17 7 -35 14q-26 10 -26 28q0 13 11 15t22 3
q21 2 76 -1q66 -3 76 -3q11 0 48.5 3.5t57.5 3.5q30 0 45 -6q31 2 36 -11q1 -3 1 -6q0 -13 -19 -24q-11 -5 -22 -11q-12 -10 -23 -21q-15 -18 -15 -74v-311q0 -96 3 -118q10 -59 52 -98q32 -30 38 -34q20 -13 58 -17q10 -1 20 -1q78 0 139 61q34 34 47 67.5t13 88.5v386
q0 46 -15 55q-18 7 -37 14l-30 14q-21 11 -21 26q0 21 30 21q15 0 66 -2t66 -2q16 0 49 2t48 2q25 0 25 -18zM230 71q-80 46 -82 149v444q0 87 -76 110v-10q52 -31 52 -100v-444q3 -31 13 -58q26 -65 87 -101z" />
    <glyph glyph-name="V" unicode="V" horiz-adv-x="865" 
d="M841 786q0 -27 -39 -32q-77 -10 -99 -64l-265 -651q-7 -16 -22 -27q-11 -9 -16 -9q-28 0 -41 32l-264 657q-11 27 -38 48q-17 7 -35 14q-26 10 -26 28q0 13 11 15t22 3q21 2 76 -1q66 -3 76 -3q11 0 58 5t71 5q44 0 44 -12q0 -5 -10 -17q-12 -15 -13 -17q-4 -7 -25 -12
q-17 -4 -17 -15q0 -5 2 -11l167 -446l172 398q13 16 13 32q0 23 -29 37q-15 7 -31 14q-20 11 -20 26q0 21 30 21q15 0 63 -2t63 -2q16 0 49 2t48 2q25 0 25 -18zM412 33l-264 668q-18 47 -86 74l-4 -12q14 -9 26 -19q28 -26 40 -55l254 -632q9 -22 34 -24z" />
    <glyph glyph-name="W" unicode="W" horiz-adv-x="1327" 
d="M1306 786q0 -27 -39 -32q-77 -10 -99 -64l-265 -651q-7 -16 -22 -27q-11 -9 -16 -9q-28 0 -41 32l-192 479l-194 -475q-7 -16 -22 -27q-11 -9 -16 -9q-28 0 -41 32l-264 657q-11 27 -38 48q-17 7 -35 14q-26 10 -26 28q0 13 11 15t22 3q21 2 76 -1q66 -3 76 -3q11 0 58 5
t71 5q44 0 44 -12q0 -5 -10 -17q-12 -15 -13 -17q-4 -7 -25 -12q-17 -4 -17 -15q0 -5 2 -11l167 -446l139 323q-9 25 -37 93q-11 27 -38 48q-17 7 -35 14q-26 10 -26 28q0 13 11 15t22 3q21 2 76 -1q66 -3 76 -3q11 0 58 5t71 5q44 0 44 -11q0 -4 -10.5 -14.5t-12.5 -14.5
q-4 -7 -25 -15q-17 -6 -17 -18q0 -5 2 -11l167 -446l172 398q13 16 13 32q0 23 -29 37q-15 7 -31 14q-20 11 -20 26q0 21 30 21q15 0 63 -2t63 -2q16 0 49 2t48 2q25 0 25 -18zM880 33l-264 668q-18 47 -86 74l-4 -12q14 -9 26 -19q28 -26 40 -55l254 -632q5 -21 34 -24z
M412 33l-264 668q-18 47 -86 74l-4 -12q14 -9 26 -19q28 -26 40 -55l254 -632q9 -22 34 -24z" />
    <glyph glyph-name="X" unicode="X" horiz-adv-x="913" 
d="M895 783q0 -27 -39 -32q-94 -13 -114 -64l-220 -239l264 -341q33 -42 53 -48q26 -7 36 -15t10 -27q0 -13 -11 -15t-22 -3q-21 -2 -76 1q-66 3 -76 3q-11 0 -58 -5t-71 -5q-44 0 -44 12q0 5 11 18.5t12 15.5q4 7 27 10t23 11q0 7 -10 20l-186 239l-175 -190
q-24 -28 -24 -49q0 -24 37 -29q54 -7 54 -31q0 -21 -30 -21q-15 0 -63 3t-63 3q-16 0 -58 -3t-57 -3q-25 0 -25 18q0 27 39 32q29 4 58 28q13 11 53 52l221 231q1 1 -258 332q-34 44 -47 54q-18 5 -36 11q-28 8 -28 25q0 13 11 15t22 3q21 2 75 -1q64 -3 74 -3q11 0 63 5
t78 5q47 0 47 -13q0 -21 -23 -33q-3 -1 -30 -9q-13 -4 -13 -15q0 -5 3 -14l183 -236l177 185q13 16 13 32q0 23 -29 37q-15 7 -31 14q-20 11 -20 26q0 21 30 21q15 0 63 -2t63 -2q16 0 56.5 2t55.5 2q25 0 25 -18zM630 108l-517 655l-34 12l531 -683q13 -17 13 -31
q0 -24 -37 -32l43 -3q19 16 19 39q0 21 -18 43z" />
    <glyph glyph-name="Y" unicode="Y" horiz-adv-x="880" 
d="M831 779q-1 -16 -22 -21q-15 -3 -31 -6q-32 -13 -64 -25q-46 -20 -69 -58l-161 -263v-235q0 -58 4 -74q8 -38 42 -50q50 -4 50 -24q0 -11 -17 -26q-29 0 -85.5 4t-93.5 3q-28 0 -145 -8q-11 -1 -19 6t-7 19q1 16 17 19q29 4 30 5q15 6 29 13t19 24.5t5 62.5l-1 197
l-189 344q-25 45 -71 64q-42 15 -42 33q0 10 15 20q26 0 75 -3.5t80 -3.5q29 0 169 8q11 1 19 -6t7 -19q-1 -16 -14 -19q-18 -5 -21 -8q-29 -30 -29 -36q0 -9 11 -31l120 -229l152 240q13 27 13 38q0 17 -48 19q-45 12 -45 30q0 10 15 20q32 0 77.5 -2.5t74.5 -2.5
q31 0 124 6q11 1 19 -6t7 -19zM706 772l-84 -2q15 -12 15 -24q0 -5 -3 -10zM360 80v277l-191 359q-19 36 -78 57l-12 -8q15 -9 27 -18q30 -22 41 -43l189 -354v-270q0 -37 -41 -42v-14q21 4 40 17q25 17 25 39z" />
    <glyph glyph-name="Z" unicode="Z" horiz-adv-x="944" 
d="M897 -68q0 -25 -18 -25q-27 0 -32 39q-7 54 -64 54l-751 -1q-11 9 -23 34q-2 20 33 45l538 651h-380q-39 0 -53 -10q-18 -13 -18 -53q0 -14 -11 -31q-13 -20 -29 -20q-21 0 -21 30q0 15 4.5 36t4.5 36q0 16 -4.5 49t-4.5 48q0 25 18 25q14 0 23 -13t9 -26h66
q657 4 673 -3t26 -20.5t10 -18.5q0 -13 -10.5 -22.5t-21.5 -18.5l-555 -643l461 -1q39 0 52 9q17 12 17 52q0 14 12 32.5t28 18.5q21 0 21 -30q0 -15 -2 -63t-2 -63q0 -16 2 -49t2 -48zM857 118q-3 -15 -25 -40.5t-39 -31.5q5 -2 9 -2q7 0 18.5 8t18.5 10q18 8 18 56z
M111 716q-1 20 -8.5 42.5t-11.5 21.5q0 -107 -3 -111t-2 -11q2 -7 5 -6q4 2 12.5 24.5t7.5 39.5zM655 729l-37 -1l-572 -680h34z" />
    <glyph glyph-name="bracketleft" unicode="[" horiz-adv-x="191" 
d="M174 -60h-169v800l169 -1v-75h-94v-649h94v-75z" />
    <glyph glyph-name="backslash" unicode="\" horiz-adv-x="385" 
d="M355 0h-75l-282 740h75z" />
    <glyph glyph-name="bracketright" unicode="]" horiz-adv-x="191" 
d="M169 -60h-169v75h94v649h-94v75l169 1v-800z" />
    <glyph glyph-name="asciicircum" unicode="^" horiz-adv-x="236" 
d="M214 667h-34l-67 50l-67 -50h-34l73 117h56z" />
    <glyph glyph-name="underscore" unicode="_" horiz-adv-x="500" 
d="M500 -138h-500v75h500v-75z" />
    <glyph glyph-name="grave" unicode="`" horiz-adv-x="269" 
d="M241 609q-9 -27 -13 -21q-66 20 -172 54q-56 21 -56 61q0 11 4 22q8 23 28 23q8 0 60 -19q12 -4 33 -24q56 -42 116 -96zM66 654q-53 28 -48 68l-4 2q-4 -9 -4 -18q0 -19 13.5 -31t41.5 -25z" />
    <glyph glyph-name="a" unicode="a" 
d="M508 45q-14 -15 -46 -28q-38 -16 -75 -16q-77 0 -108 71q-122 -78 -192 -78q-25 0 -39 12q-40 32 -40 80q0 40 27.5 78.5t72.5 60.5q72 35 97 45q34 15 74 24q2 95 -4 109.5t-23 29.5q-21 19 -42 19q-42 0 -60 -24q-14 -27 -27 -53q-10 -16 -3 -43q5 -22 -8 -31
q-49 -31 -75 -31q-30 0 -30 39q0 25 11 54q50 142 249 138q179 -3 180 -90l1 -288q0 -44 25 -44q8 0 27 5.5t23 5.5q25 0 -15 -45zM352 44q-28 9 -28 75q0 1 -1 94v145q0 65 -51 105v-16q32 -34 32 -103v-225q0 -32 12.5 -57t33.5 -32zM88 306l-3 7q-9 -6 -22 -6
q-21 0 -21 22q0 10 5 24q11 33 39 73q11 16 11 19q0 1 -1 1q-7 0 -31 -34q-29 -40 -37 -82q-2 -10 -2 -18q0 -24 19 -24q21 0 43 18zM280 138l-1 84q-1 24 -25 24v0q-40 0 -81 -45q-45 -51 -26 -102q27 -24 57 -24q46 0 76 63zM152 230q-128 -55 -120 -146q6 -72 71 -72
q8 0 17 1.5l9 1.5l2 8q-20 2 -39 4q-37 13 -38 59q-2 78 94 132z" />
    <glyph glyph-name="b" unicode="b" horiz-adv-x="647" 
d="M623 250q0 -103 -74 -176.5t-177 -73.5q-99 0 -166 49q5 -16 12 -48q1 -18 -30 -19q-12 0 -98 22.5t-87.5 21t-8 6.5t-6.5 14q0 7 11 7q60 -2 60 61l1 492q0 63 -60 61q-11 0 -11 7q0 6 6.5 14t8.5 6q82 22 185 44q24 -1 33 -15.5t9 -62.5v-191q45 32 141 32
q103 0 177 -73.5t74 -177.5zM523 248q0 121 -78 195l-6 -10q59 -75 59 -185q0 -79 -22 -137q-18 -49 -39 -57l4 -8q27 12 50 56q32 59 32 146zM471 246q0 200 -135 204q-61 2 -83.5 -19t-21.5 -84l1 -191q0 -46 38.5 -81t86.5 -36q62 -1 91 68q23 54 23 139zM107 126v482
q0 60 -51 75l-2 -12q29 -19 29 -63v-482q0 -22 -13.5 -49.5t-22.5 -31.5l6 -8q14 8 32 32q22 30 22 57z" />
    <glyph glyph-name="c" unicode="c" 
d="M529 115q2 -24 -16 -44q-1 0 -38 -32q-14 -11 -71 -24q-67 -14 -131 -14q-111 0 -162.5 44.5t-70.5 82.5q-27 56 -22 148q5 99 80 166.5t184 67.5q20 0 40 -3l56 -4q39 -3 68 -14q58 -22 60 -66q1 -16 -6 -40q-6 -20 -9 -23q-28 -28 -47 -28q-24 0 -28 46q-3 31 -34 56
t-67 25q-10 0 -19 -2q-36 -9 -59 -37q-15 -19 -35 -61.5t-20 -100.5q0 -120 75 -159q79 -40 121 -40q30 0 62 13.5t56 45.5q21 28 22 28q8 0 11 -31zM159 441l-4 12q-40 -10 -76 -75q-34 -61 -36 -113q-6 -159 105 -215l5 10q-86 45 -82 217q1 46 26 98q28 58 62 66z
M451 423q-9 21 -35 34q-7 4 -49 19l-2 -10q66 -25 72 -77z" />
    <glyph glyph-name="d" unicode="d" horiz-adv-x="647" 
d="M630 53q11 0 11 -7q0 -6 -6.5 -14t-8.5 -6q-82 -22 -185 -44q-24 1 -34 17q-8 13 -8 61q-75 -60 -140 -60q-104 0 -177.5 73.5t-73.5 176.5q0 104 74 177.5t177 73.5q95 0 141 -32v128q0 27 -17 49q-21 25 -57 24q-11 0 -11 7q0 6 6.5 14t8.5 6q86 22 194 44
q27 -1 37 -17q7 -11 8 -27q2 -32 2 -34v-549q0 -63 59 -61zM475 9l-3 5q-4 -1 -8 -1q-16 0 -16 50q0 505 -1 524q-5 88 -60 89l6 -10q9 -5 15 -14q15 -23 16 -64v-517q1 -71 24 -71q7 0 27 9zM400 347q0 44 -23 66t-82 37q-11 3 -22 3q-53 0 -85 -71q-28 -60 -28 -136
q0 -85 22 -139q30 -69 92 -68q47 1 86 36t39 81zM147 63q-26 11 -53 54q-36 57 -36 133q0 110 67 175l-5 5q-87 -59 -87 -180q0 -85 46 -146q31 -40 64 -54z" />
    <glyph glyph-name="e" unicode="e" 
d="M530 115q2 -23 -15.5 -43t-34.5 -39q-9 -12 -63 -24q-59 -12 -122 -12q-127 0 -184 49q-50 43 -71 90q-23 53 -23 140q0 102 74.5 166t192.5 64q21 0 43 -2q48 -5 57 -7q39 -7 63 -26q34 -26 57 -83q6 -14 6 -30q0 -27 -15 -45q-17 -21 -45 -21h-265q-2 -17 -2 -35
q0 -120 75 -158q79 -40 122 -40q30 0 61.5 13.5t55.5 45.5q21 28 22 28q8 0 11 -31zM443 424q-8 20 -54 35l1 -6q13 -4 24.5 -18.5t11.5 -29.5q0 -20 -16.5 -36.5t-32.5 -20.5l1 -7q20 3 40 16q29 18 29 45q0 11 -4 22zM399 420q-19 40 -70 40q-13 0 -32 -3q-58 -8 -97 -83
q-11 -21 -11 -28h148q24 0 44.5 19t20.5 41q0 7 -3 14zM159 439l-4 10q-41 -10 -76 -66t-37 -106q-6 -166 109 -235l3 18q-91 47 -86 217q1 44 27 97q29 57 64 65z" />
    <glyph glyph-name="f" unicode="f" horiz-adv-x="487" 
d="M471 697q5 -6 3 -28q-3 -24 -14 -38q-14 -18 -41 -25q-26 -6 -54.5 43.5t-42.5 49.5q-46 0 -46 -147q0 -37 2 -40q4 -7 29 -7h73q40 -4 37 -40q-3 -42 -28 -42q-7 0 -18 3q-19 6 -61 31q-15 7 -23 7q-11 0 -11 -14v-279q0 -56 5 -75q9 -39 44 -48q48 -12 48 -30
q0 -10 -15 -20q-31 0 -86.5 5.5t-80.5 5.5q-22 0 -157 -8q-11 -1 -19 6t-7 19q1 16 12.5 20t22.5 7q23 13 47 25q16 14 16 67v305q0 6 -12 7h-40q-28 0 -24 0q-15 1 -15 14q0 32 46 32q39 0 45 12q2 16 3 31q12 96 65 141q60 51 183 51q80 0 114 -41zM391 680q-7 11 -41 24
q17 -30 51 -68q6 -4 9 -4v0q4 0 -4 15.5t-15 32.5zM227 679l-4 12q-89 -58 -89 -189q0 -398 -2 -404q-17 -52 -57 -54l2 -10q30 1 55 24q18 16 24 32q3 8 3 412q0 74 28 128q20 37 40 49z" />
    <glyph glyph-name="g" unicode="g" horiz-adv-x="570" 
d="M539 -16q0 -86 -102 -143q-75 -42 -187 -42q-86 0 -149 21q-92 31 -92 99q0 35 29 58q17 13 54 26q29 11 29 17q-36 -3 -58 32q-18 27 -18 58q0 24 27.5 49.5t61.5 25.5q9 0 17 -2q0 1 -5.5 4t-7.5 3q-54 19 -90 53q-43 40 -43 87q0 71 92 134q54 37 161 37q50 0 101 -16
v37h75v-76q22 -17 45 -34q33 -35 33 -80q0 -71 -77 -119q-66 -41 -146 -43l-52 -1q-56 -1 -56 -20q0 -7 9.5 -19.5t16.5 -15.5q4 -1 40 2q46 4 71 4q19 0 33 -2q71 -8 113 -25q75 -31 75 -109zM396 486v23h-19v-23h19zM387 328q-3 66 -28 106q-17 24 -35 32l-8 -5
q12 -6 26 -39q19 -45 20 -103q1 -50 -18 -81q-1 -2 -24 -28l5 -6q65 37 62 124zM338 320q0 146 -82 146q-78 0 -78 -119q0 -143 85 -143q75 0 75 116zM149 214q-48 35 -58 45q-37 36 -39 71t35 80q31 38 45 42l-1 11q-19 -5 -57 -44q-48 -49 -46 -91q4 -71 115 -118z
M452 -84q0 44 -59 60l-1 -5q12 -3 25 -18q17 -17 17 -37q0 -33 -28 -49l4 -3q13 6 25 11q17 13 17 41zM134 164l-5 7q-61 -22 -61 -62q0 -44 44 -73l5 7q-29 16 -29 66q0 18 18 36q14 14 28 19zM410 -82q0 39 -45 49q-18 4 -76 4q-79 0 -129 25q-10 0 -19 -9
q-18 -18 -18 -44q0 -58 51 -85q40 -22 103 -22q48 0 85 17q48 23 48 65zM159 -181v6q-45 9 -74 36t-28 57q1 25 28 51q20 19 33 23l-1 7q-22 -4 -48 -22q-34 -25 -36 -57q-2 -36 33 -63t93 -38z" />
    <glyph glyph-name="h" unicode="h" horiz-adv-x="647" 
d="M730 25q3 -3 3 -7q0 -10 -15 -20q-31 0 -82 5.5t-76 5.5q-20 0 -155 -8q-11 -1 -19 6t-7 19q1 16 12.5 20t22.5 7q24 13 47 25q17 14 17 67v181q0 50 -24 81q-27 36 -81 36q-65 0 -89 -36q-17 -26 -17 -81v-155q0 -8 -1 -25v-25q0 -62 41 -73q11 -3 36 -23q3 -3 3 -7
q0 -10 -15 -20q-31 0 -77.5 5.5t-71.5 5.5q-22 0 -157 -8q-11 -1 -19 6t-7 19q1 16 12.5 20t22.5 7q23 13 46 25q16 14 16 67v461q0 63 -60 61q-11 0 -11 7q0 6 6.5 14t8.5 6q82 22 185 44q24 -1 33 -15.5t9 -62.5v-212q79 55 141 55q127 0 174 -24q71 -36 71 -148v-160
q0 -8 -1 -24v-24q0 -64 42 -75q11 -3 36 -23zM528 336q0 47 -27 77l-36 30l6 -17q17 -19 19 -23q13 -23 13 -68v-214q0 -61 -69 -77l12 -4q28 1 54.5 25.5t26.5 53.5zM145 126v482q0 60 -51 75l-2 -12q29 -19 29 -63v-482q0 -62 -67 -82l6 -8q85 24 85 90z" />
    <glyph glyph-name="i" unicode="i" horiz-adv-x="361" 
d="M270 651q0 -36 -25.5 -61.5t-61.5 -25.5t-61.5 25.5t-25.5 61.5t25.5 61.5t61.5 25.5t61.5 -25.5t25.5 -61.5zM343 25q3 -3 3 -7q0 -10 -15 -20q-31 0 -77.5 5.5t-71.5 5.5q-22 0 -157 -8q-11 -1 -19 6t-7 19q1 16 12.5 20t22.5 7q23 13 47 25q16 14 16 67l-1 221
q0 63 -60 61q-11 0 -11 7q0 6 6.5 14t9.5 5t73.5 18.5t86.5 38.5q4 5 15 5q34 0 42.5 -14.5t8.5 -80.5v-249q0 -8 -1 -25v-25q0 -62 41 -73q11 -3 36 -23zM146 145v221q0 35 -8 49q-15 23 -59 21l-5 -4q47 1 47 -66v-221q0 -52 -12 -70q-9 -14 -40 -23l5 -5q39 9 48 18
q24 20 24 80zM162 582v7q-26 21 -24 63q2 40 15 53l2 11q-11 -3 -24 -25t-13 -40q0 -21 14 -42.5t30 -26.5z" />
    <glyph glyph-name="j" unicode="j" horiz-adv-x="294" 
d="M270 651q0 -36 -25.5 -61.5t-61.5 -25.5t-61.5 25.5t-25.5 61.5t25.5 61.5t61.5 25.5t61.5 -25.5t25.5 -61.5zM267 171q0 -138 -8 -179q-17 -88 -86 -139q-65 -48 -148 -53q-11 -1 -19 6t-7 19q1 16 12.5 20t22.5 7q35 23 47 45q16 28 16 86l-1 383q0 63 -60 61
q-11 0 -11 7q0 6 6.5 14t9.5 5t73.5 18.5t86.5 38.5q4 5 15 5q34 0 42.5 -14.5t8.5 -80.5v-249zM162 582v7q-26 21 -24 63q2 40 15 53l2 11q-11 -3 -24 -25t-13 -40q0 -21 14 -42.5t30 -26.5zM146 366q0 35 -8 49q-15 23 -59 21l-5 -4q47 1 47 -66v-409q0 -89 -60 -107l5 -5
q36 9 52 24q27 28 27 88z" />
    <glyph glyph-name="k" unicode="k" horiz-adv-x="744" 
d="M730 25q3 -3 3 -7q0 -10 -15 -20q-31 0 -82 5.5t-76 5.5q-20 0 -155 -8q-11 -1 -19 6t-7 19q1 17 13 20t23 4q12 -2 12 8q0 16 -28 54l-115 157l-17 -14v-84q0 -8 -1 -25v-25q0 -62 41 -73q11 -3 36 -23q3 -3 3 -7q0 -10 -15 -20q-31 0 -77.5 5.5t-71.5 5.5
q-22 0 -157 -8q-11 -1 -19 6t-7 19q1 16 12.5 20t22.5 7q23 13 47 25q16 14 16 67l-1 461q0 63 -60 61q-11 0 -11 7q0 6 6.5 14t8.5 6q82 22 185 44q24 -1 33 -15.5t9 -62.5v-345q163 125 163 142q0 6 -6 7q-5 0 -14.5 -1.5t-11.5 -1.5q-36 0 -36 22q0 19 39 19q15 0 45 -1
t45 -1t45 1t45 1q30 0 30 -20q0 -13 -32 -21q-24 -3 -77 -18q-34 -14 -85 -58l177 -265q23 -35 41.5 -48t58.5 -24q11 -3 36 -23zM446 119l-125 177l-20 -14l125 -177q16 -23 16 -42q0 -13 -6 -20l-2 -8q30 11 30 39q0 20 -18 45zM145 126v482q0 60 -51 75l-2 -12
q29 -19 29 -63v-482q0 -59 -61 -78l8 -8q77 22 77 86z" />
    <glyph glyph-name="l" unicode="l" horiz-adv-x="354" 
d="M343 25q3 -3 3 -7q0 -10 -15 -20q-31 0 -77.5 5.5t-71.5 5.5q-22 0 -157 -8q-11 -1 -19 6t-7 19q1 16 12.5 20t22.5 7q23 13 47 25q16 14 16 67l-1 461q0 63 -60 61q-11 0 -11 7q0 6 6.5 14t8.5 6q82 22 185 44q24 -1 33 -15.5t9 -62.5v-489q0 -8 -1 -25v-25
q0 -62 41 -73q11 -3 36 -23zM145 126v482q0 60 -51 75l-2 -12q29 -19 29 -63v-482q0 -59 -61 -78l8 -8q77 22 77 86z" />
    <glyph glyph-name="m" unicode="m" horiz-adv-x="1121" 
d="M1094 25q3 -3 3 -7q0 -10 -15 -20q-31 0 -82 5.5t-76 5.5q-20 0 -155 -8q-11 -1 -19 6t-7 19q1 17 12.5 21t22.5 6q37 10 46 19q17 18 17 73v181q0 50 -23 81q-27 36 -81 36q-97 0 -96 -112l1 -160q0 -9 -1 -25v-25q0 -62 41 -73q11 -3 36 -23q3 -3 3 -7q0 -10 -15 -20
q-31 0 -82 5.5t-76 5.5q-20 0 -155 -8q-11 -1 -19 6t-7 19q1 17 12.5 21t22.5 6q28 6 39 17q24 21 24 75l1 181q0 49 -24 81q-27 36 -81 36q-64 0 -83 -36q-11 -21 -11 -81v-155q0 -8 -1 -25v-25q0 -62 41 -73q11 -3 36 -23q3 -3 3 -7q0 -10 -15 -20q-31 0 -77.5 5.5
t-71.5 5.5q-22 0 -157 -8q-11 -1 -19 6t-7 19q1 17 12.5 21t22.5 6q33 9 43 19q20 20 20 73l-1 245q0 63 -60 61q-11 0 -11 7q0 6 6.5 14t8.5 6q82 22 185 44q24 -1 33 -15.5t9 -62.5q74 59 129 59q99 0 143 -12q64 -18 87 -72l54 56q34 28 92 28q127 0 174 -24
q70 -35 71 -148l1 -160q0 -9 -1 -25v-25q0 -62 41 -73q11 -3 36 -23zM895 118v244q0 60 -51 75l-2 -12q29 -20 29 -63v-244q0 -59 -61 -78l7 -8q78 22 78 86zM515 118v244q0 60 -51 75l-2 -12q29 -20 29 -63v-244q0 -59 -61 -78l8 -8q77 22 77 86zM145 118v270q0 60 -51 75
l-2 -12q29 -20 29 -63v-270q0 -59 -61 -78l8 -8q77 22 77 86z" />
    <glyph glyph-name="n" unicode="n" horiz-adv-x="744" 
d="M730 25q3 -3 3 -7q0 -10 -15 -20q-31 0 -82 5.5t-76 5.5q-20 0 -155 -8q-11 -1 -19 6t-7 19q1 17 13 22q11 2 22 5q40 13 47 20q17 17 17 72v181q0 50 -24 81q-27 36 -81 36q-65 0 -89 -36q-17 -26 -17 -81v-155q0 -8 -1 -25v-25q0 -62 41 -73q12 -3 36 -23q3 -3 3 -7
q0 -10 -15 -20q-31 0 -77.5 5.5t-71.5 5.5q-22 0 -157 -8q-11 -1 -19 6t-7 19q1 17 13 22q11 2 22 5q34 10 42 18q21 20 21 74l-1 245q0 63 -60 61q-11 0 -11 7q0 6 6.5 14t8.5 6q82 22 185 44q24 -1 33 -15.5t9 -62.5q74 59 141 59q127 0 174 -24q70 -35 71 -148l1 -160
q0 -9 -1 -25v-25q0 -62 41 -73q12 -3 36 -23zM532 118v244q0 60 -51 75l-2 -12q29 -20 29 -63v-244q0 -59 -62 -78l8 -8q78 22 78 86zM145 118v270q0 60 -51 75l-2 -12q29 -20 29 -63v-270q0 -59 -61 -78l8 -8q77 22 77 86z" />
    <glyph glyph-name="o" unicode="o" horiz-adv-x="627" 
d="M607 255q0 -113 -96 -188q-89 -70 -205 -70q-115 0 -198 66q-91 71 -91 184q0 109 97 183q89 68 200 68q108 0 186 -61q107 -84 107 -182zM485 230q0 160 -112 227l-4 -8q25 -13 50 -55q41 -68 41 -164q0 -94 -21 -139q-12 -25 -44 -50l4 -6q37 21 54 47q32 51 32 148z
M432 230q1 101 -47 172q-41 60 -81 60q-58 0 -88 -67q-24 -53 -24 -120q0 -80 29 -150q37 -92 103 -92q106 0 108 197zM176 432l-3 8q-41 -10 -81.5 -72t-42.5 -112q-5 -143 117 -204l5 8q-100 51 -96 198q1 44 33 103q33 63 68 71z" />
    <glyph glyph-name="p" unicode="p" horiz-adv-x="647" 
d="M662 250q0 -104 -77 -183t-180 -79q-53 0 -74 3q-36 6 -64 26v-44q-4 -25 -4 -44q0 -66 48 -79q12 -3 36 -23q3 -3 3 -7q0 -10 -15 -20q-31 0 -79.5 5.5t-73.5 5.5q-22 0 -157 -8q-11 -1 -19 6t-7 19q1 17 13 22q11 2 22 5q39 15 44 20q19 18 19 72l-1 443q0 63 -60 61
q-11 0 -11 7q0 6 6.5 14t8.5 6q82 22 185 44q24 -1 34 -17q13 -22 11 -36q46 32 141 32q104 0 177.5 -73.5t73.5 -177.5zM560 247q-2 102 -43 155q-14 18 -54 41l-4 -7q76 -40 77 -189q2 -146 -67 -205l8 -4q43 38 52 53q33 54 31 156zM510 246q0 200 -135 204
q-61 2 -83 -19t-22 -84v-218q0 -44 38 -72q35 -26 85 -27q62 -1 93 73q24 58 24 143zM145 -66v463q0 60 -51 75l-2 -12q29 -19 29 -63v-463q0 -68 -56 -85l6 -8q74 21 74 93z" />
    <glyph glyph-name="q" unicode="q" horiz-adv-x="647" 
d="M669 -172q1 -12 -7 -19t-19 -6q-135 8 -157 8q-25 0 -80 -5.5t-85 -5.5q-15 10 -15 20q0 4 3 7q12 16 36 23q34 9 46 48q5 16 10 75v44q-27 -20 -64 -26q-21 -3 -74 -3q-103 0 -180 79t-77 183t74 177.5t177 73.5q95 0 141 -32q-2 14 11 36q10 16 34 17q12 0 98 -22.5
t87.5 -21t8 -6.5t6.5 -14q0 -7 -11 -7q-60 2 -60 -61l-1 -443q0 -53 16 -67q24 -12 47 -25q11 -3 22.5 -7t12.5 -20zM447 -32v376q0 56 -20 79q-15 11 -31 23l-2 -12q18 -18 22 -29q7 -18 7 -63v-374q0 -62 -24 -98q-14 -21 -25 -24l6 -8q22 6 43 41q24 40 24 89zM398 347
q0 63 -22 84t-83 19q-135 -4 -135 -204q0 -85 24 -143q31 -74 93 -73q49 1 85.5 28t36.5 71zM141 52q-10 10 -20 19q-26 30 -42 67q-24 53 -23 109q1 142 83 185l-8 9q-28 -13 -48 -36q-49 -57 -51 -158q-1 -65 25 -117q19 -37 50 -64l26 -18z" />
    <glyph glyph-name="r" unicode="r" horiz-adv-x="519" 
d="M496 422q0 -34 -24.5 -57.5t-58.5 -23.5q-36 0 -63 29t-38 29q-32 0 -40 -25q-2 -8 -2 -47v-152q-4 -114 45 -127q10 -3 34 -23q3 -3 3 -7q0 -10 -15 -20q-31 0 -80.5 5.5t-74.5 5.5q-22 0 -157 -8q-11 -1 -19 6t-7 19q1 17 13 22q11 2 22 5q39 12 46 20q17 17 17 72
l-1 221q0 63 -60 61q-11 0 -11 7q0 6 6.5 14t9.5 5t73.5 18.5t86.5 38.5q4 5 15 5q34 0 44 -17t7 -78q68 78 144 78q33 0 59 -21.5t26 -54.5zM410 383q0 4 -26 19q-29 16 -49 17q21 -21 54 -51q4 -2 7 -2q14 0 14 17zM146 145v221q0 36 -9 52q-15 25 -60 23l-5 -4
q49 1 49 -71v-221q0 -51 -17 -73q-12 -16 -44 -26l5 -5q40 10 53 20q28 24 28 84z" />
    <glyph glyph-name="s" unicode="s" horiz-adv-x="460" 
d="M432 179q0 -84 -79 -139q-62 -43 -166 -43q-95 0 -148 30q-29 16 -29 41q0 19 14 35t33 16q8 0 16 -3q20 -9 29 -32q10 -26 22 -35q23 -16 83 -16q37 0 67 16q36 18 36 51q0 52 -86 78q-95 29 -135 52q-75 44 -75 109q0 73 70 120q63 42 141 42q71 0 145 -18
q29 -7 30 -41q1 -20 -11 -36t-31 -16q-8 0 -17 4q-20 8 -50 44q-24 28 -59 28q-33 0 -56 -12q-29 -15 -29 -45q0 -40 77 -64l57 -18q70 -22 104 -50q47 -38 47 -98zM362 429q0 4 -26 19q-29 16 -49 17q21 -21 54 -51q4 -2 7 -2q14 0 14 17zM349 87q1 8 1 15q0 68 -90 108
q-61 20 -122 41q-72 31 -72 90q0 38 26 73q18 25 35 36l-1 8q-36 -24 -48 -36q-37 -37 -36 -81q1 -66 77 -104q66 -24 131 -49q87 -39 79 -94q-5 -34 -44 -54l5 -6q55 28 59 53zM70 99q-1 1 -6 1q-33 -2 -33 -30q0 -16 23 -34l5 3q-15 18 -15 21q0 6 4 15q7 18 9.5 18.5
t7.5 2t5 3.5z" />
    <glyph glyph-name="t" unicode="t" horiz-adv-x="439" 
d="M417 465q-3 -42 -28 -42q-7 0 -18 3q-19 6 -61 31q-15 7 -23 7q-11 0 -11 -14v-279q0 -56 5 -75q9 -39 44 -48q48 -12 48 -30q0 -10 -15 -20q-31 0 -86.5 5.5t-80.5 5.5q-22 0 -157 -8q-11 -1 -19 6t-7 19q1 17 13 22q11 2 22 5q39 13 45 20q18 17 18 72v305q0 6 -12 7
h-40q-28 0 -24 0q-15 1 -15 14q0 35 46 56q103 47 179 193q9 17 24 17q13 -2 13 -53l-1 -132q0 -26 2 -32q5 -15 29 -15h73q40 -4 37 -40zM159 454q0 17 -22.5 31t-46.5 14q-8 0 -15 -2q-24 -7 -24 -11q0 -2 3 -3q61 4 80 -29q0 -350 -2 -356q-17 -52 -57 -54l2 -10
q54 2 79 56q3 6 3 364z" />
    <glyph glyph-name="u" unicode="u" horiz-adv-x="744" 
d="M700 53q11 0 11 -7q0 -6 -6.5 -14t-8.5 -6q-82 -22 -185 -44q-24 1 -34 17q-8 13 -8 61q-74 -59 -141 -59q-127 0 -174 24q-71 36 -71 148v160q0 58 -4 77q-8 39 -37 46q-11 3 -36 23q-3 3 -3 7q0 10 15 20q31 0 82 -5.5t76 -5.5q48 0 61 -16q21 -25 21 -120v-181
q0 -50 24 -81q27 -36 81 -36q65 0 89 36q17 26 17 81v155q0 66 -2 80q-8 43 -38 43q-11 3 -36 23q-3 3 -3 7q0 10 15 20q31 0 77.5 -5.5t71.5 -5.5q48 0 62 -18q23 -26 23 -118l1 -245q0 -63 60 -61zM518 173v221q0 31 -8 43q-13 18 -59 31l-5 -4q32 -14 42 -35q6 -11 6 -35
v-221q0 -68 -33 -85l5 -5q52 35 52 90zM178 50q-32 23 -41 54q-5 19 -5 69v221q0 31 -8 43q-13 18 -59 31l-5 -4q32 -14 42 -35q6 -11 6 -35l1 -221q0 -61 9 -83q10 -28 49 -44z" />
    <glyph glyph-name="v" unicode="v" horiz-adv-x="637" 
d="M613 484q0 -17 -23 -21q-37 -7 -42 -9q-14 -7 -26 -36l-164 -387q-10 -24 -16 -30q-10 -10 -32 -10q-19 0 -27 10l-14 28l-173 362q-12 26 -32.5 48t-31.5 24t-21.5 5t-10.5 14q0 20 34 20q19 0 70.5 -3.5t71.5 -3.5q22 0 66 3.5t65 3.5q32 0 32 -18t-36 -21
q-24 -2 -24 -37q0 -11 4 -22l69 -175q11 -29 19 -29q9 0 15 26l53 132q18 45 18 70q0 22 -15 30q-4 2 -26 5q-34 5 -33 19q1 20 25 20q15 0 44.5 -3.5t44.5 -3.5t44.5 3.5t43.5 3.5q28 0 28 -18zM320 17l-56 126l-121 253q-29 61 -68 74l-5 -4q19 -10 48 -70l122 -253
l26 -62q21 -47 39 -61z" />
    <glyph glyph-name="w" unicode="w" horiz-adv-x="1025" 
d="M991 484q0 -17 -23 -21q-37 -7 -42 -9q-14 -7 -26 -36l-164 -387q-10 -24 -16 -30q-10 -10 -32 -10q-19 0 -27 10l-14 28l-154 322l-135 -320q-10 -24 -16 -30q-10 -10 -32 -10q-19 0 -27 10l-14 28l-173 362q-12 26 -32.5 48t-31.5 24t-21.5 5t-10.5 14q0 20 34 20
q19 0 70.5 -3.5t71.5 -3.5q22 0 66 3.5t65 3.5q32 0 32 -18t-36 -21q-24 -2 -24 -37q0 -11 4 -22l69 -175q11 -29 19 -29q9 0 15 26l53 132q15 37 24 53q-31 48 -53 52q-11 2 -21.5 4.5t-10.5 14.5q0 20 34 20q19 0 70.5 -3.5t71.5 -3.5q22 0 66 3.5t65 3.5q32 0 32 -18
t-36 -21q-24 -2 -24 -37q0 -11 4 -22l69 -175q11 -29 19 -29q9 0 15 26l53 132q18 45 18 70q0 22 -15 30q-4 2 -26 5q-34 5 -33 19q1 20 25 20q15 0 44.5 -3.5t44.5 -3.5t44.5 3.5t43.5 3.5q28 0 28 -18zM698 15q-24 55 -56 128l-120 253q-29 61 -67 74l-5 -4q18 -10 47 -70
l121 -253q13 -31 26 -63q21 -48 39 -62zM318 15q-15 27 -33 74q-21 53 -21 54l-120 253q-29 61 -69 74l-5 -4q21 -11 49 -70l121 -253q12 -31 25 -63q20 -48 38 -62z" />
    <glyph glyph-name="x" unicode="x" horiz-adv-x="699" 
d="M677 15q0 -18 -32 -18q-21 0 -68 3.5t-69 3.5q-20 0 -71.5 -3.5t-70.5 -3.5q-34 0 -34 20q0 11 10.5 14t21.5 5q26 6 26 20q0 8 -7 18l-74 100q-25 -23 -94 -89q-17 -16 -17 -29q0 -17 28 -22q23 -4 23 -21q0 -18 -28 -18q-14 0 -49.5 5t-50.5 5t-50.5 -5t-50.5 -5
q-27 0 -25 20q1 16 22 19l29 3q34 21 109 93l109 104l-56 76q-57 77 -72 96q-32 41 -48 50q-12 7 -31 7h-20q-11 2 -21.5 5t-10.5 14q0 20 34 20q19 0 76.5 -3.5t77.5 -3.5q22 0 66 3.5t65 3.5q32 0 32 -18t-36 -21q-5 0 -5 -5q0 -15 26 -49l44 -59l43 41q44 42 44 62
q0 8 -9 9q-34 5 -33 19q1 20 25 20q15 0 44.5 -3.5t44.5 -3.5t49 3.5t48 3.5q28 0 28 -18q0 -15 -26 -18q-7 -1 -37 -17q-34 -18 -61.5 -45.5l-56.5 -56.5l-58 -55l90 -118q105 -138 121 -137q22 2 29 -2.5t7 -18.5zM414 33q13 20 13 30q0 9 -13 28q-21 32 -34 58l-186 253
q-12 24 -62 54l-31 18l-5 -4q3 -1 30 -24q36 -29 43 -44l187 -253q5 -10 32 -46q19 -26 19 -43q0 -16 -14 -31q17 -13 21 4z" />
    <glyph glyph-name="y" unicode="y" horiz-adv-x="637" 
d="M613 484q0 -17 -23 -21q-37 -7 -42 -9q-14 -7 -26 -36l-164 -387q-11 -28 -22 -57q-20 -49 -41 -78q-12 -17 -24 -33.5t-29 -26.5q-44 -27 -73 -27q-20 0 -38 10q-40 23 -40 75q0 39 23 68q31 39 80 39q48 0 78 -37q10 37 -3 65l-173 362q-12 26 -32.5 48t-31.5 24
t-21.5 5t-10.5 14q0 20 34 20q19 0 70.5 -3.5t71.5 -3.5q22 0 66 3.5t65 3.5q32 0 32 -18t-36 -21q-24 -2 -24 -37q0 -11 4 -22l69 -175q11 -29 19 -29q9 0 15 26l53 132q18 45 18 70q0 22 -15 30q-4 2 -26 5q-34 5 -33 19q1 20 25 20q15 0 44.5 -3.5t44.5 -3.5t44.5 3.5
t43.5 3.5q28 0 28 -18zM316 15q-15 27 -33 74q-20 52 -21 54l-122 253q-30 62 -67 74l-5 -4q17 -9 47 -70l123 -253q21 -43 58 -130zM158 -174v7q-26 21 -24 63q2 40 15 53l2 11q-11 -3 -24 -25t-13 -40q0 -21 14 -42.5t30 -26.5z" />
    <glyph glyph-name="z" unicode="z" horiz-adv-x="480" 
d="M466 21q3 -23 -24 -23q-38 0 -113 1t-113 1q-30 0 -88.5 -1t-87.5 -1q-25 0 -25 15q0 7 19 39l218 369q18 23 18 32q0 7 -39 7q-45 -9 -90 -17q-42 -14 -67 -75q-6 -21 -20 -21q-26 0 -20 45q5 25 5 40q0 16 -5 43q-3 25 22 25h209q162 -1 152 -1q39 0 29 1q19 -2 19 -15
q0 -11 -14 -30l-219 -376q-17 -21 -17 -32q0 -9 32 -8q89 2 109 9q44 15 70 80q6 21 20 21q26 0 20 -45q-5 -25 -5 -40q0 -16 5 -43zM78 440q-1 18 -7 30t-11 10q0 -81 -4 -86.5t-3 -12.5q2 -7 5 -5q4 2 12.5 24.5t7.5 39.5zM430 104q-3 -16 -25 -41t-39 -31q5 -2 9 -2
q7 0 17 6q14 9 20 12q19 7 18 56zM296 461l-11 -4q-2 -13 -8 -28q-13 -38 -41 -85l-165 -279q-9 -18 -18.5 -34.5t-17.5 -15.5l14 2q11 -1 18.5 5t22.5 31l167 279q40 67 40 116q0 8 -1 13z" />
    <glyph glyph-name="braceleft" unicode="{" horiz-adv-x="221" 
d="M209 -138q-158 16 -158 126v283q0 38 -52 84q52 44 52 80v205q0 117 155 125q-80 -47 -80 -104v-205q0 -47 -52 -101q52 -47 52 -102v-283q0 -75 83 -108z" />
    <glyph glyph-name="bar" unicode="|" horiz-adv-x="118" 
d="M98 0h-75v800h75v-800z" />
    <glyph glyph-name="braceright" unicode="}" horiz-adv-x="221" 
d="M201 355q-52 -46 -52 -84v-283q0 -110 -158 -126q83 33 83 108v283q0 55 52 102q-52 54 -52 101v205q0 57 -80 104q155 -8 155 -125v-205q0 -36 52 -80z" />
    <glyph glyph-name="asciitilde" unicode="~" 
d="M522 688q0 -22 -35 -57q-77 -79 -142 -79q-45 0 -95.5 60.5t-84.5 60.5q-31 0 -76 -43t-48 -43q-19 0 -19 20q0 30 35 72q80 97 144 97q46 0 87 -32q10 -7 60 -58q30 -32 53 -32q26 0 62 27.5t43 27.5q16 0 16 -21zM240 745q-21 13 -63 5q-59 -13 -115 -104l16 5
q65 83 124 83q17 0 29 -7z" />
    <glyph glyph-name="Adieresis" unicode="&#xc4;" horiz-adv-x="882" 
d="M866 0q-127 5 -163 5q-33 0 -164 -5q-3 7 -12 27q-1 1 27 13t28 30q0 4 -2 10q-26 70 -76 157h-254l-82 -165q-3 -7 -3 -12q0 -13 30 -20q38 -10 47 -16q3 -2 3 -6q0 -8 -12 -18l-136 5q-15 0 -97 -5q3 7 12 27q0 1 31.5 9t41.5 29l254 545l-31 73l121 117l331 -714
q19 -41 91 -57q7 -16 15 -29zM636 37q3 6 3 14q0 19 -16 46l-264 588l-22 -10l263 -587q11 -18 11 -31q0 -26 -41 -27l6 -10q16 1 31 3q22 1 29 14zM470 312l-91 203l-94 -203h185zM359 558l-19 8l-219 -480q-27 -59 -67 -59l2 -9q15 0 41 16q31 20 43 45zM532 888
q0 -25 -18 -43.5t-44 -18.5q-25 0 -43.5 18.5t-18.5 43.5q0 26 18.5 44t43.5 18q26 0 44 -18t18 -44zM352 888q0 -25 -18 -43.5t-44 -18.5q-25 0 -43.5 18.5t-18.5 43.5q0 26 18.5 44t43.5 18q26 0 44 -18t18 -44zM443 854v3q-13 11 -12 32q1 20 7 26l1 6q-5 -2 -11.5 -13
t-6.5 -20q0 -28 22 -34zM263 854v3q-13 11 -12 32q1 20 7 26l1 6q-5 -2 -11.5 -13t-6.5 -20q0 -28 22 -34z" />
    <glyph glyph-name="Aring" unicode="&#xc5;" horiz-adv-x="882" 
d="M866 0q-127 5 -163 5q-33 0 -164 -5q-3 7 -12 27q-1 1 27 13t28 30q0 4 -2 10q-26 70 -76 157h-254l-82 -165q-3 -7 -3 -12q0 -13 30 -20q38 -10 47 -16q3 -2 3 -6q0 -8 -12 -18l-136 5q-15 0 -97 -5q3 7 12 27q0 1 31.5 9t41.5 29l254 545l-31 73l121 117l331 -714
q19 -41 91 -57q7 -16 15 -29zM636 37q3 6 3 14q0 19 -16 46l-264 588l-22 -10l263 -587q11 -18 11 -31q0 -26 -41 -27l6 -10q16 1 31 3q22 1 29 14zM470 312l-91 203l-94 -203h185zM359 558l-19 8l-219 -480q-27 -59 -67 -59l2 -9q15 0 41 16q31 20 43 45zM465 886
q0 -31 -22 -53t-53 -22t-53 22t-22 53t22 53t53 22t53 -22t22 -53zM424 886q0 34 -34 34t-34 -34t34 -34t34 34z" />
    <glyph glyph-name="Ccedilla" unicode="&#xc7;" horiz-adv-x="759" 
d="M737 104q0 -16 -21 -50q-27 -44 -106 -59q-43 -8 -132 -9h-40l-1 -1h12q40 1 73 -21q35 -25 37 -62q2 -36 -7 -53q-5 -12 -24.5 -28.5t-60.5 -16.5q-55 0 -71 13q-21 17 -20 27q1 9 4 12q1 0 9 -11t19.5 -16t21.5 -5q15 0 43 14.5t28 56.5q0 21 -7 36q-15 31 -34 36
q-14 3 -28 -6t-15 -22q-1 -17 -10 -17q-7 0 -17 10q-6 12 -6 23q1 10 9 16l10 16q-132 9 -240 78q-75 48 -115 144q-35 85 -35 184q0 107 40 183q36 70 119 138q123 101 373 92q42 0 84 -1q34 -1 69 -13q25 -9 24 -51l-1 -49q-1 -39 -23 -39q-6 0 -11.5 3.5t-67.5 64.5
q-42 41 -80 41q-202 0 -266 -122q-52 -99 -52 -208q0 -91 6 -133q10 -76 44 -119q63 -80 117 -113q42 -25 103 -34q15 -2 30 -2q57 0 89 33q20 21 53 75q25 42 41 46q15 4 25 -15q8 -15 8 -29v-37zM690 715q-15 38 -84 63l-2 -10q25 -9 45 -28q25 -23 27 -49zM708 125
l-14 24q-5 -28 -24.5 -57t-39.5 -36l2 -10q52 19 76 79zM230 716l-10 8q-87 -72 -125 -142q-44 -80 -44 -189q0 -99 40 -186q43 -96 121 -147l8 6q-72 45 -111 144q-33 86 -33 183q0 106 38 184q37 75 116 139z" />
    <glyph glyph-name="Eacute" unicode="&#xc9;" horiz-adv-x="745" 
d="M705 169q0 -8 -3.5 -23.5t-4.5 -21.5l-11 -104q-3 -27 -19 -27q-80 0 -239 3.5t-239 3.5q-27 0 -81 -2t-81 -2q-26 0 -26 25q0 15 13 19q19 6 22 8q63 57 63 97v513q0 23 -13 51.5t-32 34.5q-56 17 -56 37q0 23 78 23q35 0 105.5 -3.5t105.5 -3.5q57 0 172.5 3t173.5 3
q23 0 23 -38v-90q0 -22 -20 -22q-14 0 -31 27t-46 52q-26 22 -141 22q-52 0 -91 -5q-32 -4 -42.5 -20.5t-10.5 -50.5v-190q0 -17 12.5 -30.5t28.5 -13.5q117 0 133 3q31 7 46 48q14 38 31 38q21 0 20 -26l-4 -86q0 -14 2 -43t2 -43q0 -28 -21 -28q-28 0 -31 17q-5 30 -7 33
q-7 10 -14 21q-10 12 -19 15q-27 7 -108 7q-48 0 -59.5 -12.5t-11.5 -63.5v-156q0 -111 94 -111q183 0 217 34q26 22 64 66q19 35 34 35q22 0 22 -23zM636 711q-15 38 -84 63l-2 -10q56 -21 72 -77zM512 376v76l-36 -32zM662 82l-1 58q0 -32 -93 -86l10 -8q21 5 37 10
q38 12 47 26zM148 124v558q0 60 -47 77v-12q22 -21 22 -65v-558q0 -20 -26 -45q-20 -19 -35 -26l6 -8q80 43 80 79zM520 962q4 -11 4 -22q0 -40 -56 -61q-37 -14 -172 -54q-4 -6 -13 21q2 6 57.5 49t58.5 47q10 10 33 24q52 19 60 19q20 0 28 -23zM476 967q-1 6 -19 0
q-27 -6 -96 -65q2 0 7 -2q45 37 75 50q14 4 27 7q8 3 6 10z" />
    <glyph glyph-name="Ntilde" unicode="&#xd1;" horiz-adv-x="823" 
d="M810 786q0 -27 -39 -32q-54 -7 -54 -64v-651q-6 -19 -23 -29q-11 -7 -19 -7q-14 0 -23 10.5t-18 21.5l-469 585v-491q0 -39 9 -52q12 -17 52 -17q14 0 32.5 -12t18.5 -28q0 -21 -30 -21q-15 0 -64 2t-64 2q-16 0 -49 -2t-48 -2q-25 0 -25 18q0 27 39 32q54 7 54 64v555
q0 35 -5 45t-38 36q-11 5 -24 10t-13 23q0 13 11 15t22 3q21 2 57 -2q42 -4 56 -4q34 0 91 6q13 1 21 -8t16 -19l360 -428v329q0 39 -9 52q-12 17 -52 17q-14 0 -31 11q-20 13 -20 29q0 21 30 21q15 0 63 -2t63 -2q16 0 49 2t48 2q25 0 25 -18zM671 65l-506 636l2 -38
l476 -592q12 -15 18 -15t10 9zM139 122v558q0 60 -51 79l-2 -14q28 -21 28 -65l-1 -558q0 -29 -13 -56q-11 -22 -21 -27l8 -6q52 28 52 89zM602 933q0 -17 -28 -46q-61 -63 -114 -63q-36 0 -76 48.5t-68 48.5q-24 0 -60.5 -34.5t-38.5 -34.5q-15 0 -15 16q0 24 28 58
q64 77 115 77q37 0 70 -25q8 -6 47 -47q25 -25 43 -25q21 0 50 22t34 22q13 0 13 -17zM376 979q-16 10 -50 4q-47 -11 -92 -83l13 3q52 67 99 67q14 0 23 -5z" />
    <glyph glyph-name="Odieresis" unicode="&#xd6;" horiz-adv-x="790" 
d="M761 399q0 -158 -108.5 -280.5t-249.5 -122.5q-210 0 -316 137q-83 108 -83 262q0 140 80 255q104 153 301 153q144 0 259 -121q117 -124 117 -283zM640 373q0 85 -28 181q-37 122 -101 174l-8 -10q60 -49 90 -169q22 -88 22 -176q0 -76 -25 -163q-32 -108 -84 -148
l12 -8q56 44 92 152q30 91 30 167zM589 373q0 123 -41 235q-57 154 -166 154q-90 0 -149 -126q-49 -103 -49 -202q0 -114 39 -225q62 -173 192 -171q86 1 135 130q39 100 39 205zM204 66q-73 46 -115 144q-37 88 -37 183q0 209 152 333l-10 8q-85 -70 -124 -147
q-43 -84 -43 -194q0 -97 44 -186q46 -95 125 -147zM532 888q0 -25 -18 -43.5t-44 -18.5q-25 0 -43.5 18.5t-18.5 43.5q0 26 18.5 44t43.5 18q26 0 44 -18t18 -44zM352 888q0 -25 -18 -43.5t-44 -18.5q-25 0 -43.5 18.5t-18.5 43.5q0 26 18.5 44t43.5 18q26 0 44 -18t18 -44z
M443 854v3q-13 11 -12 32q1 20 7 26l1 6q-5 -2 -11.5 -13t-6.5 -20q0 -28 22 -34zM263 854v3q-13 11 -12 32q1 20 7 26l1 6q-5 -2 -11.5 -13t-6.5 -20q0 -28 22 -34z" />
    <glyph glyph-name="Udieresis" unicode="&#xdc;" horiz-adv-x="865" 
d="M841 786q0 -27 -38.5 -32t-51.5 -15q-18 -13 -18 -49v-405q0 -66 -17 -105q-13 -28 -54 -77q-46 -54 -116 -79q-50 -17 -131 -24q-28 -2 -51 -2q-119 0 -181 62q-49 49 -59 67q-29 49 -29 136v399q0 51 -17 68q-10 5 -21 10q-17 7 -35 14q-26 10 -26 28q0 13 11 15t22 3
q21 2 76 -1q66 -3 76 -3q11 0 48.5 3.5t57.5 3.5q30 0 45 -6q31 2 36 -11q1 -3 1 -6q0 -13 -19 -24q-11 -5 -22 -11q-12 -10 -23 -21q-15 -18 -15 -74v-311q0 -96 3 -118q10 -59 52 -98q32 -30 38 -34q20 -13 58 -17q10 -1 20 -1q78 0 139 61q34 34 47 67.5t13 88.5v386
q0 46 -15 55q-18 7 -37 14l-30 14q-21 11 -21 26q0 21 30 21q15 0 66 -2t66 -2q16 0 49 2t48 2q25 0 25 -18zM230 71q-80 46 -82 149v444q0 87 -76 110v-10q52 -31 52 -100v-444q3 -31 13 -58q26 -65 87 -101zM532 888q0 -25 -18 -43.5t-44 -18.5q-25 0 -43.5 18.5
t-18.5 43.5q0 26 18.5 44t43.5 18q26 0 44 -18t18 -44zM352 888q0 -25 -18 -43.5t-44 -18.5q-25 0 -43.5 18.5t-18.5 43.5q0 26 18.5 44t43.5 18q26 0 44 -18t18 -44zM443 854v3q-13 11 -12 32q1 20 7 26l1 6q-5 -2 -11.5 -13t-6.5 -20q0 -28 22 -34zM263 854v3
q-13 11 -12 32q1 20 7 26l1 6q-5 -2 -11.5 -13t-6.5 -20q0 -28 22 -34z" />
    <glyph glyph-name="aacute" unicode="&#xe1;" 
d="M508 45q-14 -15 -46 -28q-38 -16 -75 -16q-77 0 -108 71q-122 -78 -192 -78q-25 0 -39 12q-40 32 -40 80q0 40 27.5 78.5t72.5 60.5q72 35 97 45q34 15 74 24q2 95 -4 109.5t-23 29.5q-21 19 -42 19q-42 0 -60 -24q-14 -27 -27 -53q-10 -16 -3 -43q5 -22 -8 -31
q-49 -31 -75 -31q-30 0 -30 39q0 25 11 54q50 142 249 138q179 -3 180 -90l1 -288q0 -44 25 -44q8 0 27 5.5t23 5.5q25 0 -15 -45zM352 44q-28 9 -28 75q0 1 -1 94v145q0 65 -51 105v-16q32 -34 32 -103v-225q0 -32 12.5 -57t33.5 -32zM88 306l-3 7q-9 -6 -22 -6
q-21 0 -21 22q0 10 5 24q11 33 39 73q11 16 11 19q0 1 -1 1q-7 0 -31 -34q-29 -40 -37 -82q-2 -10 -2 -18q0 -24 19 -24q21 0 43 18zM280 138l-1 84q-1 24 -25 24v0q-40 0 -81 -45q-45 -51 -26 -102q27 -24 57 -24q46 0 76 63zM152 230q-128 -55 -120 -146q6 -72 71 -72
q8 0 17 1.5l9 1.5l2 8q-20 2 -39 4q-37 13 -38 59q-2 78 94 132zM427 659q4 -11 4 -22q0 -40 -56 -61q-37 -14 -172 -54q-4 -6 -13 21q2 6 57.5 49t58.5 47q10 10 33 24q52 19 60 19q20 0 28 -23zM383 664q-1 6 -19 0q-27 -6 -96 -65q2 0 7 -2q45 37 75 50q14 4 27 7
q8 3 6 10z" />
    <glyph glyph-name="agrave" unicode="&#xe0;" 
d="M508 45q-14 -15 -46 -28q-38 -16 -75 -16q-77 0 -108 71q-122 -78 -192 -78q-25 0 -39 12q-40 32 -40 80q0 40 27.5 78.5t72.5 60.5q72 35 97 45q34 15 74 24q2 95 -4 109.5t-23 29.5q-21 19 -42 19q-42 0 -60 -24q-14 -27 -27 -53q-10 -16 -3 -43q5 -22 -8 -31
q-49 -31 -75 -31q-30 0 -30 39q0 25 11 54q50 142 249 138q179 -3 180 -90l1 -288q0 -44 25 -44q8 0 27 5.5t23 5.5q25 0 -15 -45zM352 44q-28 9 -28 75q0 1 -1 94v145q0 65 -51 105v-16q32 -34 32 -103v-225q0 -32 12.5 -57t33.5 -32zM88 306l-3 7q-9 -6 -22 -6
q-21 0 -21 22q0 10 5 24q11 33 39 73q11 16 11 19q0 1 -1 1q-7 0 -31 -34q-29 -40 -37 -82q-2 -10 -2 -18q0 -24 19 -24q21 0 43 18zM280 138l-1 84q-1 24 -25 24v0q-40 0 -81 -45q-45 -51 -26 -102q27 -24 57 -24q46 0 76 63zM152 230q-128 -55 -120 -146q6 -72 71 -72
q8 0 17 1.5l9 1.5l2 8q-20 2 -39 4q-37 13 -38 59q-2 78 94 132zM262 549q-9 -27 -13 -21q-66 20 -172 54q-56 21 -56 61q0 11 4 22q8 23 28 23q8 0 60 -19q12 -4 33 -24q56 -42 116 -96zM87 594q-53 28 -48 68l-4 2q-4 -9 -4 -18q0 -19 13.5 -31t41.5 -25z" />
    <glyph glyph-name="acircumflex" unicode="&#xe2;" 
d="M508 45q-14 -15 -46 -28q-38 -16 -75 -16q-77 0 -108 71q-122 -78 -192 -78q-25 0 -39 12q-40 32 -40 80q0 40 27.5 78.5t72.5 60.5q72 35 97 45q34 15 74 24q2 95 -4 109.5t-23 29.5q-21 19 -42 19q-42 0 -60 -24q-14 -27 -27 -53q-10 -16 -3 -43q5 -22 -8 -31
q-49 -31 -75 -31q-30 0 -30 39q0 25 11 54q50 142 249 138q179 -3 180 -90l1 -288q0 -44 25 -44q8 0 27 5.5t23 5.5q25 0 -15 -45zM352 44q-28 9 -28 75q0 1 -1 94v145q0 65 -51 105v-16q32 -34 32 -103v-225q0 -32 12.5 -57t33.5 -32zM88 306l-3 7q-9 -6 -22 -6
q-21 0 -21 22q0 10 5 24q11 33 39 73q11 16 11 19q0 1 -1 1q-7 0 -31 -34q-29 -40 -37 -82q-2 -10 -2 -18q0 -24 19 -24q21 0 43 18zM280 138l-1 84q-1 24 -25 24v0q-40 0 -81 -45q-45 -51 -26 -102q27 -24 57 -24q46 0 76 63zM152 230q-128 -55 -120 -146q6 -72 71 -72
q8 0 17 1.5l9 1.5l2 8q-20 2 -39 4q-37 13 -38 59q-2 78 94 132zM430 533h-57l-112 83l-112 -83h-56l122 196h92zM373 565l-86 75l-6 -11l86 -75zM235 692v20q0 3 -18 -8l-92 -147q23 3 17.5 3t92.5 132z" />
    <glyph glyph-name="adieresis" unicode="&#xe4;" 
d="M508 45q-14 -15 -46 -28q-38 -16 -75 -16q-77 0 -108 71q-122 -78 -192 -78q-25 0 -39 12q-40 32 -40 80q0 40 27.5 78.5t72.5 60.5q72 35 97 45q34 15 74 24q2 95 -4 109.5t-23 29.5q-21 19 -42 19q-42 0 -60 -24q-14 -27 -27 -53q-10 -16 -3 -43q5 -22 -8 -31
q-49 -31 -75 -31q-30 0 -30 39q0 25 11 54q50 142 249 138q179 -3 180 -90l1 -288q0 -44 25 -44q8 0 27 5.5t23 5.5q25 0 -15 -45zM352 44q-28 9 -28 75q0 1 -1 94v145q0 65 -51 105v-16q32 -34 32 -103v-225q0 -32 12.5 -57t33.5 -32zM88 306l-3 7q-9 -6 -22 -6
q-21 0 -21 22q0 10 5 24q11 33 39 73q11 16 11 19q0 1 -1 1q-7 0 -31 -34q-29 -40 -37 -82q-2 -10 -2 -18q0 -24 19 -24q21 0 43 18zM280 138l-1 84q-1 24 -25 24v0q-40 0 -81 -45q-45 -51 -26 -102q27 -24 57 -24q46 0 76 63zM152 230q-128 -55 -120 -146q6 -72 71 -72
q8 0 17 1.5l9 1.5l2 8q-20 2 -39 4q-37 13 -38 59q-2 78 94 132zM412 588q0 -25 -18 -43.5t-44 -18.5q-25 0 -43.5 18.5t-18.5 43.5q0 26 18.5 44t43.5 18q26 0 44 -18t18 -44zM232 588q0 -25 -18 -43.5t-44 -18.5q-25 0 -43.5 18.5t-18.5 43.5q0 26 18.5 44t43.5 18
q26 0 44 -18t18 -44zM323 554v3q-13 11 -12 32q1 20 7 26l1 6q-5 -2 -11.5 -13t-6.5 -20q0 -28 22 -34zM143 554v3q-13 11 -12 32q1 20 7 26l1 6q-5 -2 -11.5 -13t-6.5 -20q0 -28 22 -34z" />
    <glyph glyph-name="atilde" unicode="&#xe3;" 
d="M508 45q-14 -15 -46 -28q-38 -16 -75 -16q-77 0 -108 71q-122 -78 -192 -78q-25 0 -39 12q-40 32 -40 80q0 40 27.5 78.5t72.5 60.5q72 35 97 45q34 15 74 24q2 95 -4 109.5t-23 29.5q-21 19 -42 19q-42 0 -60 -24q-14 -27 -27 -53q-10 -16 -3 -43q5 -22 -8 -31
q-49 -31 -75 -31q-30 0 -30 39q0 25 11 54q50 142 249 138q179 -3 180 -90l1 -288q0 -44 25 -44q8 0 27 5.5t23 5.5q25 0 -15 -45zM352 44q-28 9 -28 75q0 1 -1 94v145q0 65 -51 105v-16q32 -34 32 -103v-225q0 -32 12.5 -57t33.5 -32zM88 306l-3 7q-9 -6 -22 -6
q-21 0 -21 22q0 10 5 24q11 33 39 73q11 16 11 19q0 1 -1 1q-7 0 -31 -34q-29 -40 -37 -82q-2 -10 -2 -18q0 -24 19 -24q21 0 43 18zM280 138l-1 84q-1 24 -25 24v0q-40 0 -81 -45q-45 -51 -26 -102q27 -24 57 -24q46 0 76 63zM152 230q-128 -55 -120 -146q6 -72 71 -72
q8 0 17 1.5l9 1.5l2 8q-20 2 -39 4q-37 13 -38 59q-2 78 94 132zM457 633q0 -17 -28 -46q-61 -63 -114 -63q-36 0 -76 48.5t-68 48.5q-24 0 -60.5 -34.5t-38.5 -34.5q-15 0 -15 16q0 24 28 58q64 77 115 77q37 0 70 -25q8 -6 47 -47q25 -25 43 -25q21 0 50 22t34 22
q13 0 13 -17zM231 679q-16 10 -50 4q-47 -11 -92 -83l13 3q52 67 99 67q14 0 23 -5z" />
    <glyph glyph-name="aring" unicode="&#xe5;" 
d="M508 45q-14 -15 -46 -28q-38 -16 -75 -16q-77 0 -108 71q-122 -78 -192 -78q-25 0 -39 12q-40 32 -40 80q0 40 27.5 78.5t72.5 60.5q72 35 97 45q34 15 74 24q2 95 -4 109.5t-23 29.5q-21 19 -42 19q-42 0 -60 -24q-14 -27 -27 -53q-10 -16 -3 -43q5 -22 -8 -31
q-49 -31 -75 -31q-30 0 -30 39q0 25 11 54q50 142 249 138q179 -3 180 -90l1 -288q0 -44 25 -44q8 0 27 5.5t23 5.5q25 0 -15 -45zM352 44q-28 9 -28 75q0 1 -1 94v145q0 65 -51 105v-16q32 -34 32 -103v-225q0 -32 12.5 -57t33.5 -32zM88 306l-3 7q-9 -6 -22 -6
q-21 0 -21 22q0 10 5 24q11 33 39 73q11 16 11 19q0 1 -1 1q-7 0 -31 -34q-29 -40 -37 -82q-2 -10 -2 -18q0 -24 19 -24q21 0 43 18zM280 138l-1 84q-1 24 -25 24v0q-40 0 -81 -45q-45 -51 -26 -102q27 -24 57 -24q46 0 76 63zM152 230q-128 -55 -120 -146q6 -72 71 -72
q8 0 17 1.5l9 1.5l2 8q-20 2 -39 4q-37 13 -38 59q-2 78 94 132zM325 621q0 -31 -22 -53t-53 -22t-53 22t-22 53t22 53t53 22t53 -22t22 -53zM284 621q0 34 -34 34t-34 -34t34 -34t34 34z" />
    <glyph glyph-name="ccedilla" unicode="&#xe7;" 
d="M528 115q2 -24 -16 -44q-2 -2 -38 -32q-13 -11 -68 -23q-63 -14 -125 -15l-5 -16h12q40 1 73 -21q35 -25 37 -62q2 -36 -7 -53q-5 -12 -24.5 -28.5t-60.5 -16.5q-55 0 -71 13q-21 17 -20 27q0 9 4 12q1 0 9 -11t19 -16t22 -5q15 0 43 14.5t28 56.5q0 21 -7 36
q-15 31 -34 36q-14 3 -28 -6t-15 -22q-1 -17 -10 -17q-7 0 -17 10q-6 12 -6 23q1 10 9 16l8 31q-88 7 -131 44q-56 48 -72 82q-22 48 -18 148q4 98 89 165q81 64 187 64q15 0 30 -1l54 -2q37 -2 66 -13q58 -22 60 -66q1 -16 -6 -40q-6 -20 -9 -23q-28 -28 -47 -28
q-24 0 -28 46q-3 31 -34 56t-67 25q-10 0 -19 -2q-36 -9 -59 -37q-15 -19 -35 -61.5t-20 -100.5q0 -120 75 -159q79 -40 122 -40q29 0 61 13.5t56 45.5q21 28 22 28q8 0 11 -31zM450 423q-9 21 -35 34q-7 4 -49 19l-2 -10q66 -25 72 -77zM162 435l-4 10q-42 -10 -77 -65
t-37 -105q-6 -172 102 -227l6 12q-86 45 -82 217q1 44 28 95q29 55 64 63z" />
    <glyph glyph-name="eacute" unicode="&#xe9;" 
d="M530 115q2 -23 -15.5 -43t-34.5 -39q-9 -12 -63 -24q-59 -12 -122 -12q-127 0 -184 49q-50 43 -71 90q-23 53 -23 140q0 102 74.5 166t192.5 64q21 0 43 -2q48 -5 57 -7q39 -7 63 -26q34 -26 57 -83q6 -14 6 -30q0 -27 -15 -45q-17 -21 -45 -21h-265q-2 -17 -2 -35
q0 -120 75 -158q79 -40 122 -40q30 0 61.5 13.5t55.5 45.5q21 28 22 28q8 0 11 -31zM443 424q-8 20 -54 35l1 -6q13 -4 24.5 -18.5t11.5 -29.5q0 -20 -16.5 -36.5t-32.5 -20.5l1 -7q20 3 40 16q29 18 29 45q0 11 -4 22zM399 420q-19 40 -70 40q-13 0 -32 -3q-58 -8 -97 -83
q-11 -21 -11 -28h148q24 0 44.5 19t20.5 41q0 7 -3 14zM159 439l-4 10q-41 -10 -76 -66t-37 -106q-6 -166 109 -235l3 18q-91 47 -86 217q1 44 27 97q29 57 64 65zM427 659q4 -11 4 -22q0 -40 -56 -61q-37 -14 -172 -54q-4 -6 -13 21q2 6 57.5 49t58.5 47q10 10 33 24
q52 19 60 19q20 0 28 -23zM383 664q-1 6 -19 0q-27 -6 -96 -65q2 0 7 -2q45 37 75 50q14 4 27 7q8 3 6 10z" />
    <glyph glyph-name="egrave" unicode="&#xe8;" 
d="M530 115q2 -23 -15.5 -43t-34.5 -39q-9 -12 -63 -24q-59 -12 -122 -12q-127 0 -184 49q-50 43 -71 90q-23 53 -23 140q0 102 74.5 166t192.5 64q21 0 43 -2q48 -5 57 -7q39 -7 63 -26q34 -26 57 -83q6 -14 6 -30q0 -27 -15 -45q-17 -21 -45 -21h-265q-2 -17 -2 -35
q0 -120 75 -158q79 -40 122 -40q30 0 61.5 13.5t55.5 45.5q21 28 22 28q8 0 11 -31zM443 424q-8 20 -54 35l1 -6q13 -4 24.5 -18.5t11.5 -29.5q0 -20 -16.5 -36.5t-32.5 -20.5l1 -7q20 3 40 16q29 18 29 45q0 11 -4 22zM399 420q-19 40 -70 40q-13 0 -32 -3q-58 -8 -97 -83
q-11 -21 -11 -28h148q24 0 44.5 19t20.5 41q0 7 -3 14zM159 439l-4 10q-41 -10 -76 -66t-37 -106q-6 -166 109 -235l3 18q-91 47 -86 217q1 44 27 97q29 57 64 65zM337 549q-9 -27 -13 -21q-66 20 -172 54q-56 21 -56 61q0 11 4 22q8 23 28 23q8 0 60 -19q12 -4 33 -24
q56 -42 116 -96zM162 594q-53 28 -48 68l-4 2q-4 -9 -4 -18q0 -19 13.5 -31t41.5 -25z" />
    <glyph glyph-name="ecircumflex" unicode="&#xea;" 
d="M530 115q2 -23 -15.5 -43t-34.5 -39q-9 -12 -63 -24q-59 -12 -122 -12q-127 0 -184 49q-50 43 -71 90q-23 53 -23 140q0 102 74.5 166t192.5 64q21 0 43 -2q48 -5 57 -7q39 -7 63 -26q34 -26 57 -83q6 -14 6 -30q0 -27 -15 -45q-17 -21 -45 -21h-265q-2 -17 -2 -35
q0 -120 75 -158q79 -40 122 -40q30 0 61.5 13.5t55.5 45.5q21 28 22 28q8 0 11 -31zM443 424q-8 20 -54 35l1 -6q13 -4 24.5 -18.5t11.5 -29.5q0 -20 -16.5 -36.5t-32.5 -20.5l1 -7q20 3 40 16q29 18 29 45q0 11 -4 22zM399 420q-19 40 -70 40q-13 0 -32 -3q-58 -8 -97 -83
q-11 -21 -11 -28h148q24 0 44.5 19t20.5 41q0 7 -3 14zM159 439l-4 10q-41 -10 -76 -66t-37 -106q-6 -166 109 -235l3 18q-91 47 -86 217q1 44 27 97q29 57 64 65zM450 523h-57l-112 83l-112 -83h-56l122 196h92zM393 555l-86 75l-6 -11l86 -75zM255 682v20q0 3 -18 -8
l-92 -147q23 3 17.5 3t92.5 132z" />
    <glyph glyph-name="edieresis" unicode="&#xeb;" 
d="M530 115q2 -23 -15.5 -43t-34.5 -39q-9 -12 -63 -24q-59 -12 -122 -12q-127 0 -184 49q-50 43 -71 90q-23 53 -23 140q0 102 74.5 166t192.5 64q21 0 43 -2q48 -5 57 -7q39 -7 63 -26q34 -26 57 -83q6 -14 6 -30q0 -27 -15 -45q-17 -21 -45 -21h-265q-2 -17 -2 -35
q0 -120 75 -158q79 -40 122 -40q30 0 61.5 13.5t55.5 45.5q21 28 22 28q8 0 11 -31zM443 424q-8 20 -54 35l1 -6q13 -4 24.5 -18.5t11.5 -29.5q0 -20 -16.5 -36.5t-32.5 -20.5l1 -7q20 3 40 16q29 18 29 45q0 11 -4 22zM399 420q-19 40 -70 40q-13 0 -32 -3q-58 -8 -97 -83
q-11 -21 -11 -28h148q24 0 44.5 19t20.5 41q0 7 -3 14zM159 439l-4 10q-41 -10 -76 -66t-37 -106q-6 -166 109 -235l3 18q-91 47 -86 217q1 44 27 97q29 57 64 65zM437 588q0 -25 -18 -43.5t-44 -18.5q-25 0 -43.5 18.5t-18.5 43.5q0 26 18.5 44t43.5 18q26 0 44 -18t18 -44
zM257 588q0 -25 -18 -43.5t-44 -18.5q-25 0 -43.5 18.5t-18.5 43.5q0 26 18.5 44t43.5 18q26 0 44 -18t18 -44zM348 554v3q-13 11 -12 32q1 20 7 26l1 6q-5 -2 -11.5 -13t-6.5 -20q0 -28 22 -34zM168 554v3q-13 11 -12 32q1 20 7 26l1 6q-5 -2 -11.5 -13t-6.5 -20
q0 -28 22 -34z" />
    <glyph glyph-name="iacute" unicode="&#xed;" horiz-adv-x="361" 
d="M343 25q3 -3 3 -7q0 -10 -15 -20q-31 0 -77.5 5.5t-71.5 5.5q-22 0 -157 -8q-11 -1 -19 6t-7 19q1 17 12.5 20.5t22.5 6.5q43 17 47 21q15 16 15 71v221q0 63 -60 61q-11 0 -11 7q0 6 6.5 14t9.5 5t73.5 18.5t86.5 38.5q4 5 15 5q34 0 42.5 -14.5t8.5 -80.5v-249
q0 -60 3 -76q7 -40 37 -47q11 -3 36 -23zM146 145v221q0 35 -8 49q-15 23 -59 21l-5 -4q47 1 47 -66v-221q0 -52 -12 -70q-9 -14 -40 -23l5 -5q39 9 48 18q24 20 24 80zM397 659q4 -11 4 -22q0 -40 -56 -61q-37 -14 -172 -54q-4 -6 -13 21q2 6 57.5 49t58.5 47q10 10 33 24
q52 19 60 19q20 0 28 -23zM353 664q-1 6 -19 0q-27 -6 -96 -65q2 0 7 -2q45 37 75 50q14 4 27 7q8 3 6 10z" />
    <glyph glyph-name="igrave" unicode="&#xec;" horiz-adv-x="361" 
d="M402 25q3 -3 3 -7q0 -10 -15 -20q-31 0 -77.5 5.5t-71.5 5.5q-22 0 -157 -8q-11 -1 -19 6t-7 19q1 17 12.5 20.5t22.5 6.5q43 17 47 21q15 16 15 71v221q0 63 -60 61q-11 0 -11 7q0 6 6.5 14t9.5 5t73.5 18.5t86.5 38.5q4 5 15 5q34 0 42.5 -14.5t8.5 -80.5v-249
q0 -60 3 -76q7 -40 37 -47q11 -3 36 -23zM205 145v221q0 35 -8 49q-15 23 -59 21l-5 -4q47 1 47 -66v-221q0 -52 -12 -70q-9 -14 -40 -23l5 -5q39 9 48 18q24 20 24 80zM240 549q-9 -27 -13 -21q-66 20 -172 54q-56 21 -56 61q0 11 4 22q8 23 28 23q8 0 60 -19q12 -4 33 -24
q56 -42 116 -96zM65 594q-53 28 -48 68l-4 2q-4 -9 -4 -18q0 -19 13.5 -31t41.5 -25z" />
    <glyph glyph-name="icircumflex" unicode="&#xee;" horiz-adv-x="361" 
d="M344 25q3 -3 3 -7q0 -10 -15 -20q-31 0 -77.5 5.5t-71.5 5.5q-22 0 -157 -8q-11 -1 -19 6t-7 19q1 17 12.5 20.5t22.5 6.5q43 17 47 21q15 16 15 71v221q0 63 -60 61q-11 0 -11 7q0 6 6.5 14t9.5 5t73.5 18.5t86.5 38.5q4 5 15 5q34 0 42.5 -14.5t8.5 -80.5v-249
q0 -60 3 -76q7 -40 37 -47q11 -3 36 -23zM147 145v221q0 35 -8 49q-15 23 -59 21l-5 -4q47 1 47 -66v-221q0 -52 -12 -70q-9 -14 -40 -23l5 -5q39 9 48 18q24 20 24 80zM336 538h-57l-112 83l-112 -83h-56l122 196h92zM279 570l-86 75l-6 -11l86 -75zM141 697v20q0 3 -18 -8
l-92 -147q23 3 17.5 3t92.5 132z" />
    <glyph glyph-name="idieresis" unicode="&#xef;" horiz-adv-x="361" 
d="M343 25q3 -3 3 -7q0 -10 -15 -20q-31 0 -77.5 5.5t-71.5 5.5q-22 0 -157 -8q-11 -1 -19 6t-7 19q1 17 12.5 20.5t22.5 6.5q43 17 47 21q15 16 15 71v221q0 63 -60 61q-11 0 -11 7q0 6 6.5 14t9.5 5t73.5 18.5t86.5 38.5q4 5 15 5q34 0 42.5 -14.5t8.5 -80.5v-249
q0 -60 3 -76q7 -40 37 -47q11 -3 36 -23zM146 145v221q0 35 -8 49q-15 23 -59 21l-5 -4q47 1 47 -66v-221q0 -52 -12 -70q-9 -14 -40 -23l5 -5q39 9 48 18q24 20 24 80zM312 613q0 -25 -18 -43.5t-44 -18.5q-25 0 -43.5 18.5t-18.5 43.5q0 26 18.5 44t43.5 18q26 0 44 -18
t18 -44zM132 613q0 -25 -18 -43.5t-44 -18.5q-25 0 -43.5 18.5t-18.5 43.5q0 26 18.5 44t43.5 18q26 0 44 -18t18 -44zM223 579v3q-13 11 -12 32q1 20 7 26l1 6q-5 -2 -11.5 -13t-6.5 -20q0 -28 22 -34zM43 579v3q-13 11 -12 32q1 20 7 26l1 6q-5 -2 -11.5 -13t-6.5 -20
q0 -28 22 -34z" />
    <glyph glyph-name="ntilde" unicode="&#xf1;" horiz-adv-x="744" 
d="M730 25q3 -3 3 -7q0 -10 -15 -20q-31 0 -82 5.5t-76 5.5q-20 0 -155 -8q-11 -1 -19 6t-7 19q1 17 13 22q11 2 22 5q40 13 47 20q17 17 17 72v181q0 50 -24 81q-27 36 -81 36q-65 0 -89 -36q-17 -26 -17 -81v-155q0 -8 -1 -25v-25q0 -62 41 -73q12 -3 36 -23q3 -3 3 -7
q0 -10 -15 -20q-31 0 -77.5 5.5t-71.5 5.5q-22 0 -157 -8q-11 -1 -19 6t-7 19q1 17 13 22q11 2 22 5q34 10 42 18q21 20 21 74l-1 245q0 63 -60 61q-11 0 -11 7q0 6 6.5 14t8.5 6q82 22 185 44q24 -1 33 -15.5t9 -62.5q74 59 141 59q127 0 174 -24q70 -35 71 -148l1 -160
q0 -9 -1 -25v-25q0 -62 41 -73q12 -3 36 -23zM532 118v244q0 60 -51 75l-2 -12q29 -20 29 -63v-244q0 -59 -62 -78l8 -8q78 22 78 86zM145 118v270q0 60 -51 75l-2 -12q29 -20 29 -63v-270q0 -59 -61 -78l8 -8q77 22 77 86zM577 633q0 -17 -28 -46q-61 -63 -114 -63
q-36 0 -76 48.5t-68 48.5q-24 0 -60.5 -34.5t-38.5 -34.5q-15 0 -15 16q0 24 28 58q64 77 115 77q37 0 70 -25q8 -6 47 -47q25 -25 43 -25q21 0 50 22t34 22q13 0 13 -17zM351 679q-16 10 -50 4q-47 -11 -92 -83l13 3q52 67 99 67q14 0 23 -5z" />
    <glyph glyph-name="oacute" unicode="&#xf3;" horiz-adv-x="627" 
d="M607 255q0 -113 -96 -188q-89 -70 -205 -70q-115 0 -198 66q-91 71 -91 184q0 109 97 183q89 68 200 68q108 0 186 -61q107 -84 107 -182zM485 230q0 160 -112 227l-4 -8q25 -13 50 -55q41 -68 41 -164q0 -94 -21 -139q-12 -25 -44 -50l4 -6q37 21 54 47q32 51 32 148z
M432 230q1 101 -47 172q-41 60 -81 60q-58 0 -88 -67q-24 -53 -24 -120q0 -80 29 -150q37 -92 103 -92q106 0 108 197zM176 432l-3 8q-41 -10 -81.5 -72t-42.5 -112q-5 -143 117 -204l5 8q-100 51 -96 198q1 44 33 103q33 63 68 71zM427 659q4 -11 4 -22q0 -40 -56 -61
q-37 -14 -172 -54q-4 -6 -13 21q2 6 57.5 49t58.5 47q10 10 33 24q52 19 60 19q20 0 28 -23zM383 664q-1 6 -19 0q-27 -6 -96 -65q2 0 7 -2q45 37 75 50q14 4 27 7q8 3 6 10z" />
    <glyph glyph-name="ograve" unicode="&#xf2;" horiz-adv-x="627" 
d="M607 255q0 -113 -96 -188q-89 -70 -205 -70q-115 0 -198 66q-91 71 -91 184q0 109 97 183q89 68 200 68q108 0 186 -61q107 -84 107 -182zM485 230q0 160 -112 227l-4 -8q25 -13 50 -55q41 -68 41 -164q0 -94 -21 -139q-12 -25 -44 -50l4 -6q37 21 54 47q32 51 32 148z
M432 230q1 101 -47 172q-41 60 -81 60q-58 0 -88 -67q-24 -53 -24 -120q0 -80 29 -150q37 -92 103 -92q106 0 108 197zM176 432l-3 8q-41 -10 -81.5 -72t-42.5 -112q-5 -143 117 -204l5 8q-100 51 -96 198q1 44 33 103q33 63 68 71zM262 549q-9 -27 -13 -21q-66 20 -172 54
q-56 21 -56 61q0 11 4 22q8 23 28 23q8 0 60 -19q12 -4 33 -24q56 -42 116 -96zM87 594q-53 28 -48 68l-4 2q-4 -9 -4 -18q0 -19 13.5 -31t41.5 -25z" />
    <glyph glyph-name="ocircumflex" unicode="&#xf4;" horiz-adv-x="627" 
d="M607 255q0 -113 -96 -188q-89 -70 -205 -70q-115 0 -198 66q-91 71 -91 184q0 109 97 183q89 68 200 68q108 0 186 -61q107 -84 107 -182zM485 230q0 160 -112 227l-4 -8q25 -13 50 -55q41 -68 41 -164q0 -94 -21 -139q-12 -25 -44 -50l4 -6q37 21 54 47q32 51 32 148z
M432 230q1 101 -47 172q-41 60 -81 60q-58 0 -88 -67q-24 -53 -24 -120q0 -80 29 -150q37 -92 103 -92q106 0 108 197zM176 432l-3 8q-41 -10 -81.5 -72t-42.5 -112q-5 -143 117 -204l5 8q-100 51 -96 198q1 44 33 103q33 63 68 71zM455 523h-57l-112 83l-112 -83h-56
l122 196h92zM398 555l-86 75l-6 -11l86 -75zM260 682v20q0 3 -18 -8l-92 -147q23 3 17.5 3t92.5 132z" />
    <glyph glyph-name="odieresis" unicode="&#xf6;" horiz-adv-x="627" 
d="M607 255q0 -113 -96 -188q-89 -70 -205 -70q-115 0 -198 66q-91 71 -91 184q0 109 97 183q89 68 200 68q108 0 186 -61q107 -84 107 -182zM485 230q0 160 -112 227l-4 -8q25 -13 50 -55q41 -68 41 -164q0 -94 -21 -139q-12 -25 -44 -50l4 -6q37 21 54 47q32 51 32 148z
M432 230q1 101 -47 172q-41 60 -81 60q-58 0 -88 -67q-24 -53 -24 -120q0 -80 29 -150q37 -92 103 -92q106 0 108 197zM176 432l-3 8q-41 -10 -81.5 -72t-42.5 -112q-5 -143 117 -204l5 8q-100 51 -96 198q1 44 33 103q33 63 68 71zM437 613q0 -25 -18 -43.5t-44 -18.5
q-25 0 -43.5 18.5t-18.5 43.5q0 26 18.5 44t43.5 18q26 0 44 -18t18 -44zM257 613q0 -25 -18 -43.5t-44 -18.5q-25 0 -43.5 18.5t-18.5 43.5q0 26 18.5 44t43.5 18q26 0 44 -18t18 -44zM348 579v3q-13 11 -12 32q1 20 7 26l1 6q-5 -2 -11.5 -13t-6.5 -20q0 -28 22 -34z
M168 579v3q-13 11 -12 32q1 20 7 26l1 6q-5 -2 -11.5 -13t-6.5 -20q0 -28 22 -34z" />
    <glyph glyph-name="otilde" unicode="&#xf5;" horiz-adv-x="627" 
d="M607 255q0 -113 -96 -188q-89 -70 -205 -70q-115 0 -198 66q-91 71 -91 184q0 109 97 183q89 68 200 68q108 0 186 -61q107 -84 107 -182zM485 230q0 160 -112 227l-4 -8q25 -13 50 -55q41 -68 41 -164q0 -94 -21 -139q-12 -25 -44 -50l4 -6q37 21 54 47q32 51 32 148z
M432 230q1 101 -47 172q-41 60 -81 60q-58 0 -88 -67q-24 -53 -24 -120q0 -80 29 -150q37 -92 103 -92q106 0 108 197zM176 432l-3 8q-41 -10 -81.5 -72t-42.5 -112q-5 -143 117 -204l5 8q-100 51 -96 198q1 44 33 103q33 63 68 71zM497 633q0 -17 -28 -46q-61 -63 -114 -63
q-36 0 -76 48.5t-68 48.5q-24 0 -60.5 -34.5t-38.5 -34.5q-15 0 -15 16q0 24 28 58q64 77 115 77q37 0 70 -25q8 -6 47 -47q25 -25 43 -25q21 0 50 22t34 22q13 0 13 -17zM271 679q-16 10 -50 4q-47 -11 -92 -83l13 3q52 67 99 67q14 0 23 -5z" />
    <glyph glyph-name="uacute" unicode="&#xfa;" horiz-adv-x="744" 
d="M700 53q11 0 11 -7q0 -6 -6.5 -14t-8.5 -6q-82 -22 -185 -44q-24 1 -34 17q-8 13 -8 61q-74 -59 -141 -59q-127 0 -174 24q-71 36 -71 148v160q0 58 -4 77q-8 39 -37 46q-11 3 -36 23q-3 3 -3 7q0 10 15 20q31 0 82 -5.5t76 -5.5q48 0 61 -16q21 -25 21 -120v-181
q0 -50 24 -81q27 -36 81 -36q65 0 89 36q17 26 17 81v155q0 66 -2 80q-8 43 -38 43q-11 3 -36 23q-3 3 -3 7q0 10 15 20q31 0 77.5 -5.5t71.5 -5.5q48 0 62 -18q23 -26 23 -118l1 -245q0 -63 60 -61zM518 173v221q0 31 -8 43q-13 18 -59 31l-5 -4q32 -14 42 -35q6 -11 6 -35
v-221q0 -68 -33 -85l5 -5q52 35 52 90zM178 50q-32 23 -41 54q-5 19 -5 69v221q0 31 -8 43q-13 18 -59 31l-5 -4q32 -14 42 -35q6 -11 6 -35l1 -221q0 -61 9 -83q10 -28 49 -44zM427 659q4 -11 4 -22q0 -40 -56 -61q-37 -14 -172 -54q-4 -6 -13 21q2 6 57.5 49t58.5 47
q10 10 33 24q52 19 60 19q20 0 28 -23zM383 664q-1 6 -19 0q-27 -6 -96 -65q2 0 7 -2q45 37 75 50q14 4 27 7q8 3 6 10z" />
    <glyph glyph-name="ugrave" unicode="&#xf9;" horiz-adv-x="744" 
d="M700 53q11 0 11 -7q0 -6 -6.5 -14t-8.5 -6q-82 -22 -185 -44q-24 1 -34 17q-8 13 -8 61q-74 -59 -141 -59q-127 0 -174 24q-71 36 -71 148v160q0 58 -4 77q-8 39 -37 46q-11 3 -36 23q-3 3 -3 7q0 10 15 20q31 0 82 -5.5t76 -5.5q48 0 61 -16q21 -25 21 -120v-181
q0 -50 24 -81q27 -36 81 -36q65 0 89 36q17 26 17 81v155q0 66 -2 80q-8 43 -38 43q-11 3 -36 23q-3 3 -3 7q0 10 15 20q31 0 77.5 -5.5t71.5 -5.5q48 0 62 -18q23 -26 23 -118l1 -245q0 -63 60 -61zM518 173v221q0 31 -8 43q-13 18 -59 31l-5 -4q32 -14 42 -35q6 -11 6 -35
v-221q0 -68 -33 -85l5 -5q52 35 52 90zM178 50q-32 23 -41 54q-5 19 -5 69v221q0 31 -8 43q-13 18 -59 31l-5 -4q32 -14 42 -35q6 -11 6 -35l1 -221q0 -61 9 -83q10 -28 49 -44zM334 549q-9 -27 -13 -21q-66 20 -172 54q-56 21 -56 61q0 11 4 22q8 23 28 23q8 0 60 -19
q12 -4 33 -24q56 -42 116 -96zM159 594q-53 28 -48 68l-4 2q-4 -9 -4 -18q0 -19 13.5 -31t41.5 -25z" />
    <glyph glyph-name="ucircumflex" unicode="&#xfb;" horiz-adv-x="744" 
d="M700 53q11 0 11 -7q0 -6 -6.5 -14t-8.5 -6q-82 -22 -185 -44q-24 1 -34 17q-8 13 -8 61q-74 -59 -141 -59q-127 0 -174 24q-71 36 -71 148v160q0 58 -4 77q-8 39 -37 46q-11 3 -36 23q-3 3 -3 7q0 10 15 20q31 0 82 -5.5t76 -5.5q48 0 61 -16q21 -25 21 -120v-181
q0 -50 24 -81q27 -36 81 -36q65 0 89 36q17 26 17 81v155q0 66 -2 80q-8 43 -38 43q-11 3 -36 23q-3 3 -3 7q0 10 15 20q31 0 77.5 -5.5t71.5 -5.5q48 0 62 -18q23 -26 23 -118l1 -245q0 -63 60 -61zM518 173v221q0 31 -8 43q-13 18 -59 31l-5 -4q32 -14 42 -35q6 -11 6 -35
v-221q0 -68 -33 -85l5 -5q52 35 52 90zM178 50q-32 23 -41 54q-5 19 -5 69v221q0 31 -8 43q-13 18 -59 31l-5 -4q32 -14 42 -35q6 -11 6 -35l1 -221q0 -61 9 -83q10 -28 49 -44zM485 553h-57l-112 83l-112 -83h-56l122 196h92zM428 585l-86 75l-6 -11l86 -75zM290 712v20
q0 3 -18 -8l-92 -147q23 3 17.5 3t92.5 132z" />
    <glyph glyph-name="udieresis" unicode="&#xfc;" horiz-adv-x="744" 
d="M700 53q11 0 11 -7q0 -6 -6.5 -14t-8.5 -6q-82 -22 -185 -44q-24 1 -34 17q-8 13 -8 61q-74 -59 -141 -59q-127 0 -174 24q-71 36 -71 148v160q0 58 -4 77q-8 39 -37 46q-11 3 -36 23q-3 3 -3 7q0 10 15 20q31 0 82 -5.5t76 -5.5q48 0 61 -16q21 -25 21 -120v-181
q0 -50 24 -81q27 -36 81 -36q65 0 89 36q17 26 17 81v155q0 66 -2 80q-8 43 -38 43q-11 3 -36 23q-3 3 -3 7q0 10 15 20q31 0 77.5 -5.5t71.5 -5.5q48 0 62 -18q23 -26 23 -118l1 -245q0 -63 60 -61zM518 173v221q0 31 -8 43q-13 18 -59 31l-5 -4q32 -14 42 -35q6 -11 6 -35
v-221q0 -68 -33 -85l5 -5q52 35 52 90zM178 50q-32 23 -41 54q-5 19 -5 69v221q0 31 -8 43q-13 18 -59 31l-5 -4q32 -14 42 -35q6 -11 6 -35l1 -221q0 -61 9 -83q10 -28 49 -44zM472 613q0 -25 -18 -43.5t-44 -18.5q-25 0 -43.5 18.5t-18.5 43.5q0 26 18.5 44t43.5 18
q26 0 44 -18t18 -44zM292 613q0 -25 -18 -43.5t-44 -18.5q-25 0 -43.5 18.5t-18.5 43.5q0 26 18.5 44t43.5 18q26 0 44 -18t18 -44zM383 579v3q-13 11 -12 32q1 20 7 26l1 6q-5 -2 -11.5 -13t-6.5 -20q0 -28 22 -34zM203 579v3q-13 11 -12 32q1 20 7 26l1 6q-5 -2 -11.5 -13
t-6.5 -20q0 -28 22 -34z" />
    <glyph glyph-name="dagger" unicode="&#x2020;" horiz-adv-x="331" 
d="M319 530q0 -30 -53 -30l-69 25q-7 -16 -15 -27q5 -16 5 -44l-30 -322l-5 -5v1l-25 321q-2 20 8 49h-8q-10 4 -14 24l-57 -19q-57 0 -57 32q0 29 54 29l60 -24q4 12 7 16q8 9 25 17l-18 104q0 30 4 41q7 17 27 17q30 0 30 -52l-23 -111q5 -3 14 -8q6 -4 15 -20l66 17
q30 0 42 -4q17 -7 17 -27z" />
    <glyph glyph-name="degree" unicode="&#xb0;" horiz-adv-x="209" 
d="M202 701q0 -38 -27 -65t-65 -27t-65 27t-27 65t27 65t65 27t65 -27t27 -65zM152 701q0 17 -12.5 29.5t-29.5 12.5t-29.5 -12.5t-12.5 -29.5t12.5 -29.5t29.5 -12.5t29.5 12.5t12.5 29.5z" />
    <glyph glyph-name="cent" unicode="&#xa2;" horiz-adv-x="538" 
d="M512 289q2 -23 -16 -43q-2 -3 -38 -33q-10 -9 -50 -19q-46 -12 -96 -16v-56h-75v53q-96 3 -144 45q-56 48 -72 82q-22 48 -18 148q4 87 74 152q66 61 160 74v40h75v-38q27 -1 53 -2q36 -2 64 -13q58 -22 60 -66q1 -16 -6 -40q-6 -20 -9 -23q-28 -28 -47 -28q-24 0 -28 46
q-2 28 -28 52t-59 28v-391q26 -8 50 -8q30 0 61.5 13.5t55.5 45.5q21 28 22 28q8 0 11 -31zM237 274v337q-24 -19 -53 -80q-19 -41 -19 -99q0 -118 72 -158z" />
    <glyph glyph-name="sterling" unicode="&#xa3;" horiz-adv-x="584" 
d="M557 165q0 -73 -46.5 -123t-104.5 -50q-34 0 -65 17q-20 11 -42 31q-17 17 -20 17q-43 -65 -173 -65q-37 0 -66 18q-36 24 -36 66q0 50 44 79q36 24 79 24q39 0 100 -23q2 5 2 11q0 19 -35 75q-43 66 -54 98q-7 21 -18 59q-2 7 -54 7q-28 0 -24 0q-15 1 -18 14q-1 4 -1 8
q0 24 38 24q43 0 43 16q0 4 -2.5 13.5t-3.5 13.5q-4 26 -4 50q0 85 44 135q52 58 156 58q80 0 125 -41q12 -11 12 -43q0 -14 -5 -23q-9 -18 -34 -25t-65 42q-43 51 -57 51q-25 0 -25 -62q0 -68 18 -136q10 -36 13 -40q5 -7 31 -7h73q12 -1 21 -5q21 -11 26 -35q2 -12 2 -20
v0q0 -29 -37 -19q-20 6 -70 31q-16 7 -25 7v0q-11 0 -7 -14l20 -66q1 -5 18 -55q15 -43 15 -72q0 -27 -12 -46q-5 -7 27 -39q36 -37 81 -37q18 0 35 6q38 12 38 28q0 13 -18 21q-28 13 -35 18q-18 16 -18 48q0 25 13.5 42t33.5 17q29 0 48 -30t19 -69zM212 111
q-28 20 -48 20q-49 0 -49 -48q0 -40 44 -40q14 0 34.5 18.5t20.5 38.5q0 6 -2 11z" />
    <glyph glyph-name="section" unicode="&#xa7;" 
d="M502 353q0 -24 -22 -57q-31 -45 -90 -71q79 -68 79 -134q0 -82 -60 -128q-55 -42 -136 -42q-90 0 -143 94q-34 58 -45 133l93 -80q18 -81 105 -81q52 0 76 36q16 24 16 55q0 37 -23.5 62t-64.5 25q-10 0 -35.5 -1.5t-39.5 -1.5q-61 0 -96 28q-69 56 -62 195q4 70 110 129
q-69 58 -69 119q0 65 48 110q51 49 134 49q59 0 112 -62.5t63 -145.5l-82 65q-14 77 -96 77q-43 0 -67.5 -23.5t-24.5 -52.5q0 -81 40 -81q6 0 37.5 5t55.5 5q69 0 109 -28q47 -33 65 -87q13 -41 13 -111zM418 330q0 65 -64 120q-44 37 -155 40q-34 -11 -53 -40
q-14 -22 -14 -40q0 -76 59 -129q45 -41 166 -39q61 33 61 88z" />
    <glyph glyph-name="bullet" unicode="&#x2022;" horiz-adv-x="264" 
d="M248 400q0 -49 -35 -84.5t-85 -35.5q-49 0 -84.5 35.5t-35.5 84.5q0 50 35.5 85t84.5 35q50 0 85 -35t35 -85zM76 334v7q-26 21 -24 63q2 40 15 53l2 11q-11 -3 -24 -25t-13 -40q0 -22 14 -43.5t30 -25.5z" />
    <glyph glyph-name="paragraph" unicode="&#xb6;" horiz-adv-x="611" 
d="M565 572h-62v-653h-75v654h-75v-654h-75v400h-63q-206 0 -206 167q0 86 75 129q56 32 128 32h353v-75zM278 367v203h-22q-121 0 -121 -84q0 -49 32.5 -84t74.5 -35h36z" />
    <glyph glyph-name="germandbls" unicode="&#xdf;" horiz-adv-x="721" 
d="M675 230q1 -13 1 -26q0 -54 -22 -102.5t-54 -73.5q-23 -18 -72 -18q-54 0 -110 22q-60 23 -88 61q-9 4 -19 8q-17 8 -17 19q0 28 13 28q2 0 5 -2q67 -45 114 -45q76 0 78 98q2 86 -23 128q-20 31 -76 61q-29 15 -68 15q-10 0 -55 -4q-32 -3 -32 -81v-144q0 -41 -18 -92
q-25 -75 -73 -86q-20 -5 -41 -5q-12 0 -45 3q-28 3 -49 2q-11 -1 -19 6t-7 19q1 16 14 19q18 5 21 8q42 43 42 97v513q0 30 68 80q81 61 178 64q94 3 180 -19q71 -18 100 -57q24 -31 34 -96q2 -12 2 -24q0 -135 -221 -190q153 -20 200.5 -54t58.5 -132zM506 622
q-14 133 -116 150q-7 1 -7 -2q0 -6 19 -14q41 -17 64 -70q17 -43 17 -92q0 -40 -18 -69q-16 -25 -60 -62q-4 -3 1 -7q111 61 100 166zM327 754q-11 0 -24 -2q-34 -4 -45 -26q-8 -15 -8 -48v-190q0 -19 14.5 -32.5t32.5 -11.5q158 21 158 155q0 63 -28 105q-34 50 -100 50z
M554 199q2 90 -27 132q-20 29 -82 62l-8 -10q52 -27 71 -61q23 -41 22 -123q-1 -44 -26 -79q-29 -39 -77 -42q-6 0 -6 -3t7 -3q13 0 31 11q51 30 69 50q25 27 26 66zM139 694l-14 6q-26 -31 -26 -75l1 -501q0 -22 -13.5 -49.5t-22.5 -31.5l6 -8q14 8 32 32q22 30 22 57v501
q0 60 15 69z" />
    <glyph glyph-name="registered" unicode="&#xae;" horiz-adv-x="807" 
d="M789 389q0 -158 -117 -274.5t-276 -116.5q-158 0 -274.5 117t-116.5 276q0 158 117 274.5t276 116.5q158 0 274.5 -117t116.5 -276zM398 731q-138 0 -240 -101t-102 -239t101 -240t239 -102t240 101t102 239t-101 240t-239 102zM630 193q-2 -8 -8.5 -11t-11.5 -6
q-9 -4 -27 -3q-33 2 -28 2q-27 -3 -28 -2q-15 1 -30 17t-15 38q0 10 3.5 29t3.5 29q1 49 -13 72q-11 17 -43 34q-20 11 -69 8q-18 -3 -18 -45v-81q0 -72 33 -77q7 -1 14 -2.5t8 -7.5q2 -8 0 -13t-8 -5q-110 7 -101 7q-40 0 -73 -4q-15 0 -14 15q0 9 8.5 11t10.5 4
q23 25 23 54v289q0 33 -15 36q-4 1 -12.5 -1.5t-10.5 -2.5q-5 0 -7 4q-8 13 11 25.5t70 15.5l110 4q61 3 109 -10q40 -11 57 -33q13 -18 19 -54q12 -80 -139 -120q86 -11 113 -30t33 -75l4 -58q4 -24 20 -35l15 -6q8 -4 6 -12zM504 530q-4 29 -22.5 50.5t-46.5 25.5l-2 -7
q26 -4 41.5 -30t15.5 -54q0 -67 -60 -80l3 -6q25 5 45 24q32 30 26 77zM476 526q-3 36 -27.5 56t-66.5 16q-36 -4 -36 -42v-108q0 -9 8.5 -17t18.5 -7q111 15 103 102zM540 186q-28 10 -23 55q5 121 -40 142l-2 -6q31 -15 31 -95q0 -18 -2 -39q-6 -52 29 -58zM277 250v302
q0 32 -29 42l-2 -6q17 -13 17 -36v-302q0 -11 -8.5 -26t-13.5 -17l5 -5q8 5 19.5 19.5t11.5 28.5z" />
    <glyph glyph-name="copyright" unicode="&#xa9;" horiz-adv-x="807" 
d="M789 389q0 -158 -117 -274.5t-276 -116.5q-158 0 -274.5 117t-116.5 276q0 158 117 274.5t276 116.5q158 0 274.5 -117t116.5 -276zM398 731q-138 0 -240 -101t-102 -239t101 -240t239 -102t240 101t102 239t-101 240t-239 102zM573 230q0 -8 -12 -28q-23 -38 -134 -39
q-104 -1 -177 45q-42 26 -64 81q-20 48 -20 103q0 109 89 182q70 58 210 51q24 0 47 -1q19 0 39 -7q13 -4 13 -30v-27q0 -21 -13 -21q-3 0 -7 2.5t-37 35.5q-24 24 -45 24q-114 0 -150 -69q-29 -56 -29 -117q0 -108 28 -143q58 -72 124 -82q45 -7 66 18q13 12 30 41
q15 24 24 26q8 2 13 -7.5t5 -17.5v-20zM547 571q-9 23 -49 37l-2 -6q40 -14 42 -45zM552 240l-8 14q-3 -16 -14.5 -33t-23.5 -21l2 -6q30 11 44 46zM296 203q-47 23 -75 80q-25 52 -25 107q0 61 23 104q21 39 69 78l-11 3q-51 -42 -72 -79q-23 -42 -23 -106q0 -57 30 -113
q32 -60 79 -77z" />
    <glyph glyph-name="trademark" unicode="&#x2122;" horiz-adv-x="768" 
d="M322 718q0 -14 -11 -14q-12 0 -15 23q-7 39 -73 39q-14 0 -20 -2v-231q0 -45 18 -50q7 -1 18 -9q4 -5 -5 -11q-12 0 -34.5 1.5t-31.5 1.5q-11 0 -31 -1.5t-31 -1.5q-9 6 -5 11q5 6 18 9q18 5 18 50v230q-4 4 -29 4q-61 0 -66 -35q-4 -26 -16 -26q-9 0 -9 12l6 37
q0 23 11 29l136 -2q20 0 134 3q10 -5 10 -30zM304 738l-4 27l-24 1q12 -8 28 -28zM59 766q1 1 -10 2t-15 -4l-4 -22q6 9 18 17q5 4 11 7zM156 522v241h-10v-241q0 -33 -12 -39l3 -5q19 13 19 44zM734 776q0 -5 -7.5 -7.5t-12.5 -4.5q-18 -10 -18 -45v-186q0 -45 18 -49
q6 -2 18 -10q4 -4 -5 -10q-12 0 -34 2t-32 2q-9 0 -63 -3q-4 0 -7 2.5t-3 7.5q0 6 5 7.5t9 3.5q9 5 19 10q6 5 6 26v193l-93 -230q-8 -19 -21 -19q-7 0 -13 11l-100 209v-170q0 -28 24 -28q20 0 20 -16q0 -8 -12 -8q-6 0 -25.5 1t-25.5 1t-19.5 -1t-19.5 -1q-10 0 -10 7
q0 11 16 13q22 3 22 26v222q0 14 -2 18t-16 14q-4 2 -9 4t-5 9q0 6 13 7q8 1 18 0q13 -1 19 -1q13 0 37 1q6 1 11 -10l107 -203l81 199q6 15 11 14q26 -1 42 -1t45 1q12 1 12 -8zM648 517v235l-11 -12l1 -223q0 -24 -18 -32l4 -3q24 12 24 35zM517 484l-113 235v-21
l102 -212zM388 513v223q0 24 -20 32l-1 -6q11 -9 11 -26v-223q0 -27 -14 -33l3 -3q21 11 21 36z" />
    <glyph glyph-name="acute" unicode="&#xb4;" horiz-adv-x="269" 
d="M244 725q4 -11 4 -22q0 -40 -56 -61q-37 -14 -172 -54q-4 -6 -13 21q2 6 57.5 49t58.5 47q10 10 33 24q52 19 60 19q20 0 28 -23zM200 730q-1 6 -19 0q-27 -6 -96 -65q2 0 7 -2q45 37 75 50q14 4 27 7q8 3 6 10z" />
    <glyph glyph-name="dieresis" unicode="&#xa8;" horiz-adv-x="385" 
d="M342 738q0 -25 -18 -43.5t-44 -18.5q-25 0 -43.5 18.5t-18.5 43.5q0 26 18.5 44t43.5 18q26 0 44 -18t18 -44zM162 738q0 -25 -18 -43.5t-44 -18.5q-25 0 -43.5 18.5t-18.5 43.5q0 26 18.5 44t43.5 18q26 0 44 -18t18 -44zM253 704v3q-13 11 -12 32q1 20 7 26l1 6
q-5 -2 -11.5 -13t-6.5 -20q0 -28 22 -34zM73 704v3q-13 11 -12 32q1 20 7 26l1 6q-5 -2 -11.5 -13t-6.5 -20q0 -28 22 -34z" />
    <glyph glyph-name="notequal" unicode="&#x2260;" horiz-adv-x="440" 
d="M400 286h-214l-38 -106h-75l38 106h-111v75h138l28 77h-166v75h193l36 101h75l-36 -101h132v-75h-159l-28 -77h187v-75z" />
    <glyph glyph-name="AE" unicode="&#xc6;" horiz-adv-x="1165" 
d="M1143 169q0 -5 -8 -45l-11 -104q-3 -27 -19 -27q-188 0 -304 4q-202 7 -336 -1q-11 -1 -19 6t-7 19q1 16 14 19q18 5 21 8q39 40 42 44q21 26 21 53v135h-205q-26 -32 -50 -63q-56 -74 -86 -132q-5 -10 -5 -18q0 -14 33.5 -24t33.5 -23q0 -9 -19 -24l-134 6q-15 0 -99 -6
q5 8 21 32q1 1 35 11t50 35l414 631q-14 34 -35 39.5t-30 9.5q-16 7 -23 20q-2 4 -2 7q0 14 35 20q16 3 43 3q12 0 112 -5q86 -3 154 -1q153 5 291 5q23 0 23 -38v-81q0 -17 -1 -21q-4 -10 -19 -10q-14 0 -30.5 26t-46.5 53q-25 22 -141 22q-47 0 -91 -5q-34 -4 -45 -25
q-8 -14 -8 -46v-190q0 -19 14.5 -33t32.5 -11q111 0 127 3q34 6 48 53q10 33 29 33q21 0 20 -26l-4 -86l4 -86q1 -28 -21 -28q-28 0 -31 18q-5 30 -7 32q-8 11 -16 22.5t-17 13.5q-65 14 -147 6q-32 -3 -32 -81v-144q0 -49 9 -69q14 -30 62 -48q59 2 104 6q108 12 130 36
q8 8 37 27q25 17 33 31q15 35 34 35q22 0 22 -23zM1069 711q-16 38 -84 63l-2 -10q55 -21 72 -77zM945 376v76l-36 -32zM1095 82l-1 58q0 -32 -93 -86l10 -8q20 5 36 10q39 12 48 26zM537 370v222q-40 -59 -146 -222h146zM581 124v558q0 60 -47 77v-12q22 -21 22 -65v-558
q0 -20 -27 -45q-20 -19 -35 -26l6 -8q81 43 81 79zM516 627l-19 8l-363 -550q-39 -59 -67 -59l2 -9q13 0 40.5 18.5t43.5 42.5z" />
    <glyph glyph-name="Oslash" unicode="&#xd8;" horiz-adv-x="724" 
d="M696 369q0 -145 -100 -257.5t-230 -112.5q-111 0 -194 44q-13 -22 -26 -43h-75l48 78q-121 104 -121 288q0 127 74 234q96 140 277 140q79 0 152 -42q13 20 26 42h75l-49 -78q65 -53 103 -129q40 -79 40 -164zM592 346q1 151 -73 248l-8 -10q23 -31 39 -98
q19 -72 17 -140q-5 -214 -108 -293l12 -8q119 93 121 301zM462 634q-47 69 -116 69q-82 0 -137 -116q-45 -95 -45 -185q0 -99 33 -198zM537 346q0 119 -41 222q-173 -279 -268 -435q57 -98 149 -96q79 2 125 120q35 92 35 189zM210 681l-10 8q-68 -25 -120 -121
q-54 -100 -53 -205q2 -191 109 -261l8 6q-59 58 -78 119q-14 46 -14 136q0 189 158 318z" />
    <glyph glyph-name="infinity" unicode="&#x221e;" horiz-adv-x="596" 
d="M570 385q0 -54 -30 -93q-38 -49 -109 -49q-53 0 -89 29l-21 17q-11 10 -15 20q0 9 -8 9q2 0 -6 -8q-17 -26 -63 -40q-42 -14 -90 -14q-33 0 -50 7t-40 28q-34 32 -34 103q0 51 22 81q33 44 100 44q80 0 100 -48q2 -3 3 -6q4 -6 6 -6t6 11q39 61 148 61q107 0 141 -46
q29 -37 29 -100zM537 392q0 24 -26 46t-59 22q-62 0 -101 -58q-23 -34 -23 -40q0 -13 20 -25q37 -22 72 -22q50 0 83.5 21t33.5 56zM223 411q8 13 -14 28t-59 15q-45 0 -76 -17.5t-31 -48.5q0 -24 23.5 -47t56.5 -23q36 0 64 35z" />
    <glyph glyph-name="plusminus" unicode="&#xb1;" horiz-adv-x="440" 
d="M400 286h-400v75h162v77h-162v75h162v171h75v-171h163v-75h-163v-77h163v-75z" />
    <glyph glyph-name="lessequal" unicode="&#x2264;" horiz-adv-x="440" 
d="M399 395l-397 136l397 136l-1 -62l-206 -74l206 -71zM400 286h-400v75h400v-75z" />
    <glyph glyph-name="greaterequal" unicode="&#x2265;" horiz-adv-x="440" 
d="M399 531l-397 -136l1 65l206 71l-206 74l-1 62zM400 286h-400v75h400v-75z" />
    <glyph glyph-name="yen" unicode="&#xa5;" horiz-adv-x="880" 
d="M831 779q-1 -16 -22 -21q-15 -3 -31 -6q-32 -13 -64 -25q-46 -20 -69 -58l-143 -234h90v-75h-108v-77h108v-75h-108v-37q0 -58 4 -74q8 -38 42 -50q50 -4 50 -24q0 -11 -17 -26q-29 0 -85.5 4t-93.5 3q-28 0 -145 -8q-11 -1 -19 6t-7 19q1 16 17 19q29 4 30 5
q37 18 39 21q12 16 12 79v63h-119v75h120v59l-10 18h-110v75h69l-138 251q-25 45 -71 64q-42 15 -42 33q0 10 15 20q26 0 75 -3.5t80 -3.5q29 0 169 8q11 1 19 -6t7 -19q-1 -16 -14 -19q-18 -5 -21 -8q-29 -30 -29 -36q0 -9 11 -31l120 -229l152 240q13 27 13 38
q0 17 -48 19q-45 12 -45 30q0 10 15 20q32 0 77.5 -2.5t74.5 -2.5q31 0 124 6q11 1 19 -6t7 -19zM706 772l-84 -2q15 -12 15 -24q0 -5 -3 -10zM360 80v277l-191 359q-19 36 -78 57l-12 -8q15 -9 27 -18q30 -22 41 -43l189 -354v-270q0 -37 -41 -42v-14q21 4 40 17
q25 17 25 39z" />
    <glyph glyph-name="mu" unicode="&#xb5;" horiz-adv-x="744" 
d="M700 53q11 0 11 -7q0 -6 -6.5 -14t-8.5 -6q-82 -22 -185 -44q-24 1 -34 17q-8 13 -8 61q-74 -59 -141 -59q-84 0 -125 6q-1 -9 -1 -32q0 -79 -1 -86q-5 -39 -33 -58q-24 -16 -51 -12t-46 23t-19 47q0 9 2 19q4 17 25 36q25 21 32 36q5 27 12 66q-40 42 -40 127v160
q0 9 1 25.5t1 23.5q0 52 -43 74q-11 3 -36 23q-3 3 -3 7q0 10 15 20q31 0 82 -5.5t76 -5.5q48 0 61 -16q21 -25 21 -120v-181q0 -50 24 -81q27 -36 81 -36q65 0 89 36q17 26 17 81v155q0 66 -2 80q-8 43 -38 43q-11 3 -36 23q-3 3 -3 7q0 10 15 20q31 0 77.5 -5.5t71.5 -5.5
q48 0 62 -18q23 -26 23 -118v-245q0 -63 61 -61zM518 173v221q0 31 -8 43q-13 18 -59 31l-5 -4q32 -14 42 -35q5 -11 5 -35v-221q0 -68 -32 -85l5 -5q52 35 52 90zM168 49q-37 27 -37 77v22q1 16 1 25v221q0 31 -8 43q-13 18 -59 31l-5 -4q32 -14 42 -35q5 -11 5 -35v-221
q0 -60 9 -83q12 -28 51 -44zM117 -170v7q-29 23 -27 56q2 35 22 55l2 11q-12 -3 -28 -26t-16 -41q0 -21 15 -39t32 -23z" />
    <glyph glyph-name="partialdiff" unicode="&#x2202;" horiz-adv-x="473" 
d="M468 323q3 -21 3 -44v0q0 -131 -70 -233q-76 -111 -185 -95q-87 13 -144 85q-56 69 -56 159q0 33 9 64q21 78 86 128t145 54q-74 77 -205 139l44 90q103 -52 178 -105q181 -128 195 -242zM251 371q-38 -28 -54 -58q-13 -24 -31 -92q-7 -25 -7 -58q0 -54 16 -96
q17 -46 43 -46q11 0 24 10q34 28 57 107q21 72 21 144q0 101 -41 101q-12 0 -28 -12zM203 404q8 3 8 9q0 11 -17 4q-55 -25 -94 -67q-42 -46 -52 -101q-3 -19 -3 -38q0 -76 43 -145q40 -65 90 -85q16 -7 16 4q0 5 -8 9q-43 17 -79 81q-38 68 -38 137q0 18 2 35
q17 98 132 157zM342 378q-4 10 -10 10v0q-9 0 -4 -14q14 -45 14 -110q0 -72 -17 -133q-20 -68 -55 -98q-6 -5 -5 -10q1 -4 6 -4q6 0 11 4q78 67 78 225q0 73 -18 130z" />
    <glyph glyph-name="summation" unicode="&#x2211;" horiz-adv-x="745" 
d="M705 169q0 -5 -8 -45l-11 -104q-3 -27 -19 -27q-188 0 -304 4q-202 7 -336 -1q-11 -1 -19 6t-7 19q1 16 12.5 20t22.5 7q28 18 105 88l279 264l-276 270q-21 21 -43 42q-30 28 -47 32q-21 5 -31 10q-16 7 -23 20q-2 4 -2 7q0 14 35 20q16 3 43 3q12 0 112 -5
q86 -3 154 -1q153 5 291 5q23 0 23 -38v-81q0 -17 -1 -21q-4 -10 -19 -10q-14 0 -30.5 26t-46.5 53q-25 22 -141 22q-47 0 -91 -5q-49 -6 -49 -40q0 -15 14 -28l302 -281l-287 -256q-25 -22 -25 -39q0 -25 63 -48q57 4 101 9q106 14 133 33q34 28 69 56q16 37 35 37
q22 0 22 -23zM93 739l11 7q356 -352 358 -350q-186 -168 -373 -336h-14l365 339l-354 343zM622 680q0 44 -4 44t-43 15q47 -52 47 -59zM663 151q-16 -30 -48 -52q-26 -14 -51 -28q33 5 73 18q7 7 26 62z" />
    <glyph glyph-name="product" unicode="&#x220f;" horiz-adv-x="860" 
d="M848 26q1 -12 -7 -19t-19 -6q-135 8 -157 8q-25 0 -71.5 -5.5t-77.5 -5.5q-15 10 -15 20q0 4 3 7q12 16 36 23q41 11 41 73v25q-1 17 -1 25v492h-313v-492q0 -8 -1 -25v-25q0 -62 41 -73q11 -3 36 -23q3 -3 3 -7q0 -10 -15 -20q-31 0 -77.5 5.5t-71.5 5.5q-22 0 -157 -8
q-11 -1 -19 6t-7 19q1 16 12.5 20t22.5 7q23 13 47 25q16 14 16 67l-1 461q0 108 -60 106q-11 0 -11 7q0 6 6.5 14t8.5 6h767l7 -9t7 -13q0 -5 -10 -5q-60 2 -60 -106v-461q0 -53 16 -67q23 -12 46 -25q11 -3 22.5 -7t12.5 -20zM637 126v530h-24v-530q0 -24 -16.5 -53.5
t-33.5 -34.5l6 -8q21 6 44.5 36.5t23.5 59.5zM145 126v482q0 60 -60 102l-2 -12q38 -46 38 -90v-482q0 -23 -19 -51.5t-37 -33.5l6 -8q22 6 46 34q28 31 28 59z" />
    <glyph glyph-name="pi" unicode="&#x3c0;" horiz-adv-x="573" 
d="M544 86q11 0 11 -7q0 -6 -6.5 -14t-8.5 -6q-65 -31 -152 -62q-24 1 -33 17v388h-66q-71 -280 -79 -336q-6 -39 -31.5 -56.5t-52.5 -13.5t-46 23t-19 47q0 9 2.5 19.5t21.5 18.5q27 10 38 21q23 21 33 65l48 211h-61q-111 7 -111 -98h-30q0 134 74 180q31 19 74 19h393
v-100h-111v-267q0 -53 112 -49zM13 320q3 47 15 82q30 84 104 90l-4 -8q-27 -4 -47 -22q-50 -42 -62 -141l-7 -5zM384 12q-6 2 -12 16v370l-8 3v-373q0 -5 2 -9q4 -9 15 -13zM218 394l-5 4q-24 -111 -54 -232q-11 -18 -21 -36q-21 -28 -49 -33q-18 -8 -18 -27q0 -18 17 -42
l13 -5q-22 27 -22 46q0 14 13 21q31 15 33 17q25 18 39 55q26 69 54 232z" />
    <glyph glyph-name="integral" unicode="&#x222b;" horiz-adv-x="955" 
d="M917 748q2 -6 -10.5 -29t-30.5 -37q-23 -19 -52 -25q-23 -5 -31 19q0 1 -7 47q-4 27 -18 27q-45 0 -111 -147q-46 -103 -46 -102q-7 -35 -82 -236q-73 -195 -85 -216q-54 -96 -128 -141q-82 -51 -206 -51q-81 0 -96 41q-2 6 10.5 29t30.5 37q23 19 52 25q23 5 31 -19
q0 -1 7 -47q4 -27 18 -27q45 0 111 147q19 42 167 458q15 41 46 96q54 96 128 141q82 51 206 51q81 0 96 -41zM677 722q10 2 10 12v0q0 14 -14 7q-73 -38 -95 -61q-39 -39 -92 -152l-1 -1q-57 -152 -100 -263q-103 -267 -117 -290q-2 -3 -2 -6q0 -15 16 -15q6 0 9 7
q103 267 217 557q52 97 85 139q41 54 84 66z" />
    <glyph glyph-name="ordfeminine" unicode="&#xaa;" horiz-adv-x="459" 
d="M409 322q-11 -11 -37 -22q-30 -12 -59 -12q-62 0 -87 56q-98 -62 -153 -62q-20 0 -32 9q-31 25 -31 64q0 32 21.5 63t57.5 48q58 29 78 37q27 11 59 19q2 76 -3 87.5t-20 25t-32 13.5q-34 0 -46.5 -20.5t-23.5 -41.5q-7 -12 -2 -34q4 -18 -7 -25q-38 -25 -59 -25
q-24 0 -24 31q0 20 8 44q41 113 199 110q144 -3 144 -72l1 -230q0 -36 21 -36q5 0 20.5 4.5t19.5 4.5q19 0 -13 -36zM284 322q-22 7 -22 60l-1 75v116q0 52 -40 83v-12q25 -27 25 -82v-180q0 -59 37 -72zM74 531l-3 6q-7 -5 -18 -5q-17 0 -17 17q0 8 4 20q10 27 31 58
q9 13 9 16v0q-6 0 -25 -27q-23 -32 -30 -66q-2 -8 -2 -14q0 -19 16 -19q17 0 35 14zM227 397l-1 67q0 19 -20 19v0q-32 0 -65 -36q-36 -40 -21 -81q22 -20 46 -20q37 0 61 51zM125 470q-103 -44 -97 -116q5 -58 57 -58q7 0 14 1l7 1l2 7q-16 1 -32 3q-29 10 -30 47
q-2 63 76 106zM424 182h-424v75h424v-75z" />
    <glyph glyph-name="ordmasculine" unicode="&#xba;" horiz-adv-x="534" 
d="M488 484q0 -90 -77 -150q-72 -56 -164 -56t-159 53q-72 57 -72 147q0 87 77 146q71 55 160 55q87 0 149 -49q86 -67 86 -146zM390 464q0 128 -90 182l-3 -6q20 -11 40 -45q33 -54 33 -131q0 -75 -17 -111q-9 -20 -35 -40l3 -5q29 17 43 38q26 41 26 118zM348 464
q0 81 -38 138q-33 48 -65 48q-46 0 -70 -54q-19 -42 -19 -96q0 -63 22 -120q30 -73 83 -73q85 0 87 157zM143 626l-3 6q-33 -8 -65 -57.5t-34 -89.5q-4 -114 94 -163l4 6q-80 41 -77 159q1 35 27 83.5t54 55.5zM460 182h-460v75h460v-75z" />
    <glyph glyph-name="Omega" horiz-adv-x="797" 
d="M767 482q0 -106 -80 -190.5t-200 -106.5q6 -76 11 -76h145q46 0 58 15q20 25 15 57h16v-179h-284l-4 178q64 32 117 135q46 91 46 150q0 94 -41 179q-57 117 -166 117q-90 0 -149 -96q-49 -78 -49 -154q0 -74 26 -158q40 -133 124 -171l-16 -181h-283l-1 180h16
q-5 -30 15 -52q13 -17 50 -17h151q-1 5 21 76q-148 26 -223 120q-60 76 -60 174q0 106 80 194q104 116 301 116q143 0 253.5 -94t110.5 -216zM659 466q0 89 -53 179q-45 77 -80 91q-16 6 -20 6v0q-4 0 5 -6q4 0 30 -26q37 -37 60 -87q33 -70 33 -157q0 -98 -112 -245h15
q122 146 122 245zM241 740l-3 10q-56 -30 -96 -67q-95 -89 -95 -199q0 -164 140 -242v15q-126 83 -126 227t180 256z" />
    <glyph glyph-name="ae" unicode="&#xe6;" horiz-adv-x="811" 
d="M791 115q2 -23 -15.5 -43t-34.5 -39q-9 -12 -63 -24q-59 -12 -122 -12q-127 0 -184 49l-27 23q-31 3 -57 -3q-126 -72 -197 -72q-28 0 -43 12q-39 32 -39 80q0 40 27 78.5t72 60.5q73 35 97 45q35 15 74 24q2 95 -4 109.5t-23 29.5q-21 19 -42 19q-45 0 -65 -28
q-7 -8 -25 -56q-5 -12 1 -39q4 -19 -9 -28q-48 -31 -74 -31q-31 0 -31 39q0 25 11 54q51 142 249 138q109 -2 150 -30q66 34 141 34q15 0 30 -1q47 -5 57 -7q39 -7 63 -26q34 -26 57 -83q6 -14 6 -30q0 -27 -15 -45q-17 -21 -45 -21h-264v-81q16 -83 72 -112q79 -40 122 -40
q29 0 61 13.5t56 45.5q21 28 22 28q8 0 11 -31zM699 424q-7 20 -54 35l1 -6q13 -4 25 -18.5t12 -29.5q0 -20 -19 -38q-15 -15 -31 -19l1 -7q21 3 41 16q29 18 29 45q0 11 -5 22zM660 420q-19 40 -70 40q-13 0 -32 -3q-50 -7 -95 -84q-13 -22 -13 -27h148q24 0 44.5 19
t20.5 41q0 7 -3 14zM352 44q-28 9 -28 75q0 1 -1 94v145q0 65 -51 105v-16q32 -34 32 -103v-225q0 -32 12.5 -57t33.5 -32zM88 306l-3 7q-9 -6 -22 -6q-21 0 -21 22q0 10 5 24q11 33 39 73q11 16 11 19q0 1 -1 1q-7 0 -31 -34q-29 -40 -37 -82q-2 -10 -2 -18q0 -24 19 -24
q21 0 43 18zM280 138l-1 84q0 24 -25 24v0q-40 0 -80 -45q-46 -51 -27 -102q28 -24 57 -24q46 0 76 63zM152 230q-128 -55 -120 -146q6 -72 71 -72q8 0 17 1.5l9 1.5l2 8q-20 2 -39 4q-37 13 -38 59q-2 78 94 132z" />
    <glyph glyph-name="oslash" unicode="&#xf8;" horiz-adv-x="618" 
d="M590 255q0 -113 -96 -188q-89 -70 -205 -70q-30 0 -62 6l-39 -96h-75l48 115q-73 30 -115 86q-46 60 -46 139q0 109 97 183q89 68 200 68q26 0 58 -5l34 82h75l-42 -102q33 -14 61 -36q107 -84 107 -182zM471 230q2 74 -28 127q-19 32 -42 46l-4 -8q17 -9 31 -42
q20 -48 18 -123q-4 -130 -50 -165l4 -6q67 38 71 171zM333 440q-23 22 -46 22q-58 0 -88 -67q-24 -53 -24 -120q0 -79 28 -150zM415 230q1 83 -33 147l-133 -322q25 -22 58 -22q107 0 108 197zM159 429l-3 8q-41 -10 -81.5 -72t-42.5 -112q-5 -143 115 -204l5 8
q-98 51 -94 198q1 44 33 103q33 63 68 71z" />
    <glyph glyph-name="questiondown" unicode="&#xbf;" horiz-adv-x="464" 
d="M268 574q0 -32 -23 -55t-55 -23t-55 23t-23 55t23 55t55 23t55 -23t23 -55zM427 73q0 -116 -103 -167q-61 -29 -127 -29q-107 0 -158 65q-36 45 -36 100q0 35 16 59q19 29 54 29q21 0 38 -14q23 -20 23 -59q0 -31 -18.5 -54.5t-18.5 -37.5q0 -34 33 -34q22 0 50 15
q51 26 70 58q16 25 16 65q0 62 -26 116q-23 41 -47 82q-26 45 -26 86q0 -9 -3 24q-1 17 4.5 26t17.5 18.5t12 6.5q0 -1 9.5 -9.5t13 -15t3.5 -16.5q0 -11 -8 -32t-8 -28q0 -21 37 -35q57 -21 76 -35q43 -31 73 -79q33 -53 33 -105zM177 503v7q-26 20 -24 63q2 39 15 53l2 11
q-11 -4 -24 -25.5t-13 -39.5q0 -22 14 -43.5t30 -25.5zM310 62q7 114 -72 173v-13q0 3 14 -18q15 -24 25 -53q13 -41 11 -89q-3 -100 -111 -130q1 -3 14 -3q31 0 62 20q52 35 57 113zM58 96q3 9 -17 9q-18 -15 -18 -64q0 -43 6 -43q1 1 2 5q3 34 27 93z" />
    <glyph glyph-name="exclamdown" unicode="&#xa1;" horiz-adv-x="215" 
d="M187 578q0 -32 -23 -55t-55 -23t-55 23t-23 55t23 55t55 23t55 -23t23 -55zM193 -57q-8 -79 -72 -75q-84 5 -84 68q0 8 1 16q7 40 45 484q0 2 20 2q20 1 25 -1q9 -6 65 -494zM93 505v7q-26 21 -24 63q2 40 15 53l2 11q-11 -3 -24 -25t-13 -40q0 -21 14 -42.5t30 -26.5z
M110 397h-11l-39 -446q1 -15 5 -26q8 -26 24 -28l10 7q-25 16 -21 47z" />
    <glyph glyph-name="logicalnot" unicode="&#xac;" horiz-adv-x="440" 
d="M400 437l-1 -235h-75v160h-324v75h400z" />
    <glyph glyph-name="radical" unicode="&#x221a;" horiz-adv-x="690" 
d="M664 781l-428 -874l-129 350l-55 -63l-56 50l138 159l111 -304l351 716z" />
    <glyph glyph-name="florin" unicode="&#x192;" horiz-adv-x="955" 
d="M917 748q2 -6 -10.5 -29t-30.5 -37q-23 -19 -52 -25q-23 -5 -31 19q0 1 -7 47q-4 27 -18 27q-45 0 -111 -147q-16 -36 -16 -40q0 -7 26 -7h73q25 -2 25 -20q0 -9 -6 -20q-22 -42 -47 -42q-7 0 -16 3q-16 6 -48 31q-11 7 -20 7q-11 0 -17 -14q-7 -35 -82 -236
q-73 -195 -85 -216q-54 -96 -128 -141q-82 -51 -206 -51q-81 0 -96 41q-2 6 10.5 29t30.5 37q23 19 52 25q23 5 31 -19q0 -1 7 -47q4 -27 18 -27q45 0 111 147q19 42 167 458q2 7 -9 7q5 0 -40 0q-37 0 -21 -1q-13 1 -13 8q0 11 14 23q19 16 48 16q39 0 51 13l16 30
q54 96 128 141q82 51 206 51q81 0 96 -41zM677 722q10 2 10 12v0q0 14 -14 7q-73 -38 -95 -61q-39 -39 -92 -152l-1 -1q-57 -152 -100 -263q-103 -267 -117 -290q-2 -3 -2 -6q0 -15 16 -15q6 0 9 7q103 267 217 557q52 97 85 139q41 54 84 66z" />
    <glyph glyph-name="approxequal" unicode="&#x2248;" 
d="M522 497q0 -17 -35 -46q-77 -63 -142 -63q-45 0 -95.5 48.5t-84.5 48.5q-31 0 -76 -34.5t-48 -34.5q-19 0 -19 16q0 24 35 58q80 77 144 77q46 0 87 -25q10 -6 60 -47q30 -25 53 -25q26 0 62 22t43 22q16 0 16 -17zM240 543q-21 10 -63 4q-59 -10 -115 -83l16 3
q65 67 124 67q17 0 29 -5zM522 308q0 -17 -35 -46q-77 -63 -142 -63q-45 0 -95.5 48.5t-84.5 48.5q-31 0 -76 -34.5t-48 -34.5q-19 0 -19 16q0 24 35 58q80 77 144 77q46 0 87 -25q10 -6 60 -47q30 -25 53 -25q26 0 62 22t43 22q16 0 16 -17zM240 354q-21 10 -63 4
q-59 -10 -115 -83l16 3q65 67 124 67q17 0 29 -5z" />
    <glyph glyph-name="Delta" unicode="&#x2206;" horiz-adv-x="447" 
d="M436 151h-430l213 551zM363 200l-144 366l-141 -365z" />
    <glyph glyph-name="guillemotleft" unicode="&#xab;" horiz-adv-x="575" 
d="M544 166l-53 -53l-283 283l283 283l53 -53l-230 -230zM337 166l-53 -53l-283 283l283 283l53 -53l-230 -230z" />
    <glyph glyph-name="guillemotright" unicode="&#xbb;" horiz-adv-x="575" 
d="M341 396l-283 -283l-53 53l230 230l-230 230l53 53zM548 396l-283 -283l-53 53l230 230l-230 230l53 53z" />
    <glyph glyph-name="ellipsis" unicode="&#x2026;" horiz-adv-x="701" 
d="M665 78q0 -32 -23 -55t-55 -23t-55 23t-23 55t23 55t55 23t55 -23t23 -55zM422 78q0 -32 -23 -55t-55 -23t-55 23t-23 55t23 55t55 23t55 -23t23 -55zM187 78q0 -32 -23 -55t-55 -23t-55 23t-23 55t23 55t55 23t55 -23t23 -55zM571 7v7q-26 21 -24 63q2 40 15 53l2 11
q-11 -3 -24 -25t-13 -40q0 -22 14 -43.5t30 -25.5zM330 7v7q-26 21 -24 63q2 40 15 53l2 11q-11 -3 -24 -25t-13 -40q0 -22 14 -43.5t30 -25.5zM91 7v7q-26 21 -24 63q2 40 15 53l2 11q-11 -3 -24 -25t-13 -40q0 -22 14 -43.5t30 -25.5z" />
    <glyph glyph-name="nonbreakingspace" unicode="&#xa0;" horiz-adv-x="250" 
 />
    <glyph glyph-name="Agrave" unicode="&#xc0;" horiz-adv-x="882" 
d="M866 0q-127 5 -163 5q-33 0 -164 -5q-3 7 -12 27q-1 1 27 13t28 30q0 4 -2 10q-26 70 -76 157h-254l-82 -165q-3 -7 -3 -12q0 -13 30 -20q38 -10 47 -16q3 -2 3 -6q0 -8 -12 -18l-136 5q-15 0 -97 -5q3 7 12 27q0 1 31.5 9t41.5 29l254 545l-31 73l121 117l331 -714
q19 -41 91 -57q7 -16 15 -29zM636 37q3 6 3 14q0 19 -16 46l-264 588l-22 -10l263 -587q11 -18 11 -31q0 -26 -41 -27l6 -10q16 1 31 3q22 1 29 14zM470 312l-91 203l-94 -203h185zM359 558l-19 8l-219 -480q-27 -59 -67 -59l2 -9q15 0 41 16q31 20 43 45zM377 804
q-9 -27 -13 -21q-66 20 -172 54q-56 21 -56 61q0 11 4 22q8 23 28 23q8 0 60 -19q12 -4 33 -24q56 -42 116 -96zM202 849q-53 28 -48 68l-4 2q-4 -9 -4 -18q0 -19 13.5 -31t41.5 -25z" />
    <glyph glyph-name="Atilde" unicode="&#xc3;" horiz-adv-x="882" 
d="M866 0q-127 5 -163 5q-33 0 -164 -5q-3 7 -12 27q-1 1 27 13t28 30q0 4 -2 10q-26 70 -76 157h-254l-82 -165q-3 -7 -3 -12q0 -13 30 -20q38 -10 47 -16q3 -2 3 -6q0 -8 -12 -18l-136 5q-15 0 -97 -5q3 7 12 27q0 1 31.5 9t41.5 29l254 545l-31 73l121 117l331 -714
q19 -41 91 -57q7 -16 15 -29zM636 37q3 6 3 14q0 19 -16 46l-264 588l-22 -10l263 -587q11 -18 11 -31q0 -26 -41 -27l6 -10q16 1 31 3q22 1 29 14zM470 312l-91 203l-94 -203h185zM359 558l-19 8l-219 -480q-27 -59 -67 -59l2 -9q15 0 41 16q31 20 43 45zM602 933
q0 -17 -28 -46q-61 -63 -114 -63q-36 0 -76 48.5t-68 48.5q-24 0 -60.5 -34.5t-38.5 -34.5q-15 0 -15 16q0 24 28 58q64 77 115 77q37 0 70 -25q8 -6 47 -47q25 -25 43 -25q21 0 50 22t34 22q13 0 13 -17zM376 979q-16 10 -50 4q-47 -11 -92 -83l13 3q52 67 99 67
q14 0 23 -5z" />
    <glyph glyph-name="Otilde" unicode="&#xd5;" horiz-adv-x="790" 
d="M761 399q0 -158 -108.5 -280.5t-249.5 -122.5q-210 0 -316 137q-83 108 -83 262q0 140 80 255q104 153 301 153q144 0 259 -121q117 -124 117 -283zM640 373q0 85 -28 181q-37 122 -101 174l-8 -10q60 -49 90 -169q22 -88 22 -176q0 -76 -25 -163q-32 -108 -84 -148
l12 -8q56 44 92 152q30 91 30 167zM589 373q0 123 -41 235q-57 154 -166 154q-90 0 -149 -126q-49 -103 -49 -202q0 -114 39 -225q62 -173 192 -171q86 1 135 130q39 100 39 205zM204 66q-73 46 -115 144q-37 88 -37 183q0 209 152 333l-10 8q-85 -70 -124 -147
q-43 -84 -43 -194q0 -97 44 -186q46 -95 125 -147zM602 933q0 -17 -28 -46q-61 -63 -114 -63q-36 0 -76 48.5t-68 48.5q-24 0 -60.5 -34.5t-38.5 -34.5q-15 0 -15 16q0 24 28 58q64 77 115 77q37 0 70 -25q8 -6 47 -47q25 -25 43 -25q21 0 50 22t34 22q13 0 13 -17zM376 979
q-16 10 -50 4q-47 -11 -92 -83l13 3q52 67 99 67q14 0 23 -5z" />
    <glyph glyph-name="OE" unicode="&#x152;" horiz-adv-x="1231" 
d="M1204 169q0 -5 -8 -45l-11 -104q-3 -27 -19 -27q-188 0 -304 4q-205 7 -336 -1q-18 -1 -24 13q-45 -13 -86 -13q-210 0 -316 137q-83 108 -83 262q0 140 80 255q104 153 301 153q51 0 100 -17q6 10 34 15q16 3 43 3q12 0 112 -5q86 -3 154 -1q153 5 291 5q23 0 23 -38
v-81q0 -17 -1 -21q-4 -10 -19 -10q-14 0 -30.5 26t-46.5 53q-25 22 -141 22q-47 0 -91 -5q-34 -4 -45 -25q-8 -14 -8 -46v-190q0 -19 14.5 -33t32.5 -11q111 0 127 3q34 6 48 53q10 33 29 33q21 0 20 -26l-4 -86l4 -86q1 -28 -21 -28q-28 0 -31 18q-5 30 -7 32
q-8 11 -16 22.5t-17 13.5q-65 14 -147 6q-32 -3 -32 -81v-144q0 -49 9 -69q14 -30 62 -48q59 2 104 6q108 12 130 36q8 8 37 27q25 17 33 31q15 35 34 35q22 0 22 -23zM1129 711q-15 38 -84 63l-2 -10q56 -21 72 -77zM1005 376v76l-36 -32zM1155 82l-1 58q0 -32 -93 -86
l10 -8q21 5 37 10q39 12 47 26zM641 124v558q0 60 -47 77v-12q22 -21 22 -65v-558q0 -20 -26 -45q-20 -19 -35 -26l6 -8q80 43 80 79zM598 312v129q-14 124 -55 208q-56 113 -148 113q-90 0 -149 -126q-49 -103 -49 -202q0 -114 39 -225q62 -173 192 -171q72 1 120 96
q37 73 50 178zM223 66q-73 46 -115 144q-37 88 -37 183q0 209 152 333l-10 8q-85 -70 -124 -147q-43 -84 -43 -194q0 -97 44 -186q46 -95 125 -147z" />
    <glyph glyph-name="oe" unicode="&#x153;" horiz-adv-x="940" 
d="M935 115q2 -23 -15.5 -43t-34.5 -39q-9 -12 -63 -24q-59 -12 -123 -12q-126 0 -183 49q-8 7 -23 20q-89 -69 -204 -69t-198 66q-91 71 -91 184q0 109 97 183q89 68 200 68q109 0 186 -61q5 -3 14 -11q84 80 205 80q15 0 30 -2q48 -5 57 -7q39 -7 63 -26q34 -26 57 -83
q6 -14 6 -30q0 -27 -15 -45q-17 -21 -45 -21h-265q0 -26 -1 -60q9 -100 74 -133q79 -40 122 -40q30 0 61.5 13.5t55.5 45.5q21 28 22 28q8 0 11 -31zM804 420q-19 40 -70 40q-13 0 -32 -3q-50 -7 -95 -84q-13 -22 -13 -27h148q24 0 44.5 19t20.5 41q0 7 -3 14zM415 230
q1 101 -47 172q-41 60 -81 60q-58 0 -88 -67q-24 -53 -24 -120q0 -80 29 -150q37 -92 103 -92q106 0 108 197z" />
    <glyph glyph-name="endash" unicode="&#x2013;" horiz-adv-x="762" 
d="M730 362h-730v75h730v-75z" />
    <glyph glyph-name="emdash" unicode="&#x2014;" horiz-adv-x="1140" 
d="M1095 362h-1095v75h1095v-75z" />
    <glyph glyph-name="quotedblleft" unicode="&#x201c;" horiz-adv-x="415" 
d="M391 605q0 -32 -23 -55t-55 -23t-55 23t-23 55q0 22 12 41q42 68 93 142q14 0 25 -3q-4 -4 -27 -45q-27 -45 -27 -55q0 -2 2 -2q32 0 55 -23t23 -55zM181 605q0 -32 -23 -55t-55 -23t-55 23t-23 55q0 22 12 41q42 68 93 142q14 0 25 -3q-4 -4 -27 -45q-27 -45 -27 -55
q0 -2 2 -2q32 0 55 -23t23 -55zM85 538v7q-26 21 -24 63q2 40 15 53l2 11q-11 -3 -24 -25t-13 -40q0 -22 14 -43.5t30 -25.5zM296 538v7q-26 21 -24 63q2 40 15 53l2 11q-11 -3 -24 -25t-13 -40q0 -22 14 -43.5t30 -25.5z" />
    <glyph glyph-name="quotedblright" unicode="&#x201d;" horiz-adv-x="415" 
d="M381 721q0 -22 -12 -41q-42 -68 -93 -142q-13 1 -25 3q4 4 27 45q27 45 27 55q0 2 -2 2q-32 0 -55 23t-23 55t23 55t55 23t55 -23t23 -55zM171 721q0 -22 -12 -41q-42 -68 -93 -142q-13 1 -25 3q4 4 27 45q27 45 27 55q0 2 -2 2q-32 0 -55 23t-23 55t23 55t55 23t55 -23
t23 -55zM76 651v7q-26 21 -24 63q2 40 15 53l2 11q-11 -3 -24 -25t-13 -40q0 -22 14 -43.5t30 -25.5zM287 651v7q-26 21 -24 63q2 40 15 53l2 11q-11 -3 -24 -25t-13 -40q0 -22 14 -43.5t30 -25.5z" />
    <glyph glyph-name="quoteleft" unicode="&#x2018;" horiz-adv-x="233" 
d="M181 605q0 -32 -23 -55t-55 -23t-55 23t-23 55q0 22 12 41q42 68 93 142q14 0 25 -3q-4 -4 -27 -45q-27 -45 -27 -55q0 -2 2 -2q32 0 55 -23t23 -55zM85 538v7q-26 21 -24 63q2 40 15 53l2 11q-11 -3 -24 -25t-13 -40q0 -22 14 -43.5t30 -25.5z" />
    <glyph glyph-name="quoteright" unicode="&#x2019;" horiz-adv-x="215" 
d="M171 721q0 -22 -12 -41q-42 -68 -93 -142q-13 1 -25 3q4 4 27 45q27 45 27 55q0 2 -2 2q-32 0 -55 23t-23 55t23 55t55 23t55 -23t23 -55zM78 653v7q-26 21 -24 63q2 40 15 53l2 11q-11 -3 -24 -25t-13 -40q0 -21 14 -42.5t30 -26.5z" />
    <glyph glyph-name="divide" unicode="&#xf7;" horiz-adv-x="440" 
d="M283 582q0 -32 -23 -55t-55 -23t-55 23t-23 55t23 55t55 23t55 -23t23 -55zM400 362h-400v75h400v-75zM283 222q0 -32 -23 -55t-55 -23t-55 23t-23 55t23 55t55 23t55 -23t23 -55z" />
    <glyph glyph-name="lozenge" unicode="&#x25ca;" horiz-adv-x="605" 
d="M569 396l-283 -283q0 1 -1 0l-283 283l283 283v-1l1 1zM463 396l-177 177q-48 -47 -178 -177l177 -178z" />
    <glyph glyph-name="ydieresis" unicode="&#xff;" horiz-adv-x="637" 
d="M613 484q0 -17 -23 -21q-37 -7 -42 -9q-14 -7 -26 -36l-164 -387q-11 -28 -22 -57q-20 -49 -41 -78q-12 -17 -24 -33.5t-29 -26.5q-44 -27 -73 -27q-20 0 -38 10q-40 23 -40 75q0 39 23 68q31 39 80 39q48 0 78 -37q10 37 -3 65l-173 362q-12 26 -32.5 48t-31.5 24
t-21.5 5t-10.5 14q0 20 34 20q19 0 70.5 -3.5t71.5 -3.5q22 0 66 3.5t65 3.5q32 0 32 -18t-36 -21q-24 -2 -24 -37q0 -11 4 -22l69 -175q11 -29 19 -29q9 0 15 26l53 132q18 45 18 70q0 22 -15 30q-4 2 -26 5q-34 5 -33 19q1 20 25 20q15 0 44.5 -3.5t44.5 -3.5t44.5 3.5
t43.5 3.5q28 0 28 -18zM316 15q-15 27 -33 74q-20 52 -21 54l-122 253q-30 62 -67 74l-5 -4q17 -9 47 -70l123 -253q21 -43 58 -130zM158 -174v7q-26 21 -24 63q2 40 15 53l2 11q-11 -3 -24 -25t-13 -40q0 -21 14 -42.5t30 -26.5zM462 613q0 -25 -18 -43.5t-44 -18.5
q-25 0 -43.5 18.5t-18.5 43.5q0 26 18.5 44t43.5 18q26 0 44 -18t18 -44zM282 613q0 -25 -18 -43.5t-44 -18.5q-25 0 -43.5 18.5t-18.5 43.5q0 26 18.5 44t43.5 18q26 0 44 -18t18 -44zM373 579v3q-13 11 -12 32q1 20 7 26l1 6q-5 -2 -11.5 -13t-6.5 -20q0 -28 22 -34z
M193 579v3q-13 11 -12 32q1 20 7 26l1 6q-5 -2 -11.5 -13t-6.5 -20q0 -28 22 -34z" />
    <glyph glyph-name="Ydieresis" unicode="&#x178;" horiz-adv-x="880" 
d="M831 779q-1 -16 -22 -21q-15 -3 -31 -6q-32 -13 -64 -25q-46 -20 -69 -58l-161 -263v-235q0 -58 4 -74q8 -38 42 -50q50 -4 50 -24q0 -11 -17 -26q-29 0 -85.5 4t-93.5 3q-28 0 -145 -8q-11 -1 -19 6t-7 19q1 16 17 19q29 4 30 5q15 6 29 13t19 24.5t5 62.5l-1 197
l-189 344q-25 45 -71 64q-42 15 -42 33q0 10 15 20q26 0 75 -3.5t80 -3.5q29 0 169 8q11 1 19 -6t7 -19q-1 -16 -14 -19q-18 -5 -21 -8q-29 -30 -29 -36q0 -9 11 -31l120 -229l152 240q13 27 13 38q0 17 -48 19q-45 12 -45 30q0 10 15 20q32 0 77.5 -2.5t74.5 -2.5
q31 0 124 6q11 1 19 -6t7 -19zM706 772l-84 -2q15 -12 15 -24q0 -5 -3 -10zM360 80v277l-191 359q-19 36 -78 57l-12 -8q15 -9 27 -18q30 -22 41 -43l189 -354v-270q0 -37 -41 -42v-14q21 4 40 17q25 17 25 39zM582 893q0 -25 -18 -43.5t-44 -18.5q-25 0 -43.5 18.5
t-18.5 43.5q0 26 18.5 44t43.5 18q26 0 44 -18t18 -44zM402 893q0 -25 -18 -43.5t-44 -18.5q-25 0 -43.5 18.5t-18.5 43.5q0 26 18.5 44t43.5 18q26 0 44 -18t18 -44zM493 859v3q-13 11 -12 32q1 20 7 26l1 6q-5 -2 -11.5 -13t-6.5 -20q0 -28 22 -34zM313 859v3
q-13 11 -12 32q1 20 7 26l1 6q-5 -2 -11.5 -13t-6.5 -20q0 -28 22 -34z" />
    <glyph glyph-name="fraction" unicode="&#x2215;" horiz-adv-x="385" 
d="M356 740l-282 -740h-75l282 740h75z" />
    <glyph glyph-name="currency" unicode="&#xa4;" horiz-adv-x="618" 
d="M590 415q0 -97 -73 -168l69 -71l-53 -53l-76 79q-79 -45 -168 -45q-85 0 -158 39l-68 -69l-53 53l61 60q-71 69 -71 167q0 99 82 171l-75 74l53 53l85 -85q73 38 152 38q87 0 153 -39l71 72l53 -53q-32 -31 -65 -64q81 -77 81 -159zM459 390q0 160 -112 227l-4 -8
q25 -13 51 -55q40 -68 40 -164q0 -94 -21 -139q-12 -25 -44 -50l4 -6q37 21 54 47q32 51 32 148zM415 390q1 101 -47 172q-41 60 -81 60q-58 0 -88 -67q-24 -53 -24 -120q0 -80 29 -150q37 -92 103 -92q106 0 108 197zM150 592l-3 8q-41 -10 -81.5 -72t-42.5 -112
q-5 -142 117 -204l5 8q-100 51 -96 198q1 44 33 103q34 63 68 71z" />
    <glyph glyph-name="guilsinglleft" unicode="&#x2039;" horiz-adv-x="387" 
d="M361 166l-53 -53l-283 283l283 283l53 -53l-230 -230z" />
    <glyph glyph-name="guilsinglright" unicode="&#x203a;" horiz-adv-x="362" 
d="M341 396l-283 -283l-53 53l230 230l-230 230l53 53z" />
    <glyph glyph-name="fi" unicode="&#xf001;" horiz-adv-x="669" 
d="M639 27q3 -3 3 -7q0 -10 -15 -20q-31 0 -77.5 5.5t-71.5 5.5q-43 0 -111 -5q-4 -5 -9 -8q-31 0 -86.5 5.5t-80.5 5.5q-22 0 -157 -8q-11 -1 -19 6t-7 19q1 16 12.5 20t22.5 7q23 13 47 25q16 14 16 67v305q0 6 -12 7h-40q-28 0 -24 0q-15 1 -15 14q0 32 46 32q39 0 45 12
q2 16 3 31q12 96 65 141q60 51 183 51q37 0 78 -14q57 -21 66 -57q10 -39 -11 -66q-14 -18 -41 -25q-26 -6 -69.5 58.5t-57.5 64.5q-46 0 -46 -147q0 -37 2 -40q4 -7 29 -7h73q8 -1 15 -3q16 -6 20 -20q65 12 82 30q4 5 15 5q34 0 42.5 -14.5t8.5 -80.5v-249q0 -8 -1 -25
v-25q0 -62 41 -73q11 -3 36 -23zM406 646q-26 46 -56 58q8 -16 16 -29q19 -31 35 -39q6 -4 9 -4v0q4 0 -4 14zM444 151l-2 184q-1 72 -43 99l-5 -4q22 -18 23 -95l3 -184q1 -74 -61 -94l5 -5q81 20 80 99zM393 147l-1 221q2 19 -3 55q-8 0 -18 3q-19 6 -61 31q-15 7 -23 7
q-11 0 -11 -14v-279q0 -55 4 -72q7 -37 37 -49q8 2 13 5q23 13 47 25q16 14 16 67zM227 679l-4 12q-89 -58 -89 -189q0 -398 -2 -404q-17 -52 -57 -54l2 -10q30 1 55 24q18 16 24 32q3 8 3 412q0 74 28 128q20 37 40 49z" />
    <glyph glyph-name="fl" unicode="&#xf002;" horiz-adv-x="663" 
d="M639 25q3 -3 3 -7q0 -10 -15 -20q-31 0 -77.5 5.5t-71.5 5.5q-15 0 -113 -5q-3 -4 -7 -6q-31 0 -86.5 5.5t-80.5 5.5q-22 0 -157 -8q-11 -1 -19 6t-7 19q1 16 12.5 20t22.5 7q23 13 47 25q16 14 16 67v305q0 6 -12 7h-40q-28 0 -24 0q-15 1 -15 14q0 32 46 32q39 0 45 12
q2 16 3 31q12 96 65 141q60 51 183 51q30 0 58 -8q135 0 140 -9q8 -13 8 -61v-489q0 -8 -1 -25v-25q0 -62 41 -73q11 -3 36 -23zM393 612q-12 9 -36 51q-20 36 -35 36q-46 0 -46 -147q0 -37 2 -40q4 -7 29 -7h73q3 0 12 -2v103q0 4 1 6zM436 126v482q0 60 -51 75l-2 -12
q29 -19 29 -63v-482q0 -23 -19 -51.5t-37 -33.5l6 -8q22 6 46 34q28 31 28 59zM393 145l-1 278q-7 -1 -21 3q-19 5 -61 31q-15 7 -23 7q-11 0 -11 -14v-279q0 -55 4 -73q9 -39 41 -49q6 2 9 4q23 13 47 25q16 14 16 67zM227 679l-4 12q-89 -58 -89 -189q0 -398 -2 -404
q-17 -52 -57 -54l2 -10q30 1 55 24q18 16 24 32q3 8 3 412q0 74 28 128q20 37 40 49z" />
    <glyph glyph-name="daggerdbl" unicode="&#x2021;" horiz-adv-x="331" 
d="M325 431q0 -30 -53 -30l-69 25q-3 -5 -20 -10l-26 -284l-5 -5v1l-22 287q-5 2 -5 5l-63 -16q-57 0 -57 32q0 29 54 29l66 -27q1 2 3 2l-1 9q-2 19 6 44q-7 0 -7 2l1 3q-10 4 -14 24l-57 -19q-57 0 -57 32q0 29 54 29l60 -24q4 12 7 16q8 9 25 17l-18 104q0 30 4 41
q7 17 27 17q30 0 30 -52l-23 -111q5 -3 14 -8q6 -4 15 -20l66 17q30 0 42 -4q17 -7 17 -27q0 -30 -53 -30l-69 25q-6 -15 -8.5 -19t-8.5 -12q8 -27 7 -40l-1 -9h14l66 17q30 0 42 -4q17 -7 17 -27z" />
    <glyph glyph-name="periodcentered" unicode="&#x2219;" horiz-adv-x="221" 
d="M187 400q0 -32 -23 -55t-55 -23t-55 23t-23 55t23 55t55 23t55 -23t23 -55z" />
    <glyph glyph-name="quotesinglbase" unicode="&#x201a;" horiz-adv-x="209" 
d="M183 77q0 -22 -12 -41q-42 -68 -93 -142q-13 0 -25 3q4 4 27 45q27 45 27 55q0 2 -2 2q-32 0 -55 23t-23 55t23 55t55 23t55 -23t23 -55zM91 7v7q-26 21 -24 63q2 40 15 53l2 11q-11 -3 -24 -25t-13 -40q0 -22 14 -43.5t30 -25.5z" />
    <glyph glyph-name="quotedblbase" unicode="&#x201e;" horiz-adv-x="415" 
d="M393 77q0 -22 -12 -41q-42 -68 -93 -142q-13 0 -25 3q4 4 27 45q27 45 27 55q0 2 -2 2q-32 0 -55 23t-23 55t23 55t55 23t55 -23t23 -55zM183 77q0 -22 -12 -41q-42 -68 -93 -142q-13 0 -25 3q4 4 27 45q27 45 27 55q0 2 -2 2q-32 0 -55 23t-23 55t23 55t55 23t55 -23
t23 -55zM91 7v7q-26 21 -24 63q2 40 15 53l2 11q-11 -3 -24 -25t-13 -40q0 -22 14 -43.5t30 -25.5zM301 7v7q-26 21 -24 63q2 40 15 53l2 11q-11 -3 -24 -25t-13 -40q0 -22 14 -43.5t30 -25.5z" />
    <glyph glyph-name="perthousand" unicode="&#x2030;" horiz-adv-x="1245" 
d="M1194 167q-18 -59 -67 -92q-45 -30 -103 -30q-79 0 -141 57t-62 137q0 27 8 53q17 57 66 88q45 29 102 29q111 0 168 -94q34 -56 34 -111q0 -20 -5 -37zM788 167q-18 -59 -67 -92q-45 -30 -103 -30q-79 0 -141 57t-62 137q0 27 8 53q17 57 66 88q45 29 102 29
q111 0 168 -94q34 -56 34 -111q0 -20 -5 -37zM570 763l-278 -720h-68l251 649q-29 -15 -59 -30q-33 -16 -55 -21q20 -45 20 -85q0 -20 -5 -37q-18 -59 -67 -92q-45 -30 -103 -30q-78 0 -139 56q-64 58 -64 138q0 27 8 53q17 57 66 89q45 29 102 29q105 0 163 -87
q45 9 161 88h67zM1118 179q8 33 8 69q0 82 -26 101q-10 7 -13 7q-1 0 2 -4q20 -50 20 -90q0 -39 -13 -83q-19 -67 -68 -104l14 -4q17 11 31 26q34 35 45 82zM1081 188q11 39 11 76q0 44 -14 76q-13 29 -30 35q-8 3 -17 3q-29 0 -56 -37q-21 -29 -33 -69q-13 -44 -13 -92
q0 -86 47 -102q9 -3 18 -3q54 0 87 113zM948 374v7q-7 -1 -15 -2q-26 -8 -46 -26q-29 -27 -40 -69q-9 -32 -9 -54q0 -40 42 -112l4 11q-28 52 -28 104q0 93 92 141zM712 179q8 33 8 69q0 82 -26 101q-10 7 -12 7t1 -4q17 -47 17 -101q0 -38 -10 -72q-19 -67 -68 -104l14 -4
q18 11 31 26q34 35 45 82zM675 188q11 39 11 76q0 44 -14 76q-13 29 -30 35q-8 3 -17 3q-29 0 -56 -37q-21 -29 -33 -69q-13 -44 -13 -92q0 -86 47 -102q9 -3 18 -3q54 0 87 113zM301 532q8 33 8 69q0 82 -26 101q-9 7 -12 7q-2 0 2 -4q16 -47 16 -101q0 -38 -9 -72
q-20 -67 -69 -104l15 -4q17 11 31 26q33 35 44 82zM263 541q11 39 11 76q0 44 -14 76q-13 29 -30 35q-8 3 -17 3q-29 0 -56 -37q-21 -29 -33 -69q-13 -44 -13 -93q0 -86 46 -102q9 -3 18 -3q55 0 88 114zM543 374v7l-16 -2q-25 -8 -46 -26q-29 -27 -40 -69q-8 -32 -8 -54
q0 -40 41 -112l4 11q-28 52 -28 104q0 93 93 141zM128 731v7q-7 -1 -15 -2q-26 -8 -46 -27q-29 -26 -40 -69q-9 -31 -9 -53q0 -41 42 -112l4 11q-28 51 -28 104q0 92 92 141z" />
    <glyph glyph-name="Acircumflex" unicode="&#xc2;" horiz-adv-x="882" 
d="M866 0q-127 5 -163 5q-33 0 -164 -5q-3 7 -12 27q-1 1 27 13t28 30q0 4 -2 10q-26 70 -76 157h-254l-82 -165q-3 -7 -3 -12q0 -13 30 -20q38 -10 47 -16q3 -2 3 -6q0 -8 -12 -18l-136 5q-15 0 -97 -5q3 7 12 27q0 1 31.5 9t41.5 29l254 545l-31 73l121 117l331 -714
q19 -41 91 -57q7 -16 15 -29zM636 37q3 6 3 14q0 19 -16 46l-264 588l-22 -10l263 -587q11 -18 11 -31q0 -26 -41 -27l6 -10q16 1 31 3q22 1 29 14zM470 312l-91 203l-94 -203h185zM359 558l-19 8l-219 -480q-27 -59 -67 -59l2 -9q15 0 41 16q31 20 43 45zM590 803h-57
l-112 83l-112 -83h-56l122 196h92zM533 835l-86 75l-6 -11l86 -75zM395 962v20q0 3 -18 -8l-92 -147q23 3 17.5 3t92.5 132z" />
    <glyph glyph-name="Ecircumflex" unicode="&#xca;" horiz-adv-x="745" 
d="M705 169q0 -8 -3.5 -23.5t-4.5 -21.5l-11 -104q-3 -27 -19 -27q-80 0 -239 3.5t-239 3.5q-27 0 -81 -2t-81 -2q-26 0 -26 25q0 15 13 19q19 6 22 8q63 57 63 97v513q0 23 -13 51.5t-32 34.5q-56 17 -56 37q0 23 78 23q35 0 105.5 -3.5t105.5 -3.5q57 0 172.5 3t173.5 3
q23 0 23 -38v-90q0 -22 -20 -22q-14 0 -31 27t-46 52q-26 22 -141 22q-52 0 -91 -5q-32 -4 -42.5 -20.5t-10.5 -50.5v-190q0 -17 12.5 -30.5t28.5 -13.5q117 0 133 3q31 7 46 48q14 38 31 38q21 0 20 -26l-4 -86q0 -14 2 -43t2 -43q0 -28 -21 -28q-28 0 -31 17q-5 30 -7 33
q-7 10 -14 21q-10 12 -19 15q-27 7 -108 7q-48 0 -59.5 -12.5t-11.5 -63.5v-156q0 -111 94 -111q183 0 217 34q26 22 64 66q19 35 34 35q22 0 22 -23zM636 711q-15 38 -84 63l-2 -10q56 -21 72 -77zM512 376v76l-36 -32zM662 82l-1 58q0 -32 -93 -86l10 -8q21 5 37 10
q38 12 47 26zM148 124v558q0 60 -47 77v-12q22 -21 22 -65v-558q0 -20 -26 -45q-20 -19 -35 -26l6 -8q80 43 80 79zM530 823h-57l-112 83l-112 -83h-56l122 196h92zM473 855l-86 75l-6 -11l86 -75zM335 982v20q0 3 -18 -8l-92 -147q23 3 17.5 3t92.5 132z" />
    <glyph glyph-name="Aacute" unicode="&#xc1;" horiz-adv-x="882" 
d="M866 0q-127 5 -163 5q-33 0 -164 -5q-3 7 -12 27q-1 1 27 13t28 30q0 4 -2 10q-26 70 -76 157h-254l-82 -165q-3 -7 -3 -12q0 -13 30 -20q38 -10 47 -16q3 -2 3 -6q0 -8 -12 -18l-136 5q-15 0 -97 -5q3 7 12 27q0 1 31.5 9t41.5 29l254 545l-31 73l121 117l331 -714
q19 -41 91 -57q7 -16 15 -29zM636 37q3 6 3 14q0 19 -16 46l-264 588l-22 -10l263 -587q11 -18 11 -31q0 -26 -41 -27l6 -10q16 1 31 3q22 1 29 14zM470 312l-91 203l-94 -203h185zM359 558l-19 8l-219 -480q-27 -59 -67 -59l2 -9q15 0 41 16q31 20 43 45zM602 959
q4 -11 4 -22q0 -40 -56 -61q-37 -14 -172 -54q-4 -6 -13 21q2 6 57.5 49t58.5 47q10 10 33 24q52 19 60 19q20 0 28 -23zM558 964q-1 6 -19 0q-27 -6 -96 -65q2 0 7 -2q45 37 75 50q14 4 27 7q8 3 6 10z" />
    <glyph glyph-name="Edieresis" unicode="&#xcb;" horiz-adv-x="745" 
d="M705 169q0 -8 -3.5 -23.5t-4.5 -21.5l-11 -104q-3 -27 -19 -27q-80 0 -239 3.5t-239 3.5q-27 0 -81 -2t-81 -2q-26 0 -26 25q0 15 13 19q19 6 22 8q63 57 63 97v513q0 23 -13 51.5t-32 34.5q-56 17 -56 37q0 23 78 23q35 0 105.5 -3.5t105.5 -3.5q57 0 172.5 3t173.5 3
q23 0 23 -38v-90q0 -22 -20 -22q-14 0 -31 27t-46 52q-26 22 -141 22q-52 0 -91 -5q-32 -4 -42.5 -20.5t-10.5 -50.5v-190q0 -17 12.5 -30.5t28.5 -13.5q117 0 133 3q31 7 46 48q14 38 31 38q21 0 20 -26l-4 -86q0 -14 2 -43t2 -43q0 -28 -21 -28q-28 0 -31 17q-5 30 -7 33
q-7 10 -14 21q-10 12 -19 15q-27 7 -108 7q-48 0 -59.5 -12.5t-11.5 -63.5v-156q0 -111 94 -111q183 0 217 34q26 22 64 66q19 35 34 35q22 0 22 -23zM636 711q-15 38 -84 63l-2 -10q56 -21 72 -77zM512 376v76l-36 -32zM662 82l-1 58q0 -32 -93 -86l10 -8q21 5 37 10
q38 12 47 26zM148 124v558q0 60 -47 77v-12q22 -21 22 -65v-558q0 -20 -26 -45q-20 -19 -35 -26l6 -8q80 43 80 79zM507 898q0 -25 -18 -43.5t-44 -18.5q-25 0 -43.5 18.5t-18.5 43.5q0 26 18.5 44t43.5 18q26 0 44 -18t18 -44zM327 898q0 -25 -18 -43.5t-44 -18.5
q-25 0 -43.5 18.5t-18.5 43.5q0 26 18.5 44t43.5 18q26 0 44 -18t18 -44zM418 864v3q-13 11 -12 32q1 20 7 26l1 6q-5 -2 -11.5 -13t-6.5 -20q0 -28 22 -34zM238 864v3q-13 11 -12 32q1 20 7 26l1 6q-5 -2 -11.5 -13t-6.5 -20q0 -28 22 -34z" />
    <glyph glyph-name="Egrave" unicode="&#xc8;" horiz-adv-x="745" 
d="M705 169q0 -8 -3.5 -23.5t-4.5 -21.5l-11 -104q-3 -27 -19 -27q-80 0 -239 3.5t-239 3.5q-27 0 -81 -2t-81 -2q-26 0 -26 25q0 15 13 19q19 6 22 8q63 57 63 97v513q0 23 -13 51.5t-32 34.5q-56 17 -56 37q0 23 78 23q35 0 105.5 -3.5t105.5 -3.5q57 0 172.5 3t173.5 3
q23 0 23 -38v-90q0 -22 -20 -22q-14 0 -31 27t-46 52q-26 22 -141 22q-52 0 -91 -5q-32 -4 -42.5 -20.5t-10.5 -50.5v-190q0 -17 12.5 -30.5t28.5 -13.5q117 0 133 3q31 7 46 48q14 38 31 38q21 0 20 -26l-4 -86q0 -14 2 -43t2 -43q0 -28 -21 -28q-28 0 -31 17q-5 30 -7 33
q-7 10 -14 21q-10 12 -19 15q-27 7 -108 7q-48 0 -59.5 -12.5t-11.5 -63.5v-156q0 -111 94 -111q183 0 217 34q26 22 64 66q19 35 34 35q22 0 22 -23zM636 711q-15 38 -84 63l-2 -10q56 -21 72 -77zM512 376v76l-36 -32zM662 82l-1 58q0 -32 -93 -86l10 -8q21 5 37 10
q38 12 47 26zM148 124v558q0 60 -47 77v-12q22 -21 22 -65v-558q0 -20 -26 -45q-20 -19 -35 -26l6 -8q80 43 80 79zM367 839q-9 -27 -13 -21q-66 20 -172 54q-56 21 -56 61q0 11 4 22q8 23 28 23q8 0 60 -19q12 -4 33 -24q56 -42 116 -96zM192 884q-53 28 -48 68l-4 2
q-4 -9 -4 -18q0 -19 13.5 -31t41.5 -25z" />
    <glyph glyph-name="Iacute" unicode="&#xcd;" horiz-adv-x="403" 
d="M375 779q-1 -16 -14 -19q-18 -5 -21 -8l-44 -44q-22 -27 -22 -53v-484q0 -61 3 -75q8 -40 43 -49q48 -12 48 -30q0 -10 -15 -20q-31 0 -87 3.5t-80 3.5q-22 0 -157 -8q-11 -1 -19 6t-7 19q1 16 14 19q18 5 21 8q39 40 42 44q21 27 21 53l1 484q0 65 -2 76q-8 39 -42 48
q-48 12 -48 30q0 10 15 20q31 0 87 -3.5t80 -3.5q22 0 157 8q11 1 19 -6t7 -19zM154 690q0 60 -49 79l-8 -12q32 -20 32 -67l1 -558q0 -23 -14 -47t-28 -28l6 -14q15 8 34 32q25 30 25 57zM382 954q4 -11 4 -22q0 -40 -56 -61q-37 -14 -172 -54q-4 -6 -13 21q2 6 57.5 49
t58.5 47q10 10 33 24q52 19 60 19q20 0 28 -23zM338 959q-1 6 -19 0q-27 -6 -96 -65q2 0 7 -2q45 37 75 50q14 4 27 7q8 3 6 10z" />
    <glyph glyph-name="Icircumflex" unicode="&#xce;" horiz-adv-x="403" 
d="M375 779q-1 -16 -14 -19q-18 -5 -21 -8l-44 -44q-22 -27 -22 -53v-484q0 -61 3 -75q8 -40 43 -49q48 -12 48 -30q0 -10 -15 -20q-31 0 -87 3.5t-80 3.5q-22 0 -157 -8q-11 -1 -19 6t-7 19q1 16 14 19q18 5 21 8q39 40 42 44q21 27 21 53l1 484q0 65 -2 76q-8 39 -42 48
q-48 12 -48 30q0 10 15 20q31 0 87 -3.5t80 -3.5q22 0 157 8q11 1 19 -6t7 -19zM154 690q0 60 -49 79l-8 -12q32 -20 32 -67l1 -558q0 -23 -14 -47t-28 -28l6 -14q15 8 34 32q25 30 25 57zM370 838h-57l-112 83l-112 -83h-56l122 196h92zM313 870l-86 75l-6 -11l86 -75z
M175 997v20q0 3 -18 -8l-92 -147q23 3 17.5 3t92.5 132z" />
    <glyph glyph-name="Idieresis" unicode="&#xcf;" horiz-adv-x="403" 
d="M375 779q-1 -16 -14 -19q-18 -5 -21 -8l-44 -44q-22 -27 -22 -53v-484q0 -61 3 -75q8 -40 43 -49q48 -12 48 -30q0 -10 -15 -20q-31 0 -87 3.5t-80 3.5q-22 0 -157 -8q-11 -1 -19 6t-7 19q1 16 14 19q18 5 21 8q39 40 42 44q21 27 21 53l1 484q0 65 -2 76q-8 39 -42 48
q-48 12 -48 30q0 10 15 20q31 0 87 -3.5t80 -3.5q22 0 157 8q11 1 19 -6t7 -19zM154 690q0 60 -49 79l-8 -12q32 -20 32 -67l1 -558q0 -23 -14 -47t-28 -28l6 -14q15 8 34 32q25 30 25 57zM352 888q0 -25 -18 -43.5t-44 -18.5q-25 0 -43.5 18.5t-18.5 43.5q0 26 18.5 44
t43.5 18q26 0 44 -18t18 -44zM172 888q0 -25 -18 -43.5t-44 -18.5q-25 0 -43.5 18.5t-18.5 43.5q0 26 18.5 44t43.5 18q26 0 44 -18t18 -44zM263 854v3q-13 11 -12 32q1 20 7 26l1 6q-5 -2 -11.5 -13t-6.5 -20q0 -28 22 -34zM83 854v3q-13 11 -12 32q1 20 7 26l1 6
q-5 -2 -11.5 -13t-6.5 -20q0 -28 22 -34z" />
    <glyph glyph-name="Igrave" unicode="&#xcc;" horiz-adv-x="403" 
d="M375 779q-1 -16 -14 -19q-18 -5 -21 -8l-44 -44q-22 -27 -22 -53v-484q0 -61 3 -75q8 -40 43 -49q48 -12 48 -30q0 -10 -15 -20q-31 0 -87 3.5t-80 3.5q-22 0 -157 -8q-11 -1 -19 6t-7 19q1 16 14 19q18 5 21 8q39 40 42 44q21 27 21 53l1 484q0 65 -2 76q-8 39 -42 48
q-48 12 -48 30q0 10 15 20q31 0 87 -3.5t80 -3.5q22 0 157 8q11 1 19 -6t7 -19zM154 690q0 60 -49 79l-8 -12q32 -20 32 -67l1 -558q0 -23 -14 -47t-28 -28l6 -14q15 8 34 32q25 30 25 57zM262 839q-9 -27 -13 -21q-66 20 -172 54q-56 21 -56 61q0 11 4 22q8 23 28 23
q8 0 60 -19q12 -4 33 -24q56 -42 116 -96zM87 884q-53 28 -48 68l-4 2q-4 -9 -4 -18q0 -19 13.5 -31t41.5 -25z" />
    <glyph glyph-name="Oacute" unicode="&#xd3;" horiz-adv-x="790" 
d="M761 399q0 -158 -108.5 -280.5t-249.5 -122.5q-210 0 -316 137q-83 108 -83 262q0 140 80 255q104 153 301 153q144 0 259 -121q117 -124 117 -283zM640 373q0 85 -28 181q-37 122 -101 174l-8 -10q60 -49 90 -169q22 -88 22 -176q0 -76 -25 -163q-32 -108 -84 -148
l12 -8q56 44 92 152q30 91 30 167zM589 373q0 123 -41 235q-57 154 -166 154q-90 0 -149 -126q-49 -103 -49 -202q0 -114 39 -225q62 -173 192 -171q86 1 135 130q39 100 39 205zM204 66q-73 46 -115 144q-37 88 -37 183q0 209 152 333l-10 8q-85 -70 -124 -147
q-43 -84 -43 -194q0 -97 44 -186q46 -95 125 -147zM537 969q4 -11 4 -22q0 -40 -56 -61q-37 -14 -172 -54q-4 -6 -13 21q2 6 57.5 49t58.5 47q10 10 33 24q52 19 60 19q20 0 28 -23zM493 974q-1 6 -19 0q-27 -6 -96 -65q2 0 7 -2q45 37 75 50q14 4 27 7q8 3 6 10z" />
    <glyph glyph-name="Ocircumflex" unicode="&#xd4;" horiz-adv-x="790" 
d="M761 399q0 -158 -108.5 -280.5t-249.5 -122.5q-210 0 -316 137q-83 108 -83 262q0 140 80 255q104 153 301 153q144 0 259 -121q117 -124 117 -283zM640 373q0 85 -28 181q-37 122 -101 174l-8 -10q60 -49 90 -169q22 -88 22 -176q0 -76 -25 -163q-32 -108 -84 -148
l12 -8q56 44 92 152q30 91 30 167zM589 373q0 123 -41 235q-57 154 -166 154q-90 0 -149 -126q-49 -103 -49 -202q0 -114 39 -225q62 -173 192 -171q86 1 135 130q39 100 39 205zM204 66q-73 46 -115 144q-37 88 -37 183q0 209 152 333l-10 8q-85 -70 -124 -147
q-43 -84 -43 -194q0 -97 44 -186q46 -95 125 -147zM540 828h-57l-112 83l-112 -83h-56l122 196h92zM483 860l-86 75l-6 -11l86 -75zM345 987v20q0 3 -18 -8l-92 -147q23 3 17.5 3t92.5 132z" />
    <glyph glyph-name="apple" unicode="&#xf000;" horiz-adv-x="789" 
d="M567 777q0 -15 -3 -31q-8 -42 -34 -68q-30 -30 -68 -53q-7 -4 -56 -9q0 39 5 51q9 24 35 69q28 35 54 48q38 19 66 24q0 -5 1 -15v-16zM733 213q-23 -53 -47 -105q-20 -39 -62 -69q-21 -15 -56 -30q-30 -12 -36 -12q-26 0 -54 13q-43 20 -69 20q-25 0 -69 -20
q-37 -17 -71 -11q-37 6 -63 30q-60 54 -109 160q-41 88 -41 190q0 25 3 41q20 108 86 160q51 40 131 40q25 0 44 -5q7 -2 43 -17q25 -10 46 -10q22 0 47 11q36 14 42 16q19 5 45 5q81 0 131 -40q14 -11 38 -38q-46 -33 -67 -68q-27 -44 -26 -100q1 -55 33 -98q23 -31 43 -44
q19 -9 38 -19zM262 44q-68 61 -112.5 154.5t-44.5 180.5q0 53 24 103.5t66 83.5q5 4 5 10v0q0 7 -7 11t-14 -1q-46 -37 -72.5 -92.5t-26.5 -114.5q0 -93 46.5 -191t118.5 -163q4 -3 8 -3v0q8 0 12 7q4 8 -3 15z" />
    <glyph glyph-name="Ograve" unicode="&#xd2;" horiz-adv-x="790" 
d="M761 399q0 -158 -108.5 -280.5t-249.5 -122.5q-210 0 -316 137q-83 108 -83 262q0 140 80 255q104 153 301 153q144 0 259 -121q117 -124 117 -283zM640 373q0 85 -28 181q-37 122 -101 174l-8 -10q60 -49 90 -169q22 -88 22 -176q0 -76 -25 -163q-32 -108 -84 -148
l12 -8q56 44 92 152q30 91 30 167zM589 373q0 123 -41 235q-57 154 -166 154q-90 0 -149 -126q-49 -103 -49 -202q0 -114 39 -225q62 -173 192 -171q86 1 135 130q39 100 39 205zM204 66q-73 46 -115 144q-37 88 -37 183q0 209 152 333l-10 8q-85 -70 -124 -147
q-43 -84 -43 -194q0 -97 44 -186q46 -95 125 -147zM387 844q-9 -27 -13 -21q-66 20 -172 54q-56 21 -56 61q0 11 4 22q8 23 28 23q8 0 60 -19q12 -4 33 -24q56 -42 116 -96zM212 889q-53 28 -48 68l-4 2q-4 -9 -4 -18q0 -19 13.5 -31t41.5 -25z" />
    <glyph glyph-name="Uacute" unicode="&#xda;" horiz-adv-x="865" 
d="M841 786q0 -27 -38.5 -32t-51.5 -15q-18 -13 -18 -49v-405q0 -66 -17 -105q-13 -28 -54 -77q-46 -54 -116 -79q-50 -17 -131 -24q-28 -2 -51 -2q-119 0 -181 62q-49 49 -59 67q-29 49 -29 136v399q0 51 -17 68q-10 5 -21 10q-17 7 -35 14q-26 10 -26 28q0 13 11 15t22 3
q21 2 76 -1q66 -3 76 -3q11 0 48.5 3.5t57.5 3.5q30 0 45 -6q31 2 36 -11q1 -3 1 -6q0 -13 -19 -24q-11 -5 -22 -11q-12 -10 -23 -21q-15 -18 -15 -74v-311q0 -96 3 -118q10 -59 52 -98q32 -30 38 -34q20 -13 58 -17q10 -1 20 -1q78 0 139 61q34 34 47 67.5t13 88.5v386
q0 46 -15 55q-18 7 -37 14l-30 14q-21 11 -21 26q0 21 30 21q15 0 66 -2t66 -2q16 0 49 2t48 2q25 0 25 -18zM230 71q-80 46 -82 149v444q0 87 -76 110v-10q52 -31 52 -100v-444q3 -31 13 -58q26 -65 87 -101zM607 969q4 -11 4 -22q0 -40 -56 -61q-37 -14 -172 -54
q-4 -6 -13 21q2 6 57.5 49t58.5 47q10 10 33 24q52 19 60 19q20 0 28 -23zM563 974q-1 6 -19 0q-27 -6 -96 -65q2 0 7 -2q45 37 75 50q14 4 27 7q8 3 6 10z" />
    <glyph glyph-name="Ucircumflex" unicode="&#xdb;" horiz-adv-x="865" 
d="M841 786q0 -27 -38.5 -32t-51.5 -15q-18 -13 -18 -49v-405q0 -66 -17 -105q-13 -28 -54 -77q-46 -54 -116 -79q-50 -17 -131 -24q-28 -2 -51 -2q-119 0 -181 62q-49 49 -59 67q-29 49 -29 136v399q0 51 -17 68q-10 5 -21 10q-17 7 -35 14q-26 10 -26 28q0 13 11 15t22 3
q21 2 76 -1q66 -3 76 -3q11 0 48.5 3.5t57.5 3.5q30 0 45 -6q31 2 36 -11q1 -3 1 -6q0 -13 -19 -24q-11 -5 -22 -11q-12 -10 -23 -21q-15 -18 -15 -74v-311q0 -96 3 -118q10 -59 52 -98q32 -30 38 -34q20 -13 58 -17q10 -1 20 -1q78 0 139 61q34 34 47 67.5t13 88.5v386
q0 46 -15 55q-18 7 -37 14l-30 14q-21 11 -21 26q0 21 30 21q15 0 66 -2t66 -2q16 0 49 2t48 2q25 0 25 -18zM230 71q-80 46 -82 149v444q0 87 -76 110v-10q52 -31 52 -100v-444q3 -31 13 -58q26 -65 87 -101zM601 820h-57l-112 83l-112 -83h-56l122 196h92zM544 852l-86 75
l-6 -11l86 -75zM406 979v20q0 3 -18 -8l-92 -147q23 3 17.5 3t92.5 132z" />
    <glyph glyph-name="Ugrave" unicode="&#xd9;" horiz-adv-x="865" 
d="M841 786q0 -27 -38.5 -32t-51.5 -15q-18 -13 -18 -49v-405q0 -66 -17 -105q-13 -28 -54 -77q-46 -54 -116 -79q-50 -17 -131 -24q-28 -2 -51 -2q-119 0 -181 62q-49 49 -59 67q-29 49 -29 136v399q0 51 -17 68q-10 5 -21 10q-17 7 -35 14q-26 10 -26 28q0 13 11 15t22 3
q21 2 76 -1q66 -3 76 -3q11 0 48.5 3.5t57.5 3.5q30 0 45 -6q31 2 36 -11q1 -3 1 -6q0 -13 -19 -24q-11 -5 -22 -11q-12 -10 -23 -21q-15 -18 -15 -74v-311q0 -96 3 -118q10 -59 52 -98q32 -30 38 -34q20 -13 58 -17q10 -1 20 -1q78 0 139 61q34 34 47 67.5t13 88.5v386
q0 46 -15 55q-18 7 -37 14l-30 14q-21 11 -21 26q0 21 30 21q15 0 66 -2t66 -2q16 0 49 2t48 2q25 0 25 -18zM230 71q-80 46 -82 149v444q0 87 -76 110v-10q52 -31 52 -100v-444q3 -31 13 -58q26 -65 87 -101zM433 827q-9 -27 -13 -21q-66 20 -172 54q-56 21 -56 61
q0 11 4 22q8 23 28 23q8 0 60 -19q12 -4 33 -24q56 -42 116 -96zM258 872q-53 28 -48 68l-4 2q-4 -9 -4 -18q0 -19 13.5 -31t41.5 -25z" />
    <glyph glyph-name="dotlessi" unicode="&#x131;" horiz-adv-x="361" 
d="M343 25q3 -3 3 -7q0 -10 -15 -20q-31 0 -77.5 5.5t-71.5 5.5q-22 0 -157 -8q-11 -1 -19 6t-7 19q1 17 12.5 20.5t22.5 6.5q43 17 47 21q15 16 15 71v221q0 63 -60 61q-11 0 -11 7q0 6 6.5 14t9.5 5t73.5 18.5t86.5 38.5q4 5 15 5q34 0 42.5 -14.5t8.5 -80.5v-249
q0 -60 3 -76q7 -40 37 -47q11 -3 36 -23zM146 145v221q0 35 -8 49q-15 23 -59 21l-5 -4q47 1 47 -66v-221q0 -52 -12 -70q-9 -14 -40 -23l5 -5q39 9 48 18q24 20 24 80z" />
    <glyph glyph-name="circumflex" unicode="&#x2c6;" horiz-adv-x="333" 
d="M340 568h-57l-112 83l-112 -83h-56l122 196h92zM283 600l-86 75l-6 -11l86 -75zM145 727v20q0 3 -18 -8l-92 -147q23 3 17.5 3t92.5 132z" />
    <glyph glyph-name="tilde" unicode="&#x2dc;" horiz-adv-x="447" 
d="M417 708q0 -17 -28 -46q-61 -63 -114 -63q-36 0 -76 48.5t-68 48.5q-24 0 -60.5 -34.5t-38.5 -34.5q-15 0 -15 16q0 24 28 58q64 77 115 77q37 0 70 -25q8 -6 47 -47q25 -25 43 -25q21 0 50 22t34 22q13 0 13 -17zM191 754q-16 10 -50 4q-47 -11 -92 -83l13 3
q52 67 99 67q14 0 23 -5z" />
    <glyph glyph-name="macron" unicode="&#x2c9;" horiz-adv-x="333" 
d="M331 695h-330v72h330v-72z" />
    <glyph glyph-name="breve" unicode="&#x2d8;" horiz-adv-x="333" 
d="M318 776q-6 -80 -45 -131q-43 -57 -112 -57q-68 0 -106.5 53t-39.5 135h59q8 -43 14 -54q21 -33 79 -33q54 0 75 32q5 8 17 55h59z" />
    <glyph glyph-name="dotaccent" unicode="&#x2d9;" horiz-adv-x="221" 
d="M187 698q0 -32 -23 -55t-55 -23t-55 23t-23 55t23 55t55 23t55 -23t23 -55z" />
    <glyph glyph-name="ring" unicode="&#x2da;" horiz-adv-x="209" 
d="M185 701q0 -31 -22 -53t-53 -22t-53 22t-22 53t22 53t53 22t53 -22t22 -53zM144 701q0 34 -34 34t-34 -34t34 -34t34 34z" />
    <glyph glyph-name="cedilla" unicode="&#xb8;" horiz-adv-x="210" 
d="M202 -98q2 -36 -7 -53q-5 -12 -24.5 -28.5t-60.5 -16.5q-55 0 -71 13q-21 17 -20 27q1 9 4 12q1 0 9 -11t19.5 -16t21.5 -5q15 0 43 14.5t28 56.5q0 21 -7 36q-15 31 -34 36q-14 3 -28 -6t-15 -22q-1 -17 -10 -17q-7 0 -17 10q-6 12 -6 23q1 10 9 16l17 29h40l-13 -15h12
q40 1 73 -21q35 -25 37 -62z" />
    <glyph glyph-name="hungarumlaut" unicode="&#x2dd;" horiz-adv-x="479" 
d="M244 725q4 -11 4 -22q0 -40 -56 -61q-37 -14 -172 -54q-4 -6 -13 21q2 6 57.5 49t58.5 47q16 18 33 24q52 19 60 19q20 0 28 -23zM439 725q4 -11 4 -22q0 -40 -56 -61q-37 -14 -172 -54q-4 -6 -13 21q2 6 57.5 49t58.5 47q16 18 33 24q52 19 60 19q20 0 28 -23z" />
    <glyph glyph-name="ogonek" unicode="&#x2db;" horiz-adv-x="203" 
d="M192 -156q1 -10 -20 -27q-16 -13 -71 -13q-41 0 -60.5 16.5t-24.5 28.5q-9 17 -7 53q2 37 37 62q33 22 73 21h12l-13 15h40l17 -29q8 -6 9 -16q0 -11 -6 -23q-10 -10 -17 -10q-9 0 -10 17q-1 13 -15 22t-28 6q-19 -5 -34 -36q-7 -15 -7 -36q0 -42 28 -56.5t43 -14.5
q10 0 21.5 5t19.5 16t9 11q4 -5 4 -12z" />
    <glyph glyph-name="caron" unicode="&#x2c7;" horiz-adv-x="375" 
d="M359 704l-123 -201h-92l-122 201h56l112 -99l112 99h57z" />
    <glyph glyph-name="Lslash" unicode="&#x141;" horiz-adv-x="757" 
d="M723 145q0 -5 -3 -22q-5 -20 -5 -23l-11 -80q-4 -27 -19 -27q-188 0 -304 4q-202 7 -336 -1q-11 -1 -19 6t-7 19q1 16 14 19q18 5 21 8q39 40 42 44q21 26 21 53v255l-80 -38l-32 68l112 53v175q0 23 -13 52t-33 34t-30 10q-16 7 -23 20q-2 4 -2 7q0 14 35 20q16 3 42 3
q12 0 113 -5q86 -3 154 -1q1 -1 15 -12q9 -7 9 -15q0 -16 -39 -22q-35 -12 -45 -29q-8 -13 -8 -42v-113l76 36l32 -68l-108 -51v-308q0 -49 9 -68q14 -29 62 -47q62 -7 117 -7q96 0 117 23q8 8 37 27q25 17 33 31q15 35 34 35q22 0 22 -23zM675 120q0 -30 -96 -76l10 -8
l84 36zM160 132v558q0 60 -50 77v-8q27 -16 27 -69v-558q0 -21 -18.5 -48.5t-29.5 -32.5l12 -10q15 8 34 33q25 31 25 58z" />
    <glyph glyph-name="lslash" unicode="&#x142;" horiz-adv-x="421" 
d="M406 533l-115 -54v-308q0 -58 4 -77q8 -38 36 -46q11 -3 36 -23q3 -3 3 -7q0 -10 -15 -20q-31 0 -77.5 5.5t-71.5 5.5q-22 0 -157 -8q-11 -1 -19 6t-7 19q1 17 13 22q11 2 22 5q40 13 46 20q17 17 17 72l-1 253q-21 -9 -77 -36l-32 68q55 26 109 51v125q0 63 -60 61
q-11 0 -11 7q0 6 6.5 14t8.5 6q82 22 185 44q24 -1 33 -15.5t9 -62.5v-98l83 39zM172 134v478q0 61 -51 75l-2 -12q29 -19 29 -63v-478q0 -68 -56 -85l6 -8q74 21 74 93z" />
    <glyph glyph-name="Scaron" unicode="&#x160;" horiz-adv-x="617" 
d="M588 223q0 -46 -26 -95t-63 -80q-72 -60 -208 -60q-207 0 -262 27q-21 10 -24 28q1 -4 1 40v55q0 3 -2 20.5t-2 28.5q0 32 15 32q24 0 43 -65q6 -20 12 -39.5t22 -34.5q19 -19 95 -37q68 -17 102 -17q52 0 101 33q54 37 59 88q1 11 1 21q0 69 -45.5 115t-122.5 59
q-134 23 -196 75q-72 60 -73 178t106 173q78 41 193 41q37 0 103 -7q79 -8 99 -19q12 -6 15 -19q1 -4 1 -26v-92q0 -38 -20 -38q-18 0 -27 27q-14 43 -76 88t-111 45q-47 0 -88 -20q-51 -24 -64 -70q-3 -12 -3 -23q0 -91 200 -108q116 -10 186 -124q59 -95 59 -200zM492 726
q-17 31 -81 30q19 -6 78 -69q2 4 7 8t5 8q0 7 -9 23zM443 61q57 62 57 131t-54 126q-50 53 -109 63q-116 19 -189 68q-89 60 -89 151q0 46 22 97l-13 10q-28 -64 -28 -118q0 -122 139 -188q45 -21 157 -47q39 -9 83 -52q56 -55 56 -120q0 -58 -47 -118zM96 36q-42 17 -67 66
q2 -39 19 -60zM467 1028l-123 -201h-92l-122 201h56l112 -99l112 99h57z" />
    <glyph glyph-name="scaron" unicode="&#x161;" horiz-adv-x="460" 
d="M432 179q0 -84 -79 -139q-62 -43 -166 -43q-95 0 -148 30q-29 16 -29 41q0 19 14 35t33 16q8 0 16 -3q20 -9 29 -32q10 -26 22 -35q23 -16 83 -16q37 0 67 16q36 18 36 51q0 52 -86 78q-95 29 -135 52q-75 44 -75 109q0 73 70 120q63 42 141 42q71 0 145 -18
q29 -7 30 -41q1 -20 -11 -36t-31 -16q-8 0 -17 4q-20 8 -50 44q-24 28 -59 28q-33 0 -56 -12q-29 -15 -29 -45q0 -40 77 -64l57 -18q70 -22 104 -50q47 -38 47 -98zM362 429q0 4 -26 19q-29 16 -49 17q21 -21 54 -51q4 -2 7 -2q14 0 14 17zM349 87q1 8 1 15q0 68 -90 108
q-61 20 -122 41q-72 31 -72 90q0 38 26 73q18 25 35 36l-1 8q-36 -24 -48 -36q-37 -37 -36 -81q1 -66 77 -104q66 -24 131 -49q87 -39 79 -94q-5 -34 -44 -54l5 -6q55 28 59 53zM70 99q-1 1 -6 1q-33 -2 -33 -30q0 -16 23 -34l5 3q-15 18 -15 21q0 6 4 15q7 18 9.5 18.5
t7.5 2t5 3.5zM395 722l-123 -201h-92l-122 201h56l112 -99l112 99h57z" />
    <glyph glyph-name="Zcaron" unicode="&#x17d;" horiz-adv-x="944" 
d="M897 -68q0 -25 -18 -25q-27 0 -32 39q-7 54 -64 54l-751 -1q-11 9 -23 34q-2 20 33 45l538 651h-380q-39 0 -53 -10q-18 -13 -18 -53q0 -14 -11 -31q-13 -20 -29 -20q-21 0 -21 30q0 15 4.5 36t4.5 36q0 16 -4.5 49t-4.5 48q0 25 18 25q14 0 23 -13t9 -26h66
q657 4 673 -3t26 -20.5t10 -18.5q0 -13 -10.5 -22.5t-21.5 -18.5l-555 -643l461 -1q39 0 52 9q17 12 17 52q0 14 12 32.5t28 18.5q21 0 21 -30q0 -15 -2 -63t-2 -63q0 -16 2 -49t2 -48zM857 118q-3 -15 -25 -40.5t-39 -31.5q5 -2 9 -2q7 0 18.5 8t18.5 10q18 8 18 56z
M111 716q-1 20 -8.5 42.5t-11.5 21.5q0 -107 -3 -111t-2 -11q2 -7 5 -6q4 2 12.5 24.5t7.5 39.5zM655 729l-37 -1l-572 -680h34zM629 1028l-123 -201h-92l-122 201h56l112 -99l112 99h57z" />
    <glyph glyph-name="zcaron" unicode="&#x17e;" horiz-adv-x="480" 
d="M466 21q3 -23 -24 -23q-38 0 -113 1t-113 1q-30 0 -88.5 -1t-87.5 -1q-25 0 -25 15q0 7 19 39l218 369q18 23 18 32q0 7 -39 7q-45 -9 -90 -17q-42 -14 -67 -75q-6 -21 -20 -21q-26 0 -20 45q5 25 5 40q0 16 -5 43q-3 25 22 25h209q162 -1 152 -1q39 0 29 1q19 -2 19 -15
q0 -11 -14 -30l-219 -376q-17 -21 -17 -32q0 -9 32 -8q89 2 109 9q44 15 70 80q6 21 20 21q26 0 20 -45q-5 -25 -5 -40q0 -16 5 -43zM78 440q-1 18 -7 30t-11 10q0 -81 -4 -86.5t-3 -12.5q2 -7 5 -5q4 2 12.5 24.5t7.5 39.5zM430 104q-3 -16 -25 -41t-39 -31q5 -2 9 -2
q7 0 17 6q14 9 20 12q19 7 18 56zM296 461l-11 -4q-2 -13 -8 -28q-13 -38 -41 -85l-165 -279q-9 -18 -18.5 -34.5t-17.5 -15.5l14 2q11 -1 18.5 5t22.5 31l167 279q40 67 40 116q0 8 -1 13zM413 746l-123 -201h-92l-122 201h56l112 -99l112 99h57z" />
    <glyph glyph-name="brokenbar" unicode="&#xa6;" horiz-adv-x="118" 
d="M98 466h-74l-1 334h75v-334zM98 0h-75l1 386h74v-386z" />
    <glyph glyph-name="Eth" unicode="&#xd0;" horiz-adv-x="842" 
d="M807 404q0 -166 -134 -285q-128 -113 -304 -125q-30 -2 -64 -2v0q-27 0 -126 4q-77 3 -125 0q-12 -1 -22.5 6t-9.5 19q1 16 17 19q21 5 24 8q42 43 42 97v249l-68 -32l-32 68q23 11 100 47v181q0 58 -27 65q-8 2 -23 -2.5t-19 -4.5q-15 0 -15 18q0 20 24 34q34 20 117 26
q30 3 189 8q70 2 162 -20q87 -21 126 -47q168 -111 168 -331zM665 431q0 116 -62 208q-58 84 -141 113l-2 -12q79 -32 129 -113q52 -85 52 -193q0 -115 -33 -211q-37 -109 -108 -158l4 -8q84 44 125 156q36 95 36 218zM613 433q0 148 -86 233q-81 81 -215 81q-32 0 -32 -81
v-107q24 12 88 42l32 -68l-120 -57v-344q0 -100 59 -100q140 0 213 134q61 110 61 267zM154 124v558q0 60 -49 75v-10q24 -21 24 -65l1 -558q0 -22 -14.5 -50.5t-23.5 -32.5l6 -8q14 8 33 33q23 31 23 58z" />
    <glyph glyph-name="eth" unicode="&#xf0;" horiz-adv-x="473" 
d="M456 323q-3 -139 -58 -247q-65 -127 -169 -127q-89 0 -157 75.5t-68 170.5q0 33 9 64q21 78 86 128t145 54q1 5 1 11q0 23 -21 59l-151 -71l-32 68l137 65q-47 58 -115 118l44 90q43 -34 172 -160l125 58l32 -68l-104 -49q126 -149 124 -239zM326 377q-3 11 -9 11v0
q-9 0 -5 -14q15 -45 15 -110q0 -72 -18 -133q-19 -68 -54 -99q-7 -5 -6 -9q1 -5 7 -5q5 0 11 5q78 67 78 225q0 72 -19 129zM239 371q-38 -28 -54 -58q-13 -24 -31 -92q-7 -25 -7 -58q0 -54 16 -96q17 -46 43 -46q11 0 24 10q34 28 57 107q21 72 21 144q0 101 -41 101
q-12 0 -28 -12zM190 397q8 3 8 8q0 12 -16 5q-62 -28 -105 -87q-45 -62 -45 -126q0 -74 45 -142q40 -63 92 -84q16 -6 16 5q0 5 -8 9q-44 18 -81 79q-41 66 -41 135q0 17 3 33q17 98 132 165z" />
    <glyph glyph-name="Yacute" unicode="&#xdd;" horiz-adv-x="880" 
d="M831 779q-1 -16 -22 -21q-15 -3 -31 -6q-32 -13 -64 -25q-46 -20 -69 -58l-161 -263v-235q0 -58 4 -74q8 -38 42 -50q50 -4 50 -24q0 -11 -17 -26q-29 0 -85.5 4t-93.5 3q-28 0 -145 -8q-11 -1 -19 6t-7 19q1 16 17 19q29 4 30 5q15 6 29 13t19 24.5t5 62.5l-1 197
l-189 344q-25 45 -71 64q-42 15 -42 33q0 10 15 20q26 0 75 -3.5t80 -3.5q29 0 169 8q11 1 19 -6t7 -19q-1 -16 -14 -19q-18 -5 -21 -8q-29 -30 -29 -36q0 -9 11 -31l120 -229l152 240q13 27 13 38q0 17 -48 19q-45 12 -45 30q0 10 15 20q32 0 77.5 -2.5t74.5 -2.5
q31 0 124 6q11 1 19 -6t7 -19zM706 772l-84 -2q15 -12 15 -24q0 -5 -3 -10zM360 80v277l-191 359q-19 36 -78 57l-12 -8q15 -9 27 -18q30 -22 41 -43l189 -354v-270q0 -37 -41 -42v-14q21 4 40 17q25 17 25 39zM646 959q4 -11 4 -22q0 -40 -56 -61q-37 -14 -172 -54
q-4 -6 -13 21q2 6 57.5 49t58.5 47q10 10 33 24q52 19 60 19q20 0 28 -23zM602 964q-1 6 -19 0q-27 -6 -96 -65q2 0 7 -2q45 37 75 50q14 4 27 7q8 3 6 10z" />
    <glyph glyph-name="yacute" unicode="&#xfd;" horiz-adv-x="637" 
d="M613 484q0 -17 -23 -21q-37 -7 -42 -9q-14 -7 -26 -36l-164 -387q-11 -28 -22 -57q-20 -49 -41 -78q-12 -17 -24 -33.5t-29 -26.5q-44 -27 -73 -27q-20 0 -38 10q-40 23 -40 75q0 39 23 68q31 39 80 39q48 0 78 -37q10 37 -3 65l-173 362q-12 26 -32.5 48t-31.5 24
t-21.5 5t-10.5 14q0 20 34 20q19 0 70.5 -3.5t71.5 -3.5q22 0 66 3.5t65 3.5q32 0 32 -18t-36 -21q-24 -2 -24 -37q0 -11 4 -22l69 -175q11 -29 19 -29q9 0 15 26l53 132q18 45 18 70q0 22 -15 30q-4 2 -26 5q-34 5 -33 19q1 20 25 20q15 0 44.5 -3.5t44.5 -3.5t44.5 3.5
t43.5 3.5q28 0 28 -18zM316 15q-15 27 -33 74q-20 52 -21 54l-122 253q-30 62 -67 74l-5 -4q17 -9 47 -70l123 -253q21 -43 58 -130zM158 -174v7q-26 21 -24 63q2 40 15 53l2 11q-11 -3 -24 -25t-13 -40q0 -21 14 -42.5t30 -26.5zM574 665q4 -11 4 -22q0 -40 -56 -61
q-37 -14 -172 -54q-4 -6 -13 21q2 6 57.5 49t58.5 47q10 10 33 24q52 19 60 19q20 0 28 -23zM530 670q-1 6 -19 0q-27 -6 -96 -65q2 0 7 -2q45 37 75 50q14 4 27 7q8 3 6 10z" />
    <glyph glyph-name="Thorn" unicode="&#xde;" horiz-adv-x="696" 
d="M662 385q0 -104 -77 -183t-180 -79q-53 0 -74 3q-37 6 -64 26v-44q-4 -25 -4 -44q0 -66 48 -79q11 -3 36 -23q3 -3 3 -7q0 -10 -15 -20q-31 0 -79.5 5.5t-73.5 5.5q-22 0 -157 -8q-11 -1 -19 6t-7 19q1 16 12.5 20t22.5 7q23 13 47 25q16 14 16 67l-1 587q0 63 -60 61
q-11 0 -11 7q0 6 6.5 14t8.5 6q82 22 185 44q24 -1 33 -15.5t12 -92.5q3 -72 0 -89q46 32 141 32q104 0 177.5 -73.5t73.5 -177.5zM560 380q-2 102 -43 155q-14 18 -54 41l-4 -7q75 -40 77 -189q2 -146 -67 -205l8 -4q43 38 52 54q33 53 31 155zM510 381q0 200 -135 204
q-61 2 -83 -19t-22 -84l1 -218q0 -44 38 -72q35 -26 84 -27q62 -1 93 73q24 58 24 143zM145 67v603q0 60 -51 75l-2 -12q29 -19 29 -63v-603q0 -68 -56 -85l6 -8q74 21 74 93z" />
    <glyph glyph-name="thorn" unicode="&#xfe;" horiz-adv-x="696" 
d="M662 250q0 -104 -77 -183t-180 -79q-53 0 -74 3q-37 6 -64 26v-44q-4 -25 -4 -44q0 -66 48 -79q11 -3 36 -23q3 -3 3 -7q0 -10 -15 -20q-31 0 -79.5 5.5t-73.5 5.5q-22 0 -157 -8q-11 -1 -19 6t-7 19q1 16 12.5 20t22.5 7q23 13 47 25q16 14 16 67l-1 587q0 63 -60 61
q-11 0 -11 7q0 6 6.5 14t8.5 6q82 22 185 44q24 -1 33 -15.5t12 -92.5q3 -72 0 -89q46 32 141 32q104 0 177.5 -73.5t73.5 -177.5zM560 249q-2 102 -43 154q-14 18 -54 42l-4 -7q75 -40 77 -189q2 -146 -67 -205l8 -4q43 38 52 53q33 54 31 156zM510 246q0 200 -135 204
q-61 2 -83 -19t-22 -84l1 -218q0 -44 38 -72q35 -26 84 -27q62 -1 93 73q24 58 24 143zM145 -64v602q0 61 -51 75l-2 -12q29 -19 29 -63v-602q0 -68 -56 -85l6 -8q74 21 74 93z" />
    <glyph glyph-name="minus" unicode="&#x2212;" horiz-adv-x="386" 
d="M350 362h-350v75h350v-75z" />
    <glyph glyph-name="multiply" unicode="&#xd7;" horiz-adv-x="440" 
d="M367 284l-53 -53l-115 116l-115 -115l-53 53l115 115l-115 114l53 53l115 -114l115 115l53 -53l-115 -115z" />
    <glyph glyph-name="onesuperior" unicode="&#xb9;" horiz-adv-x="203" 
d="M184 435q0 -5 -7 -10q-16 0 -39 2.5t-36 3.5q-11 0 -78 -4q-6 -1 -10 2.5t-3 9.5q0 8 6 10t11 4q21 8 23 10q9 8 9 36v221q0 7 -4 7q-2 0 -15.5 -5.5t-24.5 -5.5q-6 0 -7 5q-1 4 1 9t3.5 4t43.5 22t50 32q4 4 18 3q13 0 16 -4q4 -7 4 -40v-235v-38q3 -19 21 -24.5
t18 -14.5zM84 489v216q0 30 -26 37l-1 -6q15 -9 15 -31v-216q0 -30 -31 -39l4 -4q39 11 39 43z" />
    <glyph glyph-name="twosuperior" unicode="&#xb2;" horiz-adv-x="281" 
d="M255 707q0 -45 -60 -94l-68 -56q-21 -17 -19 -34q2 -10 23 -10h73q15 0 19.5 4.5t9.5 22.5q3 11 10 11q10 0 8 -28q-3 -22 -3 -34q0 -15 3 -41q1 -16 -2 -19t-17 -3h-206q-20 0 -20 10q0 7 16 30l79 108q56 77 56 120q0 28 -16 49.5t-41 21.5q-43 0 -53 -43q-1 -5 7 -11
t9 -13q5 -16 -6 -27q-7 -8 -22 -8q-16 0 -24 10.5t-2 37.5q8 30 37 55q35 31 100 31q42 0 69 -18q40 -27 40 -72zM40 673q-23 17 -23 30q0 5 -1 2t-1 -8q0 -26 25 -24zM183 694q0 31 -17 54.5t-44 23.5q-6 0 -7 -4q0 -3 6 -3q21 0 35.5 -22t14.5 -49q0 -41 -55 -116
l-79 -108q-16 -22 -16 -27q0 -13 24 20l79 107q59 80 59 124z" />
    <glyph glyph-name="threesuperior" unicode="&#xb3;" horiz-adv-x="288" 
d="M254 561q0 -137 -193 -137q-21 0 -37 9q-19 10 -19 30q0 28 30 28q28 0 36.5 -17.5t17 -19t16.5 -1.5q65 0 69 60q3 46 -34 74q-19 15 -65 32v9q65 21 65 69q0 67 -42 67q-16 0 -20.5 -22.5t-33.5 -26.5q-12 -2 -21 7t-9 22q0 49 115 49q95 0 95 -65q0 -40 -52 -73
q39 -16 55 -31q27 -23 27 -63zM160 713q0 46 -44 61q-5 2 -6 -3l18 -10q21 -21 21 -55q2 -12 -5 -32t-14 -24l6 -2q-1 -1 -1 -2v0q25 28 25 67zM48 723q-23 17 -23 30q0 5 -1 2t-1 -9q0 -25 25 -23zM195 511q5 80 -89 113q-6 2 -7 -2t5 -6q24 -8 32 -14q14 -13 28 -25
q21 -18 21 -55q0 -67 -66 -76q-4 0 -6 -1q-1 -1 0 -3q1 -1 5 -1q21 -3 45 14q29 21 32 56zM52 431q-9 7 -19 14q-14 14 -11 32q-5 -11 -5 -17q0 -21 35 -29z" />
    <glyph glyph-name="onehalf" unicode="&#xbd;" horiz-adv-x="361" 
d="M254 451q0 -5 -7 -10q-16 0 -39 2.5t-36 3.5q-11 0 -78 -4q-6 -1 -10 2.5t-3 9.5q0 8 6 10t11 4q21 8 23 10q9 8 9 36v221q0 7 -4 7q-2 0 -15.5 -5.5t-24.5 -5.5q-6 0 -7 5q-1 4 1 9t3.5 4t43.5 22t50 32q4 4 18 3q13 0 16 -4q4 -7 4 -40v-235v-38q3 -19 21 -24.5
t18 -14.5zM154 505v216q0 30 -26 37l-1 -6q15 -9 15 -31v-216q0 -30 -31 -39l4 -4q39 11 39 43zM279 279q0 -45 -60 -94l-68 -56q-21 -17 -19 -34q2 -10 23 -10h73q15 0 19.5 4.5t9.5 22.5q3 11 10 11q10 0 8 -28q-3 -22 -3 -34q0 -15 3 -41q1 -16 -2 -19t-17 -3h-206
q-20 0 -20 10q0 7 16 30l79 108q56 77 56 120q0 28 -16 49.5t-41 21.5q-43 0 -53 -43q-1 -5 7 -11t9 -13q5 -16 -6 -27q-7 -8 -22 -8q-16 0 -24 10.5t-2 37.5q8 30 37 55q35 31 100 31q42 0 69 -18q40 -27 40 -72zM64 245q-23 17 -23 30q0 5 -1 2t-1 -8q0 -26 25 -24z
M207 266q0 31 -17 54.5t-44 23.5q-6 0 -7 -4q0 -3 6 -3q21 0 35.5 -22t14.5 -49q0 -41 -55 -116l-79 -108q-16 -22 -16 -27q0 -13 24 20l79 107q59 80 59 124zM300 376h-272v47h272v-47z" />
    <glyph glyph-name="onequarter" unicode="&#xbc;" horiz-adv-x="337" 
d="M285 23q4 -5 -5 -12q-14 0 -35 2.5t-32 2.5q-10 0 -71 -3q-5 -1 -8.5 2t-3.5 9q1 7 6 9t10 3q20 9 21 10q7 7 7 31q1 75 0 73h-145l-1 34l169 183l27 -21l-151 -162h101v86l41 42q17 -4 36 -13v-115h32v-34h-32v-61q0 -49 18 -55q5 -2 16 -11zM199 344q4 4 1 7t-7 -2
l-130 -141q-4 -4 -1 -7t7 1zM196 270q0 6 -6 6q-5 0 -5 -6l-1 -195q0 -33 -22 -40q-6 -2 -4 -5q2 -4 7 -2q23 8 28 28q2 9 3 19v195zM254 451q0 -5 -7 -10q-16 0 -39 2.5t-36 3.5q-11 0 -78 -4q-6 -1 -10 2.5t-3 9.5q0 8 6 10t11 4q21 8 23 10q9 8 9 36v221q0 7 -4 7
q-2 0 -15.5 -5.5t-24.5 -5.5q-6 0 -7 5q-1 4 1 9t3.5 4t43.5 22t50 32q4 4 18 3q13 0 16 -4q4 -7 4 -40v-235v-38q3 -19 21 -24.5t18 -14.5zM154 505v216q0 30 -26 37l-1 -6q15 -9 15 -31v-216q0 -30 -31 -39l4 -4q39 11 39 43zM300 376h-272v47h272v-47z" />
    <glyph glyph-name="threequarters" unicode="&#xbe;" horiz-adv-x="319" 
d="M256 573q0 -137 -193 -137q-21 0 -37 9q-19 10 -19 30q0 28 30 28q28 0 36.5 -17.5t17 -19t16.5 -1.5q65 0 69 60q3 46 -34 74q-19 15 -65 32v9q65 21 65 69q0 67 -42 67q-16 0 -20.5 -22.5t-33.5 -26.5q-12 -2 -21 7t-9 22q0 49 115 49q95 0 95 -65q0 -40 -52 -73
q39 -16 55 -31q27 -23 27 -63zM162 725q0 46 -44 61q-5 2 -6 -3l18 -10q21 -21 21 -55q2 -12 -5 -32t-14 -24l6 -2q-1 -1 -1 -2v0q25 28 25 67zM50 735q-23 17 -23 30q0 5 -1 2t-1 -9q0 -25 25 -23zM197 523q5 80 -89 113q-6 2 -7 -2t5 -6q24 -8 32 -14q14 -13 28 -25
q21 -18 21 -55q0 -67 -66 -76q-4 0 -6 -1q-1 -1 0 -3q1 -1 5 -1q21 -3 45 14q29 21 32 56zM54 443q-9 7 -19 14q-14 14 -11 32q-5 -11 -5 -17q0 -21 35 -29zM265 23q4 -5 -5 -12q-14 0 -35 2.5t-32 2.5q-10 0 -71 -3q-5 -1 -8.5 2t-3.5 9q1 7 6 9t10 3q20 9 21 10q7 7 7 31
q1 75 0 73h-145l-1 34l169 183l27 -21l-151 -162h101v86l41 42q17 -4 36 -13v-115h32v-34h-32v-61q0 -49 18 -55q5 -2 16 -11zM179 344q4 4 1 7t-7 -2l-130 -141q-4 -4 -1 -7t7 1zM176 270q0 6 -6 6q-5 0 -5 -6l-1 -195q0 -33 -22 -40q-6 -2 -4 -5q2 -4 7 -2q23 8 28 28
q2 9 3 19v195zM280 376h-272v47h272v-47z" />
    </font>
</defs>
</svg>
